<?xml version="1.0" encoding="utf-8"?>
<!-- Generator: Adobe Illustrator 19.0.0, SVG Export Plug-In . SVG Version: 6.00 Build 0)  -->
<svg version="1.1" id="图层_1" xmlns="http://www.w3.org/2000/svg" xmlns:xlink="http://www.w3.org/1999/xlink" x="0px" y="0px"
	 viewBox="32 -232 1024 1024" style="enable-background:new 32 -232 1024 1024;" xml:space="preserve">
<g id="XMLID_614_">
	<g id="XMLID_947_">
		<path id="XMLID_1334_" d="M771.3,119.5H316.8c-9.5,0-17.2-7.7-17.2-17.2s7.7-17.2,17.2-17.2h454.5c9.5,0,17.2,7.7,17.2,17.2
			S780.8,119.5,771.3,119.5z"/>
	</g>
	<g id="XMLID_852_">
		<path id="XMLID_1333_" d="M771.3,265.1H316.8c-9.5,0-17.2-7.7-17.2-17.2s7.7-17.2,17.2-17.2h454.5c9.5,0,17.2,7.7,17.2,17.2
			S780.8,265.1,771.3,265.1z"/>
	</g>
	<g id="XMLID_869_">
		<path id="XMLID_1332_" d="M544,410.7H316.8c-9.5,0-17.2-7.7-17.2-17.2c0-9.5,7.7-17.2,17.2-17.2H544c9.5,0,17.2,7.7,17.2,17.2
			C561.2,403,553.5,410.7,544,410.7z"/>
	</g>
	<g id="XMLID_945_">
		<path id="XMLID_1329_" d="M952,642.5H136c-9.5,0-17.2-7.7-17.2-17.2V-65.3c0-9.5,7.7-17.2,17.2-17.2h816c9.5,0,17.2,7.7,17.2,17.2
			v690.6C969.2,634.8,961.5,642.5,952,642.5z M153.2,608.1h781.6V-48.1H153.2V608.1z"/>
	</g>
</g>
</svg>
