<?xml version="1.0" encoding="utf-8"?>
<!-- Generator: Adobe Illustrator 19.0.0, SVG Export Plug-In . SVG Version: 6.00 Build 0)  -->
<svg version="1.1" id="图层_1" xmlns="http://www.w3.org/2000/svg" xmlns:xlink="http://www.w3.org/1999/xlink" x="0px" y="0px"
	 viewBox="32 -232 1024 1024" style="enable-background:new 32 -232 1024 1024;" xml:space="preserve">
<g id="XMLID_1336_">
	<g id="XMLID_939_">
		<path id="XMLID_1322_" d="M771.3,119.5H316.7c-9.5,0-17.2-7.7-17.2-17.2s7.7-17.2,17.2-17.2h454.5c9.5,0,17.2,7.7,17.2,17.2
			S780.8,119.5,771.3,119.5z"/>
	</g>
	<g id="XMLID_938_">
		<path id="XMLID_1321_" d="M771.3,265.1H316.7c-9.5,0-17.2-7.7-17.2-17.2s7.7-17.2,17.2-17.2h454.5c9.5,0,17.2,7.7,17.2,17.2
			S780.8,265.1,771.3,265.1z"/>
	</g>
	<g id="XMLID_937_">
		<path id="XMLID_1320_" d="M771.3,410.7H544c-9.5,0-17.2-7.7-17.2-17.2c0-9.5,7.7-17.2,17.2-17.2h227.3c9.5,0,17.2,7.7,17.2,17.2
			C788.4,403,780.8,410.7,771.3,410.7z"/>
	</g>
	<g id="XMLID_936_">
		<path id="XMLID_1317_" d="M952,642.5H136c-9.5,0-17.2-7.7-17.2-17.2V-65.3c0-9.5,7.7-17.2,17.2-17.2h816c9.5,0,17.2,7.7,17.2,17.2
			v690.6C969.2,634.8,961.5,642.5,952,642.5z M153.2,608.1h781.6V-48.1H153.2V608.1z"/>
	</g>
</g>
</svg>
