<?xml version="1.0" encoding="utf-8"?>
<!-- Generator: Adobe Illustrator 19.0.0, SVG Export Plug-In . SVG Version: 6.00 Build 0)  -->
<svg version="1.1" id="图层_1" xmlns="http://www.w3.org/2000/svg" xmlns:xlink="http://www.w3.org/1999/xlink" x="0px" y="0px"
	 viewBox="32 -232 1024 1024" style="enable-background:new 32 -232 1024 1024;" xml:space="preserve">
<g id="XMLID_815_">
	<g id="XMLID_962_">
		<path id="XMLID_1414_" d="M916,160.6H172c-13.9,0-25.2,11.3-25.2,25.2c0,13.9,11.3,25.2,25.2,25.2h744c13.9,0,25.2-11.3,25.2-25.2
			C941.2,171.9,929.9,160.6,916,160.6z"/>
	</g>
	<g id="XMLID_961_">
		<path id="XMLID_1408_" d="M172,22.7h466.1c13.9,0,25.2-11.3,25.2-25.2s-11.3-25.2-25.2-25.2H172c-13.9,0-25.2,11.3-25.2,25.2
			S158.1,22.7,172,22.7z"/>
	</g>
	<g id="XMLID_959_">
		<path id="XMLID_1402_" d="M172,399.4h466.1c13.9,0,25.2-11.3,25.2-25.2c0-13.9-11.3-25.2-25.2-25.2H172
			c-13.9,0-25.2,11.3-25.2,25.2C146.8,388.1,158.1,399.4,172,399.4z"/>
	</g>
	<g id="XMLID_960_">
		<path id="XMLID_1398_" d="M172-165.7h744c13.9,0,25.2-11.3,25.2-25.2c0-13.9-11.3-25.2-25.2-25.2H172c-13.9,0-25.2,11.3-25.2,25.2
			C146.8-176.9,158.1-165.7,172-165.7z"/>
	</g>
	<g id="XMLID_964_">
		<path id="XMLID_1396_" d="M172,776.1h466.1c13.9,0,25.2-11.3,25.2-25.2c0-13.9-11.3-25.2-25.2-25.2H172
			c-13.9,0-25.2,11.3-25.2,25.2C146.8,764.8,158.1,776.1,172,776.1z"/>
	</g>
	<g id="XMLID_963_">
		<path id="XMLID_1392_" d="M172,587.7h744c13.9,0,25.2-11.3,25.2-25.2c0-13.9-11.3-25.2-25.2-25.2H172c-13.9,0-25.2,11.3-25.2,25.2
			C146.8,576.5,158.1,587.7,172,587.7z"/>
	</g>
</g>
</svg>
