<?xml version="1.0" encoding="utf-8"?>
<!-- Generator: Adobe Illustrator 19.0.0, SVG Export Plug-In . SVG Version: 6.00 Build 0)  -->
<svg version="1.1" id="图层_1" xmlns="http://www.w3.org/2000/svg" xmlns:xlink="http://www.w3.org/1999/xlink" x="0px" y="0px"
	 viewBox="32 -232 1024 1024" style="enable-background:new 32 -232 1024 1024;" xml:space="preserve">
<g id="XMLID_1341_">
	<g id="XMLID_1180_">
		<g id="XMLID_1190_">
			<g id="XMLID_1313_">
				<path id="XMLID_1449_" d="M1020.8,299.3H881.3c-10.7,0-19.3-8.6-19.3-19.3s8.6-19.3,19.3-19.3h139.4c10.7,0,19.3,8.6,19.3,19.3
					S1031.4,299.3,1020.8,299.3z"/>
			</g>
		</g>
		<g id="XMLID_1189_">
			<g id="XMLID_1312_">
				<path id="XMLID_1442_" d="M994.3,339.9c-10.7,0-19.3-8.6-19.3-19.3v-80.8c0-10.7,8.6-19.3,19.3-19.3c10.7,0,19.3,8.6,19.3,19.3
					v80.8C1013.6,331.3,1005,339.9,994.3,339.9z"/>
			</g>
		</g>
	</g>
	<g id="XMLID_1199_">
		<g id="XMLID_1196_">
			<g id="XMLID_1295_">
				<path id="XMLID_1434_" d="M842.7,687.1H67.2c-10.7,0-19.3-8.6-19.3-19.3v-775.5c0-10.7,8.6-19.3,19.3-19.3h775.5
					c10.7,0,19.3,8.6,19.3,19.3v775.5C862,678.4,853.4,687.1,842.7,687.1z M86.5,648.5h736.9V-88.5H86.5V648.5z"/>
			</g>
		</g>
		<g id="XMLID_1195_">
			<g id="XMLID_1294_">
				<path id="XMLID_1427_" d="M842.7,105.4H67.2c-10.7,0-19.3-8.6-19.3-19.3s8.6-19.3,19.3-19.3h775.5c10.7,0,19.3,8.6,19.3,19.3
					S853.4,105.4,842.7,105.4z"/>
			</g>
		</g>
		<g id="XMLID_1194_">
			<g id="XMLID_1293_">
				<path id="XMLID_1422_" d="M842.7,299.3H67.2c-10.7,0-19.3-8.6-19.3-19.3s8.6-19.3,19.3-19.3h775.5c10.7,0,19.3,8.6,19.3,19.3
					S853.4,299.3,842.7,299.3z"/>
			</g>
		</g>
		<g id="XMLID_1193_">
			<g id="XMLID_1292_">
				<path id="XMLID_1417_" d="M842.7,493.2H67.2c-10.7,0-19.3-8.6-19.3-19.3c0-10.7,8.6-19.3,19.3-19.3h775.5
					c10.7,0,19.3,8.6,19.3,19.3C862,484.6,853.4,493.2,842.7,493.2z"/>
			</g>
		</g>
		<g id="XMLID_1192_">
			<g id="XMLID_1405_">
				<rect id="XMLID_1408_" x="455" y="-96.5" width="193.9" height="750.7"/>
			</g>
		</g>
		<g id="XMLID_1191_">
			<g id="XMLID_1291_">
				<path id="XMLID_1399_" d="M261.1,673.6c-10.7,0-19.3-8.6-19.3-19.3V-96.5c0-10.7,8.6-19.3,19.3-19.3s19.3,8.6,19.3,19.3v750.7
					C280.4,664.9,271.8,673.6,261.1,673.6z"/>
			</g>
		</g>
	</g>
</g>
</svg>
