<?xml version="1.0" encoding="utf-8"?>
<!-- Generator: Adobe Illustrator 19.0.0, SVG Export Plug-In . SVG Version: 6.00 Build 0)  -->
<svg version="1.1" id="图层_1" xmlns="http://www.w3.org/2000/svg" xmlns:xlink="http://www.w3.org/1999/xlink" x="0px" y="0px"
	 viewBox="32 -232 1024 1024" style="enable-background:new 32 -232 1024 1024;" xml:space="preserve">
<g id="XMLID_1217_">
	<g id="XMLID_1235_">
		<g id="XMLID_1236_">
			<g id="XMLID_1238_">
				<g id="XMLID_1281_">
					<path id="XMLID_1450_" d="M543.8,776.1c-10.7,0-19.3-8.7-19.3-19.3V617c0-10.7,8.7-19.3,19.3-19.3c10.7,0,19.3,8.7,19.3,19.3
						v139.7C563.1,767.4,554.5,776.1,543.8,776.1z"/>
				</g>
			</g>
			<g id="XMLID_1237_">
				<g id="XMLID_1280_">
					<path id="XMLID_1445_" d="M584.5,749.6h-81c-10.7,0-19.3-8.7-19.3-19.3s8.7-19.3,19.3-19.3h81c10.7,0,19.3,8.7,19.3,19.3
						S595.2,749.6,584.5,749.6z"/>
				</g>
			</g>
		</g>
	</g>
	<g id="XMLID_1218_">
		<g id="XMLID_1234_">
			<g id="XMLID_1277_">
				<path id="XMLID_1434_" d="M932.6,599.7H155.4c-10.7,0-19.3-8.7-19.3-19.3v-777.1c0-10.7,8.7-19.3,19.3-19.3h777.1
					c10.7,0,19.3,8.7,19.3,19.3v777.1C951.9,591.1,943.3,599.7,932.6,599.7z M174.8,561h738.5v-738.4H174.8V561z"/>
			</g>
		</g>
		<g id="XMLID_1233_">
			<g id="XMLID_1179_">
				<path id="XMLID_1427_" d="M738.3,599.7c-10.7,0-19.3-8.7-19.3-19.3v-777.1c0-10.7,8.7-19.3,19.3-19.3s19.3,8.7,19.3,19.3v777.1
					C757.6,591.1,749,599.7,738.3,599.7z"/>
			</g>
		</g>
		<g id="XMLID_1222_">
			<g id="XMLID_906_">
				<path id="XMLID_1422_" d="M544,599.7c-10.7,0-19.3-8.7-19.3-19.3v-777.1c0-10.7,8.7-19.3,19.3-19.3c10.7,0,19.3,8.7,19.3,19.3
					v777.1C563.4,591.1,554.7,599.7,544,599.7z"/>
			</g>
		</g>
		<g id="XMLID_1221_">
			<g id="XMLID_904_">
				<path id="XMLID_1417_" d="M349.7,599.7c-10.7,0-19.3-8.7-19.3-19.3v-777.1c0-10.7,8.7-19.3,19.3-19.3c10.7,0,19.3,8.7,19.3,19.3
					v777.1C369,591.1,360.4,599.7,349.7,599.7z"/>
			</g>
		</g>
		<g id="XMLID_1220_">
			<g id="XMLID_1405_">
				<rect id="XMLID_1408_" x="168.9" y="-2.4" width="752.3" height="194.3"/>
			</g>
		</g>
		<g id="XMLID_1219_">
			<g id="XMLID_903_">
				<path id="XMLID_1399_" d="M921.3,405.5H169c-10.7,0-19.3-8.7-19.3-19.3c0-10.7,8.7-19.3,19.3-19.3h752.3
					c10.7,0,19.3,8.7,19.3,19.3C940.6,396.8,932,405.5,921.3,405.5z"/>
			</g>
		</g>
	</g>
</g>
</svg>
