<?xml version="1.0" encoding="utf-8"?>
<!-- Generator: Adobe Illustrator 19.0.0, SVG Export Plug-In . SVG Version: 6.00 Build 0)  -->
<svg version="1.1" id="图层_1" xmlns="http://www.w3.org/2000/svg" xmlns:xlink="http://www.w3.org/1999/xlink" x="0px" y="0px"
	 viewBox="32 -232 1024 1024" style="enable-background:new 32 -232 1024 1024;" xml:space="preserve">
<g id="XMLID_1140_">
	<g id="XMLID_1120_">
		<g id="XMLID_994_">
			<g id="XMLID_995_">
				<g id="XMLID_1436_">
					<path id="XMLID_1437_" d="M1019.6,291.3H68.4c-11.1,0-20,8.9-20,20v221.9v221.9c0,11.1,8.9,20,20,20h473.3c0.9,0.1,1.4,1,2.4,1
						c0.9,0,1.5-0.9,2.4-1h473.3c11.1,0,20-8.9,20-20V533.2V311.3C1039.6,300.3,1030.7,291.3,1019.6,291.3z M88.4,331.3h911.3v181.9
						H88.4V331.3z M88.4,553.2h911.3v181.9H88.4V553.2z"/>
				</g>
			</g>
		</g>
		<g id="XMLID_999_">
			<g id="XMLID_1090_">
				<g id="XMLID_1432_">
					<path id="XMLID_1433_" d="M385.5,767.1c-11.1,0-20-8.9-20-20V322.8c0-11.1,8.9-20,20-20c11.1,0,20,8.9,20,20v424.3
						C405.5,758.2,396.5,767.1,385.5,767.1z"/>
				</g>
			</g>
		</g>
		<g id="XMLID_990_">
			<g id="XMLID_1089_">
				<g id="XMLID_1428_">
					<path id="XMLID_1429_" d="M702.5,767.1c-11.1,0-20-8.9-20-20V322.8c0-11.1,8.9-20,20-20c11.1,0,20,8.9,20,20v424.3
						C722.5,758.2,713.6,767.1,702.5,767.1z"/>
				</g>
			</g>
		</g>
		<g id="XMLID_1024_">
			<g id="XMLID_1088_">
				<g id="XMLID_1424_">
					<path id="XMLID_1425_" d="M1019.6,767.1c-11.1,0-20-8.9-20-20V322.8c0-11.1,8.9-20,20-20c11.1,0,20,8.9,20,20v424.3
						C1039.6,758.2,1030.7,767.1,1019.6,767.1z"/>
				</g>
			</g>
		</g>
		<g id="XMLID_1025_">
			<g id="XMLID_1087_">
				<g id="XMLID_1420_">
					<path id="XMLID_1421_" d="M68.4,767.1c-11.1,0-20-8.9-20-20V322.8c0-11.1,8.9-20,20-20s20,8.9,20,20v424.3
						C88.4,758.2,79.4,767.1,68.4,767.1z"/>
				</g>
			</g>
		</g>
	</g>
	<g id="XMLID_973_">
		<g id="XMLID_979_">
			<g id="XMLID_1415_">
				<path id="XMLID_1416_" d="M48.4-196.1v173.9h40v-153.9h156.9v-40H68.4C57.3-216.1,48.4-207.1,48.4-196.1z"/>
			</g>
		</g>
		<g id="XMLID_1094_">
			<g id="XMLID_1412_">
				<rect id="XMLID_1413_" x="436.9" y="-216.1" width="133.4" height="40"/>
			</g>
		</g>
		<g id="XMLID_1095_">
			<g id="XMLID_1409_">
				<rect id="XMLID_1410_" x="293.2" y="-216.1" width="101.2" height="40"/>
			</g>
		</g>
		<g id="XMLID_1096_">
			<g id="XMLID_1406_">
				<path id="XMLID_1407_" d="M88.4,97.4h-40v173.9c0,11.1,8.9,20,20,20h176.9v-40H88.4V97.4z"/>
			</g>
		</g>
		<g id="XMLID_1098_">
			<g id="XMLID_1403_">
				<rect id="XMLID_1404_" x="436.9" y="251.3" width="133.4" height="40"/>
			</g>
		</g>
		<g id="XMLID_1101_">
			<g id="XMLID_1400_">
				<rect id="XMLID_1401_" x="293.2" y="251.3" width="101.2" height="40"/>
			</g>
		</g>
	</g>
	<g id="XMLID_1100_">
		<g id="XMLID_1394_">
			<path id="XMLID_1395_" d="M532.2-216.1v533.1h507.4v-533.1H532.2z M935.7,58.3H815.8v119.9c0,16.5-13.4,29.9-29.9,29.9
				c-16.5,0-29.9-13.4-29.9-29.9V58.3H636.2c-16.5,0-29.9-13.4-29.9-29.9s13.4-29.9,29.9-29.9H756v-119.9
				c0-16.5,13.4-29.9,29.9-29.9c16.5,0,29.9,13.4,29.9,29.9V-1.4h119.9c16.5,0,29.9,13.4,29.9,29.9S952.2,58.3,935.7,58.3z"/>
		</g>
	</g>
</g>
</svg>
