<?xml version="1.0" encoding="utf-8"?>
<!-- Generator: Adobe Illustrator 19.0.0, SVG Export Plug-In . SVG Version: 6.00 Build 0)  -->
<svg version="1.1" id="图层_1" xmlns="http://www.w3.org/2000/svg" xmlns:xlink="http://www.w3.org/1999/xlink" x="0px" y="0px"
	 viewBox="32 -232 1024 1024" style="enable-background:new 32 -232 1024 1024;" xml:space="preserve">
<g id="XMLID_1129_">
	<g id="XMLID_1106_">
		<g id="XMLID_1115_">
			<g id="XMLID_1116_">
				<g id="XMLID_1387_">
					<path id="XMLID_1388_" d="M555.3-195.6v951.3c0,11.1,8.9,20,20,20h221.9h221.9c11.1,0,20-8.9,20-20V282.4c0.1-0.9,1-1.4,1-2.4
						s-0.9-1.5-1-2.4v-473.3c0-11.1-8.9-20-20-20H797.2H575.3C564.3-215.6,555.3-206.7,555.3-195.6z M595.3,735.6v-911.3h181.9
						v911.3H595.3z M817.2,735.6v-911.3h181.9v911.3H817.2z"/>
				</g>
			</g>
		</g>
		<g id="XMLID_1113_">
			<g id="XMLID_1114_">
				<g id="XMLID_1383_">
					<path id="XMLID_1384_" d="M1031.1,438.5c0,11.1-8.9,20-20,20H586.8c-11.1,0-20-8.9-20-20c0-11.1,8.9-20,20-20h424.3
						C1022.2,418.5,1031.1,427.5,1031.1,438.5z"/>
				</g>
			</g>
		</g>
		<g id="XMLID_1111_">
			<g id="XMLID_1112_">
				<g id="XMLID_1379_">
					<path id="XMLID_1380_" d="M1031.1,121.5c0,11.1-8.9,20-20,20H586.8c-11.1,0-20-8.9-20-20s8.9-20,20-20h424.3
						C1022.2,101.5,1031.1,110.4,1031.1,121.5z"/>
				</g>
			</g>
		</g>
		<g id="XMLID_1109_">
			<g id="XMLID_1110_">
				<g id="XMLID_1375_">
					<path id="XMLID_1376_" d="M1031.1-195.6c0,11.1-8.9,20-20,20H586.8c-11.1,0-20-8.9-20-20s8.9-20,20-20h424.3
						C1022.2-215.6,1031.1-206.7,1031.1-195.6z"/>
				</g>
			</g>
		</g>
		<g id="XMLID_1107_">
			<g id="XMLID_1108_">
				<g id="XMLID_1371_">
					<path id="XMLID_1372_" d="M1031.1,755.6c0,11.1-8.9,20-20,20H586.8c-11.1,0-20-8.9-20-20c0-11.1,8.9-20,20-20h424.3
						C1022.2,735.6,1031.1,744.6,1031.1,755.6z"/>
				</g>
			</g>
		</g>
	</g>
	<g id="XMLID_1091_">
		<g id="XMLID_1105_">
			<g id="XMLID_1366_">
				<path id="XMLID_1367_" d="M67.9,775.6h173.9v-40H87.9V578.7h-40v176.9C47.9,766.7,56.9,775.6,67.9,775.6z"/>
			</g>
		</g>
		<g id="XMLID_1104_">
			<g id="XMLID_1363_">
				<rect id="XMLID_1364_" x="47.9" y="253.6" width="40" height="133.4"/>
			</g>
		</g>
		<g id="XMLID_1103_">
			<g id="XMLID_1360_">
				<rect id="XMLID_1361_" x="47.9" y="429.6" width="40" height="101.2"/>
			</g>
		</g>
		<g id="XMLID_1102_">
			<g id="XMLID_1357_">
				<path id="XMLID_1358_" d="M361.4,735.6v40h173.9c11.1,0,20-8.9,20-20V578.7h-40v156.9H361.4z"/>
			</g>
		</g>
		<g id="XMLID_1093_">
			<g id="XMLID_1354_">
				<rect id="XMLID_1355_" x="515.3" y="253.6" width="40" height="133.4"/>
			</g>
		</g>
		<g id="XMLID_1092_">
			<g id="XMLID_1351_">
				<rect id="XMLID_1352_" x="515.3" y="429.6" width="40" height="101.2"/>
			</g>
		</g>
	</g>
	<g id="XMLID_991_">
		<g id="XMLID_1345_">
			<path id="XMLID_1346_" d="M47.9,291.8h533.1v-507.4H47.9V291.8z M322.3-111.7V8.2h119.9c16.5,0,29.9,13.4,29.9,29.9
				S458.7,68,442.2,68H322.3v119.9c0,16.5-13.4,29.9-29.9,29.9c-16.5,0-29.9-13.4-29.9-29.9V68H142.7c-16.5,0-29.9-13.4-29.9-29.9
				s13.4-29.9,29.9-29.9h119.9v-119.9c0-16.5,13.4-29.9,29.9-29.9C308.9-141.6,322.3-128.2,322.3-111.7z"/>
		</g>
	</g>
</g>
</svg>
