<?xml version="1.0" encoding="utf-8"?>
<!-- Generator: Adobe Illustrator 19.0.0, SVG Export Plug-In . SVG Version: 6.00 Build 0)  -->
<svg version="1.1" id="图层_1" xmlns="http://www.w3.org/2000/svg" xmlns:xlink="http://www.w3.org/1999/xlink" x="0px" y="0px"
	 viewBox="32 -232 1024 1024" style="enable-background:new 32 -232 1024 1024;" xml:space="preserve">
<g id="XMLID_180_">
	<g id="XMLID_297_">
		<g id="XMLID_1402_">
			<path id="XMLID_1405_" d="M1016.2-196.1H770.1H651.6H317.9h-30.9H71.8c-13.2,0-23.8,10.7-23.8,23.8v206v492.4v206
				c0,13.2,10.7,23.8,23.8,23.8h215.2h514.1h215.2c13.2,0,23.8-10.7,23.8-23.8v-206V33.8v-206
				C1040.1-185.4,1029.4-196.1,1016.2-196.1z M651.6,57.7h125.6v114c0,13.2,10.7,23.8,23.8,23.8c13.2,0,23.8-10.7,23.8-23.8v-114
				h167.5v444.7H824.9V389.7c0-13.2-10.7-23.8-23.8-23.8c-13.2,0-23.8,10.7-23.8,23.8v112.6h-7.1H651.6H428.6H317.9h-7.1V57.7h46.1
				H651.6z M263.1,502.3H95.6V57.7h167.5V502.3z M95.6,550h167.5v158.3H95.6V550z M310.8,550h7.1h110.8h222.9h118.5h7.1v158.3H310.8
				V550z M824.9,550h167.5v158.3H824.9V550z M992.4,10H824.9v-158.3h167.5V10z M317.9-148.4h333.7h118.5h7.1V10H651.6H356.9h-46.1
				v-158.3H317.9z M263.1-148.4V10H95.6v-158.3H263.1z"/>
		</g>
	</g>
	<g id="XMLID_296_">
		<g id="XMLID_1392_">
			<path id="XMLID_1398_" d="M527.5,303.2h209.4l-26.7,23c-10,8.6-11.1,23.7-2.5,33.6c4.8,5.5,11.4,8.3,18.1,8.3
				c5.5,0,11.1-1.9,15.6-5.8l75.3-64.9c0.6-0.5,0.7-1.4,1.2-2c0.4-0.4,1-0.2,1.4-0.7c0.8-1,0.4-2.3,1.1-3.4c2.1-3.5,3.4-7,3.5-11
				c0.1-1.9,0.1-3.5-0.3-5.4c-0.2-1.3,0.3-2.6-0.2-3.9c-1.1-2.9-3.4-4.8-5.5-7c-0.8-0.9-0.6-2.1-1.5-2.9l-75.3-63.7
				c-10.1-8.3-25.1-7.2-33.6,2.8c-8.5,10.1-7.3,25.1,2.8,33.6l25.5,21.6H527.5c-13.2,0-23.8,10.7-23.8,23.8
				C503.6,292.6,514.3,303.2,527.5,303.2z"/>
		</g>
	</g>
</g>
</svg>
