<?xml version="1.0" encoding="utf-8"?>
<!-- Generator: Adobe Illustrator 19.0.0, SVG Export Plug-In . SVG Version: 6.00 Build 0)  -->
<svg version="1.1" id="图层_1" xmlns="http://www.w3.org/2000/svg" xmlns:xlink="http://www.w3.org/1999/xlink" x="0px" y="0px"
	 viewBox="32 -232 1024 1024" style="enable-background:new 32 -232 1024 1024;" xml:space="preserve">
<g id="XMLID_1177_">
	<g id="XMLID_1132_">
		<g id="XMLID_1426_">
			<path id="XMLID_1427_" d="M555.7,544.9c0-4,0.3-8.1,0.5-12.1h-288v-122h359.4c-2-14,0.9-27.9,8-39.9H268.3V-1.6h502.2v325
				c4.9,2.9,10.1,5.5,14,9.6c5.4,5.7,14.3,11.4,17.4,12.3c-1.1-0.7,3.7-4.3,8.5-8.3V-1.6h144.2v364.3c15.8,18.7,20.2,43.2,11,64.1
				c-0.6,1.4-1.4,4.4-1.5,5.6c0,8.5,7.1,15.6,15.9,15.6h1.3c4.6,0.3,8.9,1.8,13.2,3.1v-647.4c0-11-8.9-19.9-19.9-19.9H66.7
				c-11,0-19.9,8.9-19.9,19.9v748.8c0,11,8.9,19.9,19.9,19.9h491C556.7,564.2,555.7,554.3,555.7,544.9z M810.3-176.2h144.2v134.8
				H810.3V-176.2z M268.3-176.2h502.2v134.8H268.3V-176.2z M228.4,532.8H86.7v-122h141.7V532.8z M228.4,371H86.7V-1.6h141.7V371z
				 M228.4-41.4H86.7v-134.8h141.7V-41.4z"/>
		</g>
	</g>
	<g id="XMLID_1139_">
		<g id="XMLID_1146_">
			<g id="XMLID_1157_">
				<g id="XMLID_1417_">
					<path id="XMLID_1418_" d="M860,776.1c-17.9,0-35.5-7.7-47.2-20.6c-5.6-6.1-14.6-12.2-17.8-13.2c1.3,1.1-8.2,7.7-13,12.9
						c-17.6,19-47.7,25.5-71.7,15.1l-54.2-30.1c-27.2-18.8-36.2-51-24.7-77.3c0.6-1.4,1.4-4.5,1.5-5.6c0-8.5-7.1-15.6-15.9-15.6
						c-28.5,0-50.9-20.4-56.4-49.6c0,0-5-25.5-5-47.2c0-19.8,4.1-42.7,4.9-47.1c5.7-29.7,27.5-49.6,54.3-49.6c10.9,0,18-7.1,18-15.9
						c-0.1-1.1-1-4.2-1.6-5.6c-11.6-26.7-2.7-58.2,21.2-74.9l56.9-31.6c11.7-5.1,19.9-6.8,28.4-6.8c17.7,0,34.6,7.1,46.5,19.6
						c5.4,5.7,14.3,11.4,17.4,12.3c-1.4-0.9,7.4-6.5,12.8-12.1c17.6-18.3,47.8-24.2,71-14.1l55.1,30.3
						c27.3,18.8,36.3,51.1,24.8,77.4c-0.6,1.4-1.4,4.4-1.5,5.6c0,8.5,7.1,15.6,15.9,15.6l1.6,19.9l-0.4-19.9
						c26,1.9,49.6,19.9,55.2,49.6c0.8,4.4,4.9,27.4,4.9,47.2c0,21.6-4.9,47.2-5,47.4c-5.5,29-27.8,49.4-54.3,49.4
						c-10.9,0-18,7.1-18,15.9c0.1,0.9,0.9,4,1.6,5.6c11.5,26.1,2.5,58.3-21.1,74.7l-56,31.3C876.8,774.4,868.5,776.1,860,776.1z
						 M797.4,702.7c17.5,0,38.3,18.8,44.9,26c6.2,6.8,17.9,9.4,26.5,5.7l52.4-29c8.4-5.9,11.7-17.4,7.7-26.4
						c-0.6-1.4-4.9-11.8-4.9-21.5c0-30.8,25-55.7,55.7-55.7c9.2,0,15.3-6.9,17.3-17.1c1.1-5.8,4.2-25.1,4.2-39.8
						c0-16.7-3.8-37.5-4.2-39.8c-1.6-8.5-6.9-17.1-15.1-17.1c-0.2-0.1-0.4,0-0.6,0h-1.6c-30.8,0-55.7-25-55.7-55.7
						c0-9.7,4.3-20,4.8-21.2c4.1-9.3,0.9-20.8-7.2-26.5L870,355.9c-9.3-3.9-20.4-1.5-26.7,5.1c-6.5,6.7-26.9,24-43.7,24
						c-16.9,0-37.5-17.6-43.9-24.4c-6.5-6.8-17.9-9.2-26.5-5.4l-53.4,29.3c-8.4,5.8-11.6,17.4-7.7,26.4c1.8,4.2,4.9,13.4,4.9,21.4
						c0,30.8-25,55.7-55.7,55.7c-9.3,0-15.3,6.7-17.3,17.2c-0.4,2.3-4.2,23.1-4.2,39.7c0,15.3,3.3,35.1,4.2,39.6
						c2,10.4,8.1,17.3,15.2,17.3c32.9,0,57.8,25,57.8,55.7c0,9.6-4.3,20-4.7,21.2c-4.1,9.3-0.9,20.8,7.2,26.5l50.6,28.3
						c9.4,4.1,20.5,1.4,26.7-5.4C753,728,776.9,702.7,797.4,702.7z"/>
				</g>
			</g>
		</g>
		<g id="XMLID_1142_">
			<g id="XMLID_1173_">
				<g id="XMLID_1399_">
					<path id="XMLID_1402_" d="M797.5,643.1c-54.3,0-98.5-44.1-98.5-98.4s44.2-98.4,98.5-98.4s98.4,44.1,98.4,98.4
						S851.8,643.1,797.5,643.1z M797.5,486.1c-32.3,0-58.6,26.3-58.6,58.6c0,32.3,26.3,58.6,58.6,58.6s58.6-26.3,58.6-58.6
						C856.1,512.3,829.8,486.1,797.5,486.1z"/>
				</g>
			</g>
		</g>
	</g>
</g>
</svg>
