<?xml version="1.0" encoding="utf-8"?>
<!-- Generator: Adobe Illustrator 19.0.0, SVG Export Plug-In . SVG Version: 6.00 Build 0)  -->
<svg version="1.1" id="图层_1" xmlns="http://www.w3.org/2000/svg" xmlns:xlink="http://www.w3.org/1999/xlink" x="0px" y="0px"
	 viewBox="32 -232 1024 1024" style="enable-background:new 32 -232 1024 1024;" xml:space="preserve">
<g id="XMLID_1178_">
	<g id="XMLID_1162_">
		<g id="XMLID_1411_">
			<path id="XMLID_1414_" d="M581.4,517.5H369.7V376.3h133c3.7-10.8,9.2-21.1,17.8-29.7l7.8-7.8H369.7V202h246.8v136.9h-40.7
				l37.4,37.4h3.2v3.2l37.4,37.4v-40.7h73.4l-37.4-37.4h-35.9v-36l-31.6-31.6c-7.3-7.3-7.3-19.2,0-26.5l18.3-18.3
				c3.9-3.9,8.8-5.9,13.3-8.9V202h246.8v136.9h-37.8l37.4,37.4h0.3v0.3l14.5,14.5c30.3,30.3,30.3,79.7,0,110l-5,5.1l28,28v-701.5
				c0-10.3-8.4-18.7-18.7-18.7H66.7c-10.3,0-18.7,8.4-18.7,18.7v703.6c0,10.3,8.4,18.7,18.7,18.7h552.2L581.4,517.5z M653.9-148.6
				h246.8V-9.8H653.9V-148.6z M653.9,27.6h246.8v136.9H653.9V27.6z M369.7-148.6h246.8V-9.8H369.7V-148.6z M369.7,27.6h246.8v136.9
				H369.7V27.6z M332.2,517.5H85.4V376.3h246.8V517.5z M332.2,338.8H85.4V202h246.8V338.8z M332.2,164.5H85.4V27.6h246.8V164.5z
				 M332.2-9.8H85.4v-138.8h246.8V-9.8z"/>
		</g>
	</g>
	<g id="XMLID_1160_">
		<g id="XMLID_1155_">
			<g id="XMLID_1398_">
				<path id="XMLID_1399_" d="M954.8,746.1c-15.3,0-30.5-5.8-42.1-17.4L800.2,616.2l-5.1,5.1c-30.3,30.4-79.7,30.3-110,0
					L520.5,456.6c-30.3-30.3-30.3-79.7,0-110l18.3-18.3c7.3-7.3,19.2-7.3,26.5,0l144.9,144.9c6.4,6.4,16.9,6.5,23.3,0l33.8-33.8
					c3.1-3.1,4.8-7.2,4.8-11.6c0-4.4-1.7-8.6-4.8-11.6L622.3,271.2c-7.3-7.3-7.3-19.2,0-26.5l18.3-18.3c30.4-30.4,79.7-30.4,110,0
					l164.6,164.7c30.3,30.3,30.3,79.7,0,110l-5,5.1l112.5,112.5c11.2,11.2,17.4,26.1,17.4,42.1c0,15.9-6.2,30.9-17.4,42.1
					l-25.7,25.8C985.3,740.3,970,746.1,954.8,746.1z M800.2,571c5,0,9.7,2,13.2,5.5l125.7,125.7c8.6,8.6,22.6,8.6,31.3,0l25.7-25.8
					c4.2-4.2,6.4-9.7,6.4-15.6c0-6-2.3-11.5-6.4-15.7L870.5,519.5c-7.3-7.3-7.3-19.2,0-26.5l18.3-18.3c15.7-15.7,15.7-41.3,0-57
					L724.1,253c-15.1-15.1-41.9-15.1-57.1,0l-5,5l131.6,131.7c21,21,21,55.2,0,76.2l-33.8,33.8c-21,21-55.2,20.9-76.3,0L552,368
					l-5,5c-7.6,7.6-11.7,17.7-11.7,28.5s4.2,21,11.7,28.5l164.7,164.7c15.8,15.8,41.3,15.7,57,0l18.3-18.3
					C790.5,573,795.3,571,800.2,571z"/>
			</g>
		</g>
	</g>
</g>
</svg>
