<?xml version="1.0" encoding="utf-8"?>
<!-- Generator: Adobe Illustrator 19.0.0, SVG Export Plug-In . SVG Version: 6.00 Build 0)  -->
<svg version="1.1" id="图层_1" xmlns="http://www.w3.org/2000/svg" xmlns:xlink="http://www.w3.org/1999/xlink" x="0px" y="0px"
	 viewBox="32 -232 1024 1024" style="enable-background:new 32 -232 1024 1024;" xml:space="preserve">
<g id="XMLID_1405_">
	<g id="XMLID_1342_">
		<path id="XMLID_1419_" d="M283.7,716.8c-10,0-18.1-8.1-18.1-18.1V-17.5c0-10,8.1-18.1,18.1-18.1H1022c10,0,18.1,8.1,18.1,18.1
			S1032,0.5,1022,0.5H301.8v698.2C301.8,708.7,293.7,716.8,283.7,716.8z"/>
	</g>
	<g id="XMLID_1391_">
		<path id="XMLID_1418_" d="M1022,239.3H283.7c-10,0-18.1-8.1-18.1-18.1s8.1-18.1,18.1-18.1H1022c10,0,18.1,8.1,18.1,18.1
			S1032,239.3,1022,239.3z"/>
	</g>
	<g id="XMLID_1402_">
		<path id="XMLID_1417_" d="M1022,727.8H533.5c-10,0-18.1-8.1-18.1-18.1c0-10,8.1-18.1,18.1-18.1H1022c10,0,18.1,8.1,18.1,18.1
			C1040.1,719.7,1032,727.8,1022,727.8z"/>
	</g>
	<g id="XMLID_1392_">
		<path id="XMLID_1414_" d="M1022,478H533.5c-10,0-18.1-8.1-18.1-18.1s8.1-18.1,18.1-18.1H1022c10,0,18.1,8.1,18.1,18.1
			S1032,478,1022,478z"/>
	</g>
	<g id="XMLID_1399_">
		<path id="XMLID_1411_" d="M533.5,727.8c-10,0-18.1-8.1-18.1-18.1V-17.5c0-10,8.1-18.1,18.1-18.1c10,0,18.1,8.1,18.1,18.1v727.3
			C551.5,719.7,543.5,727.8,533.5,727.8z"/>
	</g>
	<g id="XMLID_1398_">
		<path id="XMLID_1408_" d="M772.2,727.8c-10,0-18.1-8.1-18.1-18.1V221.2c0-10,8.1-15.8,18.1-15.8c10,0,18.1,5.9,18.1,15.8v488.5
			C790.3,719.7,782.2,727.8,772.2,727.8z"/>
	</g>
	<path id="XMLID_1390_" d="M147.8-131.7V27.7c0,10,8.1,18.1,18.1,18.1c10,0,18.1-8.1,18.1-18.1v-159.4h81.8c10,0,18.1-8.1,18.1-18.1
		c0-10-8.1-18.1-18.1-18.1H66c-10,0-18.1,8.1-18.1,18.1c0,10,8.1,18.1,18.1,18.1H147.8z"/>
</g>
</svg>
