<?xml version="1.0" encoding="utf-8"?>
<!-- Generator: Adobe Illustrator 19.0.0, SVG Export Plug-In . SVG Version: 6.00 Build 0)  -->
<svg version="1.1" id="图层_1" xmlns="http://www.w3.org/2000/svg" xmlns:xlink="http://www.w3.org/1999/xlink" x="0px" y="0px"
	 viewBox="32 -232 1024 1024" style="enable-background:new 32 -232 1024 1024;" xml:space="preserve">
<g id="XMLID_944_">
	<g id="XMLID_956_">
		<path id="XMLID_6_" d="M1016.2,166.9H71.8c-13.2,0-23.9,10.7-23.9,23.9c0,13.2,10.7,23.9,23.9,23.9h944.4
			c13.2,0,23.9-10.7,23.9-23.9C1040.1,177.6,1029.4,166.9,1016.2,166.9z"/>
	</g>
	<g id="XMLID_951_">
		<path id="XMLID_5_" d="M248.1-11.4c-13.2,0-23.9,10.7-23.9,23.9s10.7,23.9,23.9,23.9h591.7c13.2,0,23.9-10.7,23.9-23.9
			S853-11.4,839.8-11.4H248.1z"/>
	</g>
	<g id="XMLID_950_">
		<path id="XMLID_4_" d="M71.8-142.1h944.4c13.2,0,23.9-10.7,23.9-23.9c0-13.2-10.7-23.9-23.9-23.9H71.8
			c-13.2,0-23.9,10.7-23.9,23.9C47.9-152.7,58.6-142.1,71.8-142.1z"/>
	</g>
	<g id="XMLID_834_">
		<path id="XMLID_3_" d="M248.1,702.1c-13.2,0-23.9,10.7-23.9,23.9c0,13.2,10.7,23.9,23.9,23.9h591.7c13.2,0,23.9-10.7,23.9-23.9
			c0-13.2-10.7-23.9-23.9-23.9H248.1z"/>
	</g>
	<g id="XMLID_820_">
		<path id="XMLID_2_" d="M71.8,571.4h944.4c13.2,0,23.9-10.7,23.9-23.9s-10.7-23.9-23.9-23.9H71.8c-13.2,0-23.9,10.7-23.9,23.9
			S58.6,571.4,71.8,571.4z"/>
	</g>
	<g id="XMLID_948_">
		<path id="XMLID_1_" d="M839.8,393.1H248.1c-13.2,0-23.9-10.7-23.9-23.9c0-13.2,10.7-23.9,23.9-23.9h591.7
			c13.2,0,23.9,10.7,23.9,23.9C863.7,382.4,853,393.1,839.8,393.1z"/>
	</g>
</g>
</svg>
