<?xml version="1.0" encoding="utf-8"?>
<!-- Generator: Adobe Illustrator 19.0.0, SVG Export Plug-In . SVG Version: 6.00 Build 0)  -->
<svg version="1.1" id="图层_1" xmlns="http://www.w3.org/2000/svg" xmlns:xlink="http://www.w3.org/1999/xlink" x="0px" y="0px"
	 viewBox="32 -232 1024 1024" style="enable-background:new 32 -232 1024 1024;" xml:space="preserve">
<g id="XMLID_941_">
	<g id="XMLID_965_">
		<path id="XMLID_1414_" d="M172,160.6h744c13.9,0,25.2,11.3,25.2,25.2c0,13.9-11.3,25.2-25.2,25.2H172c-13.9,0-25.2-11.3-25.2-25.2
			C146.8,171.9,158.1,160.6,172,160.6z"/>
	</g>
	<g id="XMLID_958_">
		<path id="XMLID_1408_" d="M916,22.7H449.9c-13.9,0-25.2-11.3-25.2-25.2s11.3-25.2,25.2-25.2H916c13.9,0,25.2,11.3,25.2,25.2
			S929.9,22.7,916,22.7z"/>
	</g>
	<g id="XMLID_957_">
		<path id="XMLID_1402_" d="M916,399.4H449.9c-13.9,0-25.2-11.3-25.2-25.2c0-13.9,11.3-25.2,25.2-25.2H916
			c13.9,0,25.2,11.3,25.2,25.2C941.2,388.1,929.9,399.4,916,399.4z"/>
	</g>
	<g id="XMLID_949_">
		<path id="XMLID_1398_" d="M916-165.7H172c-13.9,0-25.2-11.3-25.2-25.2c0-13.9,11.3-25.2,25.2-25.2h744c13.9,0,25.2,11.3,25.2,25.2
			C941.2-176.9,929.9-165.7,916-165.7z"/>
	</g>
	<g id="XMLID_946_">
		<path id="XMLID_1396_" d="M916,776.1H449.9c-13.9,0-25.2-11.3-25.2-25.2c0-13.9,11.3-25.2,25.2-25.2H916
			c13.9,0,25.2,11.3,25.2,25.2C941.2,764.8,929.9,776.1,916,776.1z"/>
	</g>
	<g id="XMLID_943_">
		<path id="XMLID_1392_" d="M916,587.7H172c-13.9,0-25.2-11.3-25.2-25.2c0-13.9,11.3-25.2,25.2-25.2h744c13.9,0,25.2,11.3,25.2,25.2
			C941.2,576.5,929.9,587.7,916,587.7z"/>
	</g>
</g>
</svg>
