<?xml version="1.0" encoding="utf-8"?>
<!-- Generator: Adobe Illustrator 19.0.0, SVG Export Plug-In . SVG Version: 6.00 Build 0)  -->
<svg version="1.1" id="图层_1" xmlns="http://www.w3.org/2000/svg" xmlns:xlink="http://www.w3.org/1999/xlink" x="0px" y="0px"
	 viewBox="32 -232 1024 1024" style="enable-background:new 32 -232 1024 1024;" xml:space="preserve">
<style type="text/css">
	.st0{fill:none;stroke:#000000;stroke-width:0.5;stroke-linecap:round;stroke-linejoin:round;stroke-miterlimit:10;}
</style>
<g id="XMLID_1337_">
	<g id="XMLID_1251_">
		<g id="XMLID_1216_">
			<g id="XMLID_1252_">
				<g id="XMLID_1304_">
					<path id="XMLID_1455_" d="M876.4,776.1H65c-11.2,0-20.2-9-20.2-20.2V-55.6c0-11.2,9-20.2,20.2-20.2h520.5
						c11.2,0,20.2,9,20.2,20.2s-9,20.2-20.2,20.2H85.2v771.1h771V242.8c0-11.2,9-20.2,20.2-20.2s20.2,9,20.2,20.2v513.1
						C896.6,767,887.6,776.1,876.4,776.1z"/>
				</g>
			</g>
			<g id="XMLID_1243_">
				<g id="XMLID_1303_">
					<path id="XMLID_1450_" d="M641.5,167.5H65c-11.2,0-20.2-9-20.2-20.2s9-20.2,20.2-20.2h576.5c11.2,0,20.2,9,20.2,20.2
						S652.6,167.5,641.5,167.5z"/>
				</g>
			</g>
			<g id="XMLID_1242_">
				<g id="XMLID_1302_">
					<path id="XMLID_1445_" d="M876.4,370.4H65c-11.2,0-20.2-9-20.2-20.2S53.8,330,65,330h811.4c11.2,0,20.2,9,20.2,20.2
						S887.6,370.4,876.4,370.4z"/>
				</g>
			</g>
			<g id="XMLID_1241_">
				<g id="XMLID_1301_">
					<path id="XMLID_1440_" d="M876.4,573.2H65c-11.2,0-20.2-9-20.2-20.2s9-20.2,20.2-20.2h811.4c11.2,0,20.2,9,20.2,20.2
						S887.6,573.2,876.4,573.2z"/>
				</g>
			</g>
		</g>
		<g id="XMLID_1239_">
			<g id="XMLID_1300_">
				<path id="XMLID_1434_" d="M605.9,761.9c-11.2,0-20.2-9-20.2-20.2V159.1c0-11.2,9-20.2,20.2-20.2s20.2,9,20.2,20.2v582.6
					C626.1,752.9,617.1,761.9,605.9,761.9z"/>
			</g>
		</g>
		<g id="XMLID_1244_">
			<g id="XMLID_1426_">
				<path id="XMLID_1427_" class="st0" d="M876.4,741.8"/>
			</g>
		</g>
		<g id="XMLID_1246_">
			<g id="XMLID_1299_">
				<path id="XMLID_1422_" d="M65,761.9c-11.2,0-20.2-9-20.2-20.2V159.1c0-11.2,9-20.2,20.2-20.2s20.2,9,20.2,20.2v582.6
					C85.2,752.9,76.1,761.9,65,761.9z"/>
			</g>
		</g>
		<g id="XMLID_1240_">
			<g id="XMLID_1298_">
				<path id="XMLID_1417_" d="M335.4,761.9c-11.2,0-20.2-9-20.2-20.2V159.1c0-11.2,9-20.2,20.2-20.2s20.2,9,20.2,20.2v582.6
					C355.6,752.9,346.6,761.9,335.4,761.9z"/>
			</g>
		</g>
	</g>
	<g id="XMLID_1250_">
		<g id="XMLID_1247_">
			<g id="XMLID_1398_">
				<path id="XMLID_1399_" d="M842.3,185.7c110.8,0,200.9-90.1,200.9-200.9s-90.1-200.9-200.9-200.9S641.5-126,641.5-15.2
					S731.6,185.7,842.3,185.7z M842.3-175.7c88.5,0,160.5,72,160.5,160.5s-72,160.5-160.5,160.5s-160.5-72-160.5-160.5
					S753.9-175.7,842.3-175.7z"/>
			</g>
		</g>
		<g id="XMLID_154_">
			<g id="XMLID_1393_">
				<path id="XMLID_1396_" d="M768,58.9c3.9,3.9,9.1,5.9,14.3,5.9s10.3-2,14.3-5.9l45.8-45.8l45.8,45.8c3.9,3.9,9.1,5.9,14.3,5.9
					s10.3-2,14.3-5.9c7.9-7.9,7.9-20.7,0-28.6l-45.8-45.8l45.8-45.8c7.9-7.9,7.9-20.7,0-28.6s-20.7-7.9-28.6,0L842.3-44l-45.8-45.8
					c-7.9-7.9-20.7-7.9-28.6,0s-7.9,20.7,0,28.6l45.8,45.8L768,30.3C760.1,38.2,760.1,51,768,58.9z"/>
			</g>
		</g>
	</g>
</g>
</svg>
