<?xml version="1.0" encoding="utf-8"?>
<!-- Generator: Adobe Illustrator 19.0.0, SVG Export Plug-In . SVG Version: 6.00 Build 0)  -->
<svg version="1.1" id="图层_1" xmlns="http://www.w3.org/2000/svg" xmlns:xlink="http://www.w3.org/1999/xlink" x="0px" y="0px"
	 viewBox="32 -232 1024 1024" style="enable-background:new 32 -232 1024 1024;" xml:space="preserve">
<g id="XMLID_1339_">
	<g id="XMLID_1262_">
		<g id="XMLID_1276_">
			<g id="XMLID_1464_">
				<path id="XMLID_1465_" d="M555,668.1H90.4v-834.5h834.4v424.2c0,13.7,11.1,24.8,24.8,24.8s24.8-11.1,24.8-24.8v-449.1
					c0-13.7-11.1-24.8-24.8-24.8H65.6c-13.7,0-24.8,11.1-24.8,24.8v884.1c0,13.7,11.1,24.8,24.8,24.8H555
					c13.7,0,24.8-11.1,24.8-24.8S568.7,668.1,555,668.1z"/>
			</g>
		</g>
		<g id="XMLID_1275_">
			<g id="XMLID_1461_">
				<path id="XMLID_1462_" d="M171.9,589.6c0,13.7,11.1,24.8,24.8,24.8h48.1c13.7,0,24.8-11.1,24.8-24.8s-11.1-24.8-24.8-24.8h-23.3
					v-26.3c0-13.7-11.1-24.8-24.8-24.8c-13.7,0-24.8,11.1-24.8,24.8V589.6z"/>
			</g>
		</g>
		<g id="XMLID_1274_">
			<g id="XMLID_1458_">
				<path id="XMLID_1459_" d="M171.9,439.2c0,13.7,11.1,24.8,24.8,24.8c13.7,0,24.8-11.1,24.8-24.8v-99.3
					c0-13.7-11.1-24.8-24.8-24.8c-13.7,0-24.8,11.1-24.8,24.8V439.2z"/>
			</g>
		</g>
		<g id="XMLID_1273_">
			<g id="XMLID_1455_">
				<path id="XMLID_1456_" d="M171.9,240.6c0,13.7,11.1,24.8,24.8,24.8c13.7,0,24.8-11.1,24.8-24.8v-99.3
					c0-13.7-11.1-24.8-24.8-24.8c-13.7,0-24.8,11.1-24.8,24.8V240.6z"/>
			</g>
		</g>
		<g id="XMLID_1272_">
			<g id="XMLID_1450_">
				<path id="XMLID_1451_" d="M196.8,66.8c13.7,0,24.8-11.1,24.8-24.8v-99.3c0-13.7-11.1-24.8-24.8-24.8
					c-13.7,0-24.8,11.1-24.8,24.8v99.3C171.9,55.7,183.1,66.8,196.8,66.8z"/>
			</g>
		</g>
		<g id="XMLID_1271_">
			<g id="XMLID_1445_">
				<path id="XMLID_1448_" d="M378.8-49.1c13.7,0,24.8-11.1,24.8-24.8s-11.1-24.8-24.8-24.8h-99.3c-13.7,0-24.8,11.1-24.8,24.8
					s11.1,24.8,24.8,24.8H378.8z"/>
			</g>
		</g>
		<g id="XMLID_1270_">
			<g id="XMLID_1440_">
				<path id="XMLID_1441_" d="M468.4,159.2c0-13.7-11.1-24.8-24.8-24.8c-13.7,0-24.8,11.1-24.8,24.8v99.3
					c0,13.7,11.1,24.8,24.8,24.8c13.7,0,24.8-11.1,24.8-24.8V159.2z"/>
			</g>
		</g>
		<g id="XMLID_1269_">
			<g id="XMLID_1435_">
				<path id="XMLID_1438_" d="M344.2,614.5h99.3c13.7,0,24.8-11.1,24.8-24.8v-33.2c0-13.7-11.1-24.8-24.8-24.8
					c-13.7,0-24.8,11.1-24.8,24.8v8.3h-74.5c-13.7,0-24.8,11.1-24.8,24.8S330.5,614.5,344.2,614.5z"/>
			</g>
		</g>
		<g id="XMLID_1268_">
			<g id="XMLID_1430_">
				<path id="XMLID_1431_" d="M468.4-39.4c0-13.7-11.1-24.8-24.8-24.8c-13.7,0-24.8,11.1-24.8,24.8v99.3c0,13.7,11.1,24.8,24.8,24.8
					c13.7,0,24.8-11.1,24.8-24.8V-39.4z"/>
			</g>
		</g>
		<g id="XMLID_1267_">
			<g id="XMLID_1423_">
				<path id="XMLID_1426_" d="M468.4,357.8c0-13.7-11.1-24.8-24.8-24.8c-13.7,0-24.8,11.1-24.8,24.8v99.3
					c0,13.7,11.1,24.8,24.8,24.8c13.7,0,24.8-11.1,24.8-24.8V357.8z"/>
			</g>
		</g>
		<g id="XMLID_1264_">
			<g id="XMLID_1414_">
				<path id="XMLID_1417_" d="M800.3,282.3c-136.2,0-246.9,110.7-246.9,246.9c0,136.1,110.7,246.9,246.9,246.9
					s246.9-110.7,246.9-246.9C1047.2,393.1,936.5,282.3,800.3,282.3z M800.3,726.4c-108.8,0-197.3-88.4-197.3-197.2
					S691.6,332,800.3,332s197.3,88.5,197.3,197.3S909.1,726.4,800.3,726.4z"/>
			</g>
		</g>
		<g id="XMLID_1263_">
			<g id="XMLID_1405_">
				<path id="XMLID_1408_" d="M892.1,437.8c-9.7-9.7-25.4-9.7-35.1,0l-56.3,56.3l-56.3-56.3c-9.7-9.7-25.4-9.7-35.1,0
					s-9.7,25.4,0,35.1l56.3,56.3l-56.3,56.3c-9.7,9.7-9.7,25.4,0,35.1c4.8,4.8,11.2,7.3,17.6,7.3c6.4,0,12.7-2.4,17.6-7.3l56.3-56.3
					l56.3,56.3c4.8,4.8,11.2,7.3,17.6,7.3c6.4,0,12.7-2.4,17.6-7.3c9.7-9.7,9.7-25.4,0-35.1l-56.3-56.3l56.3-56.3
					C901.8,463.2,901.8,447.5,892.1,437.8z"/>
			</g>
		</g>
	</g>
	<g id="XMLID_617_">
		<g id="XMLID_1392_">
			<path id="XMLID_1398_" d="M553.4,522.9V-67.7c0-20.6,17.4-37.4,38.9-37.4H792c21.5,0,38.9,16.7,38.9,37.4v368.3L627.3,374
				L553.4,522.9z"/>
		</g>
	</g>
</g>
</svg>
