<?xml version="1.0" encoding="utf-8"?>
<!-- Generator: Adobe Illustrator 19.0.0, SVG Export Plug-In . SVG Version: 6.00 Build 0)  -->
<svg version="1.1" id="图层_1" xmlns="http://www.w3.org/2000/svg" xmlns:xlink="http://www.w3.org/1999/xlink" x="0px" y="0px"
	 viewBox="32 -232 1024 1024" style="enable-background:new 32 -232 1024 1024;" xml:space="preserve">
<g id="XMLID_1340_">
	<g id="XMLID_1197_">
		<g id="XMLID_1187_">
			<g id="XMLID_1316_">
				<path id="XMLID_1449_" d="M206.6,299.3H67.2c-10.7,0-19.3-8.6-19.3-19.3s8.6-19.3,19.3-19.3h139.4c10.7,0,19.3,8.6,19.3,19.3
					S217.3,299.3,206.6,299.3z"/>
			</g>
		</g>
		<g id="XMLID_1188_">
			<g id="XMLID_1314_">
				<path id="XMLID_1442_" d="M93.7,339.9c-10.7,0-19.3-8.6-19.3-19.3v-80.8c0-10.7,8.6-19.3,19.3-19.3s19.3,8.6,19.3,19.3v80.8
					C113,331.3,104.3,339.9,93.7,339.9z"/>
			</g>
		</g>
	</g>
	<g id="XMLID_1198_">
		<g id="XMLID_1181_">
			<g id="XMLID_1309_">
				<path id="XMLID_1434_" d="M1020.8,687.1H245.2c-10.7,0-19.3-8.6-19.3-19.3v-775.5c0-10.7,8.6-19.3,19.3-19.3h775.5
					c10.7,0,19.3,8.6,19.3,19.3v775.5C1040.1,678.4,1031.4,687.1,1020.8,687.1z M264.5,648.5h736.9V-88.5H264.5V648.5z"/>
			</g>
		</g>
		<g id="XMLID_1182_">
			<g id="XMLID_1308_">
				<path id="XMLID_1427_" d="M1020.8,105.4H245.2c-10.7,0-19.3-8.6-19.3-19.3s8.6-19.3,19.3-19.3h775.5c10.7,0,19.3,8.6,19.3,19.3
					S1031.4,105.4,1020.8,105.4z"/>
			</g>
		</g>
		<g id="XMLID_1183_">
			<g id="XMLID_1307_">
				<path id="XMLID_1422_" d="M1020.8,299.3H245.2c-10.7,0-19.3-8.6-19.3-19.3s8.6-19.3,19.3-19.3h775.5c10.7,0,19.3,8.6,19.3,19.3
					S1031.4,299.3,1020.8,299.3z"/>
			</g>
		</g>
		<g id="XMLID_1185_">
			<g id="XMLID_1306_">
				<path id="XMLID_1417_" d="M1020.8,493.2H245.2c-10.7,0-19.3-8.6-19.3-19.3c0-10.7,8.6-19.3,19.3-19.3h775.5
					c10.7,0,19.3,8.6,19.3,19.3C1040.1,484.6,1031.4,493.2,1020.8,493.2z"/>
			</g>
		</g>
		<g id="XMLID_1186_">
			<g id="XMLID_1405_">
				<rect id="XMLID_1408_" x="439.1" y="-96.5" width="193.9" height="750.7"/>
			</g>
		</g>
		<g id="XMLID_1184_">
			<g id="XMLID_1305_">
				<path id="XMLID_1399_" d="M826.9,673.6c-10.7,0-19.3-8.6-19.3-19.3V-96.5c0-10.7,8.6-19.3,19.3-19.3s19.3,8.6,19.3,19.3v750.7
					C846.2,664.9,837.6,673.6,826.9,673.6z"/>
			</g>
		</g>
	</g>
</g>
</svg>
