<?xml version="1.0" encoding="iso-8859-1"?>
<!-- Generator: Adobe Illustrator 19.0.0, SVG Export Plug-In . SVG Version: 6.00 Build 0)  -->
<svg version="1.1" id="&#x56FE;&#x5C42;_1" xmlns="http://www.w3.org/2000/svg" xmlns:xlink="http://www.w3.org/1999/xlink" x="0px"
	 y="0px" viewBox="0 0 1024 1024" style="enable-background:new 0 0 1024 1024;" xml:space="preserve">
<path id="XMLID_458_" style="fill:#040000;" d="M943.413,266.277c0-41.346-16.04-80.122-45.083-109.165
	c-60.189-60.189-158.219-60.111-218.252,0l-87.971,87.981c-0.005,0.005-0.01,0-0.015,0.005l-256.561,256.6
	c-17.519,17.519-27.252,40.917-27.252,65.873c0,24.916,9.733,48.314,27.252,65.873l18.064,18.103
	c18.142,18.181,42.046,27.252,65.873,27.252c23.904,0,47.808-9.071,65.951-27.252l256.561-256.6c7.786-7.786,7.786-20.4,0-28.187
	c-7.786-7.786-20.4-7.786-28.187,0l-256.561,256.6c-20.79,20.751-54.505,20.829-75.45,0l-18.064-18.103
	c-10.044-10.005-15.573-23.398-15.573-37.686s5.528-27.681,15.573-37.686l344.546-344.585c44.694-44.655,117.185-44.577,161.878,0
	c21.568,21.529,33.404,50.261,33.404,80.978c0,30.678-11.835,59.41-33.404,80.939L525.597,691.763
	c-0.029,0.029-0.015,0.073-0.044,0.102L391.749,825.649c-59.799,59.799-165.071,59.799-224.87,0
	c-61.902-61.979-61.902-162.813,0-224.792l249.553-249.553c7.786-7.786,7.786-20.4,0-28.187c-7.786-7.786-20.4-7.786-28.187,0
	L138.693,572.67c-77.474,77.513-77.474,203.652,0,281.166C177.469,892.612,228.392,912,279.314,912s101.846-19.388,140.622-58.164
	l249.553-249.514c0.039-0.039,0.019-0.092,0.054-0.131L898.33,375.403C927.373,346.36,943.413,307.584,943.413,266.277z"/>
</svg>
