<?xml version="1.0" encoding="iso-8859-1"?>
<!-- Generator: Adobe Illustrator 19.0.0, SVG Export Plug-In . SVG Version: 6.00 Build 0)  -->
<svg version="1.1" id="&#x56FE;&#x5C42;_1" xmlns="http://www.w3.org/2000/svg" xmlns:xlink="http://www.w3.org/1999/xlink" x="0px"
	 y="0px" viewBox="0 0 1024 1024" style="enable-background:new 0 0 1024 1024;" xml:space="preserve">
<path id="XMLID_393_" style="fill:#040000;" d="M991.241,658.759l-63.273-127.823l-127.823,63.235l17.058,34.492l67.424-33.36
	c-47.37,157.064-188.141,268.321-354.03,276.517v-378.72h108.398v-38.475H530.599V321.666
	c49.169-9.093,86.568-52.099,86.568-103.861c0-58.351-47.454-105.805-105.805-105.805s-105.805,47.454-105.805,105.805
	c0,51.761,37.399,94.768,86.568,103.861v132.961H383.726v38.475h108.398v378.72c-165.912-8.214-306.96-119.857-354.208-277.236
	l68.88,34.078l17.058-34.492L96.032,530.937L32.759,658.759l34.492,17.058l34.262-69.19C155.735,785.685,320.388,912,511.361,912
	c191.809,0,356.674-126.968,410.351-306.942l35.037,70.759L991.241,658.759z M444.031,217.805c0-37.122,30.209-67.33,67.33-67.33
	s67.33,30.209,67.33,67.33s-30.208,67.33-67.33,67.33S444.031,254.927,444.031,217.805z"/>
</svg>
