<?xml version="1.0" encoding="iso-8859-1"?>
<!-- Generator: Adobe Illustrator 19.0.0, SVG Export Plug-In . SVG Version: 6.00 Build 0)  -->
<svg version="1.1" id="&#x56FE;&#x5C42;_1" xmlns="http://www.w3.org/2000/svg" xmlns:xlink="http://www.w3.org/1999/xlink" x="0px"
	 y="0px" viewBox="0 0 1024 1024" style="enable-background:new 0 0 1024 1024;" xml:space="preserve">
<path id="XMLID_411_" style="fill:#040000;" d="M913.824,870.625H312.753c33.102-14.99,60.865-30.688,73.866-40.809l-0.692-0.889
	c7.798-4.364,15.839-8.278,22.47-14.909l452.537-452.537c38.829-38.829,38.829-102.063,0-140.892l-79.436-79.436
	c-38.91-38.91-102.063-38.829-140.892,0L188.068,593.689c-10.404,10.404-17.536,22.657-22.364,35.627
	c-21.157,35.344-118.432,206.596-55.092,265.916c12.404,11.596,30.991,16.324,52.89,16.324c3.939,0,8.359-0.747,12.495-1.04
	c1.323,0.263,2.182,1.485,3.586,1.485h734.241c11.435,0,20.687-9.253,20.687-20.687S925.259,870.625,913.824,870.625z
	 M669.858,170.406c11.354-11.354,26.263-17.051,41.173-17.051c14.95,0,29.859,5.697,41.213,17.051l79.436,79.436
	c22.708,22.708,22.708,59.678,0,82.386l-64.582,64.582L603.771,236.493L669.858,170.406z M574.517,265.746l163.327,160.317
	L379.144,784.764c-22.667,22.708-59.638,22.708-82.386,0l-79.436-79.436c-22.708-22.708-22.708-59.678,0-82.386L574.517,265.746z
	 M138.895,865.009c-21.879-20.475,0.909-92.396,31.637-156.878c4.667,9.369,9.743,18.657,17.536,26.45l79.436,79.436
	c8.465,8.465,18.43,14.263,28.693,19.036C234.322,860.534,156.85,882.03,138.895,865.009z"/>
</svg>
