<?xml version="1.0" encoding="iso-8859-1"?>
<!-- Generator: Adobe Illustrator 19.0.0, SVG Export Plug-In . SVG Version: 6.00 Build 0)  -->
<svg version="1.1" id="&#x56FE;&#x5C42;_1" xmlns="http://www.w3.org/2000/svg" xmlns:xlink="http://www.w3.org/1999/xlink" x="0px"
	 y="0px" viewBox="0 0 1024 1024" style="enable-background:new 0 0 1024 1024;" xml:space="preserve">
<g id="XMLID_246_">
	<path id="XMLID_247_" style="fill:#040000;" d="M848.318,259.819H30.487c-10.884,0-19.761,8.838-19.761,19.761
		s8.877,19.761,19.761,19.761h798.07v573.138H50.248V466.844c0-10.922-8.877-19.761-19.761-19.761s-19.761,8.838-19.761,19.761
		v425.396c0,10.922,8.877,19.761,19.761,19.761h817.831c10.884,0,19.761-8.838,19.761-19.761V279.58
		C868.079,268.658,859.202,259.819,848.318,259.819z"/>
	<path id="XMLID_255_" style="fill:#040000;" d="M993.513,112H204.86c-10.884,0-19.761,8.838-19.761,19.761v85.064
		c0,10.922,8.877,19.761,19.761,19.761c10.884,0,19.761-8.838,19.761-19.761v-65.303h749.132v625.897h-55.654
		c-10.884,0-19.761,8.838-19.761,19.761s8.877,19.761,19.761,19.761h75.415c10.884,0,19.761-8.838,19.761-19.761V131.761
		C1013.274,120.838,1004.397,112,993.513,112z"/>
	<path id="XMLID_413_" style="fill:#040000;" d="M664.374,570.086c58.201,0,105.596-47.395,105.596-105.635
		s-47.395-105.596-105.596-105.596c-58.279,0-105.673,47.356-105.673,105.596S606.095,570.086,664.374,570.086z M664.374,398.376
		c36.434,0,66.075,29.641,66.075,66.075c0,36.472-29.641,66.113-66.075,66.113c-36.511,0-66.152-29.641-66.152-66.113
		C598.222,428.017,627.863,398.376,664.374,398.376z"/>
	<path id="XMLID_415_" style="fill:#040000;" d="M348.357,532.34c-3.705-4.709-9.34-7.449-15.284-7.526
		c-8.028-0.077-11.733,2.586-15.438,7.179L109.298,784.597c-6.947,8.414-5.789,20.88,2.624,27.827
		c3.705,3.049,8.182,4.516,12.582,4.516c5.712,0,11.347-2.432,15.206-7.179l192.821-233.694l104.13,132.073
		c6.87,8.568,19.22,10.035,27.789,3.281c8.568-6.754,10.035-19.182,3.242-27.75L348.357,532.34z"/>
	<path id="XMLID_456_" style="fill:#040000;" d="M457.426,813.196c8.954,6.445,21.227,4.4,27.634-4.477l96.951-134.62
		l204.245,173.292c3.782,3.165,8.259,4.709,12.814,4.709c5.558,0,11.193-2.354,15.052-6.986c7.102-8.298,6.021-20.803-2.239-27.827
		L591.274,630.14c-4.245-3.551-9.726-5.365-15.206-4.554c-5.481,0.656-10.421,3.589-13.663,8.066L452.949,785.64
		C446.62,794.478,448.627,806.828,457.426,813.196z"/>
</g>
</svg>
