<?xml version="1.0" encoding="iso-8859-1"?>
<!-- Generator: Adobe Illustrator 19.0.0, SVG Export Plug-In . SVG Version: 6.00 Build 0)  -->
<svg version="1.1" id="&#x56FE;&#x5C42;_1" xmlns="http://www.w3.org/2000/svg" xmlns:xlink="http://www.w3.org/1999/xlink" x="0px"
	 y="0px" viewBox="0 0 1024 1024" style="enable-background:new 0 0 1024 1024;" xml:space="preserve">
<path id="XMLID_105_" style="fill:#040000;" d="M898.541,216.948h-49.109v-85.591c0-10.699-8.657-19.356-19.356-19.356H179.672
	c-10.699,0-19.356,8.657-19.356,19.356v85.591h-34.857c-10.699,0-19.356,8.657-19.356,19.356c0,10.699,8.657,19.356,19.356,19.356
	h34.857v85.629c0,10.699,8.657,19.356,19.356,19.356h650.404c10.699,0,19.356-8.657,19.356-19.356v-85.629h29.753v152.242H527.708
	c-10.699,0-19.356,8.657-19.356,19.356v175.417h-34.857c-10.699,0-19.356,8.657-19.356,19.356v270.611
	c0,10.699,8.657,19.356,19.356,19.356h105.553c10.699,0,19.356-8.657,19.356-19.356V622.033c0-10.699-8.657-19.356-19.356-19.356
	h-31.983V446.616h351.477c10.699,0,19.356-8.657,19.356-19.356V236.304C917.898,225.605,909.24,216.948,898.541,216.948z
	 M810.719,321.933H199.028V150.713h611.691V321.933z M559.692,873.287h-66.84V641.389h66.84V873.287z"/>
</svg>
