<?xml version="1.0" encoding="iso-8859-1"?>
<!-- Generator: Adobe Illustrator 19.0.0, SVG Export Plug-In . SVG Version: 6.00 Build 0)  -->
<svg version="1.1" id="&#x56FE;&#x5C42;_1" xmlns="http://www.w3.org/2000/svg" xmlns:xlink="http://www.w3.org/1999/xlink" x="0px"
	 y="0px" viewBox="0 0 1024 1024" style="enable-background:new 0 0 1024 1024;" xml:space="preserve">
<g id="XMLID_147_">
	<path id="XMLID_1657_" style="fill:#040000;" d="M674.579,912H240.904c-11.608,0-21.001-9.393-21.001-21.001V133.001
		c0-11.608,9.393-21.001,21.001-21.001h388.679c3.24,0,6.399,0.738,9.311,2.174c4.676,2.297,115.135,57.957,137.9,169.442
		c14.52,71.001-9.967,146.842-72.724,225.677c67.473,59.188,101.107,123.421,100,191.222
		c-1.969,119.729-112.182,203.774-116.899,207.301C683.562,910.523,679.132,912,674.579,912z M261.905,869.998h405.25
		c20.386-17.145,93.642-84.701,94.914-170.386c0.861-57.67-31.091-113.659-94.955-166.612H261.905V869.998z M261.905,490.999
		h402.912c59.352-71.616,83.183-138.515,70.837-198.975c-16.489-80.722-92.822-127.687-111.321-138.023H261.905V490.999z"/>
</g>
</svg>
