<?xml version="1.0" encoding="utf-8"?>
<!-- Generator: Adobe Illustrator 19.0.0, SVG Export Plug-In . SVG Version: 6.00 Build 0)  -->
<svg version="1.1" id="图层_1" xmlns="http://www.w3.org/2000/svg" xmlns:xlink="http://www.w3.org/1999/xlink" x="0px" y="0px"
	 viewBox="0 0 1024 1024" style="enable-background:new 0 0 1024 1024;" xml:space="preserve">
<g>
	<path d="M908.8,271.8H718.7c-11.1,0-20,9-20,20V892c0,11.1,9,20,20,20h190.1c11.1,0,20-9,20-20V291.9
		C928.8,280.8,919.8,271.8,908.8,271.8z M888.7,871.9h-150v-560h150V871.9z"/>
	<path d="M601.1,112H411c-11.1,0-20,9-20,20V892c0,11.1,9,20,20,20h190.1c11.1,0,20-9,20-20V132C621.1,121,612.2,112,601.1,112z
		 M581.1,871.9H431V152.1h150V871.9z"/>
	<path d="M305.3,598.1H115.2c-11.1,0-20,9-20,20V892c0,11.1,9,20,20,20h190.1c11.1,0,20-9,20-20V618.1
		C325.4,607,316.4,598.1,305.3,598.1z M285.3,871.9h-150V638.1h150V871.9z"/>
</g>
</svg>
