<?xml version="1.0" encoding="iso-8859-1"?>
<!-- Generator: Adobe Illustrator 19.0.0, SVG Export Plug-In . SVG Version: 6.00 Build 0)  -->
<svg version="1.1" id="&#x56FE;&#x5C42;_1" xmlns="http://www.w3.org/2000/svg" xmlns:xlink="http://www.w3.org/1999/xlink" x="0px"
	 y="0px" viewBox="0 0 1024 1024" style="enable-background:new 0 0 1024 1024;" xml:space="preserve">
<path id="XMLID_204_" style="fill:#040000;" d="M834.373,309.477c-0.198-4.074-1.344-8.057-3.997-11.377l-142.33-178.637
	c-3.422-4.277-8.439-6.08-13.654-6.588c-0.696-0.072-1.107-0.875-1.812-0.875H209.09c-10.942,0-19.797,8.855-19.797,19.797v760.406
	c0,10.943,8.855,19.797,19.797,19.797H814.91c10.943,0,19.797-8.854,19.797-19.797V310.434
	C834.707,310.086,834.392,309.82,834.373,309.477z M773.808,290.637h-81.431V188.423l42.117,52.856L773.808,290.637z
	 M228.887,872.406V151.594h423.896v158.84c0,10.942,8.855,19.797,19.797,19.797h122.533v542.175H228.887z"/>
</svg>
