<?xml version="1.0" encoding="utf-8"?>
<!-- Generator: Adobe Illustrator 19.0.0, SVG Export Plug-In . SVG Version: 6.00 Build 0)  -->
<svg version="1.1" id="图层_1" xmlns="http://www.w3.org/2000/svg" xmlns:xlink="http://www.w3.org/1999/xlink" x="0px" y="0px"
	 viewBox="32 -232 1024 1024" style="enable-background:new 32 -232 1024 1024;" xml:space="preserve">
<path id="XMLID_1553_" d="M575.6,280l437.3-437.3c8.7-8.7,8.7-22.9,0-31.6c-8.7-8.7-22.9-8.7-31.6,0L544,248.4L106.7-188.9
	c-8.7-8.7-22.9-8.7-31.6,0s-8.7,22.9,0,31.6L512.4,280L75.1,717.3c-8.7,8.7-8.7,22.9,0,31.6c4.4,4.4,10.1,6.5,15.8,6.5
	s11.4-2.2,15.8-6.5L544,311.6l437.3,437.3c4.4,4.4,10.1,6.5,15.8,6.5s11.4-2.2,15.8-6.5c8.7-8.7,8.7-22.9,0-31.6L575.6,280z"/>
</svg>
