<?xml version="1.0" encoding="utf-8"?>
<!-- Generator: Adobe Illustrator 19.0.0, SVG Export Plug-In . SVG Version: 6.00 Build 0)  -->
<svg version="1.1" id="图层_1" xmlns="http://www.w3.org/2000/svg" xmlns:xlink="http://www.w3.org/1999/xlink" x="0px" y="0px"
	 viewBox="32 -232 1024 1024" style="enable-background:new 32 -232 1024 1024;" xml:space="preserve">
<path id="XMLID_1049_" d="M1039.5,135.4c-0.9-7.9-3.8-15-8.4-20.8l-144-180.7C883-71.3,875.7-77.6,863-80c-2.6-1-5.5-1.6-8.1-1.6
	H681.8c-0.7-1.4-0.3-3.1-1.4-4.4l-90.3-108.3c-4.3-5.4-12-11.9-24.5-14c-2.3-0.9-4.8-1.3-7-1.4c-0.1,0-0.2-0.1-0.3-0.1
	c0,0-0.1,0-0.1,0c-0.1,0-0.2,0-0.2,0H89.1c-22.7,0-41.1,18.5-41.1,41.2v769.1c0,22.7,18.5,41.2,41.1,41.2H345v87
	c0,22.7,18.5,41.2,41.1,41.2h612.8c22.7,0,41.2-18.5,41.2-41.2V140.2C1040.1,138.6,1039.9,137,1039.5,135.4z M997.4,139.8
	L997.4,139.8c0,0.2,0.1,0.3,0.1,0.5c0,0.4,0.1,0.8,0.1,1.2H876.1V-12.1L997.4,139.8z M629-81.7h-49.6v-59.5L629-81.7z M90.2,600.5
	l-1.2-768h448v85.9h-151c-22.7,0-41.1,18.5-41.1,41.2v639.9L90.2,600.5z M387.3,728.6l-0.2-107.7c0-0.2,0.2-0.2,0.2-0.4
	c0-0.2-0.2-0.2-0.2-0.4l-1-659.5h447.7v202c0,11.7,9.5,21.1,21.1,21.1h142.9l1,543.7L387.3,728.6z"/>
</svg>
