<?xml version="1.0" encoding="utf-8"?>
<!-- Generator: Adobe Illustrator 19.0.0, SVG Export Plug-In . SVG Version: 6.00 Build 0)  -->
<svg version="1.1" id="图层_1" xmlns="http://www.w3.org/2000/svg" xmlns:xlink="http://www.w3.org/1999/xlink" x="0px" y="0px"
	 viewBox="0 0 1024 1024" style="enable-background:new 0 0 1024 1024;" xml:space="preserve">
<g>
	<path d="M953.6,219H823.1c-11,0-19.9,8.9-19.9,19.9s8.9,19.9,19.9,19.9h110.7v127.8H90.3V258.8h124.1c11,0,19.9-8.9,19.9-19.9
		s-8.9-19.9-19.9-19.9h-144c-11,0-19.9,8.9-19.9,19.9v653.2c0,11,8.9,19.9,19.9,19.9h883.3c11,0,19.9-8.9,19.9-19.9V238.9
		C973.6,227.9,964.6,219,953.6,219z M90.3,872.2V426.5h843.4v445.7H90.3z"/>
	<path d="M348.9,258.8h335.6c11,0,19.9-8.9,19.9-19.9s-8.9-19.9-19.9-19.9H348.9c-11,0-19.9,8.9-19.9,19.9S337.9,258.8,348.9,258.8z
		"/>
	<path d="M279.8,296.3c11,0,19.9-8.9,19.9-19.9V131.9c0-11-8.9-19.9-19.9-19.9c-11,0-19.9,8.9-19.9,19.9v144.4
		C259.9,287.4,268.8,296.3,279.8,296.3z"/>
	<path d="M751.3,296.3c11,0,19.9-8.9,19.9-19.9V131.9c0-11-8.9-19.9-19.9-19.9s-19.9,8.9-19.9,19.9v144.4
		C731.4,287.4,740.3,296.3,751.3,296.3z"/>
	<path d="M321.6,501.9c-11,0-19.9,8.9-19.9,19.9v252.1c0,11,8.9,19.9,19.9,19.9c11,0,19.9-8.9,19.9-19.9V521.8
		C341.6,510.8,332.6,501.9,321.6,501.9z"/>
	<path d="M702.4,541.7c11,0,19.9-8.9,19.9-19.9s-8.9-19.9-19.9-19.9H477.5c-11,0-19.9,8.9-19.9,19.9v113c0,11,8.9,19.9,19.9,19.9
		h204.9V754H477.5c-11,0-19.9,8.9-19.9,19.9c0,11,8.9,19.9,19.9,19.9h224.8c11,0,19.9-8.9,19.9-19.9V634.8c0-11-8.9-19.9-19.9-19.9
		H497.4v-73.2H702.4z"/>
</g>
</svg>
