<?xml version="1.0" encoding="utf-8"?>
<!-- Generator: Adobe Illustrator 19.0.0, SVG Export Plug-In . SVG Version: 6.00 Build 0)  -->
<svg version="1.1" id="图层_1" xmlns="http://www.w3.org/2000/svg" xmlns:xlink="http://www.w3.org/1999/xlink" x="0px" y="0px"
	 viewBox="32 -232 1024 1024" style="enable-background:new 32 -232 1024 1024;" xml:space="preserve">
<style type="text/css">
	.st0{fill:none;stroke:#000000;stroke-width:0.5;stroke-linecap:round;stroke-linejoin:round;stroke-miterlimit:10;}
</style>
<g id="XMLID_1299_">
	<g id="XMLID_1300_">
		<g id="XMLID_1301_">
			<g id="XMLID_1302_">
				<g id="XMLID_1303_">
					<path id="XMLID_1304_" d="M874.3,772.9H68c-11.1,0-20.1-9-20.1-20.1V-53.5c0-11.1,9-20.1,20.1-20.1h517.3
						c11.1,0,20.1,9,20.1,20.1s-9,20.1-20.1,20.1H88.1v766.2h766.1V243c0-11.1,9-20.1,20.1-20.1c11.1,0,20.1,9,20.1,20.1v509.8
						C894.4,763.9,885.4,772.9,874.3,772.9z"/>
				</g>
			</g>
			<g id="XMLID_1337_">
				<g id="XMLID_1338_">
					<path id="XMLID_1339_" d="M640.8,168.2H68c-11.1,0-20.1-9-20.1-20.1c0-11.1,9-20.1,20.1-20.1h572.8c11.1,0,20.1,9,20.1,20.1
						C660.9,159.2,651.9,168.2,640.8,168.2z"/>
				</g>
			</g>
			<g id="XMLID_1342_">
				<g id="XMLID_1343_">
					<path id="XMLID_1344_" d="M874.3,369.8H68c-11.1,0-20.1-9-20.1-20.1s9-20.1,20.1-20.1h806.3c11.1,0,20.1,9,20.1,20.1
						S885.4,369.8,874.3,369.8z"/>
				</g>
			</g>
			<g id="XMLID_1347_">
				<g id="XMLID_1348_">
					<path id="XMLID_1349_" d="M874.3,571.4H68c-11.1,0-20.1-9-20.1-20.1c0-11.1,9-20.1,20.1-20.1h806.3c11.1,0,20.1,9,20.1,20.1
						C894.4,562.4,885.4,571.4,874.3,571.4z"/>
				</g>
			</g>
		</g>
		<g id="XMLID_1350_">
			<g id="XMLID_1353_">
				<path id="XMLID_1356_" d="M605.5,758.9c-11.1,0-20.1-9-20.1-20.1v-579c0-11.1,9-20.1,20.1-20.1c11.1,0,20.1,9,20.1,20.1v579
					C625.6,749.9,616.6,758.9,605.5,758.9z"/>
			</g>
		</g>
		<g id="XMLID_1359_">
			<g id="XMLID_1362_">
				<path id="XMLID_1590_" class="st0" d="M874.3,738.8"/>
			</g>
		</g>
		<g id="XMLID_1365_">
			<g id="XMLID_1368_">
				<path id="XMLID_1369_" d="M68,758.9c-11.1,0-20.1-9-20.1-20.1v-579c0-11.1,9-20.1,20.1-20.1s20.1,9,20.1,20.1v579
					C88.1,749.9,79.1,758.9,68,758.9z"/>
			</g>
		</g>
		<g id="XMLID_1370_">
			<g id="XMLID_1373_">
				<path id="XMLID_1374_" d="M336.8,758.9c-11.1,0-20.1-9-20.1-20.1v-579c0-11.1,9-20.1,20.1-20.1c11.1,0,20.1,9,20.1,20.1v579
					C356.8,749.9,347.9,758.9,336.8,758.9z"/>
			</g>
		</g>
	</g>
	<g id="XMLID_1377_">
		<g id="XMLID_1378_">
			<g id="XMLID_1381_">
				<path id="XMLID_1382_" d="M840.5,186.3c110.1,0,199.6-89.5,199.6-199.6s-89.5-199.6-199.6-199.6S640.8-123.4,640.8-13.3
					S730.4,186.3,840.5,186.3z M840.5-172.8c87.9,0,159.5,71.5,159.5,159.5s-71.5,159.5-159.5,159.5S681,74.6,681-13.3
					S752.5-172.8,840.5-172.8z"/>
			</g>
		</g>
		<g id="XMLID_1389_">
			<g id="XMLID_1390_">
				<path id="XMLID_1391_" d="M766.6,60.3c3.9,3.9,9.1,5.9,14.2,5.9c5.1,0,10.3-2,14.2-5.9l45.5-45.5l45.5,45.5
					c3.9,3.9,9.1,5.9,14.2,5.9c5.1,0,10.3-2,14.2-5.9c7.8-7.8,7.8-20.5,0-28.4l-45.5-45.5l45.5-45.5c7.8-7.8,7.8-20.5,0-28.4
					s-20.5-7.8-28.4,0L840.5-42L795-87.5c-7.8-7.8-20.5-7.8-28.4,0s-7.8,20.5,0,28.4l45.5,45.5l-45.5,45.5
					C758.8,39.7,758.8,52.4,766.6,60.3z"/>
			</g>
		</g>
	</g>
</g>
</svg>
