<?xml version="1.0" encoding="utf-8"?>
<!-- Generator: Adobe Illustrator 19.0.0, SVG Export Plug-In . SVG Version: 6.00 Build 0)  -->
<svg version="1.1" id="图层_1" xmlns="http://www.w3.org/2000/svg" xmlns:xlink="http://www.w3.org/1999/xlink" x="0px" y="0px"
	 viewBox="32 -232 1024 1024" style="enable-background:new 32 -232 1024 1024;" xml:space="preserve">
<g id="XMLID_1338_">
	<g id="XMLID_619_">
		<g id="XMLID_1261_">
			<g id="XMLID_1464_">
				<path id="XMLID_1465_" d="M951,244.7c-13.5,0-24.5,10.9-24.5,24.5v458H104V-95.5h418.2c13.5,0,24.5-10.9,24.5-24.5
					s-10.9-24.5-24.5-24.5H79.5C66-144.4,55-133.5,55-119.9v871.5c0,13.5,10.9,24.5,24.5,24.5H951c13.5,0,24.5-10.9,24.5-24.5V269.1
					C975.4,255.6,964.5,244.7,951,244.7z"/>
			</g>
		</g>
		<g id="XMLID_1260_">
			<g id="XMLID_1461_">
				<path id="XMLID_1462_" d="M873.6,379.1c0-13.5-10.9-24.5-24.5-24.5h-32.6c-13.5,0-24.5,10.9-24.5,24.5
					c0,13.5,10.9,24.5,24.5,24.5h8.1v73.4c0,13.5,10.9,24.5,24.5,24.5s24.5-10.9,24.5-24.5V379.1z"/>
			</g>
		</g>
		<g id="XMLID_1259_">
			<g id="XMLID_1458_">
				<path id="XMLID_1459_" d="M351.6,379.1c0-13.5-10.9-24.5-24.5-24.5h-97.9c-13.5,0-24.5,10.9-24.5,24.5
					c0,13.5,10.9,24.5,24.5,24.5h97.9C340.6,403.5,351.6,392.6,351.6,379.1z"/>
			</g>
		</g>
		<g id="XMLID_1258_">
			<g id="XMLID_7_">
				<path id="XMLID_1456_" d="M211.4,646.7h97.9c13.5,0,24.5-10.9,24.5-24.5c0-13.5-10.9-24.5-24.5-24.5h-97.9
					c-13.5,0-24.5,10.9-24.5,24.5C186.9,635.8,197.8,646.7,211.4,646.7z"/>
			</g>
		</g>
		<g id="XMLID_1257_">
			<g id="XMLID_6_">
				<path id="XMLID_1451_" d="M849.2,550.4c-13.5,0-24.5,10.9-24.5,24.5v22.9h-26c-13.5,0-24.5,10.9-24.5,24.5
					c0,13.5,10.9,24.5,24.5,24.5h50.5c13.5,0,24.5-10.9,24.5-24.5v-47.4C873.6,561.3,862.7,550.4,849.2,550.4z"/>
			</g>
		</g>
		<g id="XMLID_1256_">
			<g id="XMLID_5_">
				<path id="XMLID_1448_" d="M170.6,540.7c0,13.5,10.9,24.5,24.5,24.5s24.5-10.9,24.5-24.5v-97.9c0-13.5-10.9-24.5-24.5-24.5
					s-24.5,10.9-24.5,24.5V540.7z"/>
			</g>
		</g>
		<g id="XMLID_1255_">
			<g id="XMLID_4_">
				<path id="XMLID_1441_" d="M743.1,379.1c0-13.5-10.9-24.5-24.5-24.5h-97.9c-13.5,0-24.5,10.9-24.5,24.5
					c0,13.5,10.9,24.5,24.5,24.5h97.9C732.2,403.5,743.1,392.6,743.1,379.1z"/>
			</g>
		</g>
		<g id="XMLID_1254_">
			<g id="XMLID_1435_">
				<path id="XMLID_1438_" d="M602.9,646.7h97.9c13.5,0,24.5-10.9,24.5-24.5c0-13.5-10.9-24.5-24.5-24.5h-97.9
					c-13.5,0-24.5,10.9-24.5,24.5C578.4,635.8,589.4,646.7,602.9,646.7z"/>
			</g>
		</g>
		<g id="XMLID_1245_">
			<g id="XMLID_1430_">
				<path id="XMLID_1431_" d="M407.1,646.7H505c13.5,0,24.5-10.9,24.5-24.5c0-13.5-10.9-24.5-24.5-24.5h-97.9
					c-13.5,0-24.5,10.9-24.5,24.5C382.7,635.8,393.6,646.7,407.1,646.7z"/>
			</g>
		</g>
		<g id="XMLID_685_">
			<g id="XMLID_1423_">
				<path id="XMLID_3_" d="M547.4,379.1c0-13.5-10.9-24.5-24.5-24.5H425c-13.5,0-24.5,10.9-24.5,24.5c0,13.5,10.9,24.5,24.5,24.5
					h97.9C536.4,403.5,547.4,392.6,547.4,379.1z"/>
			</g>
		</g>
		<g id="XMLID_636_">
			<g id="XMLID_1414_">
				<path id="XMLID_2_" d="M789.6,270.7c134.2,0,243.4-109.2,243.4-243.4S923.8-216.1,789.6-216.1S546.2-106.9,546.2,27.3
					S655.4,270.7,789.6,270.7z M789.6-167.1C896.8-167.1,984-79.9,984,27.3s-87.2,194.4-194.4,194.4S595.2,134.5,595.2,27.3
					S682.4-167.1,789.6-167.1z"/>
			</g>
		</g>
		<g id="XMLID_635_">
			<g id="XMLID_1405_">
				<path id="XMLID_1408_" d="M699.6,117c4.8,4.8,11,7.2,17.3,7.2c6.3,0,12.5-2.4,17.3-7.2l55.4-55.5l55.4,55.5
					c4.8,4.8,11,7.2,17.3,7.2s12.5-2.4,17.3-7.2c9.6-9.6,9.6-25,0-34.6L824.2,27l55.5-55.5c9.6-9.6,9.6-25,0-34.6
					c-9.6-9.6-25-9.6-34.6,0L789.6-7.6l-55.4-55.5c-9.6-9.6-25-9.6-34.6,0s-9.6,25,0,34.6L755,27l-55.5,55.5
					C690,92,690,107.5,699.6,117z"/>
			</g>
		</g>
	</g>
	<g id="XMLID_618_">
		<g id="XMLID_1392_">
			<path id="XMLID_1_" d="M789.6,270.7H207.4c-20.3,0-36.8-17.2-36.8-38.4V35.4c0-21.2,16.5-38.4,36.8-38.4h363l72.4,200.9
				L789.6,270.7z"/>
		</g>
	</g>
</g>
</svg>
