<?xml version="1.0" encoding="iso-8859-1"?>
<!-- Generator: Adobe Illustrator 19.0.0, SVG Export Plug-In . SVG Version: 6.00 Build 0)  -->
<svg version="1.1" id="&#x56FE;&#x5C42;_1" xmlns="http://www.w3.org/2000/svg" xmlns:xlink="http://www.w3.org/1999/xlink" x="0px"
	 y="0px" viewBox="0 0 1024 1024" style="enable-background:new 0 0 1024 1024;" xml:space="preserve">
<g id="XMLID_292_">
	<path id="XMLID_293_" style="fill:#040000;" d="M927.26,615.426H473.182c-12.392,0-22.419,10.027-22.419,22.419
		s10.027,22.419,22.419,22.419H927.26c12.392,0,22.419-10.027,22.419-22.419S939.652,615.426,927.26,615.426z"/>
	<path id="XMLID_298_" style="fill:#040000;" d="M473.182,408.53h364.05c12.392,0,22.419-10.027,22.419-22.419
		s-10.027-22.419-22.419-22.419h-364.05c-12.392,0-22.419,10.027-22.419,22.419S460.79,408.53,473.182,408.53z"/>
	<path id="XMLID_299_" style="fill:#040000;" d="M473.182,156.839h275.249c12.392,0,22.419-10.027,22.419-22.419
		S760.823,112,748.431,112H473.182c-12.392,0-22.419,10.027-22.419,22.419S460.79,156.839,473.182,156.839z"/>
	<path id="XMLID_300_" style="fill:#040000;" d="M748.431,867.161H473.182c-12.392,0-22.419,10.027-22.419,22.419
		S460.79,912,473.182,912h275.249c12.392,0,22.419-10.027,22.419-22.419S760.823,867.161,748.431,867.161z"/>
	<path id="XMLID_301_" style="fill:#040000;" d="M371.026,513.357c-0.361-0.427-1.002-0.317-1.39-0.712
		c-0.498-0.52-0.553-1.303-1.106-1.784L250.391,409.055c-9.283-7.969-23.558-6.962-31.615,2.365
		c-8.057,9.371-7.006,23.514,2.365,31.615l72.425,62.397H96.74c-12.392,0-22.419,10.027-22.419,22.419S84.348,550.27,96.74,550.27
		h195.944l-71.412,60.427c-9.458,8.013-10.597,22.157-2.627,31.615c4.423,5.211,10.772,7.926,17.121,7.926
		c5.123,0,10.29-1.752,14.494-5.298l118.139-99.967c0.837-0.712,0.684-1.905,1.39-2.704c1.888-2.08,4.111-3.875,5.134-6.623
		c0.454-1.221-0.038-2.479,0.192-3.733c0.345-1.773,0.334-3.169,0.252-4.97c-0.17-3.831-1.303-7.137-3.333-10.427
		C371.431,515.525,371.797,514.271,371.026,513.357z"/>
</g>
</svg>
