<?xml version="1.0" encoding="iso-8859-1"?>
<!-- Generator: Adobe Illustrator 19.0.0, SVG Export Plug-In . SVG Version: 6.00 Build 0)  -->
<svg version="1.1" id="&#x56FE;&#x5C42;_1" xmlns="http://www.w3.org/2000/svg" xmlns:xlink="http://www.w3.org/1999/xlink" x="0px"
	 y="0px" viewBox="0 0 1024 1024" style="enable-background:new 0 0 1024 1024;" xml:space="preserve">
<g id="XMLID_416_">
	<path id="XMLID_421_" style="fill:#040000;" d="M911.922,112H112.078c-11.028,0-19.951,8.924-19.951,19.951v760.097
		c0,11.028,8.924,19.951,19.951,19.951h799.844c11.028,0,19.951-8.924,19.951-19.951V131.951
		C931.873,120.924,922.95,112,911.922,112z M891.971,872.097H132.029V151.903h759.942V872.097z"/>
	<path id="XMLID_437_" style="fill:#040000;" d="M378.264,485.346c36.902,0,66.907-30.005,66.907-66.907v-82.728
		c0-36.902-30.005-66.907-66.907-66.907c-36.863,0-66.868,30.005-66.868,66.907v82.728
		C311.396,455.341,341.401,485.346,378.264,485.346z M351.299,335.712c0-14.886,12.08-27.004,26.965-27.004
		s27.004,12.119,27.004,27.004v82.728c0,14.886-12.119,27.004-27.004,27.004s-26.965-12.119-26.965-27.004V335.712z"/>
	<path id="XMLID_440_" style="fill:#040000;" d="M645.736,485.346c36.902,0,66.907-30.005,66.907-66.907v-82.728
		c0-36.902-30.005-66.907-66.907-66.907c-36.902,0-66.907,30.005-66.907,66.907v82.728
		C578.829,455.341,608.834,485.346,645.736,485.346z M618.732,335.712c0-14.886,12.119-27.004,27.004-27.004
		c14.885,0,27.004,12.119,27.004,27.004v82.728c0,14.886-12.119,27.004-27.004,27.004c-14.886,0-27.004-12.119-27.004-27.004
		V335.712z"/>
	<path id="XMLID_441_" style="fill:#040000;" d="M512,755.195c126.995,0,242.221-76.142,286.761-189.459
		c4.014-10.248-1.052-21.822-11.301-25.874c-10.171-3.936-21.822,1.052-25.874,11.301C723.047,649.321,622.745,715.293,512,715.293
		c-110.706,0-211.047-66.011-249.586-164.208c-4.053-10.287-15.743-15.314-25.874-11.301c-10.248,4.053-15.314,15.626-11.301,25.874
		C269.779,679.014,385.005,755.195,512,755.195z"/>
</g>
</svg>
