<?xml version="1.0" encoding="utf-8"?>
<!-- Generator: Adobe Illustrator 19.0.0, SVG Export Plug-In . SVG Version: 6.00 Build 0)  -->
<svg version="1.1" id="图层_1" xmlns="http://www.w3.org/2000/svg" xmlns:xlink="http://www.w3.org/1999/xlink" x="0px" y="0px"
	 viewBox="32 -232 1024 1024" style="enable-background:new 32 -232 1024 1024;" xml:space="preserve">
<g id="XMLID_149_">
	<path id="XMLID_593_" d="M999.1-216.1H88.9c-22.6,0-41,20-41,44.6v903c0,24.6,18.4,44.6,41,44.6h910.2c22.6,0,41-20,41-44.6v-903
		C1040.1-196.1,1021.7-216.1,999.1-216.1z M999.1,734.2l-909.3-2.7l-0.9-905.7h910.2l-0.9,2.7L999.1,734.2z"/>
	<path id="XMLID_898_" d="M579.6,13.4c-6.5-14-20.1-22.7-35.6-22.7c-0.1,0-0.2,0-0.3,0c-15.5,0.1-29.2,9-35.7,23.5L280.9,540
		c-4.6,10.6,0.3,23,10.9,27.5c2.7,1.2,5.5,1.7,8.3,1.7c8.1,0,15.8-4.7,19.2-12.6l72.3-171.4h302.8l74,171.4
		c4.6,10.6,16.9,15.6,27.5,10.9c10.6-4.6,15.5-16.9,10.9-27.5L579.6,13.4z M409.4,343.3L541.4,30.6l135.1,312.7H409.4z"/>
</g>
</svg>
