<?xml version="1.0" encoding="iso-8859-1"?>
<!-- Generator: Adobe Illustrator 19.0.0, SVG Export Plug-In . SVG Version: 6.00 Build 0)  -->
<svg version="1.1" id="&#x56FE;&#x5C42;_1" xmlns="http://www.w3.org/2000/svg" xmlns:xlink="http://www.w3.org/1999/xlink" x="0px"
	 y="0px" viewBox="0 0 1024 1024" style="enable-background:new 0 0 1024 1024;" xml:space="preserve">
<path id="XMLID_25_" style="fill:#040000;" d="M875.67,882.755L554.434,139.022C546.666,122.302,530.437,112,512.041,112
	c-0.164,0-0.286,0-0.409,0c-18.56,0.164-34.789,10.751-42.434,27.921L148.33,882.755c-4.579,10.629,0.286,22.934,10.915,27.512
	c2.698,1.186,5.519,1.717,8.299,1.717c8.094,0,15.78-4.742,19.214-12.632l106.891-247.448h436.723l106.871,247.448
	c4.619,10.588,16.924,15.534,27.512,10.915C875.384,905.689,880.249,893.384,875.67,882.755z M311.733,610.043l195.811-453.279
	c0.818-1.921,2.33-2.902,4.415-2.902c3.107,1.431,3.597,0.94,4.292,2.289l196.036,453.893H311.733z"/>
</svg>
