<?xml version="1.0" encoding="iso-8859-1"?>
<!-- Generator: Adobe Illustrator 19.0.0, SVG Export Plug-In . SVG Version: 6.00 Build 0)  -->
<svg version="1.1" id="&#x56FE;&#x5C42;_1" xmlns="http://www.w3.org/2000/svg" xmlns:xlink="http://www.w3.org/1999/xlink" x="0px"
	 y="0px" viewBox="0 0 1024 1024" style="enable-background:new 0 0 1024 1024;" xml:space="preserve">
<g id="XMLID_157_">
	<path id="XMLID_169_" style="fill:#040000;" d="M432.721,261.732c-7.376-6.984-15.89-9.691-27.542-10.436
		c-10.75,0.314-20.833,4.865-30.21,15.184c-1.177,1.687-118.723,170.355-275.306,259.613c-22.481,13.222-35.821,29.7-39.627,48.886
		c-6.199,31.348,14.909,59.283,28.876,77.762l4.63,6.12c29.543,40.451,131.905,124.882,156.78,139.674
		c44.178,26.13,121.077,17.185,193.268-7.847c-27.425,19.382-61.245,37.194-90.042,45.355
		c-25.149,7.141-23.854,26.169-23.344,29.936C334.4,896.189,396.861,912,429.151,912c63.991,0,237.445-81.176,336.826-189.07
		c25.581-27.778,42.059-39.077,45.59-42.059c7.494-7.925,11.456-18.244,11.143-28.994c-0.275-10.358-4.551-19.892-11.81-26.758
		L432.721,261.732z M736.394,695.702c-93.691,101.734-257.612,176.122-307.243,176.122c-13.3,0-26.954-2.864-38.096-6.395
		c61.715-25.11,138.536-78.978,144.5-126.059l4.983-39.352l-34.683,19.264c-86.786,48.258-194.405,68.66-235.052,44.688
		c-18.401-10.946-118.37-92.553-144.853-128.806l-4.983-6.67c-10.201-13.536-24.207-32.015-21.5-45.708
		c1.491-7.494,8.396-14.909,20.363-21.932c164.47-93.77,283.232-264.321,285.154-270.049l380.846,359.542
		C785.005,650.896,765.663,663.922,736.394,695.702z"/>
	<path id="XMLID_640_" style="fill:#040000;" d="M951.986,478.423l-79.685-75.487l47.513-50.22
		c11.025-11.613,16.871-26.836,16.439-42.844c-0.432-16.008-7.062-30.877-18.715-41.902L793.676,150.621
		c-11.653-10.986-26.13-17.695-42.844-16.4c-16.008,0.432-30.917,7.062-41.902,18.675l-47.591,50.22l-84-79.606
		c-16.792-15.929-43.471-15.262-59.401,1.609l-53.79,56.811c-15.929,16.831-15.223,43.471,1.609,59.401l374.608,354.834
		c7.886,7.494,18.087,11.574,28.876,11.574c0.392,0,0.785-0.039,1.177-0.039c11.182-0.314,21.618-4.943,29.386-13.104l53.79-56.811
		C969.523,520.953,968.778,494.352,951.986,478.423z M868.025,567.014L493.338,209.551l56.38-56.85l113.191,107.227l75.212-79.41
		c3.61-3.806,8.514-6.003,13.771-6.16c3.335-0.628,10.279,1.766,14.164,5.454l123.862,117.349c3.845,3.61,6.042,8.514,6.16,13.81
		c0.157,5.257-1.766,10.279-5.414,14.124l-75.173,79.41l108.875,103.107l0.039,2.55L868.025,567.014z"/>
</g>
</svg>
