<?xml version="1.0" encoding="iso-8859-1"?>
<!-- Generator: Adobe Illustrator 19.0.0, SVG Export Plug-In . SVG Version: 6.00 Build 0)  -->
<svg version="1.1" id="&#x56FE;&#x5C42;_1" xmlns="http://www.w3.org/2000/svg" xmlns:xlink="http://www.w3.org/1999/xlink" x="0px"
	 y="0px" viewBox="0 0 1024 1024" style="enable-background:new 0 0 1024 1024;" xml:space="preserve">
<g id="XMLID_202_">
	<path id="XMLID_230_" style="fill:#040000;" d="M887.51,736.762c10.962,0,19.903-8.902,19.903-19.903V131.903
		c0-11.001-8.941-19.903-19.903-19.903H136.49c-10.962,0-19.903,8.902-19.903,19.903v584.956c0,11.001,8.941,19.903,19.903,19.903
		h355.607v135.432H136.49c-10.962,0-19.903,8.902-19.903,19.903S125.528,912,136.49,912h751.02c10.962,0,19.903-8.902,19.903-19.903
		s-8.941-19.903-19.903-19.903H531.903V736.762H887.51z M156.393,151.806h711.215v545.151H156.393V151.806z"/>
	<path id="XMLID_267_" style="fill:#040000;" d="M792.583,204.75H231.495c-10.962,0-19.903,8.902-19.903,19.903v399.495
		c0,11.001,8.941,19.903,19.903,19.903h561.088c10.962,0,19.903-8.902,19.903-19.903V224.653
		C812.486,213.652,803.545,204.75,792.583,204.75z M772.68,604.245H251.397V244.556H772.68V604.245z"/>
</g>
</svg>
