<?xml version="1.0" encoding="iso-8859-1"?>
<!-- Generator: Adobe Illustrator 19.0.0, SVG Export Plug-In . SVG Version: 6.00 Build 0)  -->
<svg version="1.1" id="&#x56FE;&#x5C42;_1" xmlns="http://www.w3.org/2000/svg" xmlns:xlink="http://www.w3.org/1999/xlink" x="0px"
	 y="0px" viewBox="0 0 1024 1024" style="enable-background:new 0 0 1024 1024;" xml:space="preserve">
<g id="XMLID_457_">
	<path id="XMLID_477_" style="fill:#040000;" d="M892.183,112H131.817c-10.904,0-19.798,8.855-19.798,19.798v760.404
		c0,10.943,8.894,19.798,19.798,19.798h760.365c10.904,0,19.798-8.855,19.798-19.798V131.798
		C911.981,120.855,903.087,112,892.183,112z M151.615,617.984c49.079-75.093,109.677-107.632,110.281-107.975
		c9.667-5.027,13.456-16.975,8.43-26.681s-17.169-13.418-26.604-8.468c-2.378,1.189-46.387,24.791-92.107,77.631V151.596h420.576
		c-17.927,41.563-54.614,65.281-55.01,65.542c-9.28,5.8-12.142,18.019-6.342,27.261c3.789,6.032,10.208,9.358,16.859,9.358
		c3.48,0,7.115-0.967,10.363-2.939c2.426-1.571,56.267-36.111,75.973-99.222h258.35v536.28
		C771.51,719.11,685.343,837.753,662.215,872.404h-510.6V617.984z M710.816,872.404c31.089-42.312,93.277-115.849,161.569-142.704
		v142.704H710.816z"/>
	<path id="XMLID_485_" style="fill:#040000;" d="M724.596,745.805c10.904,0,19.798-8.855,19.798-19.798v-218.59
		c0-10.943-8.894-19.798-19.798-19.798H439.614c-10.904,0-19.798,8.855-19.798,19.798s8.894,19.798,19.798,19.798h265.184v178.994
		H332.04V312.261h392.556c10.904,0,19.798-8.855,19.798-19.798c0-10.943-8.894-19.798-19.798-19.798H312.242
		c-10.904,0-19.798,8.855-19.798,19.798v433.544c0,10.943,8.894,19.798,19.798,19.798H724.596z"/>
</g>
</svg>
