<?xml version="1.0" encoding="utf-8"?>
<!-- Generator: Adobe Illustrator 19.0.0, SVG Export Plug-In . SVG Version: 6.00 Build 0)  -->
<svg version="1.1" id="图层_1" xmlns="http://www.w3.org/2000/svg" xmlns:xlink="http://www.w3.org/1999/xlink" x="0px" y="0px"
	 viewBox="32 -232 1024 1024" style="enable-background:new 32 -232 1024 1024;" xml:space="preserve">
<g id="XMLID_830_">
	<g id="XMLID_760_">
		<path id="XMLID_589_" d="M990.6-187.7H97.4c-11.7,0-21.1,10.4-21.1,23.3v888.9c0,12.9,9.5,23.3,21.1,23.3h893.1
			c11.7,0,21.1-10.4,21.1-23.3v-888.9C1011.7-177.3,1002.3-187.7,990.6-187.7z M969.4,701.1H118.6v-842.3h850.8V701.1z"/>
	</g>
	<g id="XMLID_594_">
		<g id="XMLID_592_">
			<path id="XMLID_836_" d="M555.1,430.3c-19.6,0-22.3-14.9-22.3-16c1-40.9,10.2-87.3,89.7-141.9c31.6-21.8,52.8-56.9,56.6-94.1
				c3.3-32.4-6.8-62.8-28.4-85.3c-43.2-45-124.8-49.1-174.6-8.8c-52.3,42.3-53.4,100.1-53.5,102.6c-0.1,12.3-10.1,22.3-22.4,22.3
				c0,0,0,0,0,0c-12.4-0.1-22.4-10-22.4-22.3c0-3.3,0.7-81.3,70.1-137.4C516.2-5.8,623.8,0,683.1,62c30.9,32.3,45.3,75.2,40.6,120.9
				c-5.1,50.1-33.5,97.3-75.8,126.5c-62.6,43.1-69.6,73.1-70.3,105.1C577.6,415.6,575.5,430.4,555.1,430.3z"/>
		</g>
		<g id="XMLID_827_">
			<path id="XMLID_835_" d="M557.5,573.3c-12.4,0-22.4-10-22.4-22.4v-34.8c0-12.4,10-22.4,22.4-22.4s22.4,10,22.4,22.4v34.8
				C579.9,563.2,569.8,573.3,557.5,573.3z"/>
		</g>
	</g>
</g>
</svg>
