<?xml version="1.0" encoding="utf-8"?>
<!-- Generator: Adobe Illustrator 19.0.0, SVG Export Plug-In . SVG Version: 6.00 Build 0)  -->
<svg version="1.1" id="图层_1" xmlns="http://www.w3.org/2000/svg" xmlns:xlink="http://www.w3.org/1999/xlink" x="0px" y="0px"
	 viewBox="32 -232 1024 1024" style="enable-background:new 32 -232 1024 1024;" xml:space="preserve">
<g id="XMLID_40_">
	<path id="XMLID_877_" d="M866.4,77.5c-0.2-4.1-1.3-8.1-4-11.4L720-112.5c-3.4-4.3-8.4-6.1-13.7-6.6c-0.7-0.1-1.1-0.9-1.8-0.9H241.1
		c-10.9,0-19.8,8.9-19.8,19.8v760.4c0,10.9,8.9,19.8,19.8,19.8h605.8c10.9,0,19.8-8.9,19.8-19.8V78.4
		C866.7,78.1,866.4,77.8,866.4,77.5z M805.8,58.6h-81.4V-43.6l42.1,52.9L805.8,58.6z M260.9,640.4V-80.4h423.9V78.4
		c0,10.9,8.9,19.8,19.8,19.8h122.5v542.2H260.9z"/>
	<g id="XMLID_881_">
		<path id="XMLID_176_" d="M497,435.3c-2.4,0-4.9-0.5-7.3-1.4c-10.2-4-15.1-15.5-11-25.7l94-235.2c4.1-10.1,15.7-15,25.7-11
			c10.2,4,15.1,15.5,11,25.7l-94,235.2C512.3,430.5,504.9,435.3,497,435.3z"/>
	</g>
	<g id="XMLID_790_">
		<path id="XMLID_412_" d="M417.3,366.3c-5.1,0-10.1-1.9-14-5.8L343.7,301c-7.7-7.7-7.7-20.3,0-28l59.9-59.9c7.7-7.7,20.3-7.7,28,0
			s7.7,20.3,0,28L385.7,287l45.5,45.5c7.7,7.7,7.7,20.3,0,28C427.4,364.4,422.3,366.3,417.3,366.3z"/>
	</g>
	<g id="XMLID_883_">
		<path id="XMLID_414_" d="M664.8,366.3c-5.1,0-10.1-1.9-14-5.8c-7.7-7.7-7.7-20.3,0-28l45.5-45.5l-45.9-45.9
			c-7.7-7.7-7.7-20.3,0-28c7.7-7.7,20.3-7.7,28,0l59.9,59.9c7.7,7.7,7.7,20.3,0,28l-59.5,59.5C675,364.4,669.9,366.3,664.8,366.3z"
			/>
	</g>
</g>
</svg>
