<?xml version="1.0" encoding="iso-8859-1"?>
<!-- Generator: Adobe Illustrator 19.0.0, SVG Export Plug-In . SVG Version: 6.00 Build 0)  -->
<svg version="1.1" id="&#x56FE;&#x5C42;_1" xmlns="http://www.w3.org/2000/svg" xmlns:xlink="http://www.w3.org/1999/xlink" x="0px"
	 y="0px" viewBox="0 0 1024 1024" style="enable-background:new 0 0 1024 1024;" xml:space="preserve">
<g id="XMLID_186_">
	<path id="XMLID_187_" style="fill:#040000;" d="M116.929,151.436H907.07c10.899,0,19.718-8.819,19.718-19.718
		c0-10.899-8.819-19.718-19.718-19.718H116.929c-10.899,0-19.718,8.819-19.718,19.718
		C97.212,142.617,106.031,151.436,116.929,151.436z"/>
	<path id="XMLID_400_" style="fill:#040000;" d="M116.929,604.062h170.645c10.899,0,19.718-8.819,19.718-19.718
		c0-10.899-8.819-19.718-19.718-19.718H116.929c-10.899,0-19.718,8.819-19.718,19.718
		C97.212,595.243,106.031,604.062,116.929,604.062z"/>
	<path id="XMLID_401_" style="fill:#040000;" d="M116.929,459.374h170.645c10.899,0,19.718-8.819,19.718-19.718
		c0-10.899-8.819-19.718-19.718-19.718H116.929c-10.899,0-19.718,8.819-19.718,19.718
		C97.212,450.555,106.031,459.374,116.929,459.374z"/>
	<path id="XMLID_402_" style="fill:#040000;" d="M116.929,314.648h170.645c10.899,0,19.718-8.819,19.718-19.718
		c0-10.899-8.819-19.718-19.718-19.718H116.929c-10.899,0-19.718,8.819-19.718,19.718
		C97.212,305.829,106.031,314.648,116.929,314.648z"/>
	<path id="XMLID_403_" style="fill:#040000;" d="M116.929,748.788h170.645c10.899,0,19.718-8.819,19.718-19.718
		c0-10.899-8.819-19.718-19.718-19.718H116.929c-10.899,0-19.718,8.819-19.718,19.718
		C97.212,739.969,106.031,748.788,116.929,748.788z"/>
	<path id="XMLID_406_" style="fill:#040000;" d="M907.07,872.564H116.929c-10.899,0-19.718,8.819-19.718,19.718
		S106.031,912,116.929,912H907.07c10.899,0,19.718-8.819,19.718-19.718S917.969,872.564,907.07,872.564z"/>
	<path id="XMLID_677_" style="fill:#040000;" d="M907.07,275.212H395.599c-10.899,0-19.718,8.819-19.718,19.718v434.14
		c0,10.899,8.819,19.718,19.718,19.718H907.07c10.899,0,19.718-8.819,19.718-19.718V294.93
		C926.788,284.031,917.969,275.212,907.07,275.212z M887.353,709.352H415.317V314.648h472.036V709.352z"/>
</g>
</svg>
