<?xml version="1.0" encoding="iso-8859-1"?>
<!-- Generator: Adobe Illustrator 19.0.0, SVG Export Plug-In . SVG Version: 6.00 Build 0)  -->
<svg version="1.1" id="&#x56FE;&#x5C42;_1" xmlns="http://www.w3.org/2000/svg" xmlns:xlink="http://www.w3.org/1999/xlink" x="0px"
	 y="0px" viewBox="0 0 1024 1024" style="enable-background:new 0 0 1024 1024;" xml:space="preserve">
<g id="XMLID_188_">
	<path id="XMLID_386_" style="fill:#040000;" d="M116.91,151.436h790.18c10.899,0,19.718-8.819,19.718-19.718
		c0-10.899-8.819-19.718-19.718-19.718H116.91c-10.899,0-19.718,8.819-19.718,19.718C97.192,142.617,106.011,151.436,116.91,151.436
		z"/>
	<path id="XMLID_395_" style="fill:#040000;" d="M907.09,564.626H736.445c-10.899,0-19.718,8.819-19.718,19.718
		c0,10.899,8.819,19.718,19.718,19.718H907.09c10.899,0,19.718-8.819,19.718-19.718C926.808,573.445,917.989,564.626,907.09,564.626
		z"/>
	<path id="XMLID_396_" style="fill:#040000;" d="M907.09,419.938H736.445c-10.899,0-19.718,8.819-19.718,19.718
		c0,10.899,8.819,19.718,19.718,19.718H907.09c10.899,0,19.718-8.819,19.718-19.718C926.808,428.757,917.989,419.938,907.09,419.938
		z"/>
	<path id="XMLID_397_" style="fill:#040000;" d="M907.09,275.212H736.445c-10.899,0-19.718,8.819-19.718,19.718
		c0,10.899,8.819,19.718,19.718,19.718H907.09c10.899,0,19.718-8.819,19.718-19.718C926.808,284.031,917.989,275.212,907.09,275.212
		z"/>
	<path id="XMLID_398_" style="fill:#040000;" d="M907.09,709.352H736.445c-10.899,0-19.718,8.819-19.718,19.718
		c0,10.899,8.819,19.718,19.718,19.718H907.09c10.899,0,19.718-8.819,19.718-19.718C926.808,718.171,917.989,709.352,907.09,709.352
		z"/>
	<path id="XMLID_399_" style="fill:#040000;" d="M907.09,872.564H116.91c-10.899,0-19.718,8.819-19.718,19.718
		S106.011,912,116.91,912h790.18c10.899,0,19.718-8.819,19.718-19.718S917.989,872.564,907.09,872.564z"/>
	<path id="XMLID_680_" style="fill:#040000;" d="M116.91,748.788h511.51c10.899,0,19.718-8.819,19.718-19.718V294.93
		c0-10.899-8.819-19.718-19.718-19.718H116.91c-10.899,0-19.718,8.819-19.718,19.718v434.14
		C97.192,739.969,106.011,748.788,116.91,748.788z M136.628,314.648h472.074v394.705H136.628V314.648z"/>
</g>
</svg>
