<?xml version="1.0" encoding="iso-8859-1"?>
<!-- Generator: Adobe Illustrator 19.0.0, SVG Export Plug-In . SVG Version: 6.00 Build 0)  -->
<svg version="1.1" id="&#x56FE;&#x5C42;_1" xmlns="http://www.w3.org/2000/svg" xmlns:xlink="http://www.w3.org/1999/xlink" x="0px"
	 y="0px" viewBox="0 0 1024 1024" style="enable-background:new 0 0 1024 1024;" xml:space="preserve">
<g id="XMLID_137_">
	<path id="XMLID_140_" style="fill:#040000;" d="M116.929,151.436H907.07c10.899,0,19.718-8.819,19.718-19.718
		c0-10.899-8.819-19.718-19.718-19.718H116.929c-10.899,0-19.718,8.819-19.718,19.718
		C97.212,142.617,106.031,151.436,116.929,151.436z"/>
	<path id="XMLID_426_" style="fill:#040000;" d="M907.07,872.564H116.929c-10.899,0-19.718,8.819-19.718,19.718
		S106.031,912,116.929,912H907.07c10.899,0,19.718-8.819,19.718-19.718S917.969,872.564,907.07,872.564z"/>
	<path id="XMLID_429_" style="fill:#040000;" d="M907.07,709.352H116.929c-10.899,0-19.718,8.819-19.718,19.718
		c0,10.899,8.819,19.718,19.718,19.718H907.07c10.899,0,19.718-8.819,19.718-19.718C926.788,718.171,917.969,709.352,907.07,709.352
		z"/>
	<path id="XMLID_480_" style="fill:#040000;" d="M256.264,275.212c-10.899,0-19.718,8.819-19.718,19.718v275.434
		c0,10.899,8.819,19.718,19.718,19.718h511.472c10.899,0,19.718-8.819,19.718-19.718V294.93c0-10.899-8.819-19.718-19.718-19.718
		H256.264z M748.018,550.646H275.982V314.648h472.036V550.646z"/>
</g>
</svg>
