<?xml version="1.0" encoding="utf-8"?>
<!-- Generator: Adobe Illustrator 19.0.0, SVG Export Plug-In . SVG Version: 6.00 Build 0)  -->
<svg version="1.1" id="图层_1" xmlns="http://www.w3.org/2000/svg" xmlns:xlink="http://www.w3.org/1999/xlink" x="0px" y="0px"
	 viewBox="32 -232 1024 1024" style="enable-background:new 32 -232 1024 1024;" xml:space="preserve">
<g id="XMLID_145_">
	<g id="XMLID_103_">
		<path id="XMLID_851_" d="M715,338.2H373c-11,0-20,8.9-20,20s8.9,20,20,20h342c11,0,20-8.9,20-20S726,338.2,715,338.2z"/>
		<path id="XMLID_824_" d="M715,191.8H373c-11,0-20,8.9-20,20c0,11,8.9,20,20,20h342c11,0,20-8.9,20-20
			C735,200.7,726,191.8,715,191.8z"/>
		<path id="XMLID_823_" d="M715,45.2H373c-11,0-20,8.9-20,20c0,11,8.9,20,20,20h342c11,0,20-8.9,20-20C735,54.2,726,45.2,715,45.2z"
			/>
		<path id="XMLID_817_" d="M715,484.8H373c-11,0-20,8.9-20,20s8.9,20,20,20h342c11,0,20-8.9,20-20S726,484.8,715,484.8z"/>
	</g>
	<path id="XMLID_810_" d="M178,680h732c11,0,20-8.9,20-20V-100c0-11-8.9-20-20-20H178c-11,0-20,8.9-20,20V660
		C158,671.1,167,680,178,680z M198-80.1H890v720.2H198V-80.1z"/>
</g>
</svg>
