<?xml version="1.0" encoding="iso-8859-1"?>
<!-- Generator: Adobe Illustrator 19.0.0, SVG Export Plug-In . SVG Version: 6.00 Build 0)  -->
<svg version="1.1" id="&#x56FE;&#x5C42;_1" xmlns="http://www.w3.org/2000/svg" xmlns:xlink="http://www.w3.org/1999/xlink" x="0px"
	 y="0px" viewBox="0 0 1024 1024" style="enable-background:new 0 0 1024 1024;" xml:space="preserve">
<g id="XMLID_291_">
	<path id="XMLID_314_" style="fill:#040000;" d="M857.95,649.139H166.05c-11.658,0-21.092,9.433-21.092,21.091
		s9.434,21.091,21.092,21.091H857.95c11.658,0,21.091-9.433,21.091-21.091S869.608,649.139,857.95,649.139z"/>
	<path id="XMLID_324_" style="fill:#040000;" d="M857.95,428.461H166.05c-11.658,0-21.092,9.434-21.092,21.092
		c0,11.658,9.434,21.092,21.092,21.092H857.95c11.658,0,21.091-9.434,21.091-21.092C879.042,437.894,869.608,428.461,857.95,428.461
		z"/>
	<path id="XMLID_325_" style="fill:#040000;" d="M512,249.965h345.95c11.658,0,21.091-9.434,21.091-21.092
		s-9.433-21.092-21.091-21.092H512c-11.658,0-21.092,9.434-21.092,21.092S500.342,249.965,512,249.965z"/>
	<path id="XMLID_326_" style="fill:#040000;" d="M857.95,869.817H166.05c-11.658,0-21.092,9.434-21.092,21.092
		c0,11.658,9.434,21.091,21.092,21.091H857.95c11.658,0,21.091-9.434,21.091-21.091C879.042,879.25,869.608,869.817,857.95,869.817z
		"/>
	<path id="XMLID_327_" style="fill:#040000;" d="M166.05,249.965h184.304l-67.188,56.807c-8.898,7.539-10.01,20.844-2.472,29.742
		c4.161,4.902,10.134,7.456,16.107,7.456c4.82,0,9.639-1.648,13.635-4.985l111.184-94.006c0.793-0.669,0.649-1.802,1.313-2.554
		c1.776-1.957,3.862-3.641,4.825-6.22c0.422-1.138-0.041-2.312,0.175-3.481c0.33-1.684,0.324-3.023,0.242-4.742
		c-0.165-3.589-1.231-6.689-3.131-9.768c-0.566-0.937-0.221-2.116-0.953-2.976c-0.34-0.402-0.942-0.294-1.308-0.664
		c-0.469-0.494-0.515-1.231-1.04-1.684L310.56,117.072c-8.733-7.456-22.121-6.673-29.742,2.224
		c-7.58,8.816-6.591,22.121,2.225,29.742l68.177,58.743H166.05c-11.658,0-21.092,9.434-21.092,21.092
		S154.392,249.965,166.05,249.965z"/>
</g>
</svg>
