<?xml version="1.0" encoding="iso-8859-1"?>
<!-- Generator: Adobe Illustrator 19.0.0, SVG Export Plug-In . SVG Version: 6.00 Build 0)  -->
<svg version="1.1" id="&#x56FE;&#x5C42;_1" xmlns="http://www.w3.org/2000/svg" xmlns:xlink="http://www.w3.org/1999/xlink" x="0px"
	 y="0px" viewBox="0 0 1024 1024" style="enable-background:new 0 0 1024 1024;" xml:space="preserve">
<g id="XMLID_83_">
	<path id="XMLID_104_" style="fill:#040000;" d="M384.896,155.852h526.655c12.119,0,21.926-9.807,21.926-21.926
		S923.671,112,911.552,112H384.896c-12.119,0-21.926,9.807-21.926,21.926S372.777,155.852,384.896,155.852z"/>
	<path id="XMLID_206_" style="fill:#040000;" d="M248.587,112H112.448c-12.119,0-21.926,9.807-21.926,21.926
		s9.807,21.926,21.926,21.926h136.138c12.119,0,21.926-9.807,21.926-21.926S260.706,112,248.587,112z"/>
	<path id="XMLID_208_" style="fill:#040000;" d="M248.587,490.053H112.448c-12.119,0-21.926,9.807-21.926,21.926
		s9.807,21.926,21.926,21.926h136.138c12.119,0,21.926-9.807,21.926-21.926S260.706,490.053,248.587,490.053z"/>
	<path id="XMLID_209_" style="fill:#040000;" d="M248.587,868.148H112.448c-12.119,0-21.926,9.807-21.926,21.926
		S100.329,912,112.448,912h136.138c12.119,0,21.926-9.807,21.926-21.926S260.706,868.148,248.587,868.148z"/>
	<path id="XMLID_210_" style="fill:#040000;" d="M911.552,490.053H384.896c-12.119,0-21.926,9.807-21.926,21.926
		s9.807,21.926,21.926,21.926h526.655c12.119,0,21.926-9.807,21.926-21.926S923.671,490.053,911.552,490.053z"/>
	<path id="XMLID_211_" style="fill:#040000;" d="M911.552,868.148H384.896c-12.119,0-21.926,9.807-21.926,21.926
		S372.777,912,384.896,912h526.655c12.119,0,21.926-9.807,21.926-21.926S923.671,868.148,911.552,868.148z"/>
</g>
</svg>
