<?xml version="1.0" encoding="iso-8859-1"?>
<!-- Generator: Adobe Illustrator 19.0.0, SVG Export Plug-In . SVG Version: 6.00 Build 0)  -->
<svg version="1.1" id="&#x56FE;&#x5C42;_1" xmlns="http://www.w3.org/2000/svg" xmlns:xlink="http://www.w3.org/1999/xlink" x="0px"
	 y="0px" viewBox="0 0 1024 1024" style="enable-background:new 0 0 1024 1024;" xml:space="preserve">
<g id="XMLID_164_">
	<path id="XMLID_427_" style="fill:#040000;" d="M681.167,393.239H58.21c-11.007,0-19.913,8.907-19.913,19.913v478.934
		c0,11.007,8.907,19.913,19.913,19.913h622.957c11.007,0,19.913-8.907,19.913-19.913V413.152
		C701.081,402.145,692.174,393.239,681.167,393.239z M661.254,433.066v306.675H514.548l-80.782-72.964
		c-7.506-6.806-18.98-6.845-26.564-0.117l-73.936,65.73L229.342,582.572c-3.617-5.212-9.529-8.401-15.869-8.557
		c-6.806-0.972-12.407,2.684-16.257,7.74L78.124,735.988V433.066H661.254z M78.124,872.173v-71.044l133.988-173.518l101.24,145.928
		c3.267,4.667,8.362,7.74,14.002,8.401c5.717,0.739,11.318-1.128,15.596-4.862l77.359-68.803l73.236,66.158
		c3.656,3.306,8.401,5.134,13.34,5.134h154.368v92.605H78.124z"/>
	<path id="XMLID_442_" style="fill:#040000;" d="M557.875,604.625c36.988,0,67.091-30.104,67.091-67.091
		s-30.104-67.052-67.091-67.052c-36.988,0-67.052,30.065-67.052,67.052S520.887,604.625,557.875,604.625z M557.875,510.308
		c15.052,0,27.264,12.213,27.264,27.225c0,15.052-12.213,27.264-27.264,27.264c-15.013,0-27.225-12.213-27.225-27.264
		C530.649,522.521,542.862,510.308,557.875,510.308z"/>
	<path id="XMLID_443_" style="fill:#040000;" d="M821.962,254.622h-622.49c-11.007,0-19.913,8.907-19.913,19.913v86.966
		c0,11.007,8.907,19.913,19.913,19.913s19.913-8.907,19.913-19.913v-67.052h582.663v440.78h-67.48
		c-11.007,0-19.913,8.907-19.913,19.913c0,11.007,8.907,19.913,19.913,19.913h87.394c11.007,0,19.913-8.907,19.913-19.913V274.536
		C841.875,263.529,832.968,254.622,821.962,254.622z"/>
	<path id="XMLID_444_" style="fill:#040000;" d="M965.79,112H343.3c-11.007,0-19.913,8.907-19.913,19.913v86.966
		c0,11.007,8.907,19.913,19.913,19.913s19.913-8.907,19.913-19.913v-67.052h582.663v440.78h-67.519
		c-11.007,0-19.913,8.907-19.913,19.913s8.907,19.913,19.913,19.913h87.433c11.007,0,19.913-8.907,19.913-19.913V131.913
		C985.703,120.907,976.797,112,965.79,112z"/>
</g>
</svg>
