<?xml version="1.0" encoding="iso-8859-1"?>
<!-- Generator: Adobe Illustrator 19.0.0, SVG Export Plug-In . SVG Version: 6.00 Build 0)  -->
<svg version="1.1" id="&#x56FE;&#x5C42;_1" xmlns="http://www.w3.org/2000/svg" xmlns:xlink="http://www.w3.org/1999/xlink" x="0px"
	 y="0px" viewBox="0 0 1024 1024" style="enable-background:new 0 0 1024 1024;" xml:space="preserve">
<path id="XMLID_468_" style="fill:#040000;" d="M946.27,750.983c0.251-1.244,1.399-2.052,1.399-3.371V131.366
	c0-10.704-8.7-19.366-19.366-19.366H346.629c-10.667,0-19.366,8.662-19.366,19.366v536.577
	c-26.511-28.752-64.137-47.083-106.213-47.083c-79.887,0-144.946,65.021-144.946,144.946s65.059,144.946,144.946,144.946
	s144.946-65.021,144.946-144.946c0-5.007-0.983-9.749-1.48-14.629c0.279-1.31,1.48-2.17,1.48-3.565V150.733h542.941v518.184
	c-26.496-28.596-64.038-46.808-105.986-46.808c-79.962,0-145.021,65.021-145.021,144.946S722.988,912,802.95,912
	c79.886,0,144.946-65.021,144.946-144.946C947.896,761.551,946.87,756.331,946.27,750.983z M221.05,872.019
	c-58.553,0-106.213-47.66-106.213-106.213c0-58.553,47.66-106.213,106.213-106.213s106.213,47.66,106.213,106.213
	C327.262,824.359,279.603,872.019,221.05,872.019z M802.95,873.267c-58.629,0-106.288-47.66-106.288-106.213
	c0-58.553,47.66-106.213,106.288-106.213c58.553,0,106.213,47.66,106.213,106.213C909.163,825.608,861.504,873.267,802.95,873.267z"
	/>
</svg>
