<?xml version="1.0" encoding="iso-8859-1"?>
<!-- Generator: Adobe Illustrator 19.0.0, SVG Export Plug-In . SVG Version: 6.00 Build 0)  -->
<svg version="1.1" id="&#x56FE;&#x5C42;_1" xmlns="http://www.w3.org/2000/svg" xmlns:xlink="http://www.w3.org/1999/xlink" x="0px"
	 y="0px" viewBox="0 0 1024 1024" style="enable-background:new 0 0 1024 1024;" xml:space="preserve">
<g id="XMLID_2_">
	<path id="XMLID_23_" style="fill:#040000;" d="M310.66,215.852h604.148c10.32,0,18.67-8.35,18.67-18.67s-8.35-18.67-18.67-18.67
		H310.66c-10.32,0-18.67,8.35-18.67,18.67S300.34,215.852,310.66,215.852z"/>
	<path id="XMLID_194_" style="fill:#040000;" d="M914.808,500.422H310.66c-10.32,0-18.67,8.35-18.67,18.67
		c0,10.32,8.35,18.67,18.67,18.67h604.148c10.32,0,18.67-8.35,18.67-18.67C933.478,508.773,925.127,500.422,914.808,500.422z"/>
	<path id="XMLID_195_" style="fill:#040000;" d="M914.808,822.37H310.66c-10.32,0-18.67,8.35-18.67,18.67s8.35,18.67,18.67,18.67
		h604.148c10.32,0,18.67-8.35,18.67-18.67S925.127,822.37,914.808,822.37z"/>
	<path id="XMLID_196_" style="fill:#040000;" d="M134.025,291.261c10.32,0,18.67-8.35,18.67-18.67V130.67
		c0-10.32-8.35-18.67-18.67-18.67s-18.67,8.35-18.67,18.67v141.921C115.355,282.91,123.705,291.261,134.025,291.261z"/>
	<path id="XMLID_199_" style="fill:#040000;" d="M169.76,568.466h-41.606v-16.3l45.034-44.997c3.501-3.501,5.47-8.241,5.47-13.2
		v-55.353c0-10.32-8.35-18.67-18.67-18.67h-50.795c-10.32,0-18.67,8.35-18.67,18.67v31.25c0,10.32,8.35,18.67,18.67,18.67
		s18.67-8.35,18.67-18.67v-12.58h13.455v28.953l-45.034,44.997c-3.501,3.501-5.47,8.241-5.47,13.2v42.7
		c0,10.32,8.35,18.67,18.67,18.67h60.276c10.32,0,18.67-8.35,18.67-18.67S180.08,568.466,169.76,568.466z"/>
	<path id="XMLID_203_" style="fill:#040000;" d="M169.76,736.167h-60.568c-10.32,0-18.67,8.35-18.67,18.67s8.35,18.67,18.67,18.67
		h41.898v31.907h-41.898c-10.32,0-18.67,8.35-18.67,18.67s8.35,18.67,18.67,18.67h41.898v31.907h-41.898
		c-10.32,0-18.67,8.35-18.67,18.67s8.35,18.67,18.67,18.67h60.568c10.32,0,18.67-8.35,18.67-18.67V754.837
		C188.43,744.517,180.08,736.167,169.76,736.167z"/>
</g>
</svg>
