<?xml version="1.0" encoding="utf-8"?>
<!-- Generator: Adobe Illustrator 19.0.0, SVG Export Plug-In . SVG Version: 6.00 Build 0)  -->
<svg version="1.1" id="图层_1" xmlns="http://www.w3.org/2000/svg" xmlns:xlink="http://www.w3.org/1999/xlink" x="0px" y="0px"
	 viewBox="0 0 1024 1024" style="enable-background:new 0 0 1024 1024;" xml:space="preserve">
<path d="M987.9,112H36.1c-11,0-20,8.9-20,20v190v190v190v190c0,11.1,9,20,20,20h951.8c11,0,20-8.9,20-20V702V512V322V132
	C1007.9,120.9,998.9,112,987.9,112z M373.3,682V532h277.3v150H373.3z M650.6,722v150H373.3V722H650.6z M967.9,492H690.6V342h277.3
	V492z M650.6,492H373.3V342h277.3V492z M333.3,492H56.1V342h277.2V492z M56.1,532h277.2v150H56.1V532z M690.6,532h277.3v150H690.6
	V532z M56.1,152h911.8v150H56.1V152z M56.1,722h277.2v150H56.1V722z M967.9,872H690.6V722h277.3V872z"/>
</svg>
