<?xml version="1.0" encoding="utf-8"?>
<!-- Generator: Adobe Illustrator 19.0.0, SVG Export Plug-In . SVG Version: 6.00 Build 0)  -->
<svg version="1.1" id="图层_1" xmlns="http://www.w3.org/2000/svg" xmlns:xlink="http://www.w3.org/1999/xlink" x="0px" y="0px"
	 viewBox="32 -232 1024 1024" style="enable-background:new 32 -232 1024 1024;" xml:space="preserve">
<g id="XMLID_1029_">
	<path id="XMLID_1035_" d="M287.3,437.7H67.8c-11,0-19.9,8.9-19.9,19.9c0,11,8.9,19.9,19.9,19.9h89.9v175.3c0,11,8.9,19.9,19.9,19.9
		c11,0,19.9-8.9,19.9-19.9V477.4h89.9c11,0,19.9-8.9,19.9-19.9C307.2,446.6,298.3,437.7,287.3,437.7z"/>
	<path id="XMLID_1030_" d="M1020.2-112.5H75.7c-11,0-19.9,8.9-19.9,19.9v220.3v220.3c0,11,8.9,19.9,19.9,19.9h469.9
		c0.9,0.1,1.4,1,2.3,1c0.9,0,1.5-0.8,2.3-1h469.9c11,0,19.9-8.9,19.9-19.9V127.6V-92.7C1040.1-103.7,1031.2-112.5,1020.2-112.5z
		 M95.6-72.8h904.8v180.6H95.6V-72.8z M95.6,147.5h432.5v180.6H95.6V147.5z M1000.4,328.1H567.8V147.5h432.5V328.1z"/>
</g>
</svg>
