<?xml version="1.0" encoding="utf-8"?>
<!-- Generator: Adobe Illustrator 19.0.0, SVG Export Plug-In . SVG Version: 6.00 Build 0)  -->
<svg version="1.1" id="图层_1" xmlns="http://www.w3.org/2000/svg" xmlns:xlink="http://www.w3.org/1999/xlink" x="0px" y="0px"
	 viewBox="32 -232 1024 1024" style="enable-background:new 32 -232 1024 1024;" xml:space="preserve">
<g id="XMLID_1184_">
	<g id="XMLID_1234_">
		<g id="XMLID_1236_">
			<g id="XMLID_1237_">
				<g id="XMLID_1290_">
					<path id="XMLID_1239_" d="M543.8-37.7c-10.7,0-19.3-8.7-19.3-19.3v-139.7c0-10.7,8.7-19.3,19.3-19.3c10.7,0,19.3,8.7,19.3,19.3
						V-57C563.1-46.3,554.5-37.7,543.8-37.7z"/>
				</g>
			</g>
			<g id="XMLID_1238_">
				<g id="XMLID_1289_">
					<path id="XMLID_1241_" d="M584.5-150.9h-81c-10.7,0-19.3-8.7-19.3-19.3s8.7-19.3,19.3-19.3h81c10.7,0,19.3,8.7,19.3,19.3
						S595.2-150.9,584.5-150.9z"/>
				</g>
			</g>
		</g>
	</g>
	<g id="XMLID_1240_">
		<g id="XMLID_1242_">
			<g id="XMLID_1286_">
				<path id="XMLID_1244_" d="M932.6,776.1H155.4c-10.7,0-19.3-8.7-19.3-19.3V-20.4c0-10.7,8.7-19.3,19.3-19.3h777.1
					c10.7,0,19.3,8.7,19.3,19.3v777.1C951.9,767.4,943.3,776.1,932.6,776.1z M174.8,737.4h738.5V-1.1H174.8V737.4z"/>
			</g>
		</g>
		<g id="XMLID_1243_">
			<g id="XMLID_1285_">
				<path id="XMLID_1246_" d="M738.3,776.1c-10.7,0-19.3-8.7-19.3-19.3V-20.4c0-10.7,8.7-19.3,19.3-19.3s19.3,8.7,19.3,19.3v777.1
					C757.6,767.4,749,776.1,738.3,776.1z"/>
			</g>
		</g>
		<g id="XMLID_1245_">
			<g id="XMLID_1284_">
				<path id="XMLID_1248_" d="M544,776.1c-10.7,0-19.3-8.7-19.3-19.3V-20.4c0-10.7,8.7-19.3,19.3-19.3c10.7,0,19.3,8.7,19.3,19.3
					v777.1C563.4,767.4,554.7,776.1,544,776.1z"/>
			</g>
		</g>
		<g id="XMLID_1247_">
			<g id="XMLID_1283_">
				<path id="XMLID_1250_" d="M349.7,776.1c-10.7,0-19.3-8.7-19.3-19.3V-20.4c0-10.7,8.7-19.3,19.3-19.3c10.7,0,19.3,8.7,19.3,19.3
					v777.1C369,767.4,360.4,776.1,349.7,776.1z"/>
			</g>
		</g>
		<g id="XMLID_1249_">
			<g id="XMLID_1251_">
				<rect id="XMLID_1_" x="168.9" y="368.2" width="752.3" height="194.3"/>
			</g>
		</g>
		<g id="XMLID_1252_">
			<g id="XMLID_1282_">
				<path id="XMLID_1254_" d="M921.3,193.2H169c-10.7,0-19.3-8.7-19.3-19.3s8.7-19.3,19.3-19.3h752.3c10.7,0,19.3,8.7,19.3,19.3
					S932,193.2,921.3,193.2z"/>
			</g>
		</g>
	</g>
</g>
</svg>
