<?xml version="1.0" encoding="utf-8"?>
<!-- Generator: Adobe Illustrator 19.0.0, SVG Export Plug-In . SVG Version: 6.00 Build 0)  -->
<svg version="1.1" id="图层_1" xmlns="http://www.w3.org/2000/svg" xmlns:xlink="http://www.w3.org/1999/xlink" x="0px" y="0px"
	 viewBox="32 -232 1024 1024" style="enable-background:new 32 -232 1024 1024;" xml:space="preserve">
<g id="XMLID_1036_">
	<path id="XMLID_1042_" d="M157.7-66.7v175.3c0,11,8.9,19.9,19.9,19.9c11,0,19.9-8.9,19.9-19.9V-66.7h89.9c11,0,19.9-8.9,19.9-19.9
		s-8.9-19.9-19.9-19.9H67.8c-11,0-19.9,8.9-19.9,19.9s8.9,19.9,19.9,19.9H157.7z"/>
	<path id="XMLID_1037_" d="M1020.2,185.2H75.7c-11,0-19.9,8.9-19.9,19.9v220.3v220.3c0,11,8.9,19.9,19.9,19.9h469.9
		c0.9,0.1,1.4,1,2.3,1c0.9,0,1.5-0.8,2.3-1h469.9c11,0,19.9-8.9,19.9-19.9V425.3V205C1040.1,194.1,1031.2,185.2,1020.2,185.2z
		 M95.6,224.9h904.8v180.6H95.6V224.9z M95.6,445.2h432.5v180.6H95.6V445.2z M1000.4,625.8H567.8V445.2h432.5V625.8z"/>
</g>
</svg>
