<?xml version="1.0" encoding="iso-8859-1"?>
<!-- Generator: Adobe Illustrator 19.0.0, SVG Export Plug-In . SVG Version: 6.00 Build 0)  -->
<svg version="1.1" id="&#x56FE;&#x5C42;_1" xmlns="http://www.w3.org/2000/svg" xmlns:xlink="http://www.w3.org/1999/xlink" x="0px"
	 y="0px" viewBox="0 0 1024 1024" style="enable-background:new 0 0 1024 1024;" xml:space="preserve">
<g id="XMLID_286_">
	<path id="XMLID_287_" style="fill:#040000;" d="M841.102,746.656c-10.904,0-19.798,8.855-19.798,19.798v105.95H100.458V151.596
		h720.847v146.165c0,10.943,8.894,19.798,19.798,19.798s19.798-8.855,19.798-19.798V131.798c0-10.943-8.894-19.798-19.798-19.798
		H80.66c-10.904,0-19.798,8.855-19.798,19.798v760.404c0,10.943,8.894,19.798,19.798,19.798h760.443
		c10.904,0,19.798-8.855,19.798-19.798V766.454C860.9,755.511,852.007,746.656,841.102,746.656z"/>
	<path id="XMLID_475_" style="fill:#040000;" d="M782.327,346.559c-99.686,0-180.811,81.087-180.811,180.772
		s81.125,180.811,180.811,180.811s180.811-81.125,180.811-180.811S882.013,346.559,782.327,346.559z M782.327,668.547
		c-77.877,0-141.215-63.338-141.215-141.215c0-77.839,63.338-141.177,141.215-141.177s141.215,63.338,141.215,141.177
		C923.542,605.209,860.204,668.547,782.327,668.547z"/>
</g>
</svg>
