<?xml version="1.0" encoding="iso-8859-1"?>
<!-- Generator: Adobe Illustrator 19.0.0, SVG Export Plug-In . SVG Version: 6.00 Build 0)  -->
<svg version="1.1" id="&#x56FE;&#x5C42;_1" xmlns="http://www.w3.org/2000/svg" xmlns:xlink="http://www.w3.org/1999/xlink" x="0px"
	 y="0px" viewBox="0 0 1024 1024" style="enable-background:new 0 0 1024 1024;" xml:space="preserve">
<path id="XMLID_664_" style="fill:#040000;" d="M892.993,112c-10.469,0-19.007,8.501-19.007,19.007v57.021H769.522v-57.021
	c0-10.506-8.538-19.007-19.007-19.007s-19.007,8.501-19.007,19.007v57.021H295.833v-57.021c0-10.506-8.538-19.007-19.007-19.007
	s-19.007,8.501-19.007,19.007v57.021H150.014v-57.021c0-10.506-8.538-19.007-19.007-19.007S112,120.501,112,131.007v761.986
	c0,10.506,8.538,19.007,19.007,19.007s19.007-8.501,19.007-19.007v-57.021h107.805v57.021c0,10.506,8.538,19.007,19.007,19.007
	s19.007-8.501,19.007-19.007v-57.021h435.675v57.021c0,10.506,8.538,19.007,19.007,19.007s19.007-8.501,19.007-19.007v-57.021
	h104.464v57.021c0,10.506,8.538,19.007,19.007,19.007S912,903.499,912,892.993V131.007C912,120.501,903.462,112,892.993,112z
	 M769.522,483.193h104.464v76.585H769.522V483.193z M873.986,445.179H769.522v-76.548h104.464V445.179z M769.522,597.791h104.464
	v76.585H769.522V597.791z M873.986,226.042v104.575H769.522V226.042H873.986z M731.508,226.042v277.94H295.833v-277.94H731.508z
	 M257.819,559.777H150.014v-76.585h107.805V559.777z M257.819,445.179H150.014v-76.548h107.805V445.179z M150.014,597.791h107.805
	v76.585H150.014V597.791z M257.819,226.042v104.575H150.014V226.042H257.819z M150.014,797.958V712.39h107.805v85.568H150.014z
	 M295.833,797.958V541.995h435.675v255.963H295.833z M769.522,797.958V712.39h104.464v85.568H769.522z"/>
</svg>
