<?xml version="1.0" encoding="iso-8859-1"?>
<!-- Generator: Adobe Illustrator 19.0.0, SVG Export Plug-In . SVG Version: 6.00 Build 0)  -->
<svg version="1.1" id="&#x56FE;&#x5C42;_1" xmlns="http://www.w3.org/2000/svg" xmlns:xlink="http://www.w3.org/1999/xlink" x="0px"
	 y="0px" viewBox="0 0 1024 1024" style="enable-background:new 0 0 1024 1024;" xml:space="preserve">
<path id="XMLID_2_" style="fill:#040000;" d="M744.636,112H447.405c-11.61,0-21.005,9.395-21.005,21.005
	c0,11.61,9.395,21.005,21.005,21.005h122.047L410.724,869.99h-131.36c-11.61,0-21.005,9.395-21.005,21.005
	c0,11.61,9.395,21.005,21.005,21.005h297.231c11.61,0,21.005-9.395,21.005-21.005c0-11.61-9.395-21.005-21.005-21.005H453.769
	L612.496,154.01h132.139c11.61,0,21.005-9.395,21.005-21.005C765.641,121.395,756.246,112,744.636,112z"/>
</svg>
