<?xml version="1.0" encoding="iso-8859-1"?>
<!-- Generator: Adobe Illustrator 19.0.0, SVG Export Plug-In . SVG Version: 6.00 Build 0)  -->
<svg version="1.1" id="&#x56FE;&#x5C42;_1" xmlns="http://www.w3.org/2000/svg" xmlns:xlink="http://www.w3.org/1999/xlink" x="0px"
	 y="0px" viewBox="0 0 1024 1024" style="enable-background:new 0 0 1024 1024;" xml:space="preserve">
<g id="XMLID_322_">
	<path id="XMLID_323_" style="fill:#040000;" d="M859.946,567.125h-580.23c-10.864,0-19.655,8.791-19.655,19.655
		c0,10.864,8.791,19.654,19.655,19.654h580.23c10.864,0,19.655-8.791,19.655-19.654C879.601,575.916,870.81,567.125,859.946,567.125
		z"/>
	<path id="XMLID_333_" style="fill:#040000;" d="M279.716,459.524h363.532c10.864,0,19.654-8.791,19.654-19.655
		c0-10.864-8.791-19.655-19.654-19.655H279.716c-10.864,0-19.655,8.791-19.655,19.655
		C260.061,450.733,268.852,459.524,279.716,459.524z"/>
	<path id="XMLID_334_" style="fill:#040000;" d="M279.716,312.653h580.23c10.864,0,19.655-8.791,19.655-19.655
		c0-10.864-8.791-19.655-19.655-19.655h-580.23c-10.864,0-19.655,8.791-19.655,19.655
		C260.061,303.862,268.852,312.653,279.716,312.653z"/>
	<path id="XMLID_335_" style="fill:#040000;" d="M279.716,165.743h363.532c10.864,0,19.654-8.791,19.654-19.655
		s-8.791-19.655-19.654-19.655H279.716c-10.864,0-19.655,8.791-19.655,19.655S268.852,165.743,279.716,165.743z"/>
	<path id="XMLID_336_" style="fill:#040000;" d="M643.248,860.944H279.716c-10.864,0-19.655,8.791-19.655,19.655
		c0,10.864,8.791,19.654,19.655,19.654h363.532c10.864,0,19.654-8.791,19.654-19.654
		C662.902,869.735,654.111,860.944,643.248,860.944z"/>
	<path id="XMLID_338_" style="fill:#040000;" d="M859.946,714.035h-580.23c-10.864,0-19.655,8.791-19.655,19.655
		c0,10.864,8.791,19.654,19.655,19.654h580.23c10.864,0,19.655-8.791,19.655-19.654C879.601,722.825,870.81,714.035,859.946,714.035
		z"/>
	<path id="XMLID_340_" style="fill:#040000;" d="M164.054,112c-10.864,0-19.655,8.791-19.655,19.655v760.691
		c0,10.864,8.791,19.655,19.655,19.655s19.655-8.791,19.655-19.655V131.655C183.708,120.791,174.917,112,164.054,112z"/>
</g>
</svg>
