<?xml version="1.0" encoding="iso-8859-1"?>
<!-- Generator: Adobe Illustrator 19.0.0, SVG Export Plug-In . SVG Version: 6.00 Build 0)  -->
<svg version="1.1" id="&#x56FE;&#x5C42;_1" xmlns="http://www.w3.org/2000/svg" xmlns:xlink="http://www.w3.org/1999/xlink" x="0px"
	 y="0px" viewBox="0 0 1024 1024" style="enable-background:new 0 0 1024 1024;" xml:space="preserve">
<g id="XMLID_330_">
	<path id="XMLID_337_" style="fill:#040000;" d="M914.064,567.601H109.936c-11.231,0-20.319,9.088-20.319,20.319
		s9.088,20.319,20.319,20.319h804.127c11.231,0,20.319-9.088,20.319-20.319S925.295,567.601,914.064,567.601z"/>
	<path id="XMLID_346_" style="fill:#040000;" d="M260.07,415.721c-11.231,0-20.319,9.088-20.319,20.319
		c0,11.231,9.088,20.319,20.319,20.319h503.82c11.231,0,20.319-9.088,20.319-20.319c0-11.231-9.088-20.319-20.319-20.319H260.07z"/>
	<path id="XMLID_347_" style="fill:#040000;" d="M109.936,304.479h804.127c11.231,0,20.319-9.088,20.319-20.319
		c0-11.231-9.088-20.319-20.319-20.319H109.936c-11.231,0-20.319,9.088-20.319,20.319
		C89.617,295.391,98.705,304.479,109.936,304.479z"/>
	<path id="XMLID_349_" style="fill:#040000;" d="M260.07,152.639h503.82c11.231,0,20.319-9.088,20.319-20.319
		S775.121,112,763.89,112H260.07c-11.231,0-20.319,9.088-20.319,20.319S248.839,152.639,260.07,152.639z"/>
	<path id="XMLID_350_" style="fill:#040000;" d="M763.89,871.361H260.07c-11.231,0-20.319,9.088-20.319,20.32
		S248.839,912,260.07,912h503.82c11.231,0,20.319-9.088,20.319-20.319S775.121,871.361,763.89,871.361z"/>
	<path id="XMLID_351_" style="fill:#040000;" d="M914.064,719.481H109.936c-11.231,0-20.319,9.088-20.319,20.319
		c0,11.231,9.088,20.32,20.319,20.32h804.127c11.231,0,20.319-9.088,20.319-20.32C934.383,728.569,925.295,719.481,914.064,719.481z
		"/>
</g>
</svg>
