<?xml version="1.0" encoding="iso-8859-1"?>
<!-- Generator: Adobe Illustrator 19.0.0, SVG Export Plug-In . SVG Version: 6.00 Build 0)  -->
<svg version="1.1" id="&#x56FE;&#x5C42;_1" xmlns="http://www.w3.org/2000/svg" xmlns:xlink="http://www.w3.org/1999/xlink" x="0px"
	 y="0px" viewBox="0 0 1024 1024" style="enable-background:new 0 0 1024 1024;" xml:space="preserve">
<g id="XMLID_321_">
	<path id="XMLID_331_" style="fill:#040000;" d="M744.322,567.125H164.054c-10.864,0-19.655,8.791-19.655,19.655
		c0,10.864,8.791,19.654,19.655,19.654h580.269c10.864,0,19.655-8.791,19.655-19.654
		C763.977,575.916,755.186,567.125,744.322,567.125z"/>
	<path id="XMLID_341_" style="fill:#040000;" d="M744.322,420.215h-363.57c-10.864,0-19.655,8.791-19.655,19.655
		c0,10.864,8.791,19.655,19.655,19.655h363.57c10.864,0,19.655-8.791,19.655-19.655
		C763.977,429.006,755.186,420.215,744.322,420.215z"/>
	<path id="XMLID_342_" style="fill:#040000;" d="M744.322,273.344H164.054c-10.864,0-19.655,8.791-19.655,19.655
		c0,10.864,8.791,19.655,19.655,19.655h580.269c10.864,0,19.655-8.791,19.655-19.655
		C763.977,282.134,755.186,273.344,744.322,273.344z"/>
	<path id="XMLID_343_" style="fill:#040000;" d="M744.322,126.434h-363.57c-10.864,0-19.655,8.791-19.655,19.655
		s8.791,19.655,19.655,19.655h363.57c10.864,0,19.655-8.791,19.655-19.655S755.186,126.434,744.322,126.434z"/>
	<path id="XMLID_344_" style="fill:#040000;" d="M744.322,860.944h-363.57c-10.864,0-19.655,8.791-19.655,19.655
		c0,10.864,8.791,19.654,19.655,19.654h363.57c10.864,0,19.655-8.791,19.655-19.654
		C763.977,869.735,755.186,860.944,744.322,860.944z"/>
	<path id="XMLID_352_" style="fill:#040000;" d="M744.322,714.035H164.054c-10.864,0-19.655,8.791-19.655,19.655
		c0,10.864,8.791,19.654,19.655,19.654h580.269c10.864,0,19.655-8.791,19.655-19.654
		C763.977,722.825,755.186,714.035,744.322,714.035z"/>
	<path id="XMLID_360_" style="fill:#040000;" d="M859.946,112c-10.864,0-19.654,8.791-19.654,19.655v760.691
		c0,10.864,8.791,19.655,19.654,19.655c10.864,0,19.655-8.791,19.655-19.655V131.655C879.601,120.791,870.81,112,859.946,112z"/>
</g>
</svg>
