<?xml version="1.0" encoding="iso-8859-1"?>
<!-- Generator: Adobe Illustrator 19.0.0, SVG Export Plug-In . SVG Version: 6.00 Build 0)  -->
<svg version="1.1" id="&#x56FE;&#x5C42;_1" xmlns="http://www.w3.org/2000/svg" xmlns:xlink="http://www.w3.org/1999/xlink" x="0px"
	 y="0px" viewBox="0 0 1024 1024" style="enable-background:new 0 0 1024 1024;" xml:space="preserve">
<g id="XMLID_339_">
	<path id="XMLID_345_" style="fill:#040000;" d="M914.084,567.601H109.916c-11.231,0-20.319,9.088-20.319,20.319
		s9.088,20.319,20.319,20.319h804.167c11.231,0,20.319-9.088,20.319-20.319S925.315,567.601,914.084,567.601z"/>
	<path id="XMLID_355_" style="fill:#040000;" d="M914.084,263.84H109.916c-11.231,0-20.319,9.088-20.319,20.319
		c0,11.231,9.088,20.319,20.319,20.319h804.167c11.231,0,20.319-9.088,20.319-20.319C934.403,272.929,925.315,263.84,914.084,263.84
		z"/>
	<path id="XMLID_356_" style="fill:#040000;" d="M914.084,719.481H109.916c-11.231,0-20.319,9.088-20.319,20.319
		c0,11.231,9.088,20.32,20.319,20.32h804.167c11.231,0,20.319-9.088,20.319-20.32C934.403,728.569,925.315,719.481,914.084,719.481z
		"/>
	<path id="XMLID_357_" style="fill:#040000;" d="M109.916,152.639h804.167c11.231,0,20.319-9.088,20.319-20.319
		S925.315,112,914.084,112H109.916c-11.231,0-20.319,9.088-20.319,20.319S98.685,152.639,109.916,152.639z"/>
	<path id="XMLID_358_" style="fill:#040000;" d="M914.084,415.721H109.916c-11.231,0-20.319,9.088-20.319,20.319
		c0,11.231,9.088,20.319,20.319,20.319h804.167c11.231,0,20.319-9.088,20.319-20.319
		C934.403,424.809,925.315,415.721,914.084,415.721z"/>
	<path id="XMLID_359_" style="fill:#040000;" d="M914.084,871.361H109.916c-11.231,0-20.319,9.088-20.319,20.32
		S98.685,912,109.916,912h804.167c11.231,0,20.319-9.088,20.319-20.319S925.315,871.361,914.084,871.361z"/>
</g>
</svg>
