<?xml version="1.0" encoding="iso-8859-1"?>
<!-- Generator: Adobe Illustrator 19.0.0, SVG Export Plug-In . SVG Version: 6.00 Build 0)  -->
<svg version="1.1" id="&#x56FE;&#x5C42;_1" xmlns="http://www.w3.org/2000/svg" xmlns:xlink="http://www.w3.org/1999/xlink" x="0px"
	 y="0px" viewBox="0 0 1024 1024" style="enable-background:new 0 0 1024 1024;" xml:space="preserve">
<g id="XMLID_217_">
	<path id="XMLID_218_" style="fill:#040000;" d="M879.704,553.854H400.917c-10.873,0-19.741,8.829-19.741,19.741
		c0,10.911,8.868,19.741,19.741,19.741h478.788c10.873,0,19.741-8.829,19.741-19.741
		C899.445,562.683,890.577,553.854,879.704,553.854z"/>
	<path id="XMLID_259_" style="fill:#040000;" d="M400.917,460.317h321.325c10.873,0,19.741-8.829,19.741-19.741
		c0-10.911-8.868-19.741-19.741-19.741H400.917c-10.873,0-19.741,8.829-19.741,19.741
		C381.176,451.488,390.044,460.317,400.917,460.317z"/>
	<path id="XMLID_260_" style="fill:#040000;" d="M400.917,327.338h478.788c10.873,0,19.741-8.829,19.741-19.741
		c0-10.911-8.868-19.741-19.741-19.741H400.917c-10.873,0-19.741,8.829-19.741,19.741
		C381.176,318.508,390.044,327.338,400.917,327.338z"/>
	<path id="XMLID_261_" style="fill:#040000;" d="M400.917,194.358h321.325c10.873,0,19.741-8.829,19.741-19.741
		c0-10.911-8.868-19.741-19.741-19.741H400.917c-10.873,0-19.741,8.829-19.741,19.741
		C381.176,185.529,390.044,194.358,400.917,194.358z"/>
	<path id="XMLID_262_" style="fill:#040000;" d="M722.242,819.851H400.917c-10.873,0-19.741,8.829-19.741,19.741
		c0,10.911,8.868,19.741,19.741,19.741h321.325c10.873,0,19.741-8.829,19.741-19.741
		C741.983,828.681,733.115,819.851,722.242,819.851z"/>
	<path id="XMLID_263_" style="fill:#040000;" d="M879.704,686.833H400.917c-10.873,0-19.741,8.829-19.741,19.741
		s8.868,19.741,19.741,19.741h478.788c10.873,0,19.741-8.829,19.741-19.741S890.577,686.833,879.704,686.833z"/>
	<path id="XMLID_428_" style="fill:#040000;" d="M306.994,775.358l-54.981,63.772V594.607c0-10.911-8.868-19.741-19.741-19.741
		c-10.873,0-19.741,8.829-19.741,19.741v243.775l-53.207-62.909c-6.94-8.328-19.432-9.292-27.76-2.313
		c-8.328,7.056-9.408,19.509-2.313,27.837l87.985,104.024c0.492,0.588,1.378,0.376,1.923,0.892c1.913,1.836,3.668,3.885,6.251,4.853
		c2.236,0.848,4.55,1.234,6.863,1.234c4.55,0,9.022-1.542,12.723-4.665c0.477-0.405,0.361-1.099,0.79-1.537
		c0.4-0.39,1.075-0.231,1.446-0.66l89.681-104.024c7.094-8.251,6.169-20.705-2.082-27.837
		C326.658,766.22,314.166,767.107,306.994,775.358z"/>
	<path id="XMLID_585_" style="fill:#040000;" d="M159.248,247.835l54.981-63.772v244.522c0,10.911,8.868,19.741,19.741,19.741
		s19.741-8.829,19.741-19.741V184.811l53.207,62.909c3.856,4.588,9.408,6.979,15.037,6.979c4.55,0,9.022-1.542,12.723-4.665
		c8.328-7.056,9.408-19.509,2.313-27.837l-87.985-104.024c-0.602-0.718-1.634-0.583-2.309-1.19
		c-1.836-1.677-3.441-3.644-5.865-4.554c-1.06-0.4-2.183,0.034-3.277-0.169c-1.533-0.294-2.742-0.289-4.309-0.217
		c-3.374,0.145-6.294,1.137-9.225,2.935c-0.872,0.525-1.971,0.207-2.776,0.882c-0.376,0.318-0.28,0.868-0.622,1.205
		c-0.477,0.448-1.181,0.496-1.615,0.993L129.329,222.08c-7.094,8.251-6.169,20.705,2.082,27.837
		C139.662,257.089,152.154,256.202,159.248,247.835z"/>
</g>
</svg>
