<?xml version="1.0" encoding="iso-8859-1"?>
<!-- Generator: Adobe Illustrator 19.0.0, SVG Export Plug-In . SVG Version: 6.00 Build 0)  -->
<svg version="1.1" id="&#x56FE;&#x5C42;_1" xmlns="http://www.w3.org/2000/svg" xmlns:xlink="http://www.w3.org/1999/xlink" x="0px"
	 y="0px" viewBox="0 0 1024 1024" style="enable-background:new 0 0 1024 1024;" xml:space="preserve">
<path id="XMLID_372_" style="fill:#040000;" d="M886.881,215.084L808.897,137.1c-33.505-33.427-88.024-33.505-121.529,0
	L492.523,331.944c-33.505,33.505-33.505,88.063,0,121.568l24.895,24.895l-38.978,38.978l-24.91-24.92
	c-33.544-33.466-88.024-33.466-121.568,0L137.119,687.309c-33.466,33.505-33.466,88.063,0,121.568l77.984,77.984
	C231.875,903.633,253.862,912,275.888,912s44.012-8.367,60.784-25.139l194.844-194.844c16.188-16.188,25.1-37.786,25.1-60.784
	s-8.911-44.596-25.1-60.745l-24.91-24.92l38.987-38.987l24.915,24.915c16.733,16.733,38.72,25.1,60.745,25.1
	c21.987,0,44.012-8.367,60.784-25.1l194.844-194.844c16.188-16.188,25.1-37.786,25.1-60.784S903.069,231.272,886.881,215.084z
	 M503.342,598.662c8.678,8.639,13.425,20.197,13.425,32.571s-4.786,23.932-13.425,32.61L308.498,858.687
	c-17.978,17.978-47.242,17.978-65.22,0l-77.984-77.984c-17.939-17.978-17.939-47.242,0-65.22l194.844-194.844
	c8.989-8.95,20.819-13.464,32.61-13.464c11.83,0,23.621,4.475,32.61,13.464l24.905,24.92L336.205,659.602
	c-7.783,7.783-7.783,20.391,0,28.174c3.891,3.891,8.989,5.837,14.087,5.837s10.196-1.946,14.087-5.837l114.053-114.038
	L503.342,598.662z M858.707,308.478L663.863,503.322c-17.94,17.939-47.164,18.017-65.181,0l-24.91-24.91l102.894-102.885
	c7.783-7.783,7.783-20.391,0-28.174c-7.783-7.783-20.391-7.783-28.174,0L545.598,450.238l-24.9-24.9
	c-17.978-17.978-17.978-47.242,0-65.22l194.844-194.844c8.989-8.989,20.78-13.464,32.571-13.464c11.83,0,23.621,4.475,32.61,13.464
	l77.984,77.984C876.685,261.236,876.685,290.5,858.707,308.478z"/>
</svg>
