<?xml version="1.0" encoding="iso-8859-1"?>
<!-- Generator: Adobe Illustrator 19.0.0, SVG Export Plug-In . SVG Version: 6.00 Build 0)  -->
<svg version="1.1" id="&#x56FE;&#x5C42;_1" xmlns="http://www.w3.org/2000/svg" xmlns:xlink="http://www.w3.org/1999/xlink" x="0px"
	 y="0px" viewBox="0 0 1024 1024" style="enable-background:new 0 0 1024 1024;" xml:space="preserve">
<g id="XMLID_463_">
	<path id="XMLID_478_" style="fill:#040000;" d="M891.156,112H132.844c-10.875,0-19.745,8.831-19.745,19.745v758.351
		c0,10.913,8.87,19.745,19.745,19.745h597.368c2.275,0.892,4.435,2.16,6.922,2.16c2.16,0,4.396-0.386,6.633-1.157
		c0.506-0.183,0.622-0.786,1.104-1.003h146.286c10.875,0,19.745-8.831,19.745-19.745V131.745
		C910.901,120.831,902.031,112,891.156,112z M407.295,151.489c15.112,19.209,57.677,81.027,19.711,129.226
		c-22.058,27.959-61.547,24.758-103.504,21.711c-45.428-3.664-97.026-7.597-122.632,37.175
		c-17.354,30.272,4.319,66.946,29.385,109.366c29.617,50.248,66.561,112.798,48.204,176.428
		c-13.338,46.214-56.708,89.877-125.871,130.431V151.489H407.295z M152.588,801.496c91.651-49.361,145.982-103.384,163.818-165.187
		c23.061-79.981-20.439-153.637-52.215-207.395c-15.58-26.455-35.016-59.349-29.077-69.684
		c12.572-21.904,40.569-20.863,85.38-17.431c45.505,3.509,102.348,7.944,137.517-36.635c40.154-50.971,22.449-111.844-2.536-153.676
		h415.936v388.696c-69.135,25.645-118.535,67.525-146.001,125.24c-36.978,77.672-24.965,162.029-14.828,204.927H152.588V801.496z
		 M751.315,870.351c-8.696-32.986-24.729-115.7,9.882-188.19c20.988-44.001,58.602-76.794,110.215-98.94v287.129H751.315z"/>
	<path id="XMLID_662_" style="fill:#040000;" d="M682.296,354.179c-31.699-31.661-86.922-31.583-118.313,0
		c-15.811,15.772-24.526,36.79-24.526,59.156c0,15.474,5.51,29.559,13.314,42.449L428.549,579.968
		c-7.713,7.713-7.713,20.207,0,27.92c3.856,3.856,8.87,5.784,13.96,5.784c5.013,0,10.104-1.928,13.96-5.784l124.223-124.189
		c12.89,7.79,26.98,13.28,42.449,13.28c22.29,0,43.345-8.677,59.156-24.488C714.844,439.867,714.844,386.804,682.296,354.179z
		 M654.376,444.572c-16.659,16.659-45.813,16.659-62.473,0c-8.33-8.368-12.957-19.436-12.957-31.236
		c0-11.8,4.628-22.868,12.957-31.236c8.33-8.33,19.436-12.919,31.236-12.919c11.8,0,22.907,4.589,31.236,12.919
		C671.576,399.298,671.576,427.334,654.376,444.572z"/>
</g>
</svg>
