<?xml version="1.0" encoding="utf-8"?>
<!-- Generator: Adobe Illustrator 19.0.0, SVG Export Plug-In . SVG Version: 6.00 Build 0)  -->
<svg version="1.1" id="图层_1" xmlns="http://www.w3.org/2000/svg" xmlns:xlink="http://www.w3.org/1999/xlink" x="0px" y="0px"
	 viewBox="0 0 1024 1024" style="enable-background:new 0 0 1024 1024;" xml:space="preserve">
<g>
	<path d="M908.8,112H702h-99.6H322h-26H115.2c-11.1,0-20,9-20,20v173.1v413.7V892c0,11.1,9,20,20,20H296h432h180.8
		c11.1,0,20-9,20-20V718.8V305.2V132C928.8,121,919.9,112,908.8,112z M888.8,871.9H748v-133h140.7V871.9z M276,698.8H135.2V325.2
		H276V698.8z M135.2,738.9H276v133H135.2V738.9z M316,738.9h5.9h93.1c11.1,0,20-9,20-20c0-11.1-9-20-20-20H322H316V325.2h38.8h247.6
		H708v373.6H702h-99.6c-11.1,0-20,9-20,20c0,11.1,9,20,20,20H702h5.9v133H316V738.9z M888.8,698.8H748V325.2h140.7V698.8z
		 M888.8,285.1H748v-133h140.7V285.1z M322,152.1h280.4H702h5.9v133H602.4H354.8H316v-133H322z M276,152.1v133H135.2v-133H276z"/>
	<path d="M579,642.5c-8.4-7.1-21.1-6-28.3,2.3l-18.2,21.5V491.2c0-11.1-9-20-20-20c-11.1,0-20,9-20,20v175.9l-19.3-22.4
		c-7.2-8.4-19.9-9.2-28.3-2.1c-8.4,7.2-9.3,19.9-2.1,28.3l54.5,63.2c0.1,0.1,0.2,0.2,0.3,0.3c0.3,0.3,0.6,0.6,0.9,0.9
		c0.2,0.2,0.5,0.4,0.7,0.6c0.1,0.1,0.3,0.3,0.4,0.4c0.1,0.1,0.3,0.2,0.4,0.3c0.3,0.2,0.5,0.4,0.8,0.6c0.2,0.1,0.3,0.2,0.5,0.3
		c0.4,0.3,0.8,0.5,1.2,0.8c0.1,0.1,0.2,0.1,0.3,0.2c0.4,0.2,0.8,0.4,1.2,0.6c0.1,0,0.2,0.1,0.3,0.1c0.4,0.2,0.9,0.4,1.3,0.5
		c0.1,0.1,0.3,0.1,0.4,0.2c0.4,0.2,0.9,0.3,1.3,0.4c0.1,0,0.2,0.1,0.3,0.1c0.4,0.1,0.8,0.2,1.2,0.3c0.1,0,0.2,0,0.4,0.1
		c0.5,0.1,1,0.1,1.4,0.2c0.1,0,0.2,0,0.4,0c0.5,0,1,0.1,1.5,0.1c0.5,0,1,0,1.5-0.1c0.1,0,0.3,0,0.4,0c0.4,0,0.9-0.1,1.3-0.2
		c0.2,0,0.4-0.1,0.6-0.1c0.3-0.1,0.7-0.1,1-0.2c0.2-0.1,0.4-0.1,0.6-0.2c0.5-0.1,0.9-0.3,1.4-0.4c0,0,0.1,0,0.1,0c0,0,0,0,0.1,0
		c3.1-1.2,6-3.1,8.3-5.8l53.5-63.2C588.5,662.3,587.4,649.7,579,642.5z"/>
</g>
</svg>
