<?xml version="1.0" encoding="utf-8"?>
<!-- Generator: Adobe Illustrator 19.0.0, SVG Export Plug-In . SVG Version: 6.00 Build 0)  -->
<svg version="1.1" id="图层_1" xmlns="http://www.w3.org/2000/svg" xmlns:xlink="http://www.w3.org/1999/xlink" x="0px" y="0px"
	 viewBox="0 0 1024 1024" style="enable-background:new 0 0 1024 1024;" xml:space="preserve">
<style type="text/css">
	.st0{stroke:#FFFFFF;stroke-miterlimit:10;}
</style>
<path class="st0" d="M908.8,112H602.4H322h-26H115.2c-11.1,0-20,9-20,20v173.1v293.4V892c0,11.1,9,20,20,20H296h612.8
	c11.1,0,20-9,20-20V305.2V132C928.8,121,919.8,112,908.8,112z M888.7,285.1H622.4v-133h266.3V285.1z M322,152.1h260.4v133H354.8
	h-38.7v-133H322z M135.3,325.2H276v253.3H135.3V325.2z M276,152.1v133H135.3v-133H276z M135.3,618.6H276v253.3H135.3V618.6z
	 M888.7,871.9H316.1V598.5V325.2h38.7h247.6h286.3V871.9z"/>
</svg>
