<?xml version="1.0" encoding="utf-8"?>
<!-- Generator: Adobe Illustrator 19.0.0, SVG Export Plug-In . SVG Version: 6.00 Build 0)  -->
<svg version="1.1" id="图层_1" xmlns="http://www.w3.org/2000/svg" xmlns:xlink="http://www.w3.org/1999/xlink" x="0px" y="0px"
	 viewBox="0 0 1024 1024" style="enable-background:new 0 0 1024 1024;" xml:space="preserve">
<g>
	<path d="M908.8,112H702h-99.6H322h-26H115.2c-11.1,0-20,9-20,20v173.1v413.7V892c0,11.1,9,20,20,20H296h432h180.8
		c11.1,0,20-9,20-20V718.8V305.2V132C928.8,121,919.8,112,908.8,112z M602.4,325.2h105.6V421c0,11.1,9,20,20,20s20-9,20-20v-95.8
		h140.7v373.6H748v-94.6c0-11.1-9-20-20-20s-20,9-20,20v94.6H702h-99.6H415.1H322h-5.9V325.2h38.7H602.4z M276,698.8H135.3V325.2
		H276V698.8z M135.3,738.9H276v133H135.3V738.9z M316.1,738.9h5.9h93.1h187.3H702h5.9v133H316.1V738.9z M748,738.9h140.7v133H748
		V738.9z M888.7,285.1H748v-133h140.7V285.1z M322,152.1h280.4H702h5.9v133H602.4H354.8h-38.7v-133H322z M276,152.1v133H135.3v-133
		H276z"/>
	<path d="M498.1,531.5h176l-22.4,19.3c-8.4,7.2-9.3,19.9-2.1,28.3c4,4.6,9.5,7,15.2,7c4.7,0,9.3-1.6,13.1-4.9l62.9-54.3
		c0.9-0.8,1.8-1.6,2.6-2.5c3.8-4.4,5.2-10,4.6-15.4c0,0,0-0.1,0-0.1c-0.3-2-0.8-4-1.7-5.9c0,0,0,0,0,0c-0.2-0.5-0.4-0.9-0.7-1.3
		c0,0,0,0,0-0.1c-0.7-1.3-1.6-2.5-2.6-3.6c0,0,0-0.1-0.1-0.1c-0.3-0.3-0.6-0.6-0.9-0.9c-0.1-0.1-0.2-0.2-0.4-0.3
		c-0.2-0.2-0.4-0.4-0.6-0.6l-63.2-53.5c-8.5-7-21.1-6-28.3,2.3c-7.2,8.5-6.1,21.1,2.3,28.3l21.5,18.2H498.1c-11.1,0-20,9-20,20
		C478.1,522.6,487,531.5,498.1,531.5z"/>
</g>
</svg>
