<?xml version="1.0" encoding="iso-8859-1"?>
<!-- Generator: Adobe Illustrator 19.0.0, SVG Export Plug-In . SVG Version: 6.00 Build 0)  -->
<svg version="1.1" id="&#x56FE;&#x5C42;_1" xmlns="http://www.w3.org/2000/svg" xmlns:xlink="http://www.w3.org/1999/xlink" x="0px"
	 y="0px" viewBox="0 0 1024 1024" style="enable-background:new 0 0 1024 1024;" xml:space="preserve">
<g id="XMLID_254_">
	<path id="XMLID_256_" style="fill:#040000;" d="M901.93,112c-10.901,0-19.792,8.852-19.792,19.792v273.303H440.06V131.792
		c0-10.94-8.891-19.792-19.792-19.792s-19.792,8.852-19.792,19.792v293.095c0,10.94,8.891,19.792,19.792,19.792H901.93
		c10.901,0,19.792-8.852,19.792-19.792V131.792C921.722,120.852,912.831,112,901.93,112z"/>
	<path id="XMLID_472_" style="fill:#040000;" d="M901.93,579.359H420.268c-10.901,0-19.792,8.852-19.792,19.792v293.056
		c0,10.94,8.891,19.792,19.792,19.792s19.792-8.852,19.792-19.792V618.944h442.078v273.264c0,10.94,8.891,19.792,19.792,19.792
		s19.792-8.852,19.792-19.792V599.151C921.722,588.212,912.831,579.359,901.93,579.359z"/>
	<path id="XMLID_481_" style="fill:#040000;" d="M544.124,250.739h228.461c10.901,0,19.792-8.852,19.792-19.792
		c0-10.94-8.891-19.792-19.792-19.792H544.124c-10.901,0-19.792,8.852-19.792,19.792
		C524.331,241.886,533.223,250.739,544.124,250.739z"/>
	<path id="XMLID_482_" style="fill:#040000;" d="M772.585,734.527H544.124c-10.901,0-19.792,8.852-19.792,19.792
		s8.891,19.792,19.792,19.792h228.461c10.901,0,19.792-8.852,19.792-19.792S783.486,734.527,772.585,734.527z"/>
	<path id="XMLID_483_" style="fill:#040000;" d="M368.004,510.135c-0.145-3.44-1.16-6.412-3.006-9.355
		c-0.517-0.836-0.203-1.904-0.86-2.677c-0.309-0.362-0.846-0.271-1.174-0.604c-0.445-0.469-0.493-1.169-0.991-1.599l-104.296-89.915
		c-8.195-7.074-20.643-6.185-27.91,2.087c-7.113,8.273-6.185,20.759,2.087,27.91l63.938,55.124H122.07
		c-10.901,0-19.792,8.852-19.792,19.792s8.891,19.792,19.792,19.792h172.984l-63.044,53.346c-8.35,7.074-9.432,19.56-2.319,27.91
		c3.866,4.6,9.432,6.997,15.076,6.997c4.561,0,9.046-1.546,12.757-4.677l104.296-88.253c0.686-0.585,0.556-1.566,1.145-2.218
		c1.735-1.87,3.735-3.523,4.653-6.016c0.401-1.087-0.034-2.208,0.169-3.324C368.086,512.918,368.072,511.7,368.004,510.135z"/>
</g>
</svg>
