<?xml version="1.0" encoding="iso-8859-1"?>
<!-- Generator: Adobe Illustrator 19.0.0, SVG Export Plug-In . SVG Version: 6.00 Build 0)  -->
<svg version="1.1" id="&#x56FE;&#x5C42;_1" xmlns="http://www.w3.org/2000/svg" xmlns:xlink="http://www.w3.org/1999/xlink" x="0px"
	 y="0px" viewBox="0 0 1024 1024" style="enable-background:new 0 0 1024 1024;" xml:space="preserve">
<g id="XMLID_18_">
	<path id="XMLID_409_" style="fill:#040000;" d="M949.582,342.529H709.179V215.174c0-11.406-9.229-20.635-20.635-20.635h-94.872
		c-1.008,0-1.612,0.927-2.579,1.068v-4.332c0-11.406-9.229-20.635-20.635-20.635h-71.98v-38.005
		c0-11.406-9.229-20.635-20.635-20.635H279.597c-11.406,0-20.635,9.229-20.635,20.635v34.821h-61.259
		c-11.406,0-20.635,9.229-20.635,20.635v6.73c-0.267-0.01-0.418-0.282-0.685-0.282H74.418c-11.406,0-20.635,9.229-20.635,20.635
		v515.909c0,11.406,9.229,20.635,20.635,20.635h326.287v139.647c0,11.406,9.229,20.635,20.635,20.635h528.242
		c11.406,0,20.635-9.229,20.635-20.635V363.164C970.217,351.758,960.987,342.529,949.582,342.529z M218.338,208.725h61.259
		c11.406,0,20.635-9.229,20.635-20.635V153.27h156.977v38.005c0,11.406,9.229,20.635,20.635,20.635h71.98v50.176H218.338V208.725z
		 M95.053,710.448v-474.64h81.33c0.267,0,0.418-0.272,0.685-0.282v47.194c0,11.406,9.229,20.635,20.635,20.635h372.756
		c11.406,0,20.635-9.229,20.635-20.635v-47.98c0.967,0.141,1.572,1.068,2.579,1.068h74.237v106.72H421.34
		c-11.406,0-20.635,9.229-20.635,20.635v347.285H95.053z M928.947,870.73H441.975V383.798h486.972V870.73z"/>
	<path id="XMLID_651_" style="fill:#040000;" d="M540.433,520.705h124.413v247.698c0,11.406,9.229,20.635,20.635,20.635
		c11.406,0,20.635-9.229,20.635-20.635V520.705h130.579c11.406,0,20.635-9.229,20.635-20.635s-9.229-20.635-20.635-20.635H540.433
		c-11.406,0-20.635,9.229-20.635,20.635S529.028,520.705,540.433,520.705z"/>
</g>
</svg>
