<?xml version="1.0" encoding="utf-8"?>
<!-- Generator: Adobe Illustrator 19.0.0, SVG Export Plug-In . SVG Version: 6.00 Build 0)  -->
<svg version="1.1" id="图层_1" xmlns="http://www.w3.org/2000/svg" xmlns:xlink="http://www.w3.org/1999/xlink" x="0px" y="0px"
	 viewBox="32 -232 1024 1024" style="enable-background:new 32 -232 1024 1024;" xml:space="preserve">
<path id="XMLID_1043_" d="M984,313.7c-2.1-11.6-8.1-18.6-13-22.5l-112.7-89.8v-317.3c0-21-17.1-38-38-38h-197v-42.1
	c0-11.1-9-20.2-20.2-20.2H376.7c-11.1,0-20.2,9-20.2,20.2v42.1h-216c-21,0-38,17-38,38v745c0,21,17,38,38,38h129.6v70.8
	c0,21,17.1,38,38,38h639.2c21,0,38-17.1,38-38V320.9C985.4,318.6,984.9,316.1,984,313.7z M786.8,196l37.2,29.4c0,0,0.1,0.1,0.1,0.1
	l95.2,75.3H786.8V196z M396.9-175.7H583v101.8c0,11.1,9,20.2,20.2,20.2h35.4v40.4H341.4v-40.4h35.4c11.1,0,20.2-9,20.2-20.2V-175.7z
	 M143,629.3l-2.4-742.7h216v19.3h-35.4c-11.1,0-20.2,9-20.2,20.2V6.8c0,11.1,9,20.2,20.2,20.2h337.5c11.1,0,20.2-9,20.2-20.2v-80.8
	c0-11.1-9-20.2-20.2-20.2h-35.4v-19.6l194.7-2.1v285.1l-7.6-6.1c-5-4.1-11.3-6.8-18.7-7.8c-1.7-0.4-3.4-0.7-5-0.7H308.2
	c-21,0-38,17-38,38v434.4L143,629.3z M310.5,738.1l-0.4-90.1c0-0.4,0.4-0.6,0.4-0.9c0-0.4-0.4-0.6-0.4-1l-1.9-450.9h438.3v125.7
	c0,11.1,9,20.2,20.2,20.2h178.6l2.2,394.7L310.5,738.1z"/>
</svg>
