<?xml version="1.0" encoding="utf-8"?>
<!-- Generator: Adobe Illustrator 19.0.0, SVG Export Plug-In . SVG Version: 6.00 Build 0)  -->
<svg version="1.1" id="图层_1" xmlns="http://www.w3.org/2000/svg" xmlns:xlink="http://www.w3.org/1999/xlink" x="0px" y="0px"
	 viewBox="0 0 1024 1024" style="enable-background:new 0 0 1024 1024;" xml:space="preserve">
<g>
	<path d="M964.8,112H59.2c-11,0-19.9,8.9-19.9,19.9v760.2c0,11,8.9,19.9,19.9,19.9h905.5c11,0,19.9-8.9,19.9-19.9V131.9
		C984.7,120.9,975.8,112,964.8,112z M944.8,872.2H79.2V151.8h865.7V872.2z"/>
	<path d="M512,674.1c89.4,0,162.1-72.7,162.1-162.1c0-89.4-72.7-162.1-162.1-162.1S349.9,422.6,349.9,512
		C349.9,601.4,422.6,674.1,512,674.1z M512,389.7c67.4,0,122.3,54.8,122.3,122.3S579.4,634.3,512,634.3S389.7,579.4,389.7,512
		S444.6,389.7,512,389.7z"/>
	<path d="M512,770.5c215,0,384.3-236.9,391.4-247c4.8-6.9,4.8-16.1,0-22.9c-7.1-10.1-176.4-247-391.4-247s-384.3,236.9-391.5,247
		c-4.8,6.9-4.8,16.1,0,22.9C127.7,533.5,297,770.5,512,770.5z M512,293.4c168.9,0,314.1,172.1,350.2,218.6
		C826.1,558.5,681.1,730.6,512,730.6c-168.8,0-314.1-172.1-350.2-218.7C197.9,465.4,343.2,293.4,512,293.4z"/>
</g>
</svg>
