<?xml version="1.0" encoding="utf-8"?>
<!-- Generator: Adobe Illustrator 19.0.0, SVG Export Plug-In . SVG Version: 6.00 Build 0)  -->
<svg version="1.1" id="图层_1" xmlns="http://www.w3.org/2000/svg" xmlns:xlink="http://www.w3.org/1999/xlink" x="0px" y="0px"
	 viewBox="0 0 1024 1024" style="enable-background:new 0 0 1024 1024;" xml:space="preserve">
<g>
	<path d="M906.2,273.8H736.8V131.9c0-11-8.9-19.9-19.9-19.9H307.1c-11,0-19.9,8.9-19.9,19.9v141.9H117.8c-11,0-19.9,8.9-19.9,19.9
		v438.5c0,11,8.9,19.9,19.9,19.9h169.3v139.9c0,11,8.9,19.9,19.9,19.9h409.9c11,0,19.9-8.9,19.9-19.9V752.2h169.3
		c11,0,19.9-8.9,19.9-19.9V293.7C926.1,282.7,917.2,273.8,906.2,273.8z M327,151.8H697v122H327V151.8z M697,872.2H327V532.9H697
		V872.2z M886.3,712.4H736.8V513c0-11-8.9-19.9-19.9-19.9H307.1c-11,0-19.9,8.9-19.9,19.9v199.4H137.7V313.7h748.6V712.4z"/>
	<path d="M406.8,628.8h84.4c11,0,19.9-8.9,19.9-19.9c0-11-8.9-19.9-19.9-19.9h-84.4c-11,0-19.9,8.9-19.9,19.9
		C386.9,619.9,395.8,628.8,406.8,628.8z"/>
	<path d="M616.5,683.7H406.8c-11,0-19.9,8.9-19.9,19.9c0,11,8.9,19.9,19.9,19.9h209.8c11,0,19.9-8.9,19.9-19.9
		C636.4,692.6,627.5,683.7,616.5,683.7z"/>
	<path d="M586.8,778.3h-180c-11,0-19.9,8.9-19.9,19.9c0,11,8.9,19.9,19.9,19.9h180c11,0,19.9-8.9,19.9-19.9
		C606.7,787.2,597.8,778.3,586.8,778.3z"/>
</g>
</svg>
