<?xml version="1.0" encoding="utf-8"?>
<!-- Generator: Adobe Illustrator 19.0.0, SVG Export Plug-In . SVG Version: 6.00 Build 0)  -->
<svg version="1.1" id="图层_1" xmlns="http://www.w3.org/2000/svg" xmlns:xlink="http://www.w3.org/1999/xlink" x="0px" y="0px"
	 viewBox="32 -232 1024 1024" style="enable-background:new 32 -232 1024 1024;" xml:space="preserve">
<path id="XMLID_793_" d="M682.7,680c-1,0-2.1-0.1-3.1-0.2c-247.3-38.9-422-124.8-492.1-241.7c-38.4-64-44.7-134.3-18.7-208.9
	C255.6-19.9,578-20.7,666.1-16.5v-83.4c0-7.8,4.5-14.9,11.6-18.2c7-3.4,15.4-2.2,21.4,3L927.9,80.6c4.5,3.8,7,9.3,7,15.2
	c0,5.9-2.6,11.4-7,15.2L696.3,308.7c-5.9,5-14.3,6.2-21.3,3c-7.1-3.3-11.6-10.3-11.6-18.2v-89.8c-61.9-7.5-278.8-24.7-319.8,106
	c-58.4,186.4,341.8,330,345.8,331.4c9.8,3.4,15.3,13.7,12.7,23.7C699.8,673.9,691.7,680,682.7,680z M632.2,22.9
	c-108.9,0-357,22.4-425.7,219.5c-21.9,62.9-16.8,121.8,15.2,175.2c46.2,77,145,139.7,285.2,182.5
	c-116.1-66.9-242.2-172.6-201.6-302.3c58.2-185.5,368.3-133.4,381.4-131.1c9.6,1.7,16.6,10,16.6,19.7v63.8L884.1,95.8L706-56.5V4.9
	c0,5.7-2.4,11.1-6.6,14.8c-4.2,3.8-10.1,5.4-15.4,5C683.2,24.7,663.4,22.9,632.2,22.9z"/>
</svg>
