<?xml version="1.0" encoding="iso-8859-1"?>
<!-- Generator: Adobe Illustrator 19.0.0, SVG Export Plug-In . SVG Version: 6.00 Build 0)  -->
<svg version="1.1" id="&#x56FE;&#x5C42;_1" xmlns="http://www.w3.org/2000/svg" xmlns:xlink="http://www.w3.org/1999/xlink" x="0px"
	 y="0px" viewBox="0 0 1024 1024" style="enable-background:new 0 0 1024 1024;" xml:space="preserve">
<path id="XMLID_165_" style="fill:#040000;" d="M887.083,306.19L717.815,136.922c-33.271-33.271-87.464-33.189-120.653,0
	l-314.7,314.7l-29.702,29.702L136.907,597.177c-16.082,16.041-24.943,37.455-24.943,60.306s8.861,44.266,24.943,60.306
	l169.267,169.308C322.831,903.713,344.656,912,366.481,912c21.866,0,43.732-8.287,60.347-24.902L578.086,735.84l0,0l308.997-309.038
	C920.354,393.531,920.354,339.461,887.083,306.19z M397.126,857.396c-16.902,16.779-44.348,16.861-61.25,0L166.609,688.088
	c-8.123-8.123-12.636-18.994-12.636-30.604c0-11.61,4.513-22.482,12.636-30.604l116.428-116.428l117.535,112.982l117.525,112.992
	L397.126,857.396z M857.381,397.1L547.809,706.713L430.274,593.731L312.749,480.739l314.115-314.115
	c16.902-16.943,44.348-16.943,61.25,0l169.267,169.267C874.242,352.753,874.242,380.239,857.381,397.1z"/>
</svg>
