<?xml version="1.0" encoding="iso-8859-1"?>
<!-- Generator: Adobe Illustrator 19.0.0, SVG Export Plug-In . SVG Version: 6.00 Build 0)  -->
<svg version="1.1" id="&#x56FE;&#x5C42;_1" xmlns="http://www.w3.org/2000/svg" xmlns:xlink="http://www.w3.org/1999/xlink" x="0px"
	 y="0px" viewBox="0 0 1024 1024" style="enable-background:new 0 0 1024 1024;" xml:space="preserve">
<g id="XMLID_215_">
	<path id="XMLID_216_" style="fill:#040000;" d="M898.256,501.645H125.744c-10.618,0-19.279,8.623-19.279,19.279
		c0,10.656,8.66,19.279,19.279,19.279h772.512c10.618,0,19.279-8.623,19.279-19.279
		C917.535,510.268,908.875,501.645,898.256,501.645z"/>
	<path id="XMLID_233_" style="fill:#040000;" d="M898.256,371.776H356.639c-10.618,0-19.279,8.623-19.279,19.279
		s8.66,19.279,19.279,19.279h541.617c10.618,0,19.279-8.623,19.279-19.279S908.875,371.776,898.256,371.776z"/>
	<path id="XMLID_234_" style="fill:#040000;" d="M898.256,241.869H125.744c-10.618,0-19.279,8.623-19.279,19.279
		c0,10.656,8.66,19.279,19.279,19.279h772.512c10.618,0,19.279-8.623,19.279-19.279
		C917.535,250.492,908.875,241.869,898.256,241.869z"/>
	<path id="XMLID_235_" style="fill:#040000;" d="M356.639,150.558h541.617c10.618,0,19.279-8.623,19.279-19.279
		c0-10.656-8.66-19.279-19.279-19.279H356.639c-10.618,0-19.279,8.623-19.279,19.279
		C337.36,141.935,346.021,150.558,356.639,150.558z"/>
	<path id="XMLID_249_" style="fill:#040000;" d="M584.974,778.554l-53.695,62.28V602.031c0-10.656-8.66-19.279-19.279-19.279
		s-19.279,8.623-19.279,19.279v238.073l-51.963-61.437c-6.778-8.096-19.053-9.112-27.111-2.259
		c-8.133,6.891-9.188,19.053-2.259,27.186l85.927,101.591c0.48,0.574,1.346,0.367,1.878,0.871c1.869,1.793,3.582,3.794,6.105,4.74
		c2.184,0.828,4.443,1.205,6.702,1.205c4.443,0,8.811-1.506,12.426-4.556c0.466-0.395,0.353-1.073,0.772-1.501
		c0.391-0.381,1.05-0.226,1.412-0.645l87.584-101.591c6.928-8.058,6.025-20.22-2.033-27.186
		C604.253,769.63,591.977,770.496,584.974,778.554z"/>
</g>
</svg>
