<?xml version="1.0" encoding="iso-8859-1"?>
<!-- Generator: Adobe Illustrator 19.0.0, SVG Export Plug-In . SVG Version: 6.00 Build 0)  -->
<svg version="1.1" id="&#x56FE;&#x5C42;_1" xmlns="http://www.w3.org/2000/svg" xmlns:xlink="http://www.w3.org/1999/xlink" x="0px"
	 y="0px" viewBox="0 0 1024 1024" style="enable-background:new 0 0 1024 1024;" xml:space="preserve">
<g id="XMLID_133_">
	<path id="XMLID_214_" style="fill:#040000;" d="M125.324,521.969h773.352c10.629,0,19.298-8.631,19.298-19.298
		c0-10.667-8.669-19.298-19.298-19.298H125.324c-10.629,0-19.298,8.631-19.298,19.298
		C106.026,513.338,114.695,521.969,125.324,521.969z"/>
	<path id="XMLID_223_" style="fill:#040000;" d="M125.324,652.005h542.228c10.629,0,19.298-8.631,19.298-19.298
		c0-10.667-8.669-19.298-19.298-19.298H125.324c-10.629,0-19.298,8.631-19.298,19.298
		C106.026,643.373,114.695,652.005,125.324,652.005z"/>
	<path id="XMLID_225_" style="fill:#040000;" d="M898.676,743.406H125.324c-10.629,0-19.298,8.631-19.298,19.298
		c0,10.667,8.669,19.298,19.298,19.298h773.352c10.629,0,19.298-8.631,19.298-19.298
		C917.974,752.038,909.305,743.406,898.676,743.406z"/>
	<path id="XMLID_227_" style="fill:#040000;" d="M666.497,873.404H125.324c-10.629,0-19.298,8.631-19.298,19.298
		c0,10.667,8.669,19.298,19.298,19.298h541.173c10.629,0,19.298-8.631,19.298-19.298
		C685.795,882.035,677.126,873.404,666.497,873.404z"/>
	<path id="XMLID_228_" style="fill:#040000;" d="M438.992,244.787l53.748-62.342v239.039c0,10.667,8.669,19.298,19.298,19.298
		c10.629,0,19.298-8.631,19.298-19.298V183.176l52.014,61.498c3.769,4.485,9.197,6.822,14.7,6.822c4.448,0,8.82-1.508,12.438-4.561
		c8.141-6.898,9.197-19.072,2.261-27.213l-86.012-101.691c-0.589-0.697-1.588-0.57-2.247-1.159c-1.8-1.644-3.369-3.567-5.743-4.457
		c-1.051-0.391-2.144,0.038-3.223-0.16c-1.512-0.297-2.704-0.283-4.24-0.212c-3.279,0.151-6.13,1.117-8.971,2.86
		c-0.853,0.518-1.927,0.203-2.714,0.867c-0.363,0.311-0.273,0.848-0.608,1.178c-0.466,0.433-1.15,0.485-1.578,0.971l-87.67,101.691
		c-6.935,8.066-6.031,20.24,2.035,27.213C419.92,253.795,431.981,252.891,438.992,244.787z"/>
</g>
</svg>
