<?xml version="1.0" encoding="iso-8859-1"?>
<!-- Generator: Adobe Illustrator 19.0.0, SVG Export Plug-In . SVG Version: 6.00 Build 0)  -->
<svg version="1.1" id="&#x56FE;&#x5C42;_1" xmlns="http://www.w3.org/2000/svg" xmlns:xlink="http://www.w3.org/1999/xlink" x="0px"
	 y="0px" viewBox="0 0 1024 1024" style="enable-background:new 0 0 1024 1024;" xml:space="preserve">
<g id="XMLID_418_">
	<path id="XMLID_425_" style="fill:#040000;" d="M365.006,112H131.908C120.904,112,112,120.904,112,131.908v760.185
		c0,11.004,8.904,19.908,19.908,19.908h760.185c11.004,0,19.908-8.904,19.908-19.908V658.994C912,357.385,666.615,112,365.006,112z
		 M872.185,872.185H151.815V151.815h213.191c279.64,0,507.179,227.538,507.179,507.179V872.185z"/>
	<path id="XMLID_448_" style="fill:#040000;" d="M332.423,603.315c-57.701,0-104.632,46.931-104.632,104.632
		s46.931,104.632,104.632,104.632s104.632-46.931,104.632-104.632S390.124,603.315,332.423,603.315z M332.423,772.763
		c-35.733,0-64.817-29.084-64.817-64.817s29.084-64.817,64.817-64.817s64.817,29.084,64.817,64.817S368.156,772.763,332.423,772.763
		z"/>
	<path id="XMLID_452_" style="fill:#040000;" d="M327.874,366.367c41.721,0,75.665-33.944,75.665-75.665
		s-33.944-75.665-75.665-75.665s-75.665,33.944-75.665,75.665S286.153,366.367,327.874,366.367z M327.874,254.853
		c19.752,0,35.849,16.097,35.849,35.849c0,19.752-16.097,35.849-35.849,35.849c-19.752,0-35.849-16.097-35.849-35.849
		C292.024,270.95,308.122,254.853,327.874,254.853z"/>
	<path id="XMLID_461_" style="fill:#040000;" d="M537.332,270.795c-41.721,0-75.665,33.944-75.665,75.665
		s33.944,75.665,75.665,75.665s75.665-33.944,75.665-75.665S579.052,270.795,537.332,270.795z M537.332,382.309
		c-19.752,0-35.849-16.097-35.849-35.849c0-19.752,16.097-35.849,35.849-35.849s35.849,16.097,35.849,35.849
		C573.181,366.211,557.084,382.309,537.332,382.309z"/>
	<path id="XMLID_467_" style="fill:#040000;" d="M610.586,511.981c0,41.721,33.944,75.665,75.665,75.665
		s75.665-33.944,75.665-75.665s-33.944-75.665-75.665-75.665S610.586,470.26,610.586,511.981z M722.1,511.981
		c0,19.752-16.097,35.849-35.849,35.849s-35.849-16.097-35.849-35.849c0-19.752,16.097-35.849,35.849-35.849
		S722.1,492.228,722.1,511.981z"/>
	<path id="XMLID_479_" style="fill:#040000;" d="M666.343,707.947c0,41.721,33.944,75.665,75.665,75.665
		c41.721,0,75.665-33.944,75.665-75.665s-33.944-75.665-75.665-75.665C700.287,632.282,666.343,666.226,666.343,707.947z
		 M777.857,707.947c0,19.752-16.097,35.849-35.849,35.849c-19.752,0-35.849-16.097-35.849-35.849s16.097-35.849,35.849-35.849
		C761.759,672.097,777.857,688.194,777.857,707.947z"/>
</g>
</svg>
