<?xml version="1.0" encoding="utf-8"?>
<!-- Generator: Adobe Illustrator 19.0.0, SVG Export Plug-In . SVG Version: 6.00 Build 0)  -->
<svg version="1.1" id="图层_1" xmlns="http://www.w3.org/2000/svg" xmlns:xlink="http://www.w3.org/1999/xlink" x="0px" y="0px"
	 viewBox="32 -232 1024 1024" style="enable-background:new 32 -232 1024 1024;" xml:space="preserve">
<g id="XMLID_832_">
	<path id="XMLID_856_" d="M337.5,360.8c-51-2.8-93.9,35.4-96.9,85.8c-1.5,24.4,6.6,47.9,22.8,66.2c16.2,18.3,38.6,29.2,63,30.7
		c1.9,0.1,3.8,0.2,5.7,0.2c22.3,0,43.6-8,60.5-23c18.3-16.2,29.2-38.5,30.7-63C426.3,407.4,387.8,363.9,337.5,360.8z M365.9,490.5
		c-10.2,9.1-23,14.1-37.1,12.8c-13.6-0.8-26.2-7-35.3-17.2c-9.1-10.3-13.6-23.4-12.8-37.1c1.7-27.2,24.3-48.1,51.2-48.1
		c1,0,2.1,0,3.1,0.1c28.2,1.7,49.7,26.1,48,54.3C382.2,469,376.1,481.5,365.9,490.5z"/>
	<path id="XMLID_859_" d="M971.6,380.9c-0.2-0.9,0.3-1.7,0-2.6l-8.5-20c-1.4-3-2.4-6.2-3.9-9.1l-93.2-218.6c-0.1-0.4,0.2-0.8,0-1.2
		l-65-164c-13.3-34.9-47.5-66.8-85.1-79.3c-46.7-15.5-111,2.4-127.9,10.3c-12.8,6-30.9,21.7-44,41.7C530.8-82,512.8-97.6,500-103.6
		c-16.8-7.9-81.1-25.8-127.9-10.3c-37.7,12.5-71.9,44.4-85,79.1l-65,164.3c-0.1,0.3,0.1,0.7,0,1l-93.4,219.1
		c-1.9,3.8-3.3,7.8-5,11.6l-7.2,17c-0.4,0.9,0.2,1.7,0,2.6c-6.1,18.5-10.7,37.5-11.9,57.4C96.9,563.6,192.6,671.9,318,679.6
		c4.7,0.3,9.4,0.4,14,0.4c47.5,0,91.7-15.3,128.5-40.7l0,0h164.8c0.5,0,0.8-0.5,1.3-0.5c37,25.7,81.4,41.2,129.2,41.2
		c4.6,0,9.4-0.2,14-0.4c125.4-7.7,221.1-115.9,213.5-241.3C982.2,418.1,977.6,399.2,971.6,380.9z M262.4,138.6
		c10.4-26.7,43.1-69.7,77.3-80.8c41.2-13.3,111.8,2.2,129.4,12.1c21.6,12.1,52,46.4,50.4,73.8l0,180.8c-5.4-7.9-10.4-16-16.9-23.3
		c-40.3-45.5-96-72.7-156.7-76.4c-48.5-3.1-95.1,9.8-135.1,35.3L262.4,138.6z M544,532.5c9.4,24.6,22.6,46.9,39.3,66.6h-78.6
		C521.4,579.5,534.6,557.1,544,532.5z M568.5,324.6l-0.1-157.5c0,0,0,0,0-0.1v-24.8c-1.4-26.2,28.8-60.3,50.4-72.4
		c17.6-9.8,88.4-25.2,129.3-12.1c34.3,11.1,67,54.1,77.6,81.4l51.5,120.8c-39-24.6-85.5-38.2-135.1-35.3
		C669.2,229.2,606.9,268.4,568.5,324.6z M605-67.1c12.4-5.8,65.6-19.6,98.1-8.6c30.8,10.2,52.8,35.9,60.3,55.7l20.5,51.8
		c-7.6-4.6-15.1-9.6-23.3-12.2c-52.7-17.1-134.5,0.1-161.3,15.2c-9.7,5.4-20.4,14.5-30.8,24.9v-74.1C567.2-35.5,591.8-60.9,605-67.1
		z M324.6-20.3c7.4-19.5,29.4-45.2,60.2-55.4c32.7-11,85.7,2.8,98,8.5c13.3,6.3,37.9,31.7,36.6,54v72.9
		c-10.4-10.5-21.1-19.6-30.7-25C461.8,19.7,380.1,2.5,327.3,19.6c-8.2,2.6-15.7,7.6-23.3,12.2L324.6-20.3z M320.4,639.4
		c-103.2-6.3-182-95.4-175.7-198.7c1.3-21.6,6.9-41.9,14.8-60.8l4.9-11.5c31-61.8,94.9-103.8,167.4-103.8c3.8,0,7.7,0.1,11.5,0.4
		c50,3.1,95.8,25.4,129,62.9c33.2,37.5,49.8,85.7,46.8,135.7C512.8,566.8,424.6,645.1,320.4,639.4z M767.5,639.4
		c-104.2,5.7-192.3-72.6-198.7-175.8c-6.3-103.2,72.5-192.3,175.8-198.7c76.6-4.2,145.6,38.2,178.5,102.6l3.3,7.8
		c9.2,20.1,15.4,42,16.8,65.4C949.6,543.9,870.7,633,767.5,639.4z"/>
	<path id="XMLID_868_" d="M750.5,360.8c-50.4,3.1-88.8,46.6-85.8,96.9c1.5,24.4,12.4,46.8,30.7,63c16.9,14.9,38.1,23,60.5,23
		c1.9,0,3.8,0,5.7-0.2c24.4-1.5,46.8-12.4,63-30.7c16.2-18.3,24.3-41.8,22.8-66.2C844.4,396.3,800.9,357.9,750.5,360.8z
		 M794.5,486.1c-9.1,10.2-21.6,16.4-35.3,17.2c-13.6,1.2-26.8-3.7-37.1-12.8c-10.3-9-16.4-21.6-17.2-35.2
		c-1.7-28.2,19.8-52.6,48-54.3c1.1-0.1,2.1-0.1,3.1-0.1c26.9,0,49.5,21,51.2,48.1C808.1,462.7,803.5,475.9,794.5,486.1z"/>
</g>
</svg>
