<?xml version="1.0" encoding="iso-8859-1"?>
<!-- Generator: Adobe Illustrator 19.0.0, SVG Export Plug-In . SVG Version: 6.00 Build 0)  -->
<svg version="1.1" id="&#x56FE;&#x5C42;_1" xmlns="http://www.w3.org/2000/svg" xmlns:xlink="http://www.w3.org/1999/xlink" x="0px"
	 y="0px" viewBox="0 0 1024 1024" style="enable-background:new 0 0 1024 1024;" xml:space="preserve">
<g id="XMLID_29_">
	<path id="XMLID_46_" style="fill:#040000;" d="M144.658,759.241h608.34c10.741,0,19.432-8.691,19.432-19.432V470.082
		c0-10.741-8.691-19.432-19.432-19.432s-19.432,8.691-19.432,19.432v250.296H164.09V150.864h511.941
		c10.741,0,19.432-8.691,19.432-19.432S686.771,112,676.031,112H144.658c-10.741,0-19.432,8.691-19.432,19.432V739.81
		C125.227,750.55,133.918,759.241,144.658,759.241z"/>
	<path id="XMLID_205_" style="fill:#040000;" d="M901.506,359.906c-10.741,0-19.432,8.691-19.432,19.432v493.799h-759.58
		c-10.741,0-19.432,8.691-19.432,19.432S111.753,912,122.494,912h779.012c10.741,0,19.432-8.691,19.432-19.432V379.337
		C920.938,368.597,912.247,359.906,901.506,359.906z"/>
	<path id="XMLID_213_" style="fill:#040000;" d="M340.683,365.902c-7.439-7.742-19.735-8.046-27.478-0.607
		c-7.742,7.439-8.008,19.735-0.607,27.478l161.981,169.078c3.681,3.795,8.236,6.68,14.042,5.996c5.199,0,10.171-2.087,13.815-5.769
		l411.86-416.984c7.553-7.628,7.477-19.963-0.152-27.478c-7.666-7.553-19.963-7.477-27.478,0.152L488.849,520.558L340.683,365.902z"
		/>
</g>
</svg>
