<?xml version="1.0" encoding="utf-8"?>
<!-- Generator: Adobe Illustrator 19.0.0, SVG Export Plug-In . SVG Version: 6.00 Build 0)  -->
<svg version="1.1" id="图层_1" xmlns="http://www.w3.org/2000/svg" xmlns:xlink="http://www.w3.org/1999/xlink" x="0px" y="0px"
	 viewBox="32 -232 1024 1024" style="enable-background:new 32 -232 1024 1024;" xml:space="preserve">
<style type="text/css">
	.st0{fill:none;}
</style>
<g id="XMLID_614_">
	<g id="XMLID_813_">
		<g id="XMLID_1027_">
			<path id="XMLID_1028_" class="st0" d="M284,50.7C274.5-6.1,312.8-60,369.6-69.8c25.6-4.4,47.7-7.1,69.9-9.9l136.4-136.4H436.5
				L47.9,172.5v139.5L287.6,72.2L284,50.7z"/>
		</g>
		<g id="XMLID_1023_">
			<polygon id="XMLID_1026_" class="st0" points="222.9,-216.1 47.9,-41.1 47.9,98.3 362.4,-216.1 			"/>
		</g>
		<g id="XMLID_1020_">
			<polygon id="XMLID_1022_" class="st0" points="47.9,-216.1 47.9,-115.2 148.8,-216.1 			"/>
		</g>
		<g id="XMLID_1018_">
			<path id="XMLID_1019_" class="st0" d="M766.8-5.8c3.9,3.9,7.8,9.5,11.8,14.2L1003-216.1H863.6L699.7-52.2
				C724.8-39.7,747.9-24.9,766.8-5.8z"/>
		</g>
		<g id="XMLID_1014_">
			<path id="XMLID_1017_" class="st0" d="M252.5,395L47.9,599.6V739l232.3-232.2C263,472.6,253.8,434.6,252.5,395z"/>
		</g>
		<g id="XMLID_1011_">
			<polygon id="XMLID_1012_" class="st0" points="1040.1,776.1 1040.1,675.2 939.2,776.1 			"/>
		</g>
		<g id="XMLID_1005_">
			<path id="XMLID_1010_" class="st0" d="M514.9,647.4c-27.9,0-53.5-3.8-77.5-10.2L298.6,776.1H438l133.3-133.3
				C553,645.4,534.1,647.4,514.9,647.4z"/>
		</g>
		<g id="XMLID_1003_">
			<polygon id="XMLID_1004_" class="st0" points="835.9,378.1 1040.1,174 1040.1,34.5 836.3,238.3 			"/>
		</g>
		<g id="XMLID_1001_">
			<path id="XMLID_1002_" class="st0" d="M356.7,598.6c-18.1-13.7-33.6-29.6-47.3-46.9L85,776.1h139.5l160-160
				C374.8,610.8,365.4,605.2,356.7,598.6z"/>
		</g>
		<g id="XMLID_998_">
			<path id="XMLID_1000_" class="st0" d="M835,165.5l205.1-205.1V-179L807.8,53.2C822.7,82.4,833.2,119.5,835,165.5z"/>
		</g>
		<g id="XMLID_996_">
			<polygon id="XMLID_997_" class="st0" points="865.1,776.1 1040.1,601.1 1040.1,461.6 725.6,776.1 			"/>
		</g>
		<g id="XMLID_988_">
			<path id="XMLID_989_" class="st0" d="M835.5,530.5c0,57.9-46.9,104.8-104.8,104.8h-68.3c-2.9,0-5.5-1-8.3-1.3l-142,142h139.4
				l388.5-388.5V248.1L835.7,452.5L835.5,530.5z"/>
		</g>
		<g id="XMLID_986_">
			<path id="XMLID_987_" class="st0" d="M336,183.9c-16.6-12.3-27.9-30.6-34.9-51L47.9,386v139.4L263.4,310
				C277,261.8,301.7,217.7,336,183.9z"/>
		</g>
		<g id="XMLID_984_">
			<path id="XMLID_985_" class="st0" d="M540.9-87.4c38.3,0,72.9,5.8,105.1,14.7l143.4-143.4H650L520.2-86.2
				C526.8-86.4,534.7-87.4,540.9-87.4z"/>
		</g>
		<g id="XMLID_976_">
			<polygon id="XMLID_983_" points="148.8,-216.1 47.9,-115.2 47.9,-41.1 222.9,-216.1 			"/>
		</g>
		<g id="XMLID_974_">
			<polygon id="XMLID_975_" points="362.4,-216.1 47.9,98.3 47.9,172.5 436.5,-216.1 			"/>
		</g>
		<g id="XMLID_971_">
			<path id="XMLID_972_" d="M295.1,116.9l-7.5-44.7L47.9,311.9V386l253.1-253.2C299.2,127.5,296.1,122.8,295.1,116.9z"/>
		</g>
		<g id="XMLID_932_">
			<path id="XMLID_940_" d="M520.2-86.2L650-216.1h-74.1L439.5-79.7C469-83.3,495.9-85.5,520.2-86.2z"/>
		</g>
		<g id="XMLID_905_">
			<path id="XMLID_931_" d="M251.5,386c0-26.2,4.9-51.5,11.9-76L47.9,525.5v74.1L252.5,395C252.4,391.9,251.5,389.1,251.5,386z"/>
		</g>
		<g id="XMLID_900_">
			<path id="XMLID_901_" d="M699.7-52.2l163.9-163.9h-74.1L646.1-72.7C665.2-67.4,683-60.5,699.7-52.2z"/>
		</g>
		<g id="XMLID_850_">
			<path id="XMLID_899_" d="M1003-216.1L778.5,8.4c10.3,12.2,20.2,27,29.3,44.8L1040.1-179v-37.1H1003z"/>
		</g>
		<g id="XMLID_848_">
			<path id="XMLID_849_" d="M280.2,506.7L47.9,739v37.1h37l224.4-224.4C298.2,537.6,288.2,522.7,280.2,506.7z"/>
		</g>
		<g id="XMLID_846_">
			<path id="XMLID_847_" d="M384.4,616.1l-160,160h74.1l138.9-138.9C418.5,632.1,400.8,625.1,384.4,616.1z"/>
		</g>
		<g id="XMLID_844_">
			<path id="XMLID_845_" d="M836.4,182.7l-0.2,55.6l203.8-203.8v-74.1L835,165.5C835.2,171.5,836.6,176.4,836.4,182.7z"/>
		</g>
		<g id="XMLID_842_">
			<path id="XMLID_843_" d="M631.1,630.6c-18.2,4.9-38.5,9.1-59.8,12.2L438,776.1h74.1l142-142C646.2,633.4,638.4,632.8,631.1,630.6
				z"/>
		</g>
		<g id="XMLID_840_">
			<polygon id="XMLID_841_" points="835.7,452.5 1040.1,248.1 1040.1,174 835.9,378.1 			"/>
		</g>
		<g id="XMLID_838_">
			<polygon id="XMLID_839_" points="725.6,776.1 1040.1,461.6 1040.1,387.5 651.5,776.1 			"/>
		</g>
		<g id="XMLID_831_">
			<polygon id="XMLID_837_" points="939.2,776.1 1040.1,675.2 1040.1,601.1 865.1,776.1 			"/>
		</g>
	</g>
	<g id="XMLID_615_">
		<g id="XMLID_641_">
			<path id="XMLID_642_" d="M387.4,33.5c52.2-9,107.4-16.1,153.5-16.1c107.4,0,192.7,45.1,190.7,163.5c0,125.4-1,223.2-1,349.6
				h-68.3v-21.1c-43.1,18.1-99.3,33.1-147.5,33.1c-35.1,0-68.2-7-94.3-27.1c-45.1-34.2-64.2-82.3-64.2-129.5
				c0-74.3,50.2-148.5,117.4-164.6c50.2-10,100.3-13.1,140.5-13.1c16.1,0,33.1,0,49.2,1v-28.5c1-65.2-54.2-95.3-122.4-95.3
				c-46.2,0-95.3,7-142.5,14.1L387.4,33.5z M662.4,434.2V277.6c-15,0-30.1-1-48.2-1c-38.1,0-81.3,2-125.4,12
				c-37.1,8-64.2,52.2-64.2,97.4c0,27.1,12.1,56.2,36.1,76.3c12.1,9,32.1,12,54.2,12C566,474.3,626.3,454.2,662.4,434.2z"/>
		</g>
	</g>
</g>
</svg>
