<?xml version="1.0" encoding="iso-8859-1"?>
<!-- Generator: Adobe Illustrator 19.0.0, SVG Export Plug-In . SVG Version: 6.00 Build 0)  -->
<svg version="1.1" id="&#x56FE;&#x5C42;_1" xmlns="http://www.w3.org/2000/svg" xmlns:xlink="http://www.w3.org/1999/xlink" x="0px"
	 y="0px" viewBox="0 0 1024 1024" style="enable-background:new 0 0 1024 1024;" xml:space="preserve">
<g id="XMLID_20_">
	<path id="XMLID_178_" style="fill:#040000;" d="M964.759,112H59.241c-11.007,0-19.913,8.907-19.913,19.913v760.173
		c0,11.007,8.907,19.913,19.913,19.913h905.518c11.007,0,19.913-8.907,19.913-19.913V131.913
		C984.672,120.907,975.766,112,964.759,112z M944.846,872.173H79.154V743.65L284.24,471.765l153.746,225.388
		c3.228,4.706,8.323,7.818,14.002,8.518c5.601,0.739,11.396-1.089,15.674-4.862l130.565-116.136l124.07,111.974
		c3.656,3.306,8.401,5.134,13.34,5.134h209.208V872.173z M944.846,661.954H743.299L611.684,543.173
		c-7.545-6.806-19.019-6.845-26.564-0.117L458.133,656.003L301.508,426.376c-3.617-5.29-9.568-8.518-15.985-8.673
		c-6.806-0.156-12.524,2.8-16.374,7.934L79.154,677.511V151.827h865.691V661.954z"/>
	<path id="XMLID_422_" style="fill:#040000;" d="M769.125,424.081c52.234,0,94.745-42.511,94.745-94.745
		c0-52.273-42.511-94.783-94.745-94.783c-52.273,0-94.783,42.511-94.783,94.783C674.341,381.571,716.852,424.081,769.125,424.081z
		 M769.125,274.38c30.298,0,54.918,24.658,54.918,54.956c0,30.298-24.62,54.918-54.918,54.918c-30.298,0-54.956-24.62-54.956-54.918
		C714.168,299.039,738.827,274.38,769.125,274.38z"/>
</g>
</svg>
