<?xml version="1.0" encoding="utf-8"?>
<!-- Generator: Adobe Illustrator 19.0.0, SVG Export Plug-In . SVG Version: 6.00 Build 0)  -->
<svg version="1.1" id="图层_1" xmlns="http://www.w3.org/2000/svg" xmlns:xlink="http://www.w3.org/1999/xlink" x="0px" y="0px"
	 viewBox="0 0 1024 1024" style="enable-background:new 0 0 1024 1024;" xml:space="preserve">
<g>
	<path d="M748.5,792.3H166.5V327.7c0-11.1-9-20-20-20s-20,9-20,20v484.6c0,11.1,9,20,20,20h601.9c11.1,0,20-9,20-20
		S759.5,792.3,748.5,792.3z"/>
	<path d="M836.8,245.2H58.2c-11.1,0-20,9-20,20s9,20,20,20h758.6V892c0,11.1,9,20,20,20c11.1,0,20-9,20-20V265.2
		C856.8,254.1,847.8,245.2,836.8,245.2z"/>
	<path d="M146.5,215.1c11.1,0,20-9,20-20v-63c0-11.1-9-20-20-20s-20,9-20,20v63C126.5,206.1,135.5,215.1,146.5,215.1z"/>
	<path d="M965.8,792.3h-66.5c-11.1,0-20,9-20,20s9,20,20,20h66.5c11.1,0,20-9,20-20S976.9,792.3,965.8,792.3z"/>
</g>
</svg>
