<?xml version="1.0" encoding="utf-8"?>
<!-- Generator: Adobe Illustrator 19.0.0, SVG Export Plug-In . SVG Version: 6.00 Build 0)  -->
<svg version="1.1" id="图层_1" xmlns="http://www.w3.org/2000/svg" xmlns:xlink="http://www.w3.org/1999/xlink" x="0px" y="0px"
	 viewBox="0 0 1024 1024" style="enable-background:new 0 0 1024 1024;" xml:space="preserve">
<g id="XMLID_552_">
	<path id="XMLID_511_" d="M844.7,912h-152c-23.1,0-43.5-13.8-51.9-35.3c-8.3-21.3-2.7-45.1,14.2-60.7c12.2-11.2,26.3-21.9,41.4-33.3
		c69.9-52.7,156.8-118.3,149.4-335.6C837.5,199.2,645.5,155.8,531.8,152h-40.3c-113,3.8-305,47.1-313.4,295.1
		c-7.4,217.4,79.5,283,149.2,335.7c15,11.3,29.1,22,41.3,33.2c16.9,15.6,22.5,39.4,14.2,60.7c-8.3,21.5-28.7,35.3-51.8,35.3H179
		c-11.1,0-20-9-20-20s9-20,20-20h152c10,0,13.6-7.5,14.5-9.8c1.1-2.9,3-10.2-4-16.7c-11.3-10.4-24.4-20.2-38.3-30.8
		C230.1,759.6,129.9,684,138,445.8c9.9-291,250-330.3,352.8-333.8h41.7C636,115.4,876.1,154.8,886,445.8
		c8.1,238.1-92.2,313.7-165.3,368.9c-14,10.5-27.1,20.4-38.5,30.8c-7,6.4-5.1,13.8-4,16.7c0.9,2.3,4.6,9.8,14.6,9.8h152
		c11.1,0,20,9,20,20S855.8,912,844.7,912z"/>
</g>
</svg>
