<?xml version="1.0" encoding="utf-8"?>
<!-- Generator: Adobe Illustrator 19.0.0, SVG Export Plug-In . SVG Version: 6.00 Build 0)  -->
<svg version="1.1" id="图层_1" xmlns="http://www.w3.org/2000/svg" xmlns:xlink="http://www.w3.org/1999/xlink" x="0px" y="0px"
	 viewBox="0 0 1024 1024" style="enable-background:new 0 0 1024 1024;" xml:space="preserve">
<g>
	<path d="M908.8,112H115.2c-11.1,0-20,9-20,20V892c0,11.1,9,20,20,20h793.5c11.1,0,20-9,20-20V132C928.8,121,919.8,112,908.8,112z
		 M325.2,698.8V532h72.7c11.1,0,20-9,20-20c0-11.1-9-20-20-20h-72.7V325.2h373.6V492h-60.4c-11.1,0-20,9-20,20c0,11.1,9,20,20,20
		h60.4v166.8H325.2z M698.8,738.9v133H325.2v-133H698.8z M135.3,325.2h149.9v373.6H135.3V325.2z M325.2,285.1v-133h373.6v133H325.2z
		 M738.9,325.2h149.9v373.6H738.9V325.2z M888.7,285.1H738.9v-133h149.9V285.1z M285.1,152.1v133H135.3v-133H285.1z M135.3,738.9
		h149.9v133H135.3V738.9z M738.9,871.9v-133h149.9v133H738.9z"/>
	<path d="M558.2,492h-80.2c-11.1,0-20,9-20,20c0,11.1,9,20,20,20h80.2c11.1,0,20-9,20-20C578.3,500.9,569.3,492,558.2,492z"/>
</g>
</svg>
