<?xml version="1.0" encoding="utf-8"?>
<!-- Generator: Adobe Illustrator 19.0.0, SVG Export Plug-In . SVG Version: 6.00 Build 0)  -->
<svg version="1.1" id="图层_1" xmlns="http://www.w3.org/2000/svg" xmlns:xlink="http://www.w3.org/1999/xlink" x="0px" y="0px"
	 viewBox="0 0 1024 1024" style="enable-background:new 0 0 1024 1024;" xml:space="preserve">
<style type="text/css">
	.st0{fill:#686868;}
</style>
<g id="XMLID_232_">
	<path id="XMLID_879_" class="st0" d="M772,1158.9H-21.5c-11.1,0-20-9-20-20s9-20,20-20H772c11.1,0,20,9,20,20
		S783.1,1158.9,772,1158.9z"/>
</g>
<g>
	<path d="M303.7,112H99.6c-11.1,0-20,8.9-20,20v180.4c0,11.1,8.9,20,20,20h204.1c11.1,0,20-8.9,20-20V132
		C323.7,120.9,314.8,112,303.7,112z M283.7,292.4H119.6V152h164.1V292.4z"/>
	<path d="M303.7,401.8H99.6c-11.1,0-20,8.9-20,20v180.4c0,11.1,8.9,20,20,20h204.1c11.1,0,20-8.9,20-20V421.8
		C323.7,410.8,314.8,401.8,303.7,401.8z M283.7,582.2H119.6V441.8h164.1V582.2z"/>
	<path d="M303.7,691.6H99.6c-11.1,0-20,8.9-20,20V892c0,11.1,8.9,20,20,20h204.1c11.1,0,20-8.9,20-20V711.6
		C323.7,700.5,314.8,691.6,303.7,691.6z M283.7,872H119.6V731.6h164.1V872z"/>
	<path d="M614,112H410c-11.1,0-20,8.9-20,20v180.4c0,11.1,8.9,20,20,20H614c11.1,0,20-8.9,20-20V132C634,120.9,625.1,112,614,112z
		 M594,292.4H430V152H594V292.4z"/>
	<path d="M614,401.8H410c-11.1,0-20,8.9-20,20v180.4c0,11.1,8.9,20,20,20H614c11.1,0,20-8.9,20-20V421.8
		C634,410.8,625.1,401.8,614,401.8z M594,582.2H430V441.8H594V582.2z"/>
	<path d="M614,691.6H410c-11.1,0-20,8.9-20,20V892c0,11.1,8.9,20,20,20H614c11.1,0,20-8.9,20-20V711.6
		C634,700.5,625.1,691.6,614,691.6z M594,872H430V731.6H594V872z"/>
	<path d="M924.4,112H720.3c-11.1,0-20,8.9-20,20v180.4c0,11.1,8.9,20,20,20h204.1c11.1,0,20-8.9,20-20V132
		C944.4,120.9,935.4,112,924.4,112z M904.4,292.4H740.3V152h164.1V292.4z"/>
	<path d="M924.4,401.8H720.3c-11.1,0-20,8.9-20,20v180.4c0,11.1,8.9,20,20,20h204.1c11.1,0,20-8.9,20-20V421.8
		C944.4,410.8,935.4,401.8,924.4,401.8z M904.4,582.2H740.3V441.8h164.1V582.2z"/>
	<path d="M924.4,691.6H720.3c-11.1,0-20,8.9-20,20V892c0,11.1,8.9,20,20,20h204.1c11.1,0,20-8.9,20-20V711.6
		C944.4,700.5,935.4,691.6,924.4,691.6z M904.4,872H740.3V731.6h164.1V872z"/>
</g>
</svg>
