<?xml version="1.0" encoding="utf-8"?>
<!-- Generator: Adobe Illustrator 19.0.0, SVG Export Plug-In . SVG Version: 6.00 Build 0)  -->
<svg version="1.1" id="图层_1" xmlns="http://www.w3.org/2000/svg" xmlns:xlink="http://www.w3.org/1999/xlink" x="0px" y="0px"
	 viewBox="0 0 1024 1024" style="enable-background:new 0 0 1024 1024;" xml:space="preserve">
<g>
	<path d="M908.8,112H115.2c-11.1,0-20,9-20,20V892c0,11.1,9,20,20,20h793.5c11.1,0,20-9,20-20V132C928.8,121,919.8,112,908.8,112z
		 M698.8,737.6v134.3H325.2V737.6H698.8z M530.3,697.6v-74.5c0-11.1-9-20-20-20c-11.1,0-20,9-20,20v74.5h-165V324h165v58.7
		c0,11.1,9,20,20,20c11.1,0,20-9,20-20V324h168.5v373.6H530.3z M135.3,324h149.9v373.6H135.3V324z M325.2,283.9V152.1h373.6v131.8
		H325.2z M738.9,324h149.9v373.6H738.9V324z M888.7,283.9H738.9V152.1h149.9V283.9z M285.1,152.1v131.8H135.3V152.1H285.1z
		 M135.3,737.6h149.9v134.3H135.3V737.6z M738.9,871.9V737.6h149.9v134.3H738.9z"/>
	<path d="M510.2,442.7c-11.1,0-20,9-20,20v80.2c0,11.1,9,20,20,20c11.1,0,20-9,20-20v-80.2C530.3,451.7,521.3,442.7,510.2,442.7z"/>
</g>
</svg>
