<?xml version="1.0" encoding="iso-8859-1"?>
<!-- Generator: Adobe Illustrator 19.0.0, SVG Export Plug-In . SVG Version: 6.00 Build 0)  -->
<svg version="1.1" id="&#x56FE;&#x5C42;_1" xmlns="http://www.w3.org/2000/svg" xmlns:xlink="http://www.w3.org/1999/xlink" x="0px"
	 y="0px" viewBox="0 0 1024 1024" style="enable-background:new 0 0 1024 1024;" xml:space="preserve">
<path id="XMLID_593_" style="fill:#040000;" d="M1002.276,483.507h-254.25V364.883h217.135c7.862,0,14.224-6.362,14.224-14.224
	s-6.362-14.224-14.224-14.224H733.802c-7.862,0-14.224,6.362-14.224,14.224v132.848h-90.076
	c13.14-23.805,17.748-46.981,13.206-69.174c-9.612-47.033-55.951-70.369-57.923-71.341c-1.945-0.972-4.084-1.472-6.278-1.472
	H424.213c-7.862,0-14.224,6.362-14.224,14.224v127.764H301.657l-55.714-138.154c-2.167-5.389-7.39-8.918-13.196-8.918h-33.559
	c-6.001,0-11.362,3.778-13.39,9.445l-49.21,137.626H21.724c-7.862,0-14.224,6.362-14.224,14.224c0,7.862,6.362,14.224,14.224,14.224
	h104.692L70.424,668.555c-2.639,7.39,1.195,15.529,8.612,18.169c1.584,0.556,3.195,0.833,4.778,0.833
	c5.834,0,11.307-3.612,13.39-9.445l40.366-112.874h166.369l45.738,113.401c2.945,7.279,11.307,10.834,18.502,7.89
	c7.306-2.945,10.835-11.223,7.89-18.502l-62.941-156.073h96.861v144.655c0,7.862,6.362,14.224,14.224,14.224H596.37
	c3.084,0,6.084-1,8.529-2.834c1.972-1.472,47.922-36.532,48.755-86.898c0.399-24.44-10.289-47.561-30.649-69.147h96.573v144.655
	c0,7.862,6.362,14.224,14.224,14.224h231.359c7.862,0,14.224-6.362,14.224-14.224c0-7.862-6.362-14.224-14.224-14.224H748.026
	V511.955h254.25c7.862,0,14.224-6.362,14.224-14.224C1016.5,489.869,1010.138,483.507,1002.276,483.507z M209.217,364.883h13.918
	l47.842,118.624H166.795L209.217,364.883z M292.469,536.791H147.741l8.883-24.836H282.45L292.469,536.791z M591.231,642.386H438.436
	V520.4h152.822c22.808,19.391,34.226,39.588,33.948,60.09C624.79,610.16,600.426,634.329,591.231,642.386z M438.436,369.967H574.84
	c8.445,4.973,34.42,22.308,40.032,50.256c3.858,19.162-3.011,40.466-19.266,63.285h-157.17V369.967z"/>
</svg>
