<?xml version="1.0" encoding="iso-8859-1"?>
<!-- Generator: Adobe Illustrator 19.0.0, SVG Export Plug-In . SVG Version: 6.00 Build 0)  -->
<svg version="1.1" id="&#x56FE;&#x5C42;_1" xmlns="http://www.w3.org/2000/svg" xmlns:xlink="http://www.w3.org/1999/xlink" x="0px"
	 y="0px" viewBox="0 0 1024 1024" style="enable-background:new 0 0 1024 1024;" xml:space="preserve">
<g id="XMLID_142_">
	<path id="XMLID_155_" style="fill:#040000;" d="M629.037,116.184c-9.148-6.892-22.358-5.005-29.414,4.225L332.519,476.956
		L65.415,120.41c-6.974-9.271-20.143-11.158-29.414-4.225c-9.271,6.974-11.158,20.143-4.225,29.414L306.264,512L31.776,878.402
		c-6.933,9.271-5.046,22.44,4.225,29.414c3.774,2.831,8.205,4.184,12.594,4.184c6.359,0,12.676-2.913,16.82-8.41l267.104-356.546
		L599.624,903.59c4.143,5.497,10.461,8.41,16.82,8.41c4.39,0,8.82-1.354,12.594-4.184c9.271-6.974,11.158-20.143,4.225-29.414
		L358.774,512l274.488-366.402C640.196,136.327,638.309,123.158,629.037,116.184z"/>
	<path id="XMLID_163_" style="fill:#040000;" d="M986.475,259.972c6.154-3.815,9.928-10.584,9.928-17.845V133.004
		c0-11.61-9.394-21.004-21.004-21.004H785.747c-11.61,0-21.004,9.394-21.004,21.004v76.55c0,11.61,9.394,21.004,21.004,21.004
		c11.61,0,21.004-9.394,21.004-21.004v-55.546h147.644v76.427L774.958,341.773c-6.154,3.815-9.928,10.584-9.928,17.845V468.7
		c0,11.61,9.394,21.004,21.004,21.004h189.365c11.61,0,21.004-9.394,21.004-21.004v-79.832c0-11.61-9.394-21.004-21.004-21.004
		s-21.004,9.394-21.004,21.004v58.828H807.039V371.31L986.475,259.972z"/>
</g>
</svg>
