<?xml version="1.0" encoding="utf-8"?>
<!-- Generator: Adobe Illustrator 19.0.0, SVG Export Plug-In . SVG Version: 6.00 Build 0)  -->
<svg version="1.1" id="图层_1" xmlns="http://www.w3.org/2000/svg" xmlns:xlink="http://www.w3.org/1999/xlink" x="0px" y="0px"
	 viewBox="0 0 1024 1024" style="enable-background:new 0 0 1024 1024;" xml:space="preserve">
<g>
	<path d="M531.9,219v-67.2h110c11,0,19.9-8.9,19.9-19.9c0-11-8.9-19.9-19.9-19.9H382.1c-11,0-19.9,8.9-19.9,19.9
		c0,11,8.9,19.9,19.9,19.9h110V219c-80.7,4.6-154,36.9-210.7,87.4l-56.9-56.9c-7.8-7.8-20.4-7.8-28.1,0s-7.8,20.4,0,28.1l56.9,56.9
		c-54.7,61.3-88,142.1-88,230.6C165.2,756.4,320.8,912,512,912s346.7-155.6,346.7-346.8C858.8,380.7,713.9,229.4,531.9,219z
		 M512,872.2c-169.3,0-307-137.7-307-307c0-169.3,137.7-307,307-307c169.3,0,307,137.7,307,307C819,734.5,681.3,872.2,512,872.2z"/>
	<path d="M701.3,545.3H531.9V445.2c0-11-8.9-19.9-19.9-19.9c-11,0-19.9,8.9-19.9,19.9v120c0,11,8.9,19.9,19.9,19.9h189.3
		c11,0,19.9-8.9,19.9-19.9S712.3,545.3,701.3,545.3z"/>
</g>
</svg>
