<?xml version="1.0" encoding="iso-8859-1"?>
<!-- Generator: Adobe Illustrator 19.0.0, SVG Export Plug-In . SVG Version: 6.00 Build 0)  -->
<svg version="1.1" id="&#x56FE;&#x5C42;_1" xmlns="http://www.w3.org/2000/svg" xmlns:xlink="http://www.w3.org/1999/xlink" x="0px"
	 y="0px" viewBox="0 0 1024 1024" style="enable-background:new 0 0 1024 1024;" xml:space="preserve">
<g id="XMLID_348_">
	<path id="XMLID_384_" style="fill:#040000;" d="M381.596,352.288c-6.302-13.548-19.435-21.926-34.342-21.926
		c-14.831-1.51-28.38,8.567-34.644,22.605L82.818,885.008c-4.227,9.812,0.264,21.171,10.076,25.398
		c9.623,4.264,21.096-0.34,25.398-10.076l74.803-174.617h307.698l75.421,174.617c3.17,7.284,10.265,11.661,17.737,11.661
		c2.566,0,5.17-0.491,7.661-1.585c9.812-4.227,14.303-15.586,10.076-25.398L381.596,352.288z M209.653,687.068L346.31,368.062
		l137.789,319.006H209.653z"/>
	<path id="XMLID_390_" style="fill:#040000;" d="M923.449,584.532c-10.68,0-19.322,8.642-19.322,19.322v40.027
		c-30.054-35.96-74.652-59.349-125.066-59.349c-90.309,0-163.748,73.44-163.748,163.748c0,90.271,73.44,163.711,163.748,163.711
		c50.414,0,95.012-23.393,125.066-59.344v40.022c0,10.68,8.642,19.322,19.322,19.322s19.322-8.642,19.322-19.322V603.854
		C942.771,593.174,934.129,584.532,923.449,584.532z M779.06,873.346c-68.986,0-125.104-56.117-125.104-125.066
		c0-68.986,56.117-125.104,125.104-125.104c68.949,0,125.066,56.117,125.066,125.104
		C904.126,817.229,848.009,873.346,779.06,873.346z"/>
	<path id="XMLID_391_" style="fill:#040000;" d="M547.231,238.392h323.435l-61.528,52.042c-8.152,6.906-9.17,19.096-2.264,27.247
		c3.812,4.491,9.284,6.831,14.756,6.831c4.415,0,8.831-1.51,12.492-4.566l101.819-86.12c0.726-0.613,0.594-1.651,1.203-2.34
		c1.627-1.793,3.538-3.335,4.42-5.699c0.387-1.043-0.038-2.118,0.16-3.189c0.302-1.543,0.297-2.769,0.222-4.345
		c-0.151-3.288-1.127-6.128-2.868-8.949c-0.519-0.859-0.203-1.939-0.873-2.727c-0.311-0.368-0.863-0.269-1.198-0.609
		c-0.429-0.453-0.472-1.127-0.953-1.543l-101.819-87.78c-7.963-6.831-20.19-6.114-27.247,2.038
		c-6.944,8.076-6.038,20.266,2.038,27.247l62.42,53.815H547.231c-10.68,0-19.322,8.642-19.322,19.322
		C527.909,229.75,536.551,238.392,547.231,238.392z"/>
</g>
</svg>
