<?xml version="1.0" encoding="iso-8859-1"?>
<!-- Generator: Adobe Illustrator 19.0.0, SVG Export Plug-In . SVG Version: 6.00 Build 0)  -->
<svg version="1.1" id="&#x56FE;&#x5C42;_1" xmlns="http://www.w3.org/2000/svg" xmlns:xlink="http://www.w3.org/1999/xlink" x="0px"
	 y="0px" viewBox="0 0 1024 1024" style="enable-background:new 0 0 1024 1024;" xml:space="preserve">
<g id="XMLID_353_">
	<path id="XMLID_366_" style="fill:#040000;" d="M381.615,352.288c-6.302-13.548-19.435-21.926-34.342-21.926
		c-16.341-1.51-28.417,8.567-34.644,22.605L82.799,885.008c-4.227,9.812,0.264,21.171,10.076,25.398
		c9.737,4.264,21.134-0.34,25.398-10.076l74.817-174.617h307.722l75.421,174.617c3.17,7.284,10.265,11.661,17.737,11.661
		c2.566,0,5.17-0.491,7.661-1.585c9.812-4.227,14.303-15.586,10.076-25.398L381.615,352.288z M209.649,687.068l136.68-319.006
		l137.789,319.006H209.649z"/>
	<path id="XMLID_378_" style="fill:#040000;" d="M923.468,584.532c-10.68,0-19.322,8.642-19.322,19.322v40.031
		c-30.059-35.96-74.666-59.354-125.104-59.354c-90.271,0-163.711,73.44-163.711,163.748c0,90.271,73.44,163.711,163.711,163.711
		c50.438,0,95.045-23.393,125.104-59.344v40.022c0,10.68,8.642,19.322,19.322,19.322s19.322-8.642,19.322-19.322V603.854
		C942.79,593.174,934.148,584.532,923.468,584.532z M779.041,873.346c-68.949,0-125.066-56.117-125.066-125.066
		c0-68.986,56.117-125.104,125.066-125.104c68.986,0,125.104,56.117,125.104,125.104
		C904.145,817.229,848.028,873.346,779.041,873.346z"/>
	<path id="XMLID_379_" style="fill:#040000;" d="M528.975,222.598c0.198,1.071-0.226,2.146,0.16,3.189
		c0.882,2.363,2.793,3.906,4.42,5.699c0.609,0.689,0.476,1.727,1.203,2.34l101.857,86.12c3.661,3.057,8.076,4.566,12.492,4.566
		c5.472,0,10.944-2.34,14.756-6.831c6.906-8.152,5.887-20.341-2.264-27.247l-61.552-52.042h323.421
		c10.68,0,19.322-8.642,19.322-19.322c0-10.68-8.642-19.322-19.322-19.322H599.254l62.458-53.815
		c8.076-6.982,8.982-19.171,2.038-27.247c-6.906-8.152-19.209-8.869-27.247-2.038l-101.857,87.78
		c-0.481,0.415-0.528,1.09-0.958,1.543c-0.335,0.335-0.877,0.241-1.193,0.609c-0.67,0.788-0.354,1.868-0.873,2.727
		c-1.741,2.821-2.717,5.661-2.868,8.949C528.678,219.829,528.673,221.056,528.975,222.598z"/>
</g>
</svg>
