<?xml version="1.0" encoding="utf-8"?>
<!-- Generator: Adobe Illustrator 19.0.0, SVG Export Plug-In . SVG Version: 6.00 Build 0)  -->
<svg version="1.1" id="图层_1" xmlns="http://www.w3.org/2000/svg" xmlns:xlink="http://www.w3.org/1999/xlink" x="0px" y="0px"
	 viewBox="32 -232 1024 1024" style="enable-background:new 32 -232 1024 1024;" xml:space="preserve">
<path id="XMLID_822_" d="M405.3,680c-9,0-17.1-6.1-19.4-15.1c-2.5-10,3-20.3,12.7-23.8c4-1.4,404.2-145.1,345.8-331.4
	c-41-130.7-257.9-113.6-319.8-106v89.8c0,7.8-4.5,14.9-11.6,18.2c-7.1,3.2-15.5,2.1-21.3-3L160.1,111c-4.5-3.8-7-9.3-7-15.2
	c0-5.9,2.5-11.4,7-15.2L389-115.1c5.9-5.2,14.3-6.3,21.4-3c7.1,3.3,11.6,10.3,11.6,18.2v83.4c88.4-4.2,410.5-3.4,497.2,245.8
	c26,74.5,19.7,144.8-18.6,208.9c-70,116.9-244.8,202.7-492.1,241.7C407.3,679.9,406.3,680,405.3,680z M509.1,158.2
	c99.5,0,236.8,22.4,273.5,139.6c40.6,129.7-85.5,235.3-201.6,302.3c140.2-42.8,239-105.5,285.2-182.5c32-53.4,37.1-112.3,15.2-175.2
	C793-11.5,407.9,24.5,404,24.8c-6.1,0.4-11.3-1.2-15.4-5c-4.2-3.8-6.6-9.2-6.6-14.8v-61.5L203.9,95.8l180.8,154.3v-63.8
	c0-9.7,7-18,16.6-19.7C406.1,165.8,451.2,158.2,509.1,158.2z"/>
</svg>
