<?xml version="1.0" encoding="iso-8859-1"?>
<!-- Generator: Adobe Illustrator 19.0.0, SVG Export Plug-In . SVG Version: 6.00 Build 0)  -->
<svg version="1.1" id="&#x56FE;&#x5C42;_1" xmlns="http://www.w3.org/2000/svg" xmlns:xlink="http://www.w3.org/1999/xlink" x="0px"
	 y="0px" viewBox="0 0 1024 1024" style="enable-background:new 0 0 1024 1024;" xml:space="preserve">
<g id="XMLID_368_">
	<path id="XMLID_369_" style="fill:#040000;" d="M503.341,570.51c-7.783,7.783-7.783,20.392,0,28.175
		c17.94,17.94,17.94,47.205,0,65.185L308.488,858.724c-17.979,17.979-47.244,17.979-65.224,0l-77.988-77.988
		c-17.94-17.979-17.94-47.244,0-65.224L360.13,520.659c17.979-17.901,47.244-17.901,65.224,0c7.783,7.783,20.392,7.783,28.175,0
		c7.783-7.783,7.783-20.431,0-28.175c-33.546-33.468-88.028-33.468-121.574,0L137.101,687.337
		c-33.468,33.507-33.468,88.067,0,121.574l77.988,77.988C231.278,903.088,252.877,912,275.876,912
		c22.999,0,44.598-8.912,60.787-25.101l194.853-194.853c33.507-33.546,33.468-88.067,0-121.535
		C523.733,562.727,511.124,562.727,503.341,570.51z"/>
	<path id="XMLID_374_" style="fill:#040000;" d="M886.899,215.089l-77.988-77.988c-33.546-33.468-88.028-33.468-121.574,0
		L492.484,331.954c-33.468,33.507-33.468,88.067,0,121.574c7.783,7.783,20.392,7.783,28.175,0c7.783-7.744,7.783-20.392,0-28.175
		c-17.94-17.979-17.94-47.244,0-65.224l194.853-194.853c17.94-17.979,47.205-17.979,65.224,0l77.988,77.988
		c17.94,17.979,17.94,47.244,0,65.224L663.87,503.341c-17.979,17.901-47.244,17.901-65.224,0c-7.783-7.783-20.392-7.783-28.175,0
		c-7.783,7.783-7.783,20.431,0,28.175c16.773,16.734,38.761,25.101,60.787,25.101s44.014-8.367,60.787-25.101l194.853-194.853
		C920.367,303.156,920.367,248.596,886.899,215.089z"/>
	<path id="XMLID_375_" style="fill:#040000;" d="M214.038,436.872c0.934,0,1.868-0.078,2.802-0.195l113.013-15.722
		c10.897-1.518,18.485-11.558,16.967-22.494c-1.557-10.935-11.869-18.485-22.494-16.967l-113.013,15.722
		c-10.897,1.518-18.485,11.558-16.967,22.494C195.748,429.673,204.27,436.872,214.038,436.872z"/>
	<path id="XMLID_376_" style="fill:#040000;" d="M332.46,340.243c3.775,3.308,8.445,4.942,13.115,4.942
		c5.526,0,11.052-2.296,14.983-6.81c7.277-8.289,6.421-20.859-1.868-28.098l-62.772-54.95c-8.25-7.199-20.781-6.499-28.097,1.868
		c-7.238,8.289-6.421,20.859,1.868,28.097L332.46,340.243z"/>
	<path id="XMLID_377_" style="fill:#040000;" d="M434.926,312.808c11.013,0,19.925-8.912,19.925-19.925v-80.012
		c0-11.013-8.912-19.925-19.925-19.925c-11.013,0-19.925,8.912-19.925,19.925v80.012
		C415.001,303.896,423.913,312.808,434.926,312.808z"/>
</g>
</svg>
