<?xml version="1.0" encoding="utf-8"?>
<!-- Generator: Adobe Illustrator 19.0.0, SVG Export Plug-In . SVG Version: 6.00 Build 0)  -->
<svg version="1.1" id="图层_1" xmlns="http://www.w3.org/2000/svg" xmlns:xlink="http://www.w3.org/1999/xlink" x="0px" y="0px"
	 viewBox="32 -232 1024 1024" style="enable-background:new 32 -232 1024 1024;" xml:space="preserve">
<g id="XMLID_616_">
	<path id="XMLID_617_" d="M947.2,653.3H161.4V40.2c0-1-1-1.7-1.1-2.7c-0.4-2.7-1.5-4.6-2.9-7c-1.4-2.4-2.5-4.4-4.7-6
		c-0.8-0.6-0.9-1.7-1.8-2.3c-1.7-1-3.5-0.2-5.3-0.7c-1.7-0.5-2.9-2-4.8-2c-1,0-1.6,0.9-2.6,1.1c-2.7,0.4-4.7,1.5-7.1,2.9
		c-2.4,1.4-4.3,2.5-6,4.7c-0.6,0.8-1.7,0.9-2.3,1.8L50.6,158.5c-5.6,9.9-2.1,22.4,7.8,28c3.2,1.8,6.6,2.7,10.1,2.7
		c7.2,0,14.2-3.8,17.9-10.5l33.8-60v555.1c0,11.4,9.2,20.6,20.6,20.6h806.3c11.4,0,20.6-9.2,20.6-20.6
		C967.7,662.5,958.5,653.3,947.2,653.3z"/>
	<path id="XMLID_618_" d="M1029.6,368.9c-9.9-5.7-22.5-2.1-28,7.8l-33.8,60v-550.6c0-11.4-9.2-20.6-20.6-20.6H140.8
		c-11.4,0-20.6,9.2-20.6,20.6s9.2,20.6,20.6,20.6h785.7v608.5c0,1,1,1.7,1.1,2.7c0.4,2.7,1.5,4.6,2.9,7c1.4,2.4,2.5,4.4,4.7,6
		c0.8,0.6,0.9,1.7,1.8,2.3c3.2,1.8,6.6,2.7,10.1,2.7c4.8,0,9-2.2,12.8-5.3c1-0.8,1.7-1.6,2.6-2.6c0.8-1,2-1.5,2.6-2.6l72.3-128.4
		C1043,387.1,1039.5,374.5,1029.6,368.9z"/>
	<path id="XMLID_619_" d="M428.7,510.2c0.1,0,0.1,0,0.2,0c14.1-0.1,26.1-9.2,30.6-23.1l90.7-280.4l82.2,277.5
		c4.2,14.2,16.5,23.8,30.7,24c0.1,0,0.2,0,0.4,0c14,0,26.3-9.2,30.8-23L821.8,92.5c3.5-10.8-2.4-22.4-13.2-25.9
		c-10.7-3.4-22.4,2.4-25.9,13.2L663.9,445.5l-82.2-277.5c-4.2-14.2-16.5-23.8-30.7-24c-0.1,0-0.2,0-0.4,0c-14,0-26.3,9.2-30.8,23.1
		L428.6,449L305.3,79.6c-3.7-10.8-15.2-16.6-26.1-13c-10.8,3.6-16.6,15.3-13,26.1L398,487.4C402.7,501.3,414.7,510.2,428.7,510.2z"
		/>
</g>
</svg>
