<?xml version="1.0" encoding="utf-8"?>
<!-- Generator: Adobe Illustrator 17.1.0, SVG Export Plug-In . SVG Version: 6.00 Build 0)  -->
<!DOCTYPE svg PUBLIC "-//W3C//DTD SVG 1.1//EN" "http://www.w3.org/Graphics/SVG/1.1/DTD/svg11.dtd">
<svg version="1.1"
	 id="svg2" sodipodi:docname="picture.svg" inkscape:version="0.48.4 r9939" xmlns:dc="http://purl.org/dc/elements/1.1/" xmlns:cc="http://creativecommons.org/ns#" xmlns:rdf="http://www.w3.org/1999/02/22-rdf-syntax-ns#" xmlns:svg="http://www.w3.org/2000/svg" xmlns:sodipodi="http://sodipodi.sourceforge.net/DTD/sodipodi-0.dtd" xmlns:inkscape="http://www.inkscape.org/namespaces/inkscape"
	 xmlns="http://www.w3.org/2000/svg" xmlns:xlink="http://www.w3.org/1999/xlink" x="0px" y="0px" viewBox="0 0 100 100"
	 style="enable-background:new 0 0 100 100;" xml:space="preserve">
<style type="text/css">
	.st0{fill:#EFEFF4;}
	.st1{fill:#D1D1D1;}
	.st2{fill:#007AFF;}
</style>
<path id="path16525_1_" inkscape:connector-curvature="0" class="st0" d="M0,8.3v83.5h100V8.3H0z M7.7,16.1h84.7v67.9H7.7V16.1z"/>
<path class="st1" d="M25.1,26c-2.4,0-4.4,0.8-6,2.4s-2.4,3.6-2.4,6c0,2.3,0.8,4.2,2.4,5.9s3.6,2.4,6,2.4c2.3,0,4.2-0.8,5.9-2.4
	s2.4-3.6,2.4-5.9c0-2.4-0.8-4.4-2.4-6S27.4,26,25.1,26z"/>
<polygon class="st2" points="61.1,29.9 41.9,59 31.7,50.6 16.7,70.1 16.7,75.8 83.3,75.8 83.3,52.9 "/>
</svg>
