<?xml version="1.0" standalone="no"?>
<!DOCTYPE svg PUBLIC "-//W3C//DTD SVG 1.1//EN" "http://www.w3.org/Graphics/SVG/1.1/DTD/svg11.dtd" >
<svg xmlns="http://www.w3.org/2000/svg">
<metadata>Generated by IcoMoon</metadata>
<defs>
<font id="hg-cxhl" horiz-adv-x="1024">
<font-face units-per-em="1024" ascent="960" descent="-64" />
<missing-glyph horiz-adv-x="1024" />
<glyph unicode="&#x20;" horiz-adv-x="512" d="" />
<glyph unicode="&#xe900;" glyph-name="html-source" d="M834.4 650.5c-0.2 4.1-1.3 8.1-4 11.4l-142.4 178.6c-3.4 4.3-8.4 6.1-13.7 6.6-0.7 0.1-1.1 0.9-1.8 0.9h-463.4c-10.9 0-19.8-8.9-19.8-19.8v-760.4c0-10.9 8.9-19.8 19.8-19.8h605.8c10.9 0 19.8 8.9 19.8 19.8v581.8c0 0.3-0.3 0.6-0.3 0.9zM773.8 669.4h-81.4v102.2l42.1-52.9 39.3-49.3zM228.9 87.6v720.8h423.9v-158.8c0-10.9 8.9-19.8 19.8-19.8h122.5v-542.2h-566.2zM465 292.7c-2.4 0-4.9 0.5-7.3 1.4-10.2 4-15.1 15.5-11 25.7l94 235.2c4.1 10.1 15.7 15 25.7 11 10.2-4 15.1-15.5 11-25.7l-94-235.2c-3.1-7.6-10.5-12.4-18.4-12.4zM385.3 361.7c-5.1 0-10.1 1.9-14 5.8l-59.6 59.5c-7.7 7.7-7.7 20.3 0 28l59.9 59.9c7.7 7.7 20.3 7.7 28 0s7.7-20.3 0-28l-45.9-45.9 45.5-45.5c7.7-7.7 7.7-20.3 0-28-3.8-3.9-8.9-5.8-13.9-5.8zM632.8 361.7c-5.1 0-10.1 1.9-14 5.8-7.7 7.7-7.7 20.3 0 28l45.5 45.5-45.9 45.9c-7.7 7.7-7.7 20.3 0 28s20.3 7.7 28 0l59.9-59.9c7.7-7.7 7.7-20.3 0-28l-59.5-59.5c-3.8-3.9-8.9-5.8-14-5.8z" />
<glyph unicode="&#xe901;" glyph-name="undo" d="M373.3 48c-9 0-17.1 6.1-19.4 15.1-2.5 10 3 20.3 12.7 23.8 4 1.4 404.2 145.1 345.8 331.4-41 130.7-257.9 113.6-319.8 106v-89.8c0-7.8-4.5-14.9-11.6-18.2-7.1-3.2-15.5-2.1-21.3 3l-231.6 197.7c-4.5 3.8-7 9.3-7 15.2s2.5 11.4 7 15.2l228.9 195.7c5.9 5.2 14.3 6.3 21.4 3s11.6-10.3 11.6-18.2v-83.4c88.4 4.2 410.5 3.4 497.2-245.8 26-74.5 19.7-144.8-18.6-208.9-70-116.9-244.8-202.7-492.1-241.7-1.2 0-2.2-0.1-3.2-0.1zM477.1 569.8c99.5 0 236.8-22.4 273.5-139.6 40.6-129.7-85.5-235.3-201.6-302.3 140.2 42.8 239 105.5 285.2 182.5 32 53.4 37.1 112.3 15.2 175.2-88.4 253.9-473.5 217.9-477.4 217.6-6.1-0.4-11.3 1.2-15.4 5-4.2 3.8-6.6 9.2-6.6 14.8v61.5l-178.1-152.3 180.8-154.3v63.8c0 9.7 7 18 16.6 19.7 4.8 0.8 49.9 8.4 107.8 8.4z" />
<glyph unicode="&#xe902;" glyph-name="redo" d="M650.7 48c-1 0-2.1 0.1-3.1 0.2-247.3 38.9-422 124.8-492.1 241.7-38.4 64-44.7 134.3-18.7 208.9 86.8 249.1 409.2 249.9 497.3 245.7v83.4c0 7.8 4.5 14.9 11.6 18.2 7 3.4 15.4 2.2 21.4-3l228.8-195.7c4.5-3.8 7-9.3 7-15.2s-2.6-11.4-7-15.2l-231.6-197.7c-5.9-5-14.3-6.2-21.3-3-7.1 3.3-11.6 10.3-11.6 18.2v89.8c-61.9 7.5-278.8 24.7-319.8-106-58.4-186.4 341.8-330 345.8-331.4 9.8-3.4 15.3-13.7 12.7-23.7-2.3-9.1-10.4-15.2-19.4-15.2zM600.2 705.1c-108.9 0-357-22.4-425.7-219.5-21.9-62.9-16.8-121.8 15.2-175.2 46.2-77 145-139.7 285.2-182.5-116.1 66.9-242.2 172.6-201.6 302.3 58.2 185.5 368.3 133.4 381.4 131.1 9.6-1.7 16.6-10 16.6-19.7v-63.8l180.8 154.4-178.1 152.3v-61.4c0-5.7-2.4-11.1-6.6-14.8-4.2-3.8-10.1-5.4-15.4-5-0.8 0-20.6 1.8-51.8 1.8z" />
<glyph unicode="&#xe903;" glyph-name="bold" d="M674.579 48h-433.675c-11.608 0-21.001 9.393-21.001 21.001v757.998c0 11.608 9.393 21.001 21.001 21.001h388.679c3.24 0 6.399-0.738 9.311-2.174 4.676-2.297 115.135-57.957 137.9-169.442 14.52-71.001-9.967-146.842-72.724-225.677 67.473-59.188 101.107-123.421 100-191.222-1.969-119.729-112.182-203.774-116.899-207.301-3.609-2.707-8.039-4.184-12.592-4.184zM261.905 90.002h405.25c20.386 17.145 93.642 84.701 94.914 170.386 0.861 57.67-31.091 113.659-94.955 166.612h-405.209v-336.998zM261.905 469.001h402.912c59.352 71.616 83.183 138.515 70.837 198.975-16.489 80.722-92.822 127.687-111.321 138.023h-362.428v-336.998z" />
<glyph unicode="&#xe904;" glyph-name="italic" d="M744.636 848h-297.231c-11.61 0-21.005-9.395-21.005-21.005s9.395-21.005 21.005-21.005h122.047l-158.728-715.98h-131.36c-11.61 0-21.005-9.395-21.005-21.005s9.395-21.005 21.005-21.005h297.231c11.61 0 21.005 9.395 21.005 21.005s-9.395 21.005-21.005 21.005h-122.826l158.727 715.98h132.139c11.61 0 21.005 9.395 21.005 21.005s-9.394 21.005-21.004 21.005z" />
<glyph unicode="&#xe905;" glyph-name="underline" d="M512 207.647c-251.413 0-275.135 153.040-275.997 159.565l-0.205 459.775c0 11.614 9.398 21.013 21.013 21.013 11.614 0 21.013-9.398 21.013-21.013v-456.944c0.575-2.011 21.259-120.371 234.176-120.371 215.134 0 234.258 121.972 234.423 123.203l-0.205 454.112c0 11.614 9.398 21.013 21.013 21.013s21.013-9.398 21.013-21.013v-456.944c-1.068-9.356-24.79-162.396-276.244-162.396zM786.478 48h-548.956c-11.614 0-21.013 9.398-21.013 21.013s9.398 21.013 21.013 21.013h548.956c11.614 0 21.013-9.398 21.013-21.013s-9.399-21.013-21.013-21.013z" />
<glyph unicode="&#xe906;" glyph-name="font-color" d="M875.67 77.245l-321.236 743.733c-7.768 16.72-23.997 27.022-42.393 27.022-0.164 0-0.286 0-0.409 0-18.56-0.164-34.789-10.751-42.434-27.921l-320.868-742.834c-4.579-10.629 0.286-22.934 10.915-27.512 2.698-1.186 5.519-1.717 8.299-1.717 8.094 0 15.78 4.742 19.214 12.632l106.891 247.448h436.723l106.871-247.448c4.619-10.588 16.924-15.534 27.512-10.915 10.629 4.578 15.494 16.883 10.915 27.512zM311.733 349.957l195.811 453.279c0.818 1.921 2.33 2.902 4.415 2.902 3.107-1.431 3.597-0.94 4.292-2.289l196.036-453.893h-400.554z" />
<glyph unicode="&#xe907;" glyph-name="font-border" d="M981.694 960h-939.388c-23.316 0-42.306-20.672-42.306-46.032v-931.936c0-25.36 18.99-46.032 42.306-46.032h939.388c23.316 0 42.306 20.672 42.306 46.032v931.936c0 25.36-18.99 46.032-42.306 46.032zM981.694-20.732l-938.426 2.764-0.962 934.7h939.388l-0.962-2.764 0.962-934.7zM548.777 723.11c-6.731 14.543-20.792 23.437-36.777 23.437-0.12 0-0.24 0-0.24 0-16.105-0.12-30.167-9.254-36.777-24.278l-234.366-542.648c-4.687-10.937 0.24-23.677 11.298-28.364 2.764-1.202 5.649-1.803 8.533-1.803 8.413 0 16.346 4.928 19.831 13.1l74.637 176.916h312.488l76.439-176.916c4.808-10.937 17.427-16.105 28.364-11.298 10.937 4.687 15.985 17.427 11.298 28.364l-234.727 543.489zM373.063 382.738l136.173 322.704 139.418-322.704h-275.591z" />
<glyph unicode="&#xe908;" glyph-name="superscript" d="M629.037 843.816c-9.148 6.892-22.358 5.005-29.414-4.225l-267.104-356.547-267.104 356.546c-6.974 9.271-20.143 11.158-29.414 4.225-9.271-6.974-11.158-20.143-4.225-29.414l274.488-366.401-274.488-366.402c-6.933-9.271-5.046-22.44 4.225-29.414 3.774-2.831 8.205-4.184 12.594-4.184 6.359 0 12.676 2.913 16.82 8.41l267.104 356.546 267.105-356.546c4.143-5.497 10.461-8.41 16.82-8.41 4.39 0 8.82 1.354 12.594 4.184 9.271 6.974 11.158 20.143 4.225 29.414l-274.489 366.402 274.488 366.402c6.934 9.271 5.047 22.44-4.225 29.414zM986.475 700.028c6.154 3.815 9.928 10.584 9.928 17.845v109.123c0 11.61-9.394 21.004-21.004 21.004h-189.652c-11.61 0-21.004-9.394-21.004-21.004v-76.55c0-11.61 9.394-21.004 21.004-21.004s21.004 9.394 21.004 21.004v55.546h147.644v-76.427l-179.437-111.338c-6.154-3.815-9.928-10.584-9.928-17.845v-109.082c0-11.61 9.394-21.004 21.004-21.004h189.365c11.61 0 21.004 9.394 21.004 21.004v79.832c0 11.61-9.394 21.004-21.004 21.004s-21.004-9.394-21.004-21.004v-58.828h-147.356v76.386l179.436 111.338z" />
<glyph unicode="&#xe909;" glyph-name="subscript" d="M629.037 843.816c-9.148 6.892-22.358 5.005-29.414-4.225l-267.104-356.547-267.104 356.546c-6.974 9.271-20.143 11.158-29.414 4.225-9.271-6.974-11.158-20.143-4.225-29.414l274.488-366.401-274.488-366.402c-6.933-9.271-5.046-22.44 4.225-29.414 3.774-2.831 8.205-4.184 12.594-4.184 6.359 0 12.676 2.913 16.82 8.41l267.104 356.546 267.105-356.546c4.143-5.497 10.461-8.41 16.82-8.41 4.39 0 8.82 1.354 12.594 4.184 9.271 6.974 11.158 20.143 4.225 29.414l-274.489 366.402 274.488 366.402c6.934 9.271 5.047 22.44-4.225 29.414zM986.475 277.732c6.154 3.815 9.928 10.584 9.928 17.845v109.123c0 11.61-9.394 21.004-21.004 21.004h-189.652c-11.61 0-21.004-9.394-21.004-21.004v-76.55c0-11.61 9.394-21.004 21.004-21.004s21.004 9.394 21.004 21.004v55.546h147.644v-76.427l-179.437-111.338c-6.154-3.815-9.928-10.584-9.928-17.845v-109.082c0-11.61 9.394-21.004 21.004-21.004h189.365c11.61 0 21.004 9.394 21.004 21.004v79.832c0 11.61-9.394 21.004-21.004 21.004s-21.004-9.394-21.004-21.004v-58.828h-147.356v76.386l179.436 111.338z" />
<glyph unicode="&#xe90a;" glyph-name="remove-format" d="M887.083 653.81l-169.268 169.268c-33.271 33.271-87.464 33.189-120.653 0l-460.255-460.255c-16.082-16.041-24.943-37.455-24.943-60.306s8.861-44.266 24.943-60.306l169.267-169.308c16.657-16.616 38.482-24.903 60.307-24.903 21.866 0 43.732 8.287 60.347 24.902l460.255 460.296c33.271 33.271 33.271 87.341 0 120.612zM397.126 102.604c-16.902-16.779-44.348-16.861-61.25 0l-169.267 169.308c-8.123 8.123-12.636 18.994-12.636 30.604s4.513 22.482 12.636 30.604l116.428 116.428 235.060-225.974-120.971-120.97zM857.381 562.9l-309.572-309.613-235.060 225.974 314.115 314.115c16.902 16.943 44.348 16.943 61.25 0l169.267-169.267c16.861-16.862 16.861-44.348 0-61.209z" />
<glyph unicode="&#xe90b;" glyph-name="forma-tmatch" d="M423.7 725.402c-8.248 7.81-17.77 10.837-30.8 11.67-12.022-0.351-23.297-5.44-33.783-16.98-1.316-1.887-132.766-190.506-307.871-290.322-25.14-14.786-40.058-33.213-44.314-54.669-6.932-35.056 16.673-66.295 32.292-86.96l5.178-6.844c33.038-45.236 147.508-139.654 175.325-156.196 49.404-29.221 135.399-19.218 216.129 8.775-30.669-21.675-68.49-41.594-100.693-50.72-28.124-7.986-26.676-29.264-26.105-33.477 4.692-33.783 74.542-51.465 110.651-51.465 71.56 0 265.532 90.778 376.668 211.435 28.607 31.064 47.034 43.699 50.983 47.034 8.38 8.862 12.811 20.402 12.461 32.424-0.308 11.583-5.089 22.245-13.207 29.923l-422.913 406.371zM763.294 240.098c-104.773-113.768-288.084-196.955-343.586-196.955-14.873 0-30.142 3.203-42.602 7.151 69.015 28.080 154.923 88.32 161.593 140.97l5.572 44.007-38.786-21.543c-97.052-53.966-217.401-76.782-262.856-49.974-20.578 12.241-132.372 103.501-161.987 144.042l-5.572 7.459c-11.408 15.137-27.070 35.802-24.043 51.115 1.667 8.38 9.389 16.673 22.772 24.526 183.925 104.862 316.735 295.587 318.884 301.992l425.895-402.071c-0.923-0.614-22.552-15.181-55.284-50.72zM1004.388 483.079l-89.111 84.416 53.133 56.16c12.329 12.987 18.867 30.010 18.384 47.912s-7.897 34.529-20.929 46.858l-138.513 131.23c-13.031 12.286-29.221 19.788-47.912 18.34-17.902-0.483-34.574-7.897-46.858-20.884l-53.22-56.16-93.936 89.022c-18.778 17.813-48.613 17.067-66.427-1.799l-60.153-63.531c-17.813-18.822-17.024-48.613 1.799-66.427l418.919-396.806c8.819-8.38 20.226-12.943 32.292-12.943 0.438 0 0.878 0.044 1.316 0.044 12.505 0.351 24.175 5.528 32.862 14.654l60.153 63.531c17.813 18.823 16.98 48.571-1.798 66.384zM910.495 384.009l-419.008 399.746 63.049 63.575 126.58-119.911 84.109 88.803c4.037 4.256 9.521 6.713 15.4 6.889 3.729 0.702 11.495-1.975 15.839-6.099l138.513-131.23c4.3-4.037 6.757-9.521 6.889-15.444 0.176-5.879-1.975-11.495-6.054-15.795l-84.065-88.803 121.754-115.303 0.044-2.852-63.049-63.577z" />
<glyph unicode="&#xe90c;" glyph-name="auto-typeset" d="M913.824 89.375h-601.071c33.102 14.99 60.865 30.688 73.866 40.809l-0.692 0.889c7.798 4.364 15.839 8.278 22.47 14.909l452.537 452.537c38.829 38.829 38.829 102.063 0 140.892l-79.436 79.436c-38.91 38.91-102.063 38.829-140.892 0l-452.538-452.536c-10.404-10.404-17.536-22.657-22.364-35.627-21.157-35.344-118.432-206.596-55.092-265.916 12.404-11.596 30.991-16.324 52.89-16.324 3.939 0 8.359 0.747 12.495 1.040 1.323-0.263 2.182-1.485 3.586-1.485h734.241c11.435 0 20.687 9.253 20.687 20.687s-9.252 20.689-20.687 20.689zM669.858 789.594c11.354 11.354 26.263 17.051 41.173 17.051 14.95 0 29.859-5.697 41.213-17.051l79.436-79.436c22.708-22.708 22.708-59.678 0-82.386l-64.582-64.582-163.327 160.317 66.087 66.087zM574.517 694.254l163.327-160.317-358.7-358.701c-22.667-22.708-59.638-22.708-82.386 0l-79.436 79.436c-22.708 22.708-22.708 59.678 0 82.386l357.195 357.196zM138.895 94.991c-21.879 20.475 0.909 92.396 31.637 156.878 4.667-9.369 9.743-18.657 17.536-26.45l79.436-79.436c8.465-8.465 18.43-14.263 28.693-19.036-61.875-27.481-139.347-48.977-157.302-31.956z" />
<glyph unicode="&#xe90d;" glyph-name="blockquote" d="M394.727 488.945h-271.983l287.842 323.762c7.785 8.737 6.998 22.153-1.781 29.937-8.737 7.743-22.153 7.039-29.937-1.781l-319.208-359.040c-1.848-2.076-1.636-4.814-2.526-7.277-0.89-2.345-2.816-4.141-2.816-6.801v-398.545c0-11.718 9.482-21.2 21.2-21.2h319.208c11.718 0 21.2 9.482 21.2 21.2v398.544c0.001 11.718-9.481 21.201-21.199 21.201zM373.526 90.401h-276.806v356.143h276.807v-356.143zM948.464 488.945h-271.982l287.842 323.762c7.785 8.737 6.998 22.153-1.781 29.937-8.737 7.743-22.070 7.039-29.937-1.781l-319.208-359.040c-1.848-2.076-1.636-4.814-2.526-7.277-0.89-2.345-2.816-4.141-2.816-6.801v-398.545c0-11.718 9.482-21.2 21.2-21.2h319.208c11.718 0 21.2 9.482 21.2 21.2v398.544c0.001 11.718-9.482 21.201-21.2 21.201zM927.264 90.401h-276.807v356.143h276.807v-356.143z" />
<glyph unicode="&#xe90e;" glyph-name="paste-plain" d="M949.582 617.471h-240.403v127.355c0 11.406-9.229 20.635-20.635 20.635h-94.872c-1.008 0-1.612-0.927-2.579-1.068v4.332c0 11.406-9.229 20.635-20.635 20.635h-71.98v38.005c0 11.406-9.229 20.635-20.635 20.635h-198.246c-11.406 0-20.635-9.229-20.635-20.635v-34.821h-61.259c-11.406 0-20.635-9.229-20.635-20.635v-6.73c-0.267 0.010-0.418 0.282-0.685 0.282h-101.965c-11.406 0-20.635-9.229-20.635-20.635v-515.909c0-11.406 9.229-20.635 20.635-20.635h326.287v-139.647c0-11.406 9.229-20.635 20.635-20.635h528.242c11.406 0 20.635 9.229 20.635 20.635v528.201c0 11.406-9.23 20.635-20.635 20.635zM218.338 751.275h61.259c11.406 0 20.635 9.229 20.635 20.635v34.82h156.977v-38.005c0-11.406 9.229-20.635 20.635-20.635h71.98v-50.176h-331.486v53.361zM95.053 249.552v474.64h81.33c0.267 0 0.418 0.272 0.685 0.282v-47.194c0-11.406 9.229-20.635 20.635-20.635h372.756c11.406 0 20.635 9.229 20.635 20.635v47.98c0.967-0.141 1.572-1.068 2.579-1.068h74.237v-106.72h-246.57c-11.406 0-20.635-9.229-20.635-20.635v-347.285h-305.652zM928.947 89.27h-486.972v486.932h486.972v-486.932zM540.433 439.295h124.413v-247.698c0-11.406 9.229-20.635 20.635-20.635s20.635 9.229 20.635 20.635v247.698h130.579c11.406 0 20.635 9.229 20.635 20.635s-9.229 20.635-20.635 20.635h-296.262c-11.406 0-20.635-9.229-20.635-20.635s9.23-20.635 20.635-20.635z" />
<glyph unicode="&#xe90f;" glyph-name="strikethrough" d="M1002.276 476.493h-254.25v118.624h217.135c7.862 0 14.224 6.362 14.224 14.224s-6.362 14.224-14.224 14.224h-231.359c-7.862 0-14.224-6.362-14.224-14.224v-132.848h-90.076c13.14 23.805 17.748 46.981 13.206 69.174-9.612 47.033-55.951 70.369-57.923 71.341-1.945 0.972-4.084 1.472-6.278 1.472h-154.294c-7.862 0-14.224-6.362-14.224-14.224v-127.764h-108.332l-55.714 138.154c-2.167 5.389-7.39 8.918-13.196 8.918h-33.559c-6.001 0-11.362-3.778-13.39-9.445l-49.21-137.626h-114.864c-7.862 0-14.224-6.362-14.224-14.224s6.362-14.224 14.224-14.224h104.692l-55.992-156.6c-2.639-7.39 1.195-15.529 8.612-18.169 1.584-0.556 3.195-0.833 4.778-0.833 5.834 0 11.307 3.612 13.39 9.445l40.366 112.874h166.369l45.738-113.401c2.945-7.279 11.307-10.834 18.502-7.89 7.306 2.945 10.835 11.223 7.89 18.502l-62.941 156.073h96.861v-144.655c0-7.862 6.362-14.224 14.224-14.224h172.157c3.084 0 6.084 1 8.529 2.834 1.972 1.472 47.922 36.532 48.755 86.898 0.399 24.44-10.289 47.561-30.649 69.147h96.573v-144.655c0-7.862 6.362-14.224 14.224-14.224h231.359c7.862 0 14.224 6.362 14.224 14.224s-6.362 14.224-14.224 14.224h-217.135v130.43h254.25c7.862 0 14.224 6.362 14.224 14.224s-6.362 14.224-14.224 14.224zM209.217 595.117h13.918l47.842-118.624h-104.182l42.422 118.624zM292.469 423.209h-144.728l8.883 24.836h125.826l10.019-24.836zM591.231 317.614h-152.795v121.986h152.822c22.808-19.391 34.226-39.588 33.948-60.090-0.416-29.67-24.78-53.839-33.975-61.896zM438.436 590.033h136.404c8.445-4.973 34.42-22.308 40.032-50.256 3.858-19.162-3.011-40.466-19.266-63.285h-157.17v113.541z" />
<glyph unicode="&#xe910;" glyph-name="back-color" d="M898.541 743.052h-49.109v85.591c0 10.699-8.657 19.356-19.356 19.356h-650.404c-10.699 0-19.356-8.657-19.356-19.356v-85.591h-34.857c-10.699 0-19.356-8.657-19.356-19.356s8.657-19.356 19.356-19.356h34.857v-85.629c0-10.699 8.657-19.356 19.356-19.356h650.404c10.699 0 19.356 8.657 19.356 19.356v85.629h29.753v-152.242h-351.477c-10.699 0-19.356-8.657-19.356-19.356v-175.417h-34.857c-10.699 0-19.356-8.657-19.356-19.356v-270.611c0-10.699 8.657-19.356 19.356-19.356h105.553c10.699 0 19.356 8.657 19.356 19.356v270.609c0 10.699-8.657 19.356-19.356 19.356h-31.983v156.061h351.477c10.699 0 19.356 8.657 19.356 19.356v190.956c0 10.699-8.658 19.356-19.357 19.356zM810.719 638.067h-611.691v171.22h611.691v-171.22zM559.692 86.713h-66.84v231.898h66.84v-231.898z" />
<glyph unicode="&#xe911;" glyph-name="insert-ordered-list" d="M310.66 744.148h604.148c10.32 0 18.67 8.35 18.67 18.67s-8.35 18.67-18.67 18.67h-604.148c-10.32 0-18.67-8.35-18.67-18.67s8.35-18.67 18.67-18.67zM914.808 459.578h-604.148c-10.32 0-18.67-8.35-18.67-18.67s8.35-18.67 18.67-18.67h604.148c10.32 0 18.67 8.35 18.67 18.67s-8.351 18.67-18.67 18.67zM914.808 137.63h-604.148c-10.32 0-18.67-8.35-18.67-18.67s8.35-18.67 18.67-18.67h604.148c10.32 0 18.67 8.35 18.67 18.67s-8.351 18.67-18.67 18.67zM134.025 668.739c10.32 0 18.67 8.35 18.67 18.67v141.921c0 10.32-8.35 18.67-18.67 18.67s-18.67-8.35-18.67-18.67v-141.921c0-10.319 8.35-18.67 18.67-18.67zM169.76 391.534h-41.606v16.3l45.034 44.997c3.501 3.501 5.47 8.241 5.47 13.2v55.353c0 10.32-8.35 18.67-18.67 18.67h-50.795c-10.32 0-18.67-8.35-18.67-18.67v-31.25c0-10.32 8.35-18.67 18.67-18.67s18.67 8.35 18.67 18.67v12.58h13.455v-28.953l-45.034-44.997c-3.501-3.501-5.47-8.241-5.47-13.2v-42.7c0-10.32 8.35-18.67 18.67-18.67h60.276c10.32 0 18.67 8.35 18.67 18.67s-8.35 18.67-18.67 18.67zM169.76 223.833h-60.568c-10.32 0-18.67-8.35-18.67-18.67s8.35-18.67 18.67-18.67h41.898v-31.907h-41.898c-10.32 0-18.67-8.35-18.67-18.67s8.35-18.67 18.67-18.67h41.898v-31.907h-41.898c-10.32 0-18.67-8.35-18.67-18.67s8.35-18.67 18.67-18.67h60.568c10.32 0 18.67 8.35 18.67 18.67v138.494c0 10.32-8.35 18.67-18.67 18.67z" />
<glyph unicode="&#xe912;" glyph-name="insert-unordered-list" d="M357.597 880.638h639.768c14.722 0 26.635 11.913 26.635 26.635s-11.912 26.635-26.634 26.635h-639.769c-14.722 0-26.635-11.913-26.635-26.635s11.913-26.635 26.635-26.635zM192.013 933.909h-165.378c-14.722 0-26.635-11.913-26.635-26.635s11.913-26.635 26.635-26.635h165.377c14.722 0 26.635 11.913 26.635 26.635s-11.912 26.635-26.634 26.635zM192.013 474.66h-165.378c-14.722 0-26.635-11.913-26.635-26.635s11.913-26.635 26.635-26.635h165.377c14.722 0 26.635 11.913 26.635 26.635s-11.912 26.635-26.634 26.635zM192.013 15.36h-165.378c-14.722 0-26.635-11.913-26.635-26.635s11.913-26.635 26.635-26.635h165.377c14.722 0 26.635 11.913 26.635 26.635s-11.912 26.635-26.634 26.635zM997.365 474.66h-639.769c-14.722 0-26.635-11.913-26.635-26.635s11.913-26.635 26.635-26.635h639.768c14.722 0 26.635 11.913 26.635 26.635s-11.912 26.635-26.634 26.635zM997.365 15.36h-639.769c-14.722 0-26.635-11.913-26.635-26.635s11.913-26.635 26.635-26.635h639.768c14.722 0 26.635 11.913 26.635 26.635s-11.912 26.635-26.634 26.635z" />
<glyph unicode="&#xe913;" glyph-name="select-all" d="M144.658 200.759h608.34c10.741 0 19.432 8.691 19.432 19.432v269.727c0 10.741-8.691 19.432-19.432 19.432s-19.432-8.691-19.432-19.432v-250.296h-569.476v569.514h511.941c10.741 0 19.432 8.691 19.432 19.432s-8.692 19.432-19.432 19.432h-531.373c-10.741 0-19.432-8.691-19.432-19.432v-608.378c0.001-10.74 8.692-19.431 19.432-19.431zM901.506 600.094c-10.741 0-19.432-8.691-19.432-19.432v-493.799h-759.58c-10.741 0-19.432-8.691-19.432-19.432s8.691-19.431 19.432-19.431h779.012c10.741 0 19.432 8.691 19.432 19.432v513.231c0 10.74-8.691 19.431-19.432 19.431zM340.683 594.098c-7.439 7.742-19.735 8.046-27.478 0.607s-8.008-19.735-0.607-27.478l161.981-169.078c3.681-3.795 8.236-6.68 14.042-5.996 5.199 0 10.171 2.087 13.815 5.769l411.86 416.984c7.553 7.628 7.477 19.963-0.152 27.478-7.666 7.553-19.963 7.477-27.478-0.152l-397.817-402.79-148.166 154.656z" />
<glyph unicode="&#xe914;" glyph-name="clear-doc" d="M834.373 650.523c-0.198 4.074-1.344 8.057-3.997 11.377l-142.33 178.637c-3.422 4.277-8.439 6.080-13.654 6.588-0.696 0.072-1.107 0.875-1.812 0.875h-463.49c-10.942 0-19.797-8.855-19.797-19.797v-760.406c0-10.943 8.855-19.797 19.797-19.797h605.82c10.943 0 19.797 8.854 19.797 19.797v581.769c0 0.348-0.315 0.614-0.334 0.957zM773.808 669.363h-81.431v102.214l81.431-102.214zM228.887 87.594v720.812h423.896v-158.84c0-10.942 8.855-19.797 19.797-19.797h122.533v-542.175h-566.226z" />
<glyph unicode="&#xe915;" glyph-name="row-spacing-top" d="M125.324 438.031h773.352c10.629 0 19.298 8.631 19.298 19.298s-8.669 19.298-19.298 19.298h-773.352c-10.629 0-19.298-8.631-19.298-19.298s8.669-19.298 19.298-19.298zM125.324 307.995h542.228c10.629 0 19.298 8.631 19.298 19.298s-8.669 19.298-19.298 19.298h-542.228c-10.629 0-19.298-8.631-19.298-19.298s8.669-19.298 19.298-19.298zM898.676 216.594h-773.352c-10.629 0-19.298-8.631-19.298-19.298s8.669-19.298 19.298-19.298h773.352c10.629 0 19.298 8.631 19.298 19.298s-8.669 19.298-19.298 19.298zM666.497 86.596h-541.173c-10.629 0-19.298-8.631-19.298-19.298s8.669-19.298 19.298-19.298h541.173c10.629 0 19.298 8.631 19.298 19.298s-8.669 19.298-19.298 19.298zM438.992 715.213l53.748 62.342v-239.039c0-10.667 8.669-19.298 19.298-19.298s19.298 8.631 19.298 19.298v238.308l52.014-61.498c3.769-4.485 9.197-6.822 14.7-6.822 4.448 0 8.82 1.508 12.438 4.561 8.141 6.898 9.197 19.072 2.261 27.213l-86.012 101.691c-0.589 0.697-1.588 0.57-2.247 1.159-1.8 1.644-3.369 3.567-5.743 4.457-1.051 0.391-2.144-0.038-3.223 0.16-1.512 0.297-2.704 0.283-4.24 0.212-3.279-0.151-6.13-1.117-8.971-2.86-0.853-0.518-1.927-0.203-2.714-0.867-0.363-0.311-0.273-0.848-0.608-1.178-0.466-0.433-1.15-0.485-1.578-0.971l-87.67-101.691c-6.935-8.066-6.031-20.24 2.035-27.213 8.142-6.972 20.203-6.068 27.214 2.036z" />
<glyph unicode="&#xe916;" glyph-name="row-spacing-bottom" d="M898.256 458.355h-772.512c-10.618 0-19.279-8.623-19.279-19.279s8.66-19.279 19.279-19.279h772.512c10.618 0 19.279 8.623 19.279 19.279s-8.66 19.279-19.279 19.279zM898.256 588.224h-541.617c-10.618 0-19.279-8.623-19.279-19.279s8.66-19.279 19.279-19.279h541.617c10.618 0 19.279 8.623 19.279 19.279s-8.66 19.279-19.279 19.279zM898.256 718.131h-772.512c-10.618 0-19.279-8.623-19.279-19.279s8.66-19.279 19.279-19.279h772.512c10.618 0 19.279 8.623 19.279 19.279s-8.66 19.279-19.279 19.279zM356.639 809.442h541.617c10.618 0 19.279 8.623 19.279 19.279s-8.66 19.279-19.279 19.279h-541.617c-10.618 0-19.279-8.623-19.279-19.279s8.661-19.279 19.279-19.279zM584.974 181.446l-53.695-62.28v238.803c0 10.656-8.66 19.279-19.279 19.279s-19.279-8.623-19.279-19.279v-238.073l-51.963 61.437c-6.778 8.096-19.053 9.112-27.111 2.259-8.133-6.891-9.188-19.053-2.259-27.186l85.927-101.591c0.48-0.574 1.346-0.367 1.878-0.871 1.869-1.793 3.582-3.794 6.105-4.74 2.184-0.828 4.443-1.205 6.702-1.205 4.443 0 8.811 1.506 12.426 4.556 0.466 0.395 0.353 1.073 0.772 1.501 0.391 0.381 1.050 0.226 1.412 0.645l87.584 101.591c6.928 8.058 6.025 20.22-2.033 27.186-7.908 6.892-20.184 6.026-27.187-2.032z" />
<glyph unicode="&#xe917;" glyph-name="line-height" d="M879.704 406.146h-478.787c-10.873 0-19.741-8.829-19.741-19.741 0-10.911 8.868-19.741 19.741-19.741h478.788c10.873 0 19.741 8.829 19.741 19.741s-8.869 19.741-19.742 19.741zM400.917 499.683h321.325c10.873 0 19.741 8.829 19.741 19.741s-8.868 19.741-19.741 19.741h-321.325c-10.873 0-19.741-8.829-19.741-19.741s8.868-19.741 19.741-19.741zM400.917 632.662h478.788c10.873 0 19.741 8.829 19.741 19.741s-8.868 19.741-19.741 19.741h-478.788c-10.873 0-19.741-8.829-19.741-19.741s8.868-19.741 19.741-19.741zM400.917 765.642h321.325c10.873 0 19.741 8.829 19.741 19.741s-8.868 19.741-19.741 19.741h-321.325c-10.873 0-19.741-8.829-19.741-19.741s8.868-19.741 19.741-19.741zM722.242 140.149h-321.325c-10.873 0-19.741-8.829-19.741-19.741 0-10.911 8.868-19.741 19.741-19.741h321.325c10.873 0 19.741 8.829 19.741 19.741 0 10.911-8.868 19.741-19.741 19.741zM879.704 273.167h-478.787c-10.873 0-19.741-8.829-19.741-19.741s8.868-19.741 19.741-19.741h478.788c10.873 0 19.741 8.829 19.741 19.741s-8.869 19.741-19.742 19.741zM306.994 184.642l-54.981-63.772v244.523c0 10.911-8.868 19.741-19.741 19.741s-19.741-8.829-19.741-19.741v-243.775l-53.207 62.909c-6.94 8.328-19.432 9.292-27.76 2.313-8.328-7.056-9.408-19.509-2.313-27.837l87.985-104.024c0.492-0.588 1.378-0.376 1.923-0.892 1.913-1.836 3.668-3.885 6.251-4.853 2.236-0.848 4.55-1.234 6.863-1.234 4.55 0 9.022 1.542 12.723 4.665 0.477 0.405 0.361 1.099 0.79 1.537 0.4 0.39 1.075 0.231 1.446 0.66l89.681 104.024c7.094 8.251 6.169 20.705-2.082 27.837-8.173 7.057-20.665 6.17-27.837-2.081zM159.248 712.165l54.981 63.772v-244.522c0-10.911 8.868-19.741 19.741-19.741s19.741 8.829 19.741 19.741v243.774l53.207-62.909c3.856-4.588 9.408-6.979 15.037-6.979 4.55 0 9.022 1.542 12.723 4.665 8.328 7.056 9.408 19.509 2.313 27.837l-87.985 104.024c-0.602 0.718-1.634 0.583-2.309 1.19-1.836 1.677-3.441 3.644-5.865 4.554-1.060 0.4-2.183-0.034-3.277 0.169-1.533 0.294-2.742 0.289-4.309 0.217-3.374-0.145-6.294-1.137-9.225-2.935-0.872-0.525-1.971-0.207-2.776-0.882-0.376-0.318-0.28-0.868-0.622-1.205-0.477-0.448-1.181-0.496-1.615-0.993l-89.679-104.022c-7.094-8.251-6.169-20.705 2.082-27.837 8.251-7.172 20.743-6.285 27.837 2.082z" />
<glyph unicode="&#xe918;" glyph-name="fullscreen" d="M887.51 223.238c10.962 0 19.903 8.902 19.903 19.903v584.956c0 11.001-8.941 19.903-19.903 19.903h-751.020c-10.962 0-19.903-8.902-19.903-19.903v-584.956c0-11.001 8.941-19.903 19.903-19.903h355.607v-135.432h-355.607c-10.962 0-19.903-8.902-19.903-19.903s8.941-19.903 19.903-19.903h751.020c10.962 0 19.903 8.902 19.903 19.903s-8.941 19.903-19.903 19.903h-355.607v135.432h355.607zM156.393 808.194h711.215v-545.151h-711.215v545.151zM792.583 755.25h-561.088c-10.962 0-19.903-8.902-19.903-19.903v-399.495c0-11.001 8.941-19.903 19.903-19.903h561.088c10.962 0 19.903 8.902 19.903 19.903v399.495c0 11.001-8.941 19.903-19.903 19.903zM772.68 355.755h-521.283v359.689h521.283v-359.689z" />
<glyph unicode="&#xe919;" glyph-name="direction-alityltr" d="M927.26 344.574h-454.078c-12.392 0-22.419-10.027-22.419-22.419s10.027-22.419 22.419-22.419h454.078c12.392 0 22.419 10.027 22.419 22.419s-10.027 22.419-22.419 22.419zM473.182 551.47h364.050c12.392 0 22.419 10.027 22.419 22.419s-10.027 22.419-22.419 22.419h-364.050c-12.392 0-22.419-10.027-22.419-22.419s10.027-22.419 22.419-22.419zM473.182 803.161h275.249c12.392 0 22.419 10.027 22.419 22.419s-10.027 22.42-22.419 22.42h-275.249c-12.392 0-22.419-10.027-22.419-22.419s10.027-22.42 22.419-22.42zM748.431 92.839h-275.249c-12.392 0-22.419-10.027-22.419-22.419s10.027-22.42 22.419-22.42h275.249c12.392 0 22.419 10.027 22.419 22.419s-10.027 22.42-22.419 22.42zM371.026 446.643c-0.361 0.427-1.002 0.317-1.39 0.712-0.498 0.52-0.553 1.303-1.106 1.784l-118.139 101.806c-9.283 7.969-23.558 6.962-31.615-2.365-8.057-9.371-7.006-23.514 2.365-31.615l72.425-62.397h-196.826c-12.392 0-22.419-10.027-22.419-22.419s10.027-22.419 22.419-22.419h195.944l-71.412-60.427c-9.458-8.013-10.597-22.157-2.627-31.615 4.423-5.211 10.772-7.926 17.121-7.926 5.123 0 10.29 1.752 14.494 5.298l118.139 99.967c0.837 0.712 0.684 1.905 1.39 2.704 1.888 2.080 4.111 3.875 5.134 6.623 0.454 1.221-0.038 2.479 0.192 3.733 0.345 1.773 0.334 3.169 0.252 4.97-0.17 3.831-1.303 7.137-3.333 10.427-0.603 0.991-0.237 2.245-1.008 3.159z" />
<glyph unicode="&#xe91a;" glyph-name="direction-alityltr2" d="M550.84 344.574h-454.078c-12.392 0-22.419-10.027-22.419-22.419s10.027-22.419 22.419-22.419h454.078c12.392 0 22.419 10.027 22.419 22.419s-10.027 22.419-22.419 22.419zM550.84 596.309h-364.050c-12.392 0-22.419-10.027-22.419-22.419s10.027-22.419 22.419-22.419h364.050c12.392 0 22.419 10.027 22.419 22.419s-10.027 22.419-22.419 22.419zM550.84 848h-275.249c-12.392 0-22.419-10.027-22.419-22.419s10.027-22.419 22.419-22.419h275.249c12.392 0 22.419 10.027 22.419 22.419s-10.027 22.419-22.419 22.419zM550.84 92.839h-275.249c-12.392 0-22.419-10.027-22.419-22.419s10.027-22.42 22.419-22.42h275.249c12.392 0 22.419 10.027 22.419 22.419s-10.027 22.42-22.419 22.42zM927.238 454.568h-196.782l72.425 62.397c9.371 8.101 10.421 22.244 2.365 31.615-7.969 9.327-22.244 10.334-31.615 2.365l-118.183-101.807c-0.553-0.482-0.608-1.259-1.106-1.784-0.389-0.394-1.024-0.285-1.39-0.712-0.777-0.914-0.411-2.167-1.013-3.164-2.020-3.273-3.153-6.568-3.328-10.383-0.088-1.828-0.093-3.251 0.257-5.041 0.23-1.242-0.263-2.49 0.186-3.7 1.023-2.742 3.24-4.532 5.129-6.612 0.706-0.799 0.553-2.003 1.396-2.715l118.183-99.967c4.247-3.547 9.371-5.298 14.494-5.298 6.349 0 12.698 2.715 17.121 7.926 8.013 9.458 6.831 23.602-2.627 31.615l-71.44 60.427h195.928c12.392 0 22.419 10.027 22.419 22.419s-10.027 22.419-22.419 22.419z" />
<glyph unicode="&#xe91b;" glyph-name="indent" d="M857.95 310.861h-691.9c-11.658 0-21.092-9.433-21.092-21.091s9.434-21.091 21.092-21.091h691.9c11.658 0 21.091 9.433 21.091 21.091s-9.433 21.091-21.091 21.091zM857.95 531.539h-691.9c-11.658 0-21.092-9.434-21.092-21.092s9.434-21.092 21.092-21.092h691.9c11.658 0 21.091 9.434 21.091 21.092s-9.433 21.092-21.091 21.092zM512 710.035h345.95c11.658 0 21.091 9.434 21.091 21.092s-9.433 21.092-21.091 21.092h-345.95c-11.658 0-21.092-9.434-21.092-21.092s9.434-21.092 21.092-21.092zM857.95 90.183h-691.9c-11.658 0-21.092-9.434-21.092-21.092s9.434-21.091 21.092-21.091h691.9c11.658 0 21.091 9.434 21.091 21.091 0.001 11.659-9.433 21.092-21.091 21.092zM166.050 710.035h184.304l-67.188-56.807c-8.898-7.539-10.010-20.844-2.472-29.742 4.161-4.902 10.134-7.456 16.107-7.456 4.82 0 9.639 1.648 13.635 4.985l111.184 94.006c0.793 0.669 0.649 1.802 1.313 2.554 1.776 1.957 3.862 3.641 4.825 6.22 0.422 1.138-0.041 2.312 0.175 3.481 0.33 1.684 0.324 3.023 0.242 4.742-0.165 3.589-1.231 6.689-3.131 9.768-0.566 0.937-0.221 2.116-0.953 2.976-0.34 0.402-0.942 0.294-1.308 0.664-0.469 0.494-0.515 1.231-1.040 1.684l-111.183 95.818c-8.733 7.456-22.121 6.673-29.742-2.224-7.58-8.816-6.591-22.121 2.225-29.742l68.177-58.743h-185.17c-11.658 0-21.092-9.434-21.092-21.092s9.434-21.092 21.092-21.092z" />
<glyph unicode="&#xe91c;" glyph-name="justify-left" d="M859.946 392.875h-580.23c-10.864 0-19.655-8.791-19.655-19.655s8.791-19.654 19.655-19.654h580.23c10.864 0 19.655 8.791 19.655 19.654s-8.791 19.655-19.655 19.655zM279.716 500.476h363.532c10.864 0 19.654 8.791 19.654 19.655s-8.791 19.655-19.654 19.655h-363.532c-10.864 0-19.655-8.791-19.655-19.655s8.791-19.655 19.655-19.655zM279.716 647.347h580.23c10.864 0 19.655 8.791 19.655 19.655s-8.791 19.655-19.655 19.655h-580.23c-10.864 0-19.655-8.791-19.655-19.655s8.791-19.655 19.655-19.655zM279.716 794.257h363.532c10.864 0 19.654 8.791 19.654 19.655s-8.791 19.655-19.654 19.655h-363.532c-10.864 0-19.655-8.791-19.655-19.655s8.791-19.655 19.655-19.655zM643.248 99.056h-363.532c-10.864 0-19.655-8.791-19.655-19.655s8.791-19.654 19.655-19.654h363.532c10.864 0 19.654 8.791 19.654 19.654s-8.791 19.655-19.654 19.655zM859.946 245.965h-580.23c-10.864 0-19.655-8.791-19.655-19.655s8.791-19.654 19.655-19.654h580.23c10.864 0 19.655 8.791 19.655 19.654 0 10.865-8.791 19.655-19.655 19.655zM164.054 848c-10.864 0-19.655-8.791-19.655-19.655v-760.691c0-10.864 8.791-19.655 19.655-19.655s19.655 8.791 19.655 19.655v760.691c-0.001 10.864-8.792 19.655-19.655 19.655z" />
<glyph unicode="&#xe91d;" glyph-name="justify-right" d="M744.322 392.875h-580.268c-10.864 0-19.655-8.791-19.655-19.655s8.791-19.654 19.655-19.654h580.269c10.864 0 19.655 8.791 19.655 19.654s-8.792 19.655-19.656 19.655zM744.322 539.785h-363.57c-10.864 0-19.655-8.791-19.655-19.655s8.791-19.655 19.655-19.655h363.57c10.864 0 19.655 8.791 19.655 19.655s-8.791 19.655-19.655 19.655zM744.322 686.656h-580.268c-10.864 0-19.655-8.791-19.655-19.655s8.791-19.655 19.655-19.655h580.269c10.864 0 19.655 8.791 19.655 19.655s-8.792 19.655-19.656 19.655zM744.322 833.566h-363.57c-10.864 0-19.655-8.791-19.655-19.655s8.791-19.655 19.655-19.655h363.57c10.864 0 19.655 8.791 19.655 19.655s-8.791 19.655-19.655 19.655zM744.322 99.056h-363.57c-10.864 0-19.655-8.791-19.655-19.655s8.791-19.654 19.655-19.654h363.57c10.864 0 19.655 8.791 19.655 19.654s-8.791 19.655-19.655 19.655zM744.322 245.965h-580.268c-10.864 0-19.655-8.791-19.655-19.655s8.791-19.654 19.655-19.654h580.269c10.864 0 19.655 8.791 19.655 19.654-0.001 10.865-8.792 19.655-19.656 19.655zM859.946 848c-10.864 0-19.654-8.791-19.654-19.655v-760.691c0-10.864 8.791-19.655 19.654-19.655 10.864 0 19.655 8.791 19.655 19.655v760.691c0 10.864-8.791 19.655-19.655 19.655z" />
<glyph unicode="&#xe91e;" glyph-name="justify-center" d="M914.064 392.399h-804.128c-11.231 0-20.319-9.088-20.319-20.319s9.088-20.319 20.319-20.319h804.127c11.231 0 20.319 9.088 20.319 20.319s-9.087 20.319-20.318 20.319zM260.070 544.279c-11.231 0-20.319-9.088-20.319-20.319s9.088-20.319 20.319-20.319h503.82c11.231 0 20.319 9.088 20.319 20.319s-9.088 20.319-20.319 20.319h-503.82zM109.936 655.521h804.127c11.231 0 20.319 9.088 20.319 20.319s-9.088 20.319-20.319 20.319h-804.127c-11.231 0-20.319-9.088-20.319-20.319s9.088-20.319 20.319-20.319zM260.070 807.361h503.82c11.231 0 20.319 9.088 20.319 20.319s-9.088 20.32-20.319 20.32h-503.82c-11.231 0-20.319-9.088-20.319-20.319s9.088-20.32 20.319-20.32zM763.89 88.639h-503.82c-11.231 0-20.319-9.088-20.319-20.32s9.088-20.319 20.319-20.319h503.82c11.231 0 20.319 9.088 20.319 20.319s-9.088 20.32-20.319 20.32zM914.064 240.519h-804.128c-11.231 0-20.319-9.088-20.319-20.319s9.088-20.32 20.319-20.32h804.127c11.231 0 20.319 9.088 20.319 20.32 0.001 11.231-9.087 20.319-20.318 20.319z" />
<glyph unicode="&#xe91f;" glyph-name="justify-justify" d="M914.084 392.399h-804.168c-11.231 0-20.319-9.088-20.319-20.319s9.088-20.319 20.319-20.319h804.167c11.231 0 20.319 9.088 20.319 20.319s-9.087 20.319-20.318 20.319zM914.084 696.16h-804.168c-11.231 0-20.319-9.088-20.319-20.319s9.088-20.319 20.319-20.319h804.167c11.231 0 20.319 9.088 20.319 20.319s-9.087 20.319-20.318 20.319zM914.084 240.519h-804.168c-11.231 0-20.319-9.088-20.319-20.319s9.088-20.32 20.319-20.32h804.167c11.231 0 20.319 9.088 20.319 20.32 0.001 11.231-9.087 20.319-20.318 20.319zM109.916 807.361h804.167c11.231 0 20.319 9.088 20.319 20.319s-9.087 20.32-20.318 20.32h-804.168c-11.231 0-20.319-9.088-20.319-20.319s9.088-20.32 20.319-20.32zM914.084 544.279h-804.168c-11.231 0-20.319-9.088-20.319-20.319s9.088-20.319 20.319-20.319h804.167c11.231 0 20.319 9.088 20.319 20.319s-9.087 20.319-20.318 20.319zM914.084 88.639h-804.168c-11.231 0-20.319-9.088-20.319-20.32s9.088-20.319 20.319-20.319h804.167c11.231 0 20.319 9.088 20.319 20.319s-9.087 20.32-20.318 20.32z" />
<glyph unicode="&#xe920;" glyph-name="touppercase" d="M381.615 607.712c-6.302 13.548-19.435 21.926-34.342 21.926-16.341 1.51-28.417-8.567-34.644-22.605l-229.83-532.041c-4.227-9.812 0.264-21.171 10.076-25.398 9.737-4.264 21.134 0.34 25.398 10.076l74.817 174.617h307.722l75.421-174.617c3.17-7.284 10.265-11.661 17.737-11.661 2.566 0 5.17 0.491 7.661 1.585 9.812 4.227 14.303 15.586 10.076 25.398l-230.092 532.72zM209.649 272.932l136.68 319.006 137.789-319.006h-274.469zM923.468 375.468c-10.68 0-19.322-8.642-19.322-19.322v-40.031c-30.059 35.96-74.666 59.354-125.104 59.354-90.271 0-163.711-73.44-163.711-163.748 0-90.271 73.44-163.711 163.711-163.711 50.438 0 95.045 23.393 125.104 59.344v-40.022c0-10.68 8.642-19.322 19.322-19.322s19.322 8.642 19.322 19.322v288.814c0 10.68-8.642 19.322-19.322 19.322zM779.041 86.654c-68.949 0-125.066 56.117-125.066 125.066 0 68.986 56.117 125.104 125.066 125.104 68.986 0 125.104-56.117 125.104-125.104 0-68.949-56.117-125.066-125.104-125.066zM528.975 737.402c0.198-1.071-0.226-2.146 0.16-3.189 0.882-2.363 2.793-3.906 4.42-5.699 0.609-0.689 0.476-1.727 1.203-2.34l101.857-86.12c3.661-3.057 8.076-4.566 12.492-4.566 5.472 0 10.944 2.34 14.756 6.831 6.906 8.152 5.887 20.341-2.264 27.247l-61.552 52.042h323.421c10.68 0 19.322 8.642 19.322 19.322s-8.642 19.322-19.322 19.322h-324.214l62.458 53.815c8.076 6.982 8.982 19.171 2.038 27.247-6.906 8.152-19.209 8.869-27.247 2.038l-101.857-87.78c-0.481-0.415-0.528-1.090-0.958-1.543-0.335-0.335-0.877-0.241-1.193-0.609-0.67-0.788-0.354-1.868-0.873-2.727-1.741-2.821-2.717-5.661-2.868-8.949-0.076-1.573-0.081-2.8 0.221-4.342z" />
<glyph unicode="&#xe921;" glyph-name="tolowercase" d="M381.596 607.712c-6.302 13.548-19.435 21.926-34.342 21.926-14.831 1.51-28.38-8.567-34.644-22.605l-229.792-532.041c-4.227-9.812 0.264-21.171 10.076-25.398 9.623-4.264 21.096 0.34 25.398 10.076l74.803 174.617h307.698l75.421-174.617c3.17-7.284 10.265-11.661 17.737-11.661 2.566 0 5.17 0.491 7.661 1.585 9.812 4.227 14.303 15.586 10.076 25.398l-230.092 532.72zM209.653 272.932l136.657 319.006 137.789-319.006h-274.446zM923.449 375.468c-10.68 0-19.322-8.642-19.322-19.322v-40.027c-30.054 35.96-74.652 59.349-125.066 59.349-90.309 0-163.748-73.44-163.748-163.748 0-90.271 73.44-163.711 163.748-163.711 50.414 0 95.012 23.393 125.066 59.344v-40.022c0-10.68 8.642-19.322 19.322-19.322s19.322 8.642 19.322 19.322v288.815c0 10.68-8.642 19.322-19.322 19.322zM779.060 86.654c-68.986 0-125.104 56.117-125.104 125.066 0 68.986 56.117 125.104 125.104 125.104 68.949 0 125.066-56.117 125.066-125.104 0-68.949-56.117-125.066-125.066-125.066zM547.231 721.608h323.435l-61.528-52.042c-8.152-6.906-9.17-19.096-2.264-27.247 3.812-4.491 9.284-6.831 14.756-6.831 4.415 0 8.831 1.51 12.492 4.566l101.819 86.12c0.726 0.613 0.594 1.651 1.203 2.34 1.627 1.793 3.538 3.335 4.42 5.699 0.387 1.043-0.038 2.118 0.16 3.189 0.302 1.543 0.297 2.769 0.222 4.345-0.151 3.288-1.127 6.128-2.868 8.949-0.519 0.859-0.203 1.939-0.873 2.727-0.311 0.368-0.863 0.269-1.198 0.609-0.429 0.453-0.472 1.127-0.953 1.543l-101.819 87.78c-7.963 6.831-20.19 6.114-27.247-2.038-6.944-8.076-6.038-20.266 2.038-27.247l62.42-53.815h-324.215c-10.68 0-19.322-8.642-19.322-19.322 0-10.683 8.642-19.325 19.322-19.325z" />
<glyph unicode="&#xe922;" glyph-name="link" d="M886.881 744.916l-77.984 77.984c-33.505 33.427-88.024 33.505-121.529 0l-194.845-194.844c-33.505-33.505-33.505-88.063 0-121.568l24.895-24.895-38.978-38.978-24.91 24.92c-33.544 33.466-88.024 33.466-121.568 0l-194.843-194.844c-33.466-33.505-33.466-88.063 0-121.568l77.984-77.984c16.772-16.772 38.759-25.139 60.785-25.139s44.012 8.367 60.784 25.139l194.844 194.844c16.188 16.188 25.1 37.786 25.1 60.784s-8.911 44.596-25.1 60.745l-24.91 24.92 38.987 38.987 24.915-24.915c16.733-16.733 38.72-25.1 60.745-25.1 21.987 0 44.012 8.367 60.784 25.1l194.844 194.844c16.188 16.188 25.1 37.786 25.1 60.784s-8.912 44.596-25.1 60.784zM503.342 361.338c8.678-8.639 13.425-20.197 13.425-32.571s-4.786-23.932-13.425-32.61l-194.844-194.844c-17.978-17.978-47.242-17.978-65.22 0l-77.984 77.984c-17.939 17.978-17.939 47.242 0 65.22l194.844 194.844c8.989 8.95 20.819 13.464 32.61 13.464 11.83 0 23.621-4.475 32.61-13.464l24.905-24.92-114.058-114.043c-7.783-7.783-7.783-20.391 0-28.174 3.891-3.891 8.989-5.837 14.087-5.837s10.196 1.946 14.087 5.837l114.053 114.038 24.91-24.924zM858.707 651.522l-194.844-194.844c-17.94-17.939-47.164-18.017-65.181 0l-24.91 24.91 102.894 102.885c7.783 7.783 7.783 20.391 0 28.174s-20.391 7.783-28.174 0l-102.894-102.885-24.9 24.9c-17.978 17.978-17.978 47.242 0 65.22l194.844 194.844c8.989 8.989 20.78 13.464 32.571 13.464 11.83 0 23.621-4.475 32.61-13.464l77.984-77.984c17.978-17.978 17.978-47.242 0-65.22z" />
<glyph unicode="&#xe923;" glyph-name="unlink" d="M503.341 389.49c-7.783-7.783-7.783-20.392 0-28.175 17.94-17.94 17.94-47.205 0-65.185l-194.853-194.854c-17.979-17.979-47.244-17.979-65.224 0l-77.988 77.988c-17.94 17.979-17.94 47.244 0 65.224l194.854 194.853c17.979 17.901 47.244 17.901 65.224 0 7.783-7.783 20.392-7.783 28.175 0s7.783 20.431 0 28.175c-33.546 33.468-88.028 33.468-121.574 0l-194.854-194.853c-33.468-33.507-33.468-88.067 0-121.574l77.988-77.988c16.189-16.189 37.788-25.101 60.787-25.101s44.598 8.912 60.787 25.101l194.853 194.853c33.507 33.546 33.468 88.067 0 121.535-7.783 7.784-20.392 7.784-28.175 0.001zM886.899 744.911l-77.988 77.988c-33.546 33.468-88.028 33.468-121.574 0l-194.853-194.853c-33.468-33.507-33.468-88.067 0-121.574 7.783-7.783 20.392-7.783 28.175 0 7.783 7.744 7.783 20.392 0 28.175-17.94 17.979-17.94 47.244 0 65.224l194.853 194.853c17.94 17.979 47.205 17.979 65.224 0l77.988-77.988c17.94-17.979 17.94-47.244 0-65.224l-194.854-194.853c-17.979-17.901-47.244-17.901-65.224 0-7.783 7.783-20.392 7.783-28.175 0s-7.783-20.431 0-28.175c16.773-16.734 38.761-25.101 60.787-25.101s44.014 8.367 60.787 25.101l194.853 194.853c33.469 33.507 33.469 88.067 0.001 121.574zM214.038 523.128c0.934 0 1.868 0.078 2.802 0.195l113.013 15.722c10.897 1.518 18.485 11.558 16.967 22.494-1.557 10.935-11.869 18.485-22.494 16.967l-113.013-15.722c-10.897-1.518-18.485-11.558-16.967-22.494 1.402-9.963 9.924-17.162 19.692-17.162zM332.46 619.757c3.775-3.308 8.445-4.942 13.115-4.942 5.526 0 11.052 2.296 14.983 6.81 7.277 8.289 6.421 20.859-1.868 28.098l-62.772 54.95c-8.25 7.199-20.781 6.499-28.097-1.868-7.238-8.289-6.421-20.859 1.868-28.097l62.771-54.951zM434.926 647.192c11.013 0 19.925 8.912 19.925 19.925v80.012c0 11.013-8.912 19.925-19.925 19.925s-19.925-8.912-19.925-19.925v-80.012c0-11.013 8.912-19.925 19.925-19.925z" />
<glyph unicode="&#xe924;" glyph-name="author" d="M991.241 301.241l-63.273 127.823-127.823-63.235 17.058-34.492 67.424 33.36c-47.37-157.064-188.141-268.321-354.030-276.517v378.72h108.398v38.475h-108.396v132.959c49.169 9.093 86.568 52.099 86.568 103.861 0 58.351-47.454 105.805-105.805 105.805s-105.805-47.454-105.805-105.805c0-51.761 37.399-94.768 86.568-103.861v-132.961h-108.399v-38.475h108.398v-378.72c-165.912 8.214-306.96 119.857-354.208 277.236l68.88-34.078 17.058 34.492-127.822 63.235-63.273-127.822 34.492-17.058 34.262 69.19c54.222-179.058 218.875-305.373 409.848-305.373 191.809 0 356.674 126.968 410.351 306.942l35.037-70.759 34.492 17.058zM444.031 742.195c0 37.122 30.209 67.33 67.33 67.33s67.33-30.209 67.33-67.33-30.208-67.33-67.33-67.33-67.33 30.208-67.33 67.33z" />
<glyph unicode="&#xe925;" glyph-name="image-none" d="M683 389.8h-342c-11 0-20-8.9-20-20s8.9-20 20-20h342c11 0 20 8.9 20 20s-9 20-20 20zM683 536.2h-342c-11 0-20-8.9-20-20 0-11 8.9-20 20-20h342c11 0 20 8.9 20 20s-9 20-20 20zM683 682.8h-342c-11 0-20-8.9-20-20 0-11 8.9-20 20-20h342c11 0 20 8.9 20 20 0 11-9 20-20 20zM683 243.2h-342c-11 0-20-8.9-20-20s8.9-20 20-20h342c11 0 20 8.9 20 20s-9 20-20 20zM146 48h732c11 0 20 8.9 20 20v760c0 11-8.9 20-20 20h-732c-11 0-20-8.9-20-20v-760c0-11.1 9-20 20-20zM166 808.1h692v-720.2h-692v720.2z" />
<glyph unicode="&#xe926;" glyph-name="image-left" d="M116.91 808.564h790.18c10.899 0 19.718 8.819 19.718 19.718s-8.819 19.718-19.718 19.718h-790.18c-10.899 0-19.718-8.819-19.718-19.718s8.819-19.718 19.718-19.718zM907.090 395.374h-170.645c-10.899 0-19.718-8.819-19.718-19.718s8.819-19.718 19.718-19.718h170.645c10.899 0 19.718 8.819 19.718 19.718s-8.819 19.718-19.718 19.718zM907.090 540.062h-170.645c-10.899 0-19.718-8.819-19.718-19.718s8.819-19.718 19.718-19.718h170.645c10.899 0 19.718 8.819 19.718 19.718s-8.819 19.718-19.718 19.718zM907.090 684.788h-170.645c-10.899 0-19.718-8.819-19.718-19.718s8.819-19.718 19.718-19.718h170.645c10.899 0 19.718 8.819 19.718 19.718s-8.819 19.718-19.718 19.718zM907.090 250.648h-170.645c-10.899 0-19.718-8.819-19.718-19.718s8.819-19.718 19.718-19.718h170.645c10.899 0 19.718 8.819 19.718 19.718s-8.819 19.718-19.718 19.718zM907.090 87.436h-790.18c-10.899 0-19.718-8.819-19.718-19.718s8.819-19.718 19.718-19.718h790.18c10.899 0 19.718 8.819 19.718 19.718s-8.819 19.718-19.718 19.718zM116.91 211.212h511.51c10.899 0 19.718 8.819 19.718 19.718v434.14c0 10.899-8.819 19.718-19.718 19.718h-511.51c-10.899 0-19.718-8.819-19.718-19.718v-434.14c0-10.899 8.819-19.718 19.718-19.718zM136.628 645.352h472.074v-394.705h-472.074v394.705z" />
<glyph unicode="&#xe927;" glyph-name="image-right" d="M116.929 808.564h790.141c10.899 0 19.718 8.819 19.718 19.718s-8.819 19.718-19.718 19.718h-790.141c-10.899 0-19.718-8.819-19.718-19.718 0.001-10.899 8.82-19.718 19.718-19.718zM116.929 355.938h170.645c10.899 0 19.718 8.819 19.718 19.718s-8.819 19.718-19.718 19.718h-170.645c-10.899 0-19.718-8.819-19.718-19.718 0.001-10.899 8.82-19.718 19.718-19.718zM116.929 500.626h170.645c10.899 0 19.718 8.819 19.718 19.718s-8.819 19.718-19.718 19.718h-170.645c-10.899 0-19.718-8.819-19.718-19.718 0.001-10.899 8.82-19.718 19.718-19.718zM116.929 645.352h170.645c10.899 0 19.718 8.819 19.718 19.718s-8.819 19.718-19.718 19.718h-170.645c-10.899 0-19.718-8.819-19.718-19.718 0.001-10.899 8.82-19.718 19.718-19.718zM116.929 211.212h170.645c10.899 0 19.718 8.819 19.718 19.718s-8.819 19.718-19.718 19.718h-170.645c-10.899 0-19.718-8.819-19.718-19.718 0.001-10.899 8.82-19.718 19.718-19.718zM907.070 87.436h-790.141c-10.899 0-19.718-8.819-19.718-19.718s8.82-19.718 19.718-19.718h790.141c10.899 0 19.718 8.819 19.718 19.718s-8.819 19.718-19.718 19.718zM907.070 684.788h-511.471c-10.899 0-19.718-8.819-19.718-19.718v-434.14c0-10.899 8.819-19.718 19.718-19.718h511.471c10.899 0 19.718 8.819 19.718 19.718v434.14c0 10.899-8.819 19.718-19.718 19.718zM887.353 250.648h-472.036v394.704h472.036v-394.704z" />
<glyph unicode="&#xe928;" glyph-name="image-cener" d="M24.34 893.067h975.321c13.453 0 24.339 10.886 24.339 24.339s-10.886 24.339-24.339 24.339h-975.321c-13.453 0-24.339-10.886-24.339-24.339s10.887-24.339 24.339-24.339zM999.659 2.933h-975.321c-13.453 0-24.339-10.886-24.339-24.339s10.887-24.339 24.339-24.339h975.321c13.453 0 24.339 10.886 24.339 24.339s-10.886 24.339-24.339 24.339zM999.659 204.396h-975.321c-13.453 0-24.339-10.886-24.339-24.339s10.886-24.339 24.339-24.339h975.321c13.453 0 24.339 10.886 24.339 24.339s-10.886 24.339-24.339 24.339zM196.329 740.283c-13.453 0-24.339-10.886-24.339-24.339v-339.986c0-13.453 10.886-24.339 24.339-24.339h631.342c13.453 0 24.339 10.886 24.339 24.339v339.986c0 13.453-10.886 24.339-24.339 24.339h-631.342zM803.332 400.297h-582.663v291.307h582.663v-291.307z" />
<glyph unicode="&#xe929;" glyph-name="simple-upload" d="M964.759 848h-905.518c-11.007 0-19.913-8.907-19.913-19.913v-760.173c0-11.007 8.907-19.913 19.913-19.913h905.518c11.007 0 19.913 8.907 19.913 19.913v760.173c0 11.006-8.906 19.913-19.913 19.913zM944.846 87.827h-865.692v128.523l205.086 271.885 153.746-225.388c3.228-4.706 8.323-7.818 14.002-8.518 5.601-0.739 11.396 1.089 15.674 4.862l130.565 116.136 124.070-111.974c3.656-3.306 8.401-5.134 13.34-5.134h209.208v-170.392zM944.846 298.046h-201.547l-131.615 118.781c-7.545 6.806-19.019 6.845-26.564 0.117l-126.987-112.947-156.625 229.627c-3.617 5.29-9.568 8.518-15.985 8.673-6.806 0.156-12.524-2.8-16.374-7.934l-189.995-251.874v525.684h865.691v-510.127zM769.125 535.919c52.234 0 94.745 42.511 94.745 94.745 0 52.273-42.511 94.783-94.745 94.783-52.273 0-94.783-42.511-94.783-94.783-0.001-52.235 42.51-94.745 94.783-94.745zM769.125 685.62c30.298 0 54.918-24.658 54.918-54.956s-24.62-54.918-54.918-54.918c-30.298 0-54.956 24.62-54.956 54.918s24.658 54.956 54.956 54.956z" />
<glyph unicode="&#xe92a;" glyph-name="insert-image" d="M681.167 566.761h-622.957c-11.007 0-19.913-8.907-19.913-19.913v-478.934c0-11.007 8.907-19.913 19.913-19.913h622.957c11.007 0 19.913 8.907 19.913 19.913v478.934c0.001 11.007-8.906 19.913-19.913 19.913zM661.254 526.934v-306.675h-146.706l-80.782 72.964c-7.506 6.806-18.98 6.845-26.564 0.117l-73.936-65.73-103.924 149.818c-3.617 5.212-9.529 8.401-15.869 8.557-6.806 0.972-12.407-2.684-16.257-7.74l-119.092-154.233v302.922h583.13zM78.124 87.827v71.044l133.988 173.518 101.24-145.928c3.267-4.667 8.362-7.74 14.002-8.401 5.717-0.739 11.318 1.128 15.596 4.862l77.359 68.803 73.236-66.158c3.656-3.306 8.401-5.134 13.34-5.134h154.368v-92.605h-583.129zM557.875 355.375c36.988 0 67.091 30.104 67.091 67.091s-30.104 67.052-67.091 67.052c-36.988 0-67.052-30.065-67.052-67.052s30.064-67.091 67.052-67.091zM557.875 449.692c15.052 0 27.264-12.213 27.264-27.225 0-15.052-12.213-27.264-27.264-27.264-15.013 0-27.225 12.213-27.225 27.264-0.001 15.012 12.212 27.225 27.225 27.225zM821.962 705.378h-622.49c-11.007 0-19.913-8.907-19.913-19.913v-86.966c0-11.007 8.907-19.913 19.913-19.913s19.913 8.907 19.913 19.913v67.052h582.663v-440.78h-67.48c-11.007 0-19.913-8.907-19.913-19.913s8.907-19.913 19.913-19.913h87.394c11.007 0 19.913 8.907 19.913 19.913v480.606c0 11.007-8.907 19.914-19.913 19.914zM965.79 848h-622.49c-11.007 0-19.913-8.907-19.913-19.913v-86.966c0-11.007 8.907-19.913 19.913-19.913s19.913 8.907 19.913 19.913v67.052h582.663v-440.78h-67.519c-11.007 0-19.913-8.907-19.913-19.913s8.907-19.913 19.913-19.913h87.433c11.007 0 19.913 8.907 19.913 19.913v480.607c0 11.006-8.906 19.913-19.913 19.913z" />
<glyph unicode="&#xe92b;" glyph-name="emotion" d="M911.922 848h-799.844c-11.028 0-19.951-8.924-19.951-19.951v-760.097c0-11.028 8.924-19.951 19.951-19.951h799.844c11.028 0 19.951 8.924 19.951 19.951v760.097c0 11.027-8.923 19.951-19.951 19.951zM891.971 87.903h-759.942v720.194h759.942v-720.194zM378.264 474.654c36.902 0 66.907 30.005 66.907 66.907v82.728c0 36.902-30.005 66.907-66.907 66.907-36.863 0-66.868-30.005-66.868-66.907v-82.728c0-36.902 30.005-66.907 66.868-66.907zM351.299 624.288c0 14.886 12.080 27.004 26.965 27.004s27.004-12.119 27.004-27.004v-82.728c0-14.886-12.119-27.004-27.004-27.004s-26.965 12.119-26.965 27.004v82.728zM645.736 474.654c36.902 0 66.907 30.005 66.907 66.907v82.728c0 36.902-30.005 66.907-66.907 66.907s-66.907-30.005-66.907-66.907v-82.728c0-36.902 30.005-66.907 66.907-66.907zM618.732 624.288c0 14.886 12.119 27.004 27.004 27.004s27.004-12.119 27.004-27.004v-82.728c0-14.886-12.119-27.004-27.004-27.004s-27.004 12.119-27.004 27.004v82.728zM512 204.805c126.995 0 242.221 76.142 286.761 189.459 4.014 10.248-1.052 21.822-11.301 25.874-10.171 3.936-21.822-1.052-25.874-11.301-38.539-98.158-138.841-164.13-249.586-164.13-110.706 0-211.047 66.011-249.586 164.208-4.053 10.287-15.743 15.314-25.874 11.301-10.248-4.053-15.314-15.626-11.301-25.874 44.54-113.356 159.766-189.537 286.761-189.537z" />
<glyph unicode="&#xe92c;" glyph-name="scrawl" d="M365.006 848h-233.098c-11.004 0-19.908-8.904-19.908-19.908v-760.185c0-11.004 8.904-19.908 19.908-19.908h760.185c11.004 0 19.908 8.904 19.908 19.908v233.099c-0.001 301.609-245.386 546.994-546.995 546.994zM872.185 87.815h-720.37v720.37h213.191c279.64 0 507.179-227.538 507.179-507.179v-213.191zM332.423 356.685c-57.701 0-104.632-46.931-104.632-104.632s46.931-104.632 104.632-104.632 104.632 46.931 104.632 104.632-46.931 104.632-104.632 104.632zM332.423 187.237c-35.733 0-64.817 29.084-64.817 64.817s29.084 64.817 64.817 64.817 64.817-29.084 64.817-64.817-29.084-64.817-64.817-64.817zM327.874 593.633c41.721 0 75.665 33.944 75.665 75.665s-33.944 75.665-75.665 75.665-75.665-33.944-75.665-75.665 33.944-75.665 75.665-75.665zM327.874 705.147c19.752 0 35.849-16.097 35.849-35.849s-16.097-35.849-35.849-35.849c-19.752 0-35.849 16.097-35.849 35.849s16.097 35.849 35.849 35.849zM537.332 689.205c-41.721 0-75.665-33.944-75.665-75.665s33.944-75.665 75.665-75.665 75.665 33.944 75.665 75.665-33.945 75.665-75.665 75.665zM537.332 577.691c-19.752 0-35.849 16.097-35.849 35.849s16.097 35.849 35.849 35.849 35.849-16.097 35.849-35.849c0-19.751-16.097-35.849-35.849-35.849zM610.586 448.019c0-41.721 33.944-75.665 75.665-75.665s75.665 33.944 75.665 75.665-33.944 75.665-75.665 75.665-75.665-33.944-75.665-75.665zM722.1 448.019c0-19.752-16.097-35.849-35.849-35.849s-35.849 16.097-35.849 35.849c0 19.752 16.097 35.849 35.849 35.849s35.849-16.096 35.849-35.849zM666.343 252.053c0-41.721 33.944-75.665 75.665-75.665s75.665 33.944 75.665 75.665-33.944 75.665-75.665 75.665c-41.721 0-75.665-33.944-75.665-75.665zM777.857 252.053c0-19.752-16.097-35.849-35.849-35.849s-35.849 16.097-35.849 35.849 16.097 35.849 35.849 35.849c19.751 0.001 35.849-16.096 35.849-35.849z" />
<glyph unicode="&#xe92d;" glyph-name="insert-video" d="M892.993 848c-10.469 0-19.007-8.501-19.007-19.007v-57.021h-104.464v57.021c0 10.506-8.538 19.007-19.007 19.007s-19.007-8.501-19.007-19.007v-57.021h-435.675v57.021c0 10.506-8.538 19.007-19.007 19.007s-19.007-8.501-19.007-19.007v-57.021h-107.805v57.021c0 10.506-8.538 19.007-19.007 19.007s-19.007-8.501-19.007-19.007v-761.986c0-10.506 8.538-19.007 19.007-19.007s19.007 8.501 19.007 19.007v57.021h107.805v-57.021c0-10.506 8.538-19.007 19.007-19.007s19.007 8.501 19.007 19.007v57.021h435.675v-57.021c0-10.506 8.538-19.007 19.007-19.007s19.007 8.501 19.007 19.007v57.021h104.464v-57.021c0-10.506 8.538-19.007 19.007-19.007s19.007 8.501 19.007 19.007v761.986c0 10.506-8.538 19.007-19.007 19.007zM769.522 476.807h104.464v-76.585h-104.464v76.585zM873.986 514.821h-104.464v76.548h104.464v-76.548zM769.522 362.209h104.464v-76.585h-104.464v76.585zM873.986 733.958v-104.575h-104.464v104.575h104.464zM731.508 733.958v-277.94h-435.675v277.94h435.675zM257.819 400.223h-107.805v76.585h107.805v-76.585zM257.819 514.821h-107.805v76.548h107.805v-76.548zM150.014 362.209h107.805v-76.585h-107.805v76.585zM257.819 733.958v-104.575h-107.805v104.575h107.805zM150.014 162.042v85.568h107.805v-85.568h-107.805zM295.833 162.042v255.963h435.675v-255.963h-435.675zM769.522 162.042v85.568h104.464v-85.568h-104.464z" />
<glyph unicode="&#xe92e;" glyph-name="insert-music" d="M946.27 209.017c0.251 1.244 1.399 2.052 1.399 3.371v616.246c0 10.704-8.7 19.366-19.366 19.366h-581.674c-10.667 0-19.366-8.662-19.366-19.366v-536.577c-26.511 28.752-64.137 47.083-106.213 47.083-79.887 0-144.946-65.021-144.946-144.946s65.059-144.946 144.946-144.946 144.946 65.021 144.946 144.946c0 5.007-0.983 9.749-1.48 14.629 0.279 1.31 1.48 2.17 1.48 3.565v596.879h542.941v-518.184c-26.496 28.596-64.038 46.808-105.986 46.808-79.962 0-145.021-65.021-145.021-144.946s65.058-144.945 145.020-144.945c79.886 0 144.946 65.021 144.946 144.946 0 5.503-1.026 10.723-1.626 16.071zM221.050 87.981c-58.553 0-106.213 47.66-106.213 106.213s47.66 106.213 106.213 106.213 106.213-47.66 106.213-106.213c-0.001-58.553-47.66-106.213-106.213-106.213zM802.95 86.733c-58.629 0-106.288 47.66-106.288 106.213s47.66 106.213 106.288 106.213c58.553 0 106.213-47.66 106.213-106.213s-47.659-106.213-106.213-106.213z" />
<glyph unicode="&#xe92f;" glyph-name="attachment" d="M943.413 693.723c0 41.346-16.040 80.122-45.083 109.165-60.189 60.189-158.219 60.111-218.252 0l-87.971-87.981c-0.005-0.005-0.010 0-0.015-0.005l-256.561-256.6c-17.519-17.519-27.252-40.917-27.252-65.873 0-24.916 9.733-48.314 27.252-65.873l18.064-18.103c18.142-18.181 42.046-27.252 65.873-27.252 23.904 0 47.808 9.071 65.951 27.252l256.561 256.6c7.786 7.786 7.786 20.4 0 28.187s-20.4 7.786-28.187 0l-256.561-256.6c-20.79-20.751-54.505-20.829-75.45 0l-18.064 18.103c-10.044 10.005-15.573 23.398-15.573 37.686s5.528 27.681 15.573 37.686l344.546 344.585c44.694 44.655 117.185 44.577 161.878 0 21.568-21.529 33.404-50.261 33.404-80.978 0-30.678-11.835-59.41-33.404-80.939l-344.545-344.546c-0.029-0.029-0.015-0.073-0.044-0.102l-133.804-133.784c-59.799-59.799-165.071-59.799-224.87 0-61.902 61.979-61.902 162.813 0 224.792l249.553 249.553c7.786 7.786 7.786 20.4 0 28.187-7.786 7.786-20.4 7.786-28.187 0l-249.552-249.553c-77.474-77.513-77.474-203.652 0-281.166 38.776-38.776 89.699-58.164 140.621-58.164s101.846 19.388 140.622 58.164l249.553 249.514c0.039 0.039 0.019 0.092 0.054 0.131l228.787 228.788c29.043 29.043 45.083 67.819 45.083 109.126z" />
<glyph unicode="&#xe930;" glyph-name="map" d="M891.156 848h-758.312c-10.875 0-19.745-8.831-19.745-19.745v-758.351c0-10.913 8.87-19.745 19.745-19.745h597.368c2.275-0.892 4.435-2.16 6.922-2.16 2.16 0 4.396 0.386 6.633 1.157 0.506 0.183 0.622 0.786 1.104 1.003h146.286c10.875 0 19.745 8.831 19.745 19.745v758.351c-0.001 10.914-8.871 19.745-19.746 19.745zM407.295 808.511c15.112-19.209 57.677-81.027 19.711-129.226-22.058-27.959-61.547-24.758-103.504-21.711-45.428 3.664-97.026 7.597-122.632-37.175-17.354-30.272 4.319-66.946 29.385-109.366 29.617-50.248 66.561-112.798 48.204-176.428-13.338-46.214-56.708-89.877-125.871-130.431v604.337h254.707zM152.588 158.504c91.651 49.361 145.982 103.384 163.818 165.187 23.061 79.981-20.439 153.637-52.215 207.395-15.58 26.455-35.016 59.349-29.077 69.684 12.572 21.904 40.569 20.863 85.38 17.431 45.505-3.509 102.348-7.944 137.517 36.635 40.154 50.971 22.449 111.844-2.536 153.676h415.936v-388.696c-69.135-25.645-118.535-67.525-146.001-125.24-36.978-77.672-24.965-162.029-14.828-204.927h-557.994v68.855zM751.315 89.649c-8.696 32.986-24.729 115.7 9.882 188.19 20.988 44.001 58.602 76.794 110.215 98.94v-287.129h-120.097zM682.296 605.821c-31.699 31.661-86.922 31.583-118.313 0-15.811-15.772-24.526-36.79-24.526-59.156 0-15.474 5.51-29.559 13.314-42.449l-124.222-124.184c-7.713-7.713-7.713-20.207 0-27.92 3.856-3.856 8.87-5.784 13.96-5.784 5.013 0 10.104 1.928 13.96 5.784l124.223 124.189c12.89-7.79 26.98-13.28 42.449-13.28 22.29 0 43.345 8.677 59.156 24.488 32.547 32.624 32.547 85.687-0.001 118.312zM654.376 515.428c-16.659-16.659-45.813-16.659-62.473 0-8.33 8.368-12.957 19.436-12.957 31.236s4.628 22.868 12.957 31.236c8.33 8.33 19.436 12.919 31.236 12.919s22.907-4.589 31.236-12.919c17.201-17.198 17.201-45.234 0.001-62.472z" />
<glyph unicode="&#xe931;" glyph-name="gmap" d="M892.183 848h-760.366c-10.904 0-19.798-8.855-19.798-19.798v-760.404c0-10.943 8.894-19.798 19.798-19.798h760.365c10.904 0 19.798 8.855 19.798 19.798v760.404c0.001 10.943-8.893 19.798-19.797 19.798zM151.615 342.016c49.079 75.093 109.677 107.632 110.281 107.975 9.667 5.027 13.456 16.975 8.43 26.681s-17.169 13.418-26.604 8.468c-2.378-1.189-46.387-24.791-92.107-77.631v400.895h420.576c-17.927-41.563-54.614-65.281-55.010-65.542-9.28-5.8-12.142-18.019-6.342-27.261 3.789-6.032 10.208-9.358 16.859-9.358 3.48 0 7.115 0.967 10.363 2.939 2.426 1.571 56.267 36.111 75.973 99.222h258.35v-536.28c-100.874-31.234-187.041-149.877-210.169-184.528h-510.6v254.42zM710.816 87.596c31.089 42.312 93.277 115.849 161.569 142.704v-142.704h-161.569zM724.596 214.195c10.904 0 19.798 8.855 19.798 19.798v218.59c0 10.943-8.894 19.798-19.798 19.798h-284.982c-10.904 0-19.798-8.855-19.798-19.798s8.894-19.798 19.798-19.798h265.184v-178.994h-372.758v393.948h392.556c10.904 0 19.798 8.855 19.798 19.798s-8.894 19.798-19.798 19.798h-412.354c-10.904 0-19.798-8.855-19.798-19.798v-433.544c0-10.943 8.894-19.798 19.798-19.798h412.354z" />
<glyph unicode="&#xe932;" glyph-name="insert-iframe" d="M841.102 213.344c-10.904 0-19.798-8.855-19.798-19.798v-105.95h-720.846v720.808h720.847v-146.165c0-10.943 8.894-19.798 19.798-19.798s19.798 8.855 19.798 19.798v165.963c0 10.943-8.894 19.798-19.798 19.798h-760.443c-10.904 0-19.798-8.855-19.798-19.798v-760.404c0-10.943 8.894-19.798 19.798-19.798h760.443c10.904 0 19.798 8.855 19.798 19.798v125.748c-0.001 10.943-8.894 19.798-19.799 19.798zM782.327 613.441c-99.686 0-180.811-81.087-180.811-180.772s81.125-180.811 180.811-180.811 180.811 81.125 180.811 180.811-81.125 180.772-180.811 180.772zM782.327 291.453c-77.877 0-141.215 63.338-141.215 141.215 0 77.839 63.338 141.177 141.215 141.177s141.215-63.338 141.215-141.177c0-77.877-63.338-141.215-141.215-141.215z" />
<glyph unicode="&#xe933;" glyph-name="page-break" d="M901.93 848c-10.901 0-19.792-8.852-19.792-19.792v-273.303h-442.078v273.303c0 10.94-8.891 19.792-19.792 19.792s-19.792-8.852-19.792-19.792v-293.095c0-10.94 8.891-19.792 19.792-19.792h481.662c10.901 0 19.792 8.852 19.792 19.792v293.095c0 10.94-8.891 19.792-19.792 19.792zM901.93 380.641h-481.662c-10.901 0-19.792-8.852-19.792-19.792v-293.056c0-10.94 8.891-19.792 19.792-19.792s19.792 8.852 19.792 19.792v273.263h442.078v-273.264c0-10.94 8.891-19.792 19.792-19.792s19.792 8.852 19.792 19.792v293.057c0 10.939-8.891 19.792-19.792 19.792zM544.124 709.261h228.461c10.901 0 19.792 8.852 19.792 19.792s-8.891 19.792-19.792 19.792h-228.461c-10.901 0-19.792-8.852-19.792-19.792s8.891-19.792 19.792-19.792zM772.585 225.473h-228.461c-10.901 0-19.792-8.852-19.792-19.792s8.891-19.792 19.792-19.792h228.461c10.901 0 19.792 8.852 19.792 19.792s-8.891 19.792-19.792 19.792zM368.004 449.865c-0.145 3.44-1.16 6.412-3.006 9.355-0.517 0.836-0.203 1.904-0.86 2.677-0.309 0.362-0.846 0.271-1.174 0.604-0.445 0.469-0.493 1.169-0.991 1.599l-104.296 89.915c-8.195 7.074-20.643 6.185-27.91-2.087-7.113-8.273-6.185-20.759 2.087-27.91l63.938-55.124h-173.722c-10.901 0-19.792-8.852-19.792-19.792s8.891-19.792 19.792-19.792h172.984l-63.044-53.346c-8.35-7.074-9.432-19.56-2.319-27.91 3.866-4.6 9.432-6.997 15.076-6.997 4.561 0 9.046 1.546 12.757 4.677l104.296 88.253c0.686 0.585 0.556 1.566 1.145 2.218 1.735 1.87 3.735 3.523 4.653 6.016 0.401 1.087-0.034 2.208 0.169 3.324 0.299 1.537 0.285 2.755 0.217 4.32z" />
<glyph unicode="&#xe934;" glyph-name="template" d="M892.221 848h-760.442c-10.904 0-19.798-8.855-19.798-19.798v-760.404c0-10.943 8.894-19.798 19.798-19.798h760.443c10.904 0 19.798 8.855 19.798 19.798v760.404c-0.001 10.943-8.894 19.798-19.799 19.798zM872.423 87.596h-720.846v720.808h720.847v-720.808zM269.978 197.645h208.884c10.904 0 19.798 8.855 19.798 19.798v465.6c0 10.943-8.894 19.798-19.798 19.798h-208.884c-10.904 0-19.798-8.855-19.798-19.798v-465.6c0-10.943 8.893-19.798 19.798-19.798zM289.776 663.245h169.288v-426.004h-169.288v426.004zM572.825 197.645h189.55c10.904 0 19.798 8.855 19.798 19.798v183.401c0 10.943-8.894 19.798-19.798 19.798h-189.55c-10.904 0-19.798-8.855-19.798-19.798v-183.402c0-10.942 8.893-19.797 19.798-19.797zM592.623 381.047h149.954v-143.806h-149.954v143.806zM572.825 479.804h189.55c10.904 0 19.798 8.855 19.798 19.798v183.44c0 10.943-8.894 19.798-19.798 19.798h-189.55c-10.904 0-19.798-8.855-19.798-19.798v-183.44c0-10.943 8.893-19.798 19.798-19.798zM592.623 663.245h149.954v-143.845h-149.954v143.845z" />
<glyph unicode="&#xe935;" glyph-name="background" d="M848.318 700.181h-817.831c-10.884 0-19.761-8.838-19.761-19.761s8.877-19.761 19.761-19.761h798.070v-573.138h-778.309v405.635c0 10.922-8.877 19.761-19.761 19.761s-19.761-8.838-19.761-19.761v-425.396c0-10.922 8.877-19.761 19.761-19.761h817.831c10.884 0 19.761 8.838 19.761 19.761v612.66c0 10.922-8.877 19.761-19.761 19.761zM993.513 848h-788.653c-10.884 0-19.761-8.838-19.761-19.761v-85.064c0-10.922 8.877-19.761 19.761-19.761s19.761 8.838 19.761 19.761v65.303h749.132v-625.897h-55.654c-10.884 0-19.761-8.838-19.761-19.761s8.877-19.761 19.761-19.761h75.415c10.884 0 19.761 8.838 19.761 19.761v665.419c-0.001 10.923-8.878 19.761-19.762 19.761zM664.374 389.914c58.201 0 105.596 47.395 105.596 105.635s-47.395 105.596-105.596 105.596c-58.279 0-105.673-47.356-105.673-105.596s47.394-105.635 105.673-105.635zM664.374 561.624c36.434 0 66.075-29.641 66.075-66.075 0-36.472-29.641-66.113-66.075-66.113-36.511 0-66.152 29.641-66.152 66.113 0 36.434 29.641 66.075 66.152 66.075zM348.357 427.66c-3.705 4.709-9.34 7.449-15.284 7.526-8.028 0.077-11.733-2.586-15.438-7.179l-208.337-252.604c-6.947-8.414-5.789-20.88 2.624-27.827 3.705-3.049 8.182-4.516 12.582-4.516 5.712 0 11.347 2.432 15.206 7.179l192.821 233.694 104.13-132.073c6.87-8.568 19.22-10.035 27.789-3.281s10.035 19.182 3.242 27.75l-119.335 151.331zM457.426 146.804c8.954-6.445 21.227-4.4 27.634 4.477l96.951 134.62 204.245-173.292c3.782-3.165 8.259-4.709 12.814-4.709 5.558 0 11.193 2.354 15.052 6.986 7.102 8.298 6.021 20.803-2.239 27.827l-220.609 187.147c-4.245 3.551-9.726 5.365-15.206 4.554-5.481-0.656-10.421-3.589-13.663-8.066l-109.456-151.988c-6.329-8.838-4.322-21.188 4.477-27.556z" />
<glyph unicode="&#xe936;" glyph-name="horizontal" d="M951.5 467.4h-879c-10.7 0-19.4-8.7-19.4-19.4s8.7-19.4 19.4-19.4h879.1c10.7 0 19.4 8.7 19.4 19.4s-8.7 19.4-19.5 19.4z" />
<glyph unicode="&#xe937;" glyph-name="date" d="M953.6 741h-130.5c-11 0-19.9-8.9-19.9-19.9s8.9-19.9 19.9-19.9h110.7v-127.8h-843.5v127.8h124.1c11 0 19.9 8.9 19.9 19.9s-8.9 19.9-19.9 19.9h-144c-11 0-19.9-8.9-19.9-19.9v-653.2c0-11 8.9-19.9 19.9-19.9h883.3c11 0 19.9 8.9 19.9 19.9v653.2c0 11-9 19.9-20 19.9zM90.3 87.8v445.7h843.4v-445.7h-843.4zM348.9 701.2h335.6c11 0 19.9 8.9 19.9 19.9s-8.9 19.9-19.9 19.9h-335.6c-11 0-19.9-8.9-19.9-19.9s8.9-19.9 19.9-19.9zM279.8 663.7c11 0 19.9 8.9 19.9 19.9v144.5c0 11-8.9 19.9-19.9 19.9s-19.9-8.9-19.9-19.9v-144.4c0-11.1 8.9-20 19.9-20zM751.3 663.7c11 0 19.9 8.9 19.9 19.9v144.5c0 11-8.9 19.9-19.9 19.9s-19.9-8.9-19.9-19.9v-144.4c0-11.1 8.9-20 19.9-20zM321.6 458.1c-11 0-19.9-8.9-19.9-19.9v-252.1c0-11 8.9-19.9 19.9-19.9s19.9 8.9 19.9 19.9v252.1c0.1 11-8.9 19.9-19.9 19.9zM702.4 418.3c11 0 19.9 8.9 19.9 19.9s-8.9 19.9-19.9 19.9h-224.9c-11 0-19.9-8.9-19.9-19.9v-113c0-11 8.9-19.9 19.9-19.9h204.9v-99.3h-204.9c-11 0-19.9-8.9-19.9-19.9s8.9-19.9 19.9-19.9h224.8c11 0 19.9 8.9 19.9 19.9v139.1c0 11-8.9 19.9-19.9 19.9h-204.9v73.2h205z" />
<glyph unicode="&#xe938;" glyph-name="time" d="M531.9 741v67.2h110c11 0 19.9 8.9 19.9 19.9s-8.9 19.9-19.9 19.9h-259.8c-11 0-19.9-8.9-19.9-19.9s8.9-19.9 19.9-19.9h110v-67.2c-80.7-4.6-154-36.9-210.7-87.4l-56.9 56.9c-7.8 7.8-20.4 7.8-28.1 0s-7.8-20.4 0-28.1l56.9-56.9c-54.7-61.3-88-142.1-88-230.6-0.1-191.3 155.5-346.9 346.7-346.9s346.7 155.6 346.7 346.8c0.1 184.5-144.8 335.8-326.8 346.2zM512 87.8c-169.3 0-307 137.7-307 307s137.7 307 307 307c169.3 0 307-137.7 307-307s-137.7-307-307-307zM701.3 414.7h-169.4v100.1c0 11-8.9 19.9-19.9 19.9s-19.9-8.9-19.9-19.9v-120c0-11 8.9-19.9 19.9-19.9h189.3c11 0 19.9 8.9 19.9 19.9s-8.9 19.9-19.9 19.9z" />
<glyph unicode="&#xe939;" glyph-name="spechars" d="M844.7 48h-152c-23.1 0-43.5 13.8-51.9 35.3-8.3 21.3-2.7 45.1 14.2 60.7 12.2 11.2 26.3 21.9 41.4 33.3 69.9 52.7 156.8 118.3 149.4 335.6-8.3 247.9-200.3 291.3-314 295.1h-40.3c-113-3.8-305-47.1-313.4-295.1-7.4-217.4 79.5-283 149.2-335.7 15-11.3 29.1-22 41.3-33.2 16.9-15.6 22.5-39.4 14.2-60.7-8.3-21.5-28.7-35.3-51.8-35.3h-152c-11.1 0-20 9-20 20s9 20 20 20h152c10 0 13.6 7.5 14.5 9.8 1.1 2.9 3 10.2-4 16.7-11.3 10.4-24.4 20.2-38.3 30.8-73.1 55.1-173.3 130.7-165.2 368.9 9.9 291 250 330.3 352.8 333.8h41.7c103.5-3.4 343.6-42.8 353.5-333.8 8.1-238.1-92.2-313.7-165.3-368.9-14-10.5-27.1-20.4-38.5-30.8-7-6.4-5.1-13.8-4-16.7 0.9-2.3 4.6-9.8 14.6-9.8h152c11.1 0 20-9 20-20s-9-20-20.1-20z" />
<glyph unicode="&#xe93a;" glyph-name="snap-screen" d="M748.5 167.7h-582v464.6c0 11.1-9 20-20 20s-20-9-20-20v-484.6c0-11.1 9-20 20-20h601.9c11.1 0 20 9 20 20s-8.9 20-19.9 20zM836.8 714.8h-778.6c-11.1 0-20-9-20-20s9-20 20-20h758.6v-606.8c0-11.1 9-20 20-20 11.1 0 20 9 20 20v626.8c0 11.1-9 20-20 20zM146.5 744.9c11.1 0 20 9 20 20v63c0 11.1-9 20-20 20s-20-9-20-20v-63c0-11 9-20 20-20zM965.8 167.7h-66.5c-11.1 0-20-9-20-20s9-20 20-20h66.5c11.1 0 20 9 20 20s-8.9 20-20 20z" />
<glyph unicode="&#xe93b;" glyph-name="select-all-old" d="M104.144 960l-104.144-104.144v-76.465l180.609 180.609zM324.566 960l-324.566-324.566v-76.465l401.031 401.031zM255.052 616.35l-7.71 46.132-247.342-247.469v-76.465l261.245 261.245c-1.896 5.687-5.182 10.49-6.193 16.557zM487.481 826.028l133.972 133.972h-76.465l-140.797-140.797c30.46 3.792 58.139 6.067 83.29 6.825zM210.184 338.548c0 27.047 5.056 53.083 12.26 78.487l-222.444-222.444v-76.465l211.195 211.195c-0.126 3.16-1.011 6.067-1.011 9.226zM672.766 790.892l169.108 169.108h-76.465l-148.001-148.001c19.717-5.435 38.043-12.512 55.358-21.107zM985.831 960l-231.797-231.67c10.617-12.639 20.854-27.932 30.207-46.258l239.759 239.633v38.296h-38.169zM239.759 213.928l-239.759-239.633v-38.296h38.169l231.544 231.544c-11.375 14.535-21.739 29.954-29.954 46.385zM347.316 101.063l-165.063-165.063h76.465l143.325 143.325c-19.59 5.308-37.917 12.386-54.726 21.739zM813.816 548.353l-0.126-57.38 210.311 210.437v76.465l-211.701-211.701c0.253-6.193 1.643-11.249 1.517-17.821zM601.862 86.15c-18.706-5.056-39.812-9.353-61.678-12.639l-137.637-137.511h76.465l146.611 146.611c-8.089 0.632-16.178 1.264-23.761 3.539zM813.058 270.045l210.942 210.942v76.465l-210.69-210.69zM699.434-64l324.566 324.566v76.465l-401.031-401.031zM919.856-64l104.144 104.144v76.465l-180.609-180.609zM350.349 702.42c53.842 9.353 110.843 16.557 158.491 16.557 110.843 0 198.809-46.511 196.787-168.729 0-129.422-1.011-230.28-1.011-360.839h-70.398v21.739c-44.489-18.579-102.501-34.251-152.172-34.251-36.274 0-70.398 7.204-97.319 27.932-46.637 35.262-66.228 84.933-66.228 133.593 0 76.718 51.819 153.309 121.207 169.866 51.819 10.364 103.512 13.524 144.968 13.524 16.557 0 34.251 0 50.808-1.011v29.449c1.011 67.365-55.864 98.33-126.389 98.33-47.648 0-98.33-7.204-147.116-14.535l-11.628 68.376zM634.218 288.877v161.525c-15.546 0-31.092 1.011-49.671 1.011-39.307 0-83.922-2.022-129.422-12.386-38.296-8.342-66.228-53.842-66.228-100.479 0-27.932 12.386-58.012 37.285-78.74 12.386-9.353 33.114-12.386 55.99-12.386 52.578 0 114.761 20.728 152.045 41.455z" />
<glyph unicode="&#xe93c;" glyph-name="95" d="M140 567.4h744c13.9 0 25.2-11.3 25.2-25.2s-11.3-25.2-25.2-25.2h-744c-13.9 0-25.2 11.3-25.2 25.2s11.3 25.2 25.2 25.2zM884 705.3h-466.1c-13.9 0-25.2 11.3-25.2 25.2s11.3 25.2 25.2 25.2h466.1c13.9 0 25.2-11.3 25.2-25.2s-11.3-25.2-25.2-25.2zM884 328.6h-466.1c-13.9 0-25.2 11.3-25.2 25.2s11.3 25.2 25.2 25.2h466.1c13.9 0 25.2-11.3 25.2-25.2s-11.3-25.2-25.2-25.2zM884 893.7h-744c-13.9 0-25.2 11.3-25.2 25.2s11.3 25.2 25.2 25.2h744c13.9 0 25.2-11.3 25.2-25.2 0-14-11.3-25.2-25.2-25.2zM884-48.1h-466.1c-13.9 0-25.2 11.3-25.2 25.2s11.3 25.2 25.2 25.2h466.1c13.9 0 25.2-11.3 25.2-25.2s-11.3-25.2-25.2-25.2zM884 140.3h-744c-13.9 0-25.2 11.3-25.2 25.2s11.3 25.2 25.2 25.2h744c13.9 0 25.2-11.3 25.2-25.2 0-14-11.3-25.2-25.2-25.2z" />
<glyph unicode="&#xe93d;" glyph-name="delete-table" d="M844.4-48.1h-811.4c-11.2 0-20.2 9-20.2 20.2v811.5c0 11.2 9 20.2 20.2 20.2h520.5c11.2 0 20.2-9 20.2-20.2s-9-20.2-20.2-20.2h-500.3v-771.1h771v492.9c0 11.2 9 20.2 20.2 20.2s20.2-9 20.2-20.2v-513.1c0-11.1-9-20.2-20.2-20.2zM609.5 560.5h-576.5c-11.2 0-20.2 9-20.2 20.2s9 20.2 20.2 20.2h576.5c11.2 0 20.2-9 20.2-20.2s-9.1-20.2-20.2-20.2zM844.4 357.6h-811.4c-11.2 0-20.2 9-20.2 20.2s9 20.2 20.2 20.2h811.4c11.2 0 20.2-9 20.2-20.2s-9-20.2-20.2-20.2zM844.4 154.8h-811.4c-11.2 0-20.2 9-20.2 20.2s9 20.2 20.2 20.2h811.4c11.2 0 20.2-9 20.2-20.2s-9-20.2-20.2-20.2zM573.9-33.9c-11.2 0-20.2 9-20.2 20.2v582.6c0 11.2 9 20.2 20.2 20.2s20.2-9 20.2-20.2v-582.6c0-11.2-9-20.2-20.2-20.2zM33-33.9c-11.2 0-20.2 9-20.2 20.2v582.6c0 11.2 9 20.2 20.2 20.2s20.2-9 20.2-20.2v-582.6c0-11.2-9.1-20.2-20.2-20.2zM303.4-33.9c-11.2 0-20.2 9-20.2 20.2v582.6c0 11.2 9 20.2 20.2 20.2s20.2-9 20.2-20.2v-582.6c0-11.2-9-20.2-20.2-20.2zM810.3 542.3c110.8 0 200.9 90.1 200.9 200.9s-90.1 200.9-200.9 200.9-200.8-90.1-200.8-200.9 90.1-200.9 200.8-200.9zM810.3 903.7c88.5 0 160.5-72 160.5-160.5s-72-160.5-160.5-160.5-160.5 72-160.5 160.5 72.1 160.5 160.5 160.5zM736 669.1c3.9-3.9 9.1-5.9 14.3-5.9s10.3 2 14.3 5.9l45.8 45.8 45.8-45.8c3.9-3.9 9.1-5.9 14.3-5.9s10.3 2 14.3 5.9c7.9 7.9 7.9 20.7 0 28.6l-45.8 45.8 45.8 45.8c7.9 7.9 7.9 20.7 0 28.6s-20.7 7.9-28.6 0l-45.9-45.9-45.8 45.8c-7.9 7.9-20.7 7.9-28.6 0s-7.9-20.7 0-28.6l45.8-45.8-45.7-45.7c-7.9-7.9-7.9-20.7 0-28.6z" />
<glyph unicode="&#xe93e;" glyph-name="insert-paragraph-before-table" d="M632.859 854.592h-612.529c-11.283 0-20.33-9.047-20.33-20.33v-183.373c0-11.283 9.047-20.33 20.33-20.33h612.529c11.283 0 20.33 9.047 20.33 20.33v183.373c0 11.283-9.047 20.33-20.33 20.33zM40.659 813.933h265.606v-142.714h-265.606v142.714zM346.924 813.933h265.606v-142.714h-265.606v142.714zM1003.67 648.552h-310.839c-11.283 0-20.33-9.047-20.33-20.33v-183.373c0-11.283 9.047-20.33 20.33-20.33h310.839c11.283 0 20.33 9.047 20.33 20.33v183.373c0 11.283-9.148 20.33-20.33 20.33zM713.161 465.179v142.714h270.18v-142.714h-270.18zM632.859 448.916h-612.529c-11.283 0-20.33-9.047-20.33-20.33v-366.847c0-11.283 9.047-20.33 20.33-20.33h612.529c11.283 0 20.33 9.047 20.33 20.33v366.847c0 11.283-9.047 20.33-20.33 20.33zM612.53 265.442h-265.606v142.815h265.606v-142.815zM306.265 408.257v-142.815h-265.606v142.815h265.606zM40.659 224.782h265.606v-142.714h-265.606v142.714zM346.924 224.782h265.606v-142.714h-265.606v142.714zM632.859 563.066h-178.494l22.769 19.618c8.538 7.319 9.453 20.126 2.135 28.665-7.42 8.538-20.228 9.352-28.665 2.135l-64.14-55.398c-0.203-0.203-0.407-0.407-0.61-0.508-0.102-0.102-0.305-0.203-0.407-0.407-0.203-0.203-0.407-0.508-0.712-0.712-0.203-0.203-0.407-0.407-0.61-0.61-3.863-4.473-5.286-10.165-4.676-15.654 0 0 0-0.102 0-0.102 0.305-2.033 0.813-4.066 1.728-5.896 0 0 0 0 0 0 0.203-0.508 0.407-0.915 0.712-1.321 0 0 0 0 0-0.102 0.712-1.321 1.626-2.541 2.643-3.659 0 0 0-0.102 0.102-0.102 0.305-0.305 0.61-0.61 0.915-0.915 0.102-0.102 0.203-0.203 0.407-0.305 0.203-0.203 0.407-0.407 0.61-0.61l64.14-54.28c3.863-3.253 8.538-4.777 13.113-4.777 5.794 0 11.486 2.44 15.552 7.217 7.217 8.538 6.201 21.448-2.338 28.665l-21.753 18.398h177.68c11.283 0 20.33 9.047 20.33 20.33s-9.148 20.33-20.431 20.33z" />
<glyph unicode="&#xe93f;" glyph-name="insert-row" d="M378.604 448.59h-355.015c-12.974 0-23.589-10.497-23.589-23.589v-425.192c0-12.974 10.497-23.589 23.589-23.589h355.015c12.974 0 23.589 10.497 23.589 23.589v425.192c0 13.092-10.615 23.589-23.589 23.589zM355.015 401.412v-165.477h-307.955v165.477h307.955zM355.015 23.397h-307.955v165.359h307.955v-165.359zM1000.411 448.59h-355.015c-12.974 0-23.589-10.497-23.589-23.589v-425.192c0-12.974 10.497-23.589 23.589-23.589h355.015c12.974 0 23.589 10.497 23.589 23.589v425.192c0 13.092-10.497 23.589-23.589 23.589zM976.94 401.412v-165.477h-307.837v165.477h307.837zM668.985 188.756h307.837v-165.359h-307.837v165.359zM649.052 535.987v360.205c0 12.974-10.497 23.589-23.589 23.589h-212.537c-12.974 0-23.589-10.497-23.589-23.589v-360.323c0-12.974 10.497-23.589 23.589-23.589h212.537c13.092 0.118 23.589 10.615 23.589 23.707zM601.992 559.458h-165.477v313.144h165.477v-313.144zM590.198 288.538c-9.907 8.374-24.768 7.077-33.261-2.713l-21.23-25.358v205.932c0 12.974-10.497 23.589-23.589 23.589-12.974 0-23.589-10.497-23.589-23.589v-206.876l-22.763 26.42c-8.374 9.907-23.471 10.851-33.261 2.477-9.907-8.492-10.969-23.353-2.477-33.261l64.162-74.423c0.236-0.236 0.354-0.354 0.59-0.59s0.472-0.472 0.708-0.708c0.354-0.354 0.59-0.59 0.944-0.944 0.118-0.118 0.236-0.236 0.472-0.354 0.118-0.118 0.354-0.236 0.472-0.354 0.354-0.236 0.59-0.472 0.944-0.708 0.236-0.118 0.354-0.236 0.59-0.354 0.472-0.354 0.944-0.59 1.415-0.944 0.118-0.118 0.236-0.118 0.354-0.236 0.472-0.236 0.944-0.472 1.415-0.708 0.118 0 0.236-0.118 0.354-0.118 0.472-0.236 1.062-0.472 1.533-0.59 0.118-0.118 0.354-0.118 0.472-0.236 0.472-0.236 1.062-0.354 1.533-0.472 0.118 0 0.236-0.118 0.472-0.118 0.472-0.118 0.944-0.236 1.415-0.354 0.118 0 0.236 0 0.354-0.118 0.59-0.118 1.179-0.118 1.651-0.236 0.118 0 0.236 0 0.354 0 0.59 0 1.179-0.118 1.769-0.118 0.826 0 1.533 0 2.359 0.118 0.118 0 0.354 0 0.472 0.118 0.59 0.118 1.297 0.118 1.887 0.354 0.236 0 0.354 0.118 0.59 0.118 0.59 0.118 1.179 0.236 1.651 0.472 0.236 0.118 0.59 0.118 0.826 0.236 0.118 0 0.236 0.118 0.472 0.118 0.354 0.118 0.708 0.236 1.062 0.472 0.236 0.118 0.59 0.236 0.826 0.354 0.59 0.236 1.062 0.59 1.651 0.826 0.354 0.236 0.59 0.354 0.944 0.59s0.59 0.354 0.944 0.59c0.354 0.236 0.59 0.472 0.944 0.708 0.472 0.354 0.944 0.826 1.415 1.179 0.354 0.236 0.59 0.59 0.826 0.826s0.472 0.472 0.708 0.708c0.236 0.236 0.354 0.354 0.59 0.59l62.865 74.423c8.374 9.907 7.077 24.768-2.831 33.261z" />
<glyph unicode="&#xe940;" glyph-name="delete-row" d="M919 483.3c-13.5 0-24.5-10.9-24.5-24.5v-458h-822.5v822.7h418.2c13.5 0 24.5 10.9 24.5 24.5s-10.9 24.5-24.5 24.5h-442.7c-13.5-0.1-24.5-11-24.5-24.6v-871.5c0-13.5 10.9-24.5 24.5-24.5h871.5c13.5 0 24.5 10.9 24.5 24.5v482.5c-0.1 13.5-11 24.4-24.5 24.4zM841.6 348.9c0 13.5-10.9 24.5-24.5 24.5h-32.6c-13.5 0-24.5-10.9-24.5-24.5 0-13.5 10.9-24.5 24.5-24.5h8.1v-73.4c0-13.5 10.9-24.5 24.5-24.5s24.5 10.9 24.5 24.5v97.9zM319.6 348.9c0 13.5-10.9 24.5-24.5 24.5h-97.9c-13.5 0-24.5-10.9-24.5-24.5 0-13.5 10.9-24.5 24.5-24.5h97.9c13.5 0.1 24.5 11 24.5 24.5zM179.4 81.3h97.9c13.5 0 24.5 10.9 24.5 24.5 0 13.5-10.9 24.5-24.5 24.5h-97.9c-13.5 0-24.5-10.9-24.5-24.5s10.9-24.5 24.5-24.5zM817.2 177.6c-13.5 0-24.5-10.9-24.5-24.5v-22.9h-26c-13.5 0-24.5-10.9-24.5-24.5 0-13.5 10.9-24.5 24.5-24.5h50.5c13.5 0 24.5 10.9 24.5 24.5v47.4c-0.1 13.6-11 24.5-24.5 24.5zM138.6 187.3c0-13.5 10.9-24.5 24.5-24.5s24.5 10.9 24.5 24.5v97.9c0 13.5-10.9 24.5-24.5 24.5s-24.5-10.9-24.5-24.5v-97.9zM711.1 348.9c0 13.5-10.9 24.5-24.5 24.5h-97.9c-13.5 0-24.5-10.9-24.5-24.5 0-13.5 10.9-24.5 24.5-24.5h97.9c13.6 0.1 24.5 11 24.5 24.5zM570.9 81.3h97.9c13.5 0 24.5 10.9 24.5 24.5 0 13.5-10.9 24.5-24.5 24.5h-97.9c-13.5 0-24.5-10.9-24.5-24.5s11-24.5 24.5-24.5zM375.1 81.3h97.9c13.5 0 24.5 10.9 24.5 24.5 0 13.5-10.9 24.5-24.5 24.5h-97.9c-13.5 0-24.5-10.9-24.5-24.5 0.1-13.6 11-24.5 24.5-24.5zM515.4 348.9c0 13.5-10.9 24.5-24.5 24.5h-97.9c-13.5 0-24.5-10.9-24.5-24.5 0-13.5 10.9-24.5 24.5-24.5h97.9c13.5 0.1 24.5 11 24.5 24.5zM757.6 457.3c134.2 0 243.4 109.2 243.4 243.4s-109.2 243.4-243.4 243.4-243.4-109.2-243.4-243.4 109.2-243.4 243.4-243.4zM757.6 895.1c107.2 0 194.4-87.2 194.4-194.4s-87.2-194.4-194.4-194.4-194.4 87.2-194.4 194.4 87.2 194.4 194.4 194.4zM667.6 611c4.8-4.8 11-7.2 17.3-7.2s12.5 2.4 17.3 7.2l55.4 55.5 55.4-55.5c4.8-4.8 11-7.2 17.3-7.2s12.5 2.4 17.3 7.2c9.6 9.6 9.6 25 0 34.6l-55.4 55.4 55.5 55.5c9.6 9.6 9.6 25 0 34.6s-25 9.6-34.6 0l-55.5-55.5-55.4 55.5c-9.6 9.6-25 9.6-34.6 0s-9.6-25 0-34.6l55.4-55.5-55.5-55.5c-9.5-9.5-9.5-25 0.1-34.5zM757.6 457.3h-582.2c-20.3 0-36.8 17.2-36.8 38.4v196.9c0 21.2 16.5 38.4 36.8 38.4h363l72.4-200.9 146.8-72.8z" />
<glyph unicode="&#xe941;" glyph-name="delete-col" d="M523 59.9h-464.6v834.5h834.4v-424.2c0-13.7 11.1-24.8 24.8-24.8s24.8 11.1 24.8 24.8v449.1c0 13.7-11.1 24.8-24.8 24.8h-884c-13.7 0-24.8-11.1-24.8-24.8v-884.1c0-13.7 11.1-24.8 24.8-24.8h489.4c13.7 0 24.8 11.1 24.8 24.8s-11.1 24.7-24.8 24.7zM139.9 138.4c0-13.7 11.1-24.8 24.8-24.8h48.1c13.7 0 24.8 11.1 24.8 24.8s-11.1 24.8-24.8 24.8h-23.3v26.3c0 13.7-11.1 24.8-24.8 24.8s-24.8-11.1-24.8-24.8v-51.1zM139.9 288.8c0-13.7 11.1-24.8 24.8-24.8s24.8 11.1 24.8 24.8v99.3c0 13.7-11.1 24.8-24.8 24.8s-24.8-11.1-24.8-24.8v-99.3zM139.9 487.4c0-13.7 11.1-24.8 24.8-24.8s24.8 11.1 24.8 24.8v99.3c0 13.7-11.1 24.8-24.8 24.8s-24.8-11.1-24.8-24.8v-99.3zM164.8 661.2c13.7 0 24.8 11.1 24.8 24.8v99.3c0 13.7-11.1 24.8-24.8 24.8s-24.8-11.1-24.8-24.8v-99.3c-0.1-13.7 11.1-24.8 24.8-24.8zM346.8 777.1c13.7 0 24.8 11.1 24.8 24.8s-11.1 24.8-24.8 24.8h-99.3c-13.7 0-24.8-11.1-24.8-24.8s11.1-24.8 24.8-24.8h99.3zM436.4 568.8c0 13.7-11.1 24.8-24.8 24.8s-24.8-11.1-24.8-24.8v-99.3c0-13.7 11.1-24.8 24.8-24.8s24.8 11.1 24.8 24.8v99.3zM312.2 113.5h99.3c13.7 0 24.8 11.1 24.8 24.8v33.2c0 13.7-11.1 24.8-24.8 24.8s-24.8-11.1-24.8-24.8v-8.3h-74.5c-13.7 0-24.8-11.1-24.8-24.8s11.1-24.9 24.8-24.9zM436.4 767.4c0 13.7-11.1 24.8-24.8 24.8s-24.8-11.1-24.8-24.8v-99.3c0-13.7 11.1-24.8 24.8-24.8s24.8 11.1 24.8 24.8v99.3zM436.4 370.2c0 13.7-11.1 24.8-24.8 24.8s-24.8-11.1-24.8-24.8v-99.3c0-13.7 11.1-24.8 24.8-24.8s24.8 11.1 24.8 24.8v99.3zM768.3 445.7c-136.2 0-246.9-110.7-246.9-246.9 0-136.1 110.7-246.9 246.9-246.9s246.9 110.7 246.9 246.9c0 136.1-110.7 246.9-246.9 246.9zM768.3 1.6c-108.8 0-197.3 88.4-197.3 197.2s88.6 197.2 197.3 197.2 197.3-88.5 197.3-197.3-88.5-197.1-197.3-197.1zM860.1 290.2c-9.7 9.7-25.4 9.7-35.1 0l-56.3-56.3-56.3 56.3c-9.7 9.7-25.4 9.7-35.1 0s-9.7-25.4 0-35.1l56.3-56.3-56.3-56.3c-9.7-9.7-9.7-25.4 0-35.1 4.8-4.8 11.2-7.3 17.6-7.3s12.7 2.4 17.6 7.3l56.3 56.3 56.3-56.3c4.8-4.8 11.2-7.3 17.6-7.3s12.7 2.4 17.6 7.3c9.7 9.7 9.7 25.4 0 35.1l-56.3 56.3 56.3 56.3c9.5 9.7 9.5 25.4-0.2 35.1zM521.4 205.1v590.6c0 20.6 17.4 37.4 38.9 37.4h199.7c21.5 0 38.9-16.7 38.9-37.4v-368.3l-203.6-73.4-73.9-148.9z" />
<glyph unicode="&#xe942;" glyph-name="merge-cells" d="M908.8 848h-793.6c-11.1 0-20-9-20-20v-760c0-11.1 9-20 20-20h793.6c11.1 0 20 9 20 20v760c0 11-9 20-20 20zM888.7 674.9h-266.3v133h266.3v-133zM322 807.9h260.4v-133h-266.3v133h5.9zM135.3 634.8h140.7v-253.3h-140.7v253.3zM276 807.9v-133h-140.7v133h140.7zM135.3 341.4h140.7v-253.3h-140.7v253.3zM888.7 88.1h-572.6v546.7h572.6v-546.7z" />
<glyph unicode="&#xe943;" glyph-name="merge-right-cell" d="M984.2 924.1h-944.4c-13.2 0-23.8-10.7-23.8-23.8v-904.4c0-13.2 10.7-23.8 23.8-23.8h944.5c13.2 0 23.8 10.7 23.8 23.8v904.3c0 13.2-10.7 23.9-23.9 23.9zM619.6 670.3h125.6v-114c0-13.2 10.7-23.8 23.8-23.8 13.2 0 23.8 10.7 23.8 23.8v114h167.5v-444.7h-167.4v112.7c0 13.2-10.7 23.8-23.8 23.8-13.2 0-23.8-10.7-23.8-23.8v-112.6h-466.5v444.6h340.8zM231.1 225.7h-167.5v444.6h167.5v-444.6zM63.6 178h167.5v-158.3h-167.5v158.3zM278.8 178h466.4v-158.3h-466.4v158.3zM792.9 178h167.5v-158.3h-167.5v158.3zM960.4 718h-167.5v158.3h167.5v-158.3zM285.9 876.4h459.3v-158.4h-466.4v158.3h7.1zM231.1 876.4v-158.4h-167.5v158.3h167.5zM495.5 424.8h209.4l-26.7-23c-10-8.6-11.1-23.7-2.5-33.6 4.8-5.5 11.4-8.3 18.1-8.3 5.5 0 11.1 1.9 15.6 5.8l75.3 64.9c0.6 0.5 0.7 1.4 1.2 2 0.4 0.4 1 0.2 1.4 0.7 0.8 1 0.4 2.3 1.1 3.4 2.1 3.5 3.4 7 3.5 11 0.1 1.9 0.1 3.5-0.3 5.4-0.2 1.3 0.3 2.6-0.2 3.9-1.1 2.9-3.4 4.8-5.5 7-0.8 0.9-0.6 2.1-1.5 2.9l-75.3 63.7c-10.1 8.3-25.1 7.2-33.6-2.8-8.5-10.1-7.3-25.1 2.8-33.6l25.5-21.6h-208.3c-13.2 0-23.8-10.7-23.8-23.8-0.1-13.4 10.6-24 23.8-24z" />
<glyph unicode="&#xe944;" glyph-name="merge-down-cell" d="M908.8 848h-793.6c-11.1 0-20-9-20-20v-760c0-11.1 9-20 20-20h793.6c11.1 0 20 9 20 20v760c0 11-8.9 20-20 20zM888.8 88.1h-140.8v133h140.7v-133zM276 261.2h-140.8v373.6h140.8v-373.6zM135.2 221.1h140.8v-133h-140.8v133zM316 221.1h99c11.1 0 20 9 20 20 0 11.1-9 20-20 20h-99v373.7h392v-373.6h-105.6c-11.1 0-20-9-20-20 0-11.1 9-20 20-20h105.5v-133h-391.9v132.9zM888.8 261.2h-140.8v373.6h140.7v-373.6zM888.8 674.9h-140.8v133h140.7v-133zM322 807.9h385.9v-133h-391.9v133h6zM276 807.9v-133h-140.8v133h140.8zM579 317.5c-8.4 7.1-21.1 6-28.3-2.3l-18.2-21.5v175.1c0 11.1-9 20-20 20-11.1 0-20-9-20-20v-175.9l-19.3 22.4c-7.2 8.4-19.9 9.2-28.3 2.1-8.4-7.2-9.3-19.9-2.1-28.3l54.5-63.2c0.1-0.1 0.2-0.2 0.3-0.3 0.3-0.3 0.6-0.6 0.9-0.9 0.2-0.2 0.5-0.4 0.7-0.6 0.1-0.1 0.3-0.3 0.4-0.4s0.3-0.2 0.4-0.3 0.5-0.4 0.8-0.6c0.2-0.1 0.3-0.2 0.5-0.3 0.4-0.3 0.8-0.5 1.2-0.8 0.1-0.1 0.2-0.1 0.3-0.2 0.4-0.2 0.8-0.4 1.2-0.6 0.1 0 0.2-0.1 0.3-0.1 0.4-0.2 0.9-0.4 1.3-0.5 0.1-0.1 0.3-0.1 0.4-0.2 0.4-0.2 0.9-0.3 1.3-0.4 0.1 0 0.2-0.1 0.3-0.1 0.4-0.1 0.8-0.2 1.2-0.3 0.1 0 0.2 0 0.4-0.1 0.5-0.1 1-0.1 1.4-0.2 0.1 0 0.2 0 0.4 0 0.5 0 1-0.1 1.5-0.1s1 0 1.5 0.1c0.1 0 0.3 0 0.4 0 0.4 0 0.9 0.1 1.3 0.2 0.2 0 0.4 0.1 0.6 0.1 0.3 0.1 0.7 0.1 1 0.2 0.2 0.1 0.4 0.1 0.6 0.2 0.5 0.1 0.9 0.3 1.4 0.4 0 0 0.1 0 0.1 0s0 0 0.1 0c3.1 1.2 6 3.1 8.3 5.8l53.5 63.2c7.2 8.6 6.1 21.2-2.3 28.4z" />
<glyph unicode="&#xe945;" glyph-name="split-to-cells" d="M303.7 848h-204.1c-11.1 0-20-8.9-20-20v-180.4c0-11.1 8.9-20 20-20h204.1c11.1 0 20 8.9 20 20v180.4c0 11.1-8.9 20-20 20zM283.7 667.6h-164.1v140.4h164.1v-140.4zM303.7 558.2h-204.1c-11.1 0-20-8.9-20-20v-180.4c0-11.1 8.9-20 20-20h204.1c11.1 0 20 8.9 20 20v180.4c0 11-8.9 20-20 20zM283.7 377.8h-164.1v140.4h164.1v-140.4zM303.7 268.4h-204.1c-11.1 0-20-8.9-20-20v-180.4c0-11.1 8.9-20 20-20h204.1c11.1 0 20 8.9 20 20v180.4c0 11.1-8.9 20-20 20zM283.7 88h-164.1v140.4h164.1v-140.4zM614 848h-204c-11.1 0-20-8.9-20-20v-180.4c0-11.1 8.9-20 20-20h204c11.1 0 20 8.9 20 20v180.4c0 11.1-8.9 20-20 20zM594 667.6h-164v140.4h164v-140.4zM614 558.2h-204c-11.1 0-20-8.9-20-20v-180.4c0-11.1 8.9-20 20-20h204c11.1 0 20 8.9 20 20v180.4c0 11-8.9 20-20 20zM594 377.8h-164v140.4h164v-140.4zM614 268.4h-204c-11.1 0-20-8.9-20-20v-180.4c0-11.1 8.9-20 20-20h204c11.1 0 20 8.9 20 20v180.4c0 11.1-8.9 20-20 20zM594 88h-164v140.4h164v-140.4zM924.4 848h-204.1c-11.1 0-20-8.9-20-20v-180.4c0-11.1 8.9-20 20-20h204.1c11.1 0 20 8.9 20 20v180.4c0 11.1-9 20-20 20zM904.4 667.6h-164.1v140.4h164.1v-140.4zM924.4 558.2h-204.1c-11.1 0-20-8.9-20-20v-180.4c0-11.1 8.9-20 20-20h204.1c11.1 0 20 8.9 20 20v180.4c0 11-9 20-20 20zM904.4 377.8h-164.1v140.4h164.1v-140.4zM924.4 268.4h-204.1c-11.1 0-20-8.9-20-20v-180.4c0-11.1 8.9-20 20-20h204.1c11.1 0 20 8.9 20 20v180.4c0 11.1-9 20-20 20zM904.4 88h-164.1v140.4h164.1v-140.4z" />
<glyph unicode="&#xe946;" glyph-name="split-to-rows" d="M908.8 848h-793.6c-11.1 0-20-9-20-20v-760c0-11.1 9-20 20-20h793.5c11.1 0 20 9 20 20v760c0.1 11-8.9 20-19.9 20zM325.2 261.2v166.8h72.7c11.1 0 20 9 20 20 0 11.1-9 20-20 20h-72.7v166.8h373.6v-166.8h-60.4c-11.1 0-20-9-20-20 0-11.1 9-20 20-20h60.4v-166.8h-373.6zM698.8 221.1v-133h-373.6v133h373.6zM135.3 634.8h149.9v-373.6h-149.9v373.6zM325.2 674.9v133h373.6v-133h-373.6zM738.9 634.8h149.9v-373.6h-149.9v373.6zM888.7 674.9h-149.8v133h149.9v-133zM285.1 807.9v-133h-149.8v133h149.8zM135.3 221.1h149.9v-133h-149.9v133zM738.9 88.1v133h149.9v-133h-149.9zM558.2 468h-80.2c-11.1 0-20-9-20-20 0-11.1 9-20 20-20h80.2c11.1 0 20 9 20 20 0.1 11.1-8.9 20-20 20z" />
<glyph unicode="&#xe947;" glyph-name="split-to-cols" d="M908.8 848h-793.6c-11.1 0-20-9-20-20v-760c0-11.1 9-20 20-20h793.5c11.1 0 20 9 20 20v760c0.1 11-8.9 20-19.9 20zM698.8 222.4v-134.3h-373.6v134.3h373.6zM530.3 262.4v74.5c0 11.1-9 20-20 20-11.1 0-20-9-20-20v-74.5h-165v373.6h165v-58.7c0-11.1 9-20 20-20 11.1 0 20 9 20 20v58.7h168.5v-373.6h-168.5zM135.3 636h149.9v-373.6h-149.9v373.6zM325.2 676.1v131.8h373.6v-131.8h-373.6zM738.9 636h149.9v-373.6h-149.9v373.6zM888.7 676.1h-149.8v131.8h149.9v-131.8zM285.1 807.9v-131.8h-149.8v131.8h149.8zM135.3 222.4h149.9v-134.3h-149.9v134.3zM738.9 88.1v134.3h149.9v-134.3h-149.9zM510.2 517.3c-11.1 0-20-9-20-20v-80.2c0-11.1 9-20 20-20 11.1 0 20 9 20 20v80.2c0.1 11-8.9 20-20 20z" />
<glyph unicode="&#xe948;" glyph-name="charts" d="M908.8 688.2h-190.1c-11.1 0-20-9-20-20v-600.2c0-11.1 9-20 20-20h190.1c11.1 0 20 9 20 20v600.1c0 11.1-9 20.1-20 20.1zM888.7 88.1h-150v560h150v-560zM601.1 848h-190.1c-11.1 0-20-9-20-20v-760c0-11.1 9-20 20-20h190.1c11.1 0 20 9 20 20v760c0 11-8.9 20-20 20zM581.1 88.1h-150.1v719.8h150v-719.8zM305.3 361.9h-190.1c-11.1 0-20-9-20-20v-273.9c0-11.1 9-20 20-20h190.1c11.1 0 20 9 20 20v273.9c0.1 11.1-8.9 20-20 20zM285.3 88.1h-150v233.8h150v-233.8z" />
<glyph unicode="&#xe949;" glyph-name="print" d="M906.2 686.2h-169.4v141.9c0 11-8.9 19.9-19.9 19.9h-409.8c-11 0-19.9-8.9-19.9-19.9v-141.9h-169.4c-11 0-19.9-8.9-19.9-19.9v-438.5c0-11 8.9-19.9 19.9-19.9h169.3v-139.9c0-11 8.9-19.9 19.9-19.9h409.9c11 0 19.9 8.9 19.9 19.9v139.8h169.3c11 0 19.9 8.9 19.9 19.9v438.6c0.1 11-8.8 19.9-19.8 19.9zM327 808.2h370v-122h-370v122zM697 87.8h-370v339.3h370v-339.3zM886.3 247.6h-149.5v199.4c0 11-8.9 19.9-19.9 19.9h-409.8c-11 0-19.9-8.9-19.9-19.9v-199.4h-149.5v398.7h748.6v-398.7zM406.8 331.2h84.4c11 0 19.9 8.9 19.9 19.9s-8.9 19.9-19.9 19.9h-84.4c-11 0-19.9-8.9-19.9-19.9s8.9-19.9 19.9-19.9zM616.5 276.3h-209.7c-11 0-19.9-8.9-19.9-19.9s8.9-19.9 19.9-19.9h209.8c11 0 19.9 8.9 19.9 19.9-0.1 11-9 19.9-20 19.9zM586.8 181.7h-180c-11 0-19.9-8.9-19.9-19.9s8.9-19.9 19.9-19.9h180c11 0 19.9 8.9 19.9 19.9s-8.9 19.9-19.9 19.9z" />
<glyph unicode="&#xe94a;" glyph-name="preview" d="M964.8 848h-905.6c-11 0-19.9-8.9-19.9-19.9v-760.2c0-11 8.9-19.9 19.9-19.9h905.5c11 0 19.9 8.9 19.9 19.9v760.2c0.1 11-8.8 19.9-19.8 19.9zM944.8 87.8h-865.6v720.4h865.7v-720.4zM512 285.9c89.4 0 162.1 72.7 162.1 162.1s-72.7 162.1-162.1 162.1-162.1-72.7-162.1-162.1c0-89.4 72.7-162.1 162.1-162.1zM512 570.3c67.4 0 122.3-54.8 122.3-122.3s-54.9-122.3-122.3-122.3-122.3 54.9-122.3 122.3 54.9 122.3 122.3 122.3zM512 189.5c215 0 384.3 236.9 391.4 247 4.8 6.9 4.8 16.1 0 22.9-7.1 10.1-176.4 247-391.4 247s-384.3-236.9-391.5-247c-4.8-6.9-4.8-16.1 0-22.9 7.2-10 176.5-247 391.5-247zM512 666.6c168.9 0 314.1-172.1 350.2-218.6-36.1-46.5-181.1-218.6-350.2-218.6-168.8 0-314.1 172.1-350.2 218.7 36.1 46.5 181.4 218.5 350.2 218.5z" />
<glyph unicode="&#xe94b;" glyph-name="searchreplace" d="M305.5 367.2c-51 2.8-93.9-35.4-96.9-85.8-1.5-24.4 6.6-47.9 22.8-66.2s38.6-29.2 63-30.7c1.9-0.1 3.8-0.2 5.7-0.2 22.3 0 43.6 8 60.5 23 18.3 16.2 29.2 38.5 30.7 63 3 50.3-35.5 93.8-85.8 96.9zM333.9 237.5c-10.2-9.1-23-14.1-37.1-12.8-13.6 0.8-26.2 7-35.3 17.2-9.1 10.3-13.6 23.4-12.8 37.1 1.7 27.2 24.3 48.1 51.2 48.1 1 0 2.1 0 3.1-0.1 28.2-1.7 49.7-26.1 48-54.3-0.8-13.7-6.9-26.2-17.1-35.2zM939.6 347.1c-0.2 0.9 0.3 1.7 0 2.6l-8.5 20c-1.4 3-2.4 6.2-3.9 9.1l-93.2 218.6c-0.1 0.4 0.2 0.8 0 1.2l-65 164c-13.3 34.9-47.5 66.8-85.1 79.3-46.7 15.5-111-2.4-127.9-10.3-12.8-6-30.9-21.7-44-41.7-13.2 20.1-31.2 35.7-44 41.7-16.8 7.9-81.1 25.8-127.9 10.3-37.7-12.5-71.9-44.4-85-79.1l-65-164.3c-0.1-0.3 0.1-0.7 0-1l-93.4-219.1c-1.9-3.8-3.3-7.8-5-11.6l-7.2-17c-0.4-0.9 0.2-1.7 0-2.6-6.1-18.5-10.7-37.5-11.9-57.4-7.7-125.4 88-233.7 213.4-241.4 4.7-0.3 9.4-0.4 14-0.4 47.5 0 91.7 15.3 128.5 40.7v0h164.8c0.5 0 0.8 0.5 1.3 0.5 37-25.7 81.4-41.2 129.2-41.2 4.6 0 9.4 0.2 14 0.4 125.4 7.7 221.1 115.9 213.5 241.3-1.1 20.2-5.7 39.1-11.7 57.4zM230.4 589.4c10.4 26.7 43.1 69.7 77.3 80.8 41.2 13.3 111.8-2.2 129.4-12.1 21.6-12.1 52-46.4 50.4-73.8v-180.8c-5.4 7.9-10.4 16-16.9 23.3-40.3 45.5-96 72.7-156.7 76.4-48.5 3.1-95.1-9.8-135.1-35.3l51.6 121.5zM512 195.5c9.4-24.6 22.6-46.9 39.3-66.6h-78.6c16.7 19.6 29.9 42 39.3 66.6zM536.5 403.4l-0.1 157.5c0 0 0 0 0 0.1v24.8c-1.4 26.2 28.8 60.3 50.4 72.4 17.6 9.8 88.4 25.2 129.3 12.1 34.3-11.1 67-54.1 77.6-81.4l51.5-120.8c-39 24.6-85.5 38.2-135.1 35.3-72.9-4.6-135.2-43.8-173.6-100zM573 795.1c12.4 5.8 65.6 19.6 98.1 8.6 30.8-10.2 52.8-35.9 60.3-55.7l20.5-51.8c-7.6 4.6-15.1 9.6-23.3 12.2-52.7 17.1-134.5-0.1-161.3-15.2-9.7-5.4-20.4-14.5-30.8-24.9v74.1c-1.3 21.1 23.3 46.5 36.5 52.7zM292.6 748.3c7.4 19.5 29.4 45.2 60.2 55.4 32.7 11 85.7-2.8 98-8.5 13.3-6.3 37.9-31.7 36.6-54v-72.9c-10.4 10.5-21.1 19.6-30.7 25-26.9 15-108.6 32.2-161.4 15.1-8.2-2.6-15.7-7.6-23.3-12.2l20.6 52.1zM288.4 88.6c-103.2 6.3-182 95.4-175.7 198.7 1.3 21.6 6.9 41.9 14.8 60.8l4.9 11.5c31 61.8 94.9 103.8 167.4 103.8 3.8 0 7.7-0.1 11.5-0.4 50-3.1 95.8-25.4 129-62.9s49.8-85.7 46.8-135.7c-6.3-103.2-94.5-181.5-198.7-175.8zM735.5 88.6c-104.2-5.7-192.3 72.6-198.7 175.8-6.3 103.2 72.5 192.3 175.8 198.7 76.6 4.2 145.6-38.2 178.5-102.6l3.3-7.8c9.2-20.1 15.4-42 16.8-65.4 6.4-103.2-72.5-192.3-175.7-198.7zM718.5 367.2c-50.4-3.1-88.8-46.6-85.8-96.9 1.5-24.4 12.4-46.8 30.7-63 16.9-14.9 38.1-23 60.5-23 1.9 0 3.8 0 5.7 0.2 24.4 1.5 46.8 12.4 63 30.7s24.3 41.8 22.8 66.2c-3 50.3-46.5 88.7-96.9 85.8zM762.5 241.9c-9.1-10.2-21.6-16.4-35.3-17.2-13.6-1.2-26.8 3.7-37.1 12.8-10.3 9-16.4 21.6-17.2 35.2-1.7 28.2 19.8 52.6 48 54.3 1.1 0.1 2.1 0.1 3.1 0.1 26.9 0 49.5-21 51.2-48.1 0.9-13.7-3.7-26.9-12.7-37.1z" />
<glyph unicode="&#xe94c;" glyph-name="help" d="M958.6 915.7h-893.2c-11.7 0-21.1-10.4-21.1-23.3v-888.9c0-12.9 9.5-23.3 21.1-23.3h893.1c11.7 0 21.1 10.4 21.1 23.3v888.9c0.1 12.9-9.3 23.3-21 23.3zM937.4 26.9h-850.8v842.3h850.8v-842.3zM523.1 297.7c-19.6 0-22.3 14.9-22.3 16 1 40.9 10.2 87.3 89.7 141.9 31.6 21.8 52.8 56.9 56.6 94.1 3.3 32.4-6.8 62.8-28.4 85.3-43.2 45-124.8 49.1-174.6 8.8-52.3-42.3-53.4-100.1-53.5-102.6-0.1-12.3-10.1-22.3-22.4-22.3 0 0 0 0 0 0-12.4 0.1-22.4 10-22.4 22.3 0 3.3 0.7 81.3 70.1 137.4 68.3 55.2 175.9 49.4 235.2-12.6 30.9-32.3 45.3-75.2 40.6-120.9-5.1-50.1-33.5-97.3-75.8-126.5-62.6-43.1-69.6-73.1-70.3-105.1 0-1.1-2.1-15.9-22.5-15.8zM525.5 154.7c-12.4 0-22.4 10-22.4 22.4v34.8c0 12.4 10 22.4 22.4 22.4s22.4-10 22.4-22.4v-34.8c0-12.3-10.1-22.4-22.4-22.4z" />
<glyph unicode="&#xe94d;" glyph-name="94" d="M984.2 561.1h-944.4c-13.2 0-23.9-10.7-23.9-23.9s10.7-23.9 23.9-23.9h944.4c13.2 0 23.9 10.7 23.9 23.9s-10.7 23.9-23.9 23.9zM216.1 739.4c-13.2 0-23.9-10.7-23.9-23.9s10.7-23.9 23.9-23.9h591.7c13.2 0 23.9 10.7 23.9 23.9s-10.7 23.9-23.9 23.9h-591.7zM39.8 870.1h944.4c13.2 0 23.9 10.7 23.9 23.9s-10.7 23.9-23.9 23.9h-944.4c-13.2 0-23.9-10.7-23.9-23.9 0-13.3 10.7-23.9 23.9-23.9zM216.1 25.9c-13.2 0-23.9-10.7-23.9-23.9s10.7-23.9 23.9-23.9h591.7c13.2 0 23.9 10.7 23.9 23.9s-10.7 23.9-23.9 23.9h-591.7zM39.8 156.6h944.4c13.2 0 23.9 10.7 23.9 23.9s-10.7 23.9-23.9 23.9h-944.4c-13.2 0-23.9-10.7-23.9-23.9s10.7-23.9 23.9-23.9zM807.8 334.9h-591.7c-13.2 0-23.9 10.7-23.9 23.9s10.7 23.9 23.9 23.9h591.7c13.2 0 23.9-10.7 23.9-23.9s-10.7-23.9-23.9-23.9z" />
<glyph unicode="&#xe94e;" glyph-name="copy" d="M1007.5 592.6c-0.9 7.9-3.8 15-8.4 20.8l-144 180.7c-4.1 5.2-11.4 11.5-24.1 13.9-2.6 1-5.5 1.6-8.1 1.6h-173.1c-0.7 1.4-0.3 3.1-1.4 4.4l-90.3 108.3c-4.3 5.4-12 11.9-24.5 14-2.3 0.9-4.8 1.3-7 1.4-0.1 0-0.2 0.1-0.3 0.1 0 0-0.1 0-0.1 0-0.1 0-0.2 0-0.2 0h-468.9c-22.7 0-41.1-18.5-41.1-41.2v-769.1c0-22.7 18.5-41.2 41.1-41.2h255.9v-87c0-22.7 18.5-41.2 41.1-41.2h612.8c22.7 0 41.2 18.5 41.2 41.2v588.5c0 1.6-0.2 3.2-0.6 4.8zM965.4 588.2v0c0-0.2 0.1-0.3 0.1-0.5 0-0.4 0.1-0.8 0.1-1.2h-121.5v153.6l121.3-151.9zM597 809.7h-49.6v59.5l49.6-59.5zM58.2 127.5l-1.2 768h448v-85.9h-151c-22.7 0-41.1-18.5-41.1-41.2v-639.9l-254.7-1zM355.3-0.6l-0.2 107.7c0 0.2 0.2 0.2 0.2 0.4s-0.2 0.2-0.2 0.4l-1 659.5h447.7v-202c0-11.7 9.5-21.1 21.1-21.1h142.9l1-543.7-611.5-1.2z" />
<glyph unicode="&#xe94f;" glyph-name="word-image" d="M915.2 74.7h-785.8v613.1c0 1-1 1.7-1.1 2.7-0.4 2.7-1.5 4.6-2.9 7s-2.5 4.4-4.7 6c-0.8 0.6-0.9 1.7-1.8 2.3-1.7 1-3.5 0.2-5.3 0.7-1.7 0.5-2.9 2-4.8 2-1 0-1.6-0.9-2.6-1.1-2.7-0.4-4.7-1.5-7.1-2.9s-4.3-2.5-6-4.7c-0.6-0.8-1.7-0.9-2.3-1.8l-72.2-128.5c-5.6-9.9-2.1-22.4 7.8-28 3.2-1.8 6.6-2.7 10.1-2.7 7.2 0 14.2 3.8 17.9 10.5l33.8 60v-555.1c0-11.4 9.2-20.6 20.6-20.6h806.3c11.4 0 20.6 9.2 20.6 20.6 0 11.3-9.2 20.5-20.5 20.5zM997.6 359.1c-9.9 5.7-22.5 2.1-28-7.8l-33.8-60v550.6c0 11.4-9.2 20.6-20.6 20.6h-806.4c-11.4 0-20.6-9.2-20.6-20.6s9.2-20.6 20.6-20.6h785.7v-608.5c0-1 1-1.7 1.1-2.7 0.4-2.7 1.5-4.6 2.9-7s2.5-4.4 4.7-6c0.8-0.6 0.9-1.7 1.8-2.3 3.2-1.8 6.6-2.7 10.1-2.7 4.8 0 9 2.2 12.8 5.3 1 0.8 1.7 1.6 2.6 2.6 0.8 1 2 1.5 2.6 2.6l72.3 128.4c5.6 9.9 2.1 22.5-7.8 28.1zM396.7 217.8c0.1 0 0.1 0 0.2 0 14.1 0.1 26.1 9.2 30.6 23.1l90.7 280.4 82.2-277.5c4.2-14.2 16.5-23.8 30.7-24 0.1 0 0.2 0 0.4 0 14 0 26.3 9.2 30.8 23l127.5 392.7c3.5 10.8-2.4 22.4-13.2 25.9-10.7 3.4-22.4-2.4-25.9-13.2l-118.8-365.7-82.2 277.5c-4.2 14.2-16.5 23.8-30.7 24-0.1 0-0.2 0-0.4 0-14 0-26.3-9.2-30.8-23.1l-91.2-281.9-123.3 369.4c-3.7 10.8-15.2 16.6-26.1 13-10.8-3.6-16.6-15.3-13-26.1l131.8-394.7c4.7-13.9 16.7-22.8 30.7-22.8z" />
<glyph unicode="&#xe950;" glyph-name="093" d="M884 567.4h-744c-13.9 0-25.2-11.3-25.2-25.2s11.3-25.2 25.2-25.2h744c13.9 0 25.2 11.3 25.2 25.2s-11.3 25.2-25.2 25.2zM140 705.3h466.1c13.9 0 25.2 11.3 25.2 25.2s-11.3 25.2-25.2 25.2h-466.1c-13.9 0-25.2-11.3-25.2-25.2s11.3-25.2 25.2-25.2zM140 328.6h466.1c13.9 0 25.2 11.3 25.2 25.2s-11.3 25.2-25.2 25.2h-466.1c-13.9 0-25.2-11.3-25.2-25.2s11.3-25.2 25.2-25.2zM140 893.7h744c13.9 0 25.2 11.3 25.2 25.2s-11.3 25.2-25.2 25.2h-744c-13.9 0-25.2-11.3-25.2-25.2 0-14 11.3-25.2 25.2-25.2zM140-48.1h466.1c13.9 0 25.2 11.3 25.2 25.2s-11.3 25.2-25.2 25.2h-466.1c-13.9 0-25.2-11.3-25.2-25.2s11.3-25.2 25.2-25.2zM140 140.3h744c13.9 0 25.2 11.3 25.2 25.2s-11.3 25.2-25.2 25.2h-744c-13.9 0-25.2-11.3-25.2-25.2 0-14 11.3-25.2 25.2-25.2z" />
<glyph unicode="&#xe951;" glyph-name="drafts" d="M952 414.3c-2.1 11.6-8.1 18.6-13 22.5l-112.7 89.8v317.3c0 21-17.1 38-38 38h-197v42.1c0 11.1-9 20.2-20.2 20.2h-226.4c-11.1 0-20.2-9-20.2-20.2v-42.1h-216c-21 0-38-17-38-38v-745c0-21 17-38 38-38h129.6v-70.8c0-21 17.1-38 38-38h639.2c21 0 38 17.1 38 38v417c0.1 2.3-0.4 4.8-1.3 7.2zM754.8 532l37.2-29.4c0 0 0.1-0.1 0.1-0.1l95.2-75.3h-132.5v104.8zM364.9 903.7h186.1v-101.8c0-11.1 9-20.2 20.2-20.2h35.4v-40.4h-297.2v40.4h35.4c11.1 0 20.2 9 20.2 20.2v101.8zM111 98.7l-2.4 742.7h216v-19.3h-35.4c-11.1 0-20.2-9-20.2-20.2v-80.7c0-11.1 9-20.2 20.2-20.2h337.5c11.1 0 20.2 9 20.2 20.2v80.8c0 11.1-9 20.2-20.2 20.2h-35.4v19.6l194.7 2.1v-285.1l-7.6 6.1c-5 4.1-11.3 6.8-18.7 7.8-1.7 0.4-3.4 0.7-5 0.7h-478.5c-21 0-38-17-38-38v-434.4l-127.2-2.3zM278.5-10.1l-0.4 90.1c0 0.4 0.4 0.6 0.4 0.9 0 0.4-0.4 0.6-0.4 1l-1.9 450.9h438.3v-125.7c0-11.1 9-20.2 20.2-20.2h178.6l2.2-394.7-637-2.3z" />
<glyph unicode="&#xe952;" glyph-name="insert-paragraph-before" d="M125.7 794.7v-175.3c0-11 8.9-19.9 19.9-19.9s19.9 8.9 19.9 19.9v175.3h89.9c11 0 19.9 8.9 19.9 19.9s-8.9 19.9-19.9 19.9h-219.6c-11 0-19.9-8.9-19.9-19.9s8.9-19.9 19.9-19.9h89.9zM988.2 542.8h-944.5c-11 0-19.9-8.9-19.9-19.9v-440.6c0-11 8.9-19.9 19.9-19.9h469.9c0.9-0.1 1.4-1 2.3-1s1.5 0.8 2.3 1h469.9c11 0 19.9 8.9 19.9 19.9v440.7c0.1 10.9-8.8 19.8-19.8 19.8zM63.6 503.1h904.8v-180.6h-904.8v180.6zM63.6 282.8h432.5v-180.6h-432.5v180.6zM968.4 102.2h-432.6v180.6h432.5v-180.6z" />
<glyph unicode="&#xe953;" glyph-name="insert-paragraph-after" d="M255.3 290.3h-219.5c-11 0-19.9-8.9-19.9-19.9s8.9-19.9 19.9-19.9h89.9v-175.3c0-11 8.9-19.9 19.9-19.9s19.9 8.9 19.9 19.9v175.4h89.9c11 0 19.9 8.9 19.9 19.9-0.1 10.9-9 19.8-20 19.8zM988.2 840.5h-944.5c-11 0-19.9-8.9-19.9-19.9v-440.6c0-11 8.9-19.9 19.9-19.9h469.9c0.9-0.1 1.4-1 2.3-1s1.5 0.8 2.3 1h469.9c11 0 19.9 8.9 19.9 19.9v440.7c0.1 11-8.8 19.8-19.8 19.8zM63.6 800.8h904.8v-180.6h-904.8v180.6zM63.6 580.5h432.5v-180.6h-432.5v180.6zM968.4 399.9h-432.6v180.6h432.5v-180.6z" />
<glyph unicode="&#xe954;" glyph-name="insert-table" d="M987.9 848h-951.8c-11 0-20-8.9-20-20v-760c0-11.1 9-20 20-20h951.8c11 0 20 8.9 20 20v760c0 11.1-9 20-20 20zM373.3 278v150h277.3v-150h-277.3zM650.6 238v-150h-277.3v150h277.3zM967.9 468h-277.3v150h277.3v-150zM650.6 468h-277.3v150h277.3v-150zM333.3 468h-277.2v150h277.2v-150zM56.1 428h277.2v-150h-277.2v150zM690.6 428h277.3v-150h-277.3v150zM56.1 808h911.8v-150h-911.8v150zM56.1 238h277.2v-150h-277.2v150zM967.9 88h-277.3v150h277.3v-150z" />
<glyph unicode="&#xe955;" glyph-name="100" d="M988.8 428.7h-139.5c-10.7 0-19.3 8.6-19.3 19.3s8.6 19.3 19.3 19.3h139.4c10.7 0 19.3-8.6 19.3-19.3s-8.6-19.3-19.2-19.3zM962.3 388.1c-10.7 0-19.3 8.6-19.3 19.3v80.8c0 10.7 8.6 19.3 19.3 19.3s19.3-8.6 19.3-19.3v-80.8c0-10.7-8.6-19.3-19.3-19.3zM810.7 40.9h-775.5c-10.7 0-19.3 8.6-19.3 19.3v775.5c0 10.7 8.6 19.3 19.3 19.3h775.5c10.7 0 19.3-8.6 19.3-19.3v-775.5c0-10.6-8.6-19.3-19.3-19.3zM54.5 79.5h736.9v737h-736.9v-737zM810.7 622.6h-775.5c-10.7 0-19.3 8.6-19.3 19.3s8.6 19.3 19.3 19.3h775.5c10.7 0 19.3-8.6 19.3-19.3s-8.6-19.3-19.3-19.3zM810.7 428.7h-775.5c-10.7 0-19.3 8.6-19.3 19.3s8.6 19.3 19.3 19.3h775.5c10.7 0 19.3-8.6 19.3-19.3s-8.6-19.3-19.3-19.3zM810.7 234.8h-775.5c-10.7 0-19.3 8.6-19.3 19.3s8.6 19.3 19.3 19.3h775.5c10.7 0 19.3-8.6 19.3-19.3s-8.6-19.3-19.3-19.3zM423 824.5h193.9v-750.7h-193.9v750.7zM229.1 54.4c-10.7 0-19.3 8.6-19.3 19.3v750.8c0 10.7 8.6 19.3 19.3 19.3s19.3-8.6 19.3-19.3v-750.7c0-10.7-8.6-19.4-19.3-19.4z" />
<glyph unicode="&#xe956;" glyph-name="99" d="M174.6 428.7h-139.4c-10.7 0-19.3 8.6-19.3 19.3s8.6 19.3 19.3 19.3h139.4c10.7 0 19.3-8.6 19.3-19.3s-8.6-19.3-19.3-19.3zM61.7 388.1c-10.7 0-19.3 8.6-19.3 19.3v80.8c0 10.7 8.6 19.3 19.3 19.3s19.3-8.6 19.3-19.3v-80.8c0-10.7-8.7-19.3-19.3-19.3zM988.8 40.9h-775.6c-10.7 0-19.3 8.6-19.3 19.3v775.5c0 10.7 8.6 19.3 19.3 19.3h775.5c10.7 0 19.3-8.6 19.3-19.3v-775.5c0.1-10.6-8.6-19.3-19.2-19.3zM232.5 79.5h736.9v737h-736.9v-737zM988.8 622.6h-775.6c-10.7 0-19.3 8.6-19.3 19.3s8.6 19.3 19.3 19.3h775.5c10.7 0 19.3-8.6 19.3-19.3s-8.6-19.3-19.2-19.3zM988.8 428.7h-775.6c-10.7 0-19.3 8.6-19.3 19.3s8.6 19.3 19.3 19.3h775.5c10.7 0 19.3-8.6 19.3-19.3s-8.6-19.3-19.2-19.3zM988.8 234.8h-775.6c-10.7 0-19.3 8.6-19.3 19.3s8.6 19.3 19.3 19.3h775.5c10.7 0 19.3-8.6 19.3-19.3 0.1-10.7-8.6-19.3-19.2-19.3zM407.1 824.5h193.9v-750.7h-193.9v750.7zM794.9 54.4c-10.7 0-19.3 8.6-19.3 19.3v750.8c0 10.7 8.6 19.3 19.3 19.3s19.3-8.6 19.3-19.3v-750.7c0-10.7-8.6-19.4-19.3-19.4z" />
<glyph unicode="&#xe957;" glyph-name="101" d="M511.8 765.7c-10.7 0-19.3 8.7-19.3 19.3v139.7c0 10.7 8.7 19.3 19.3 19.3 10.7 0 19.3-8.7 19.3-19.3v-139.7c0-10.7-8.6-19.3-19.3-19.3zM552.5 878.9h-81c-10.7 0-19.3 8.7-19.3 19.3s8.7 19.3 19.3 19.3h81c10.7 0 19.3-8.7 19.3-19.3s-8.6-19.3-19.3-19.3zM900.6-48.1h-777.2c-10.7 0-19.3 8.7-19.3 19.3v777.2c0 10.7 8.7 19.3 19.3 19.3h777.1c10.7 0 19.3-8.7 19.3-19.3v-777.1c0.1-10.7-8.5-19.4-19.2-19.4zM142.8-9.4h738.5v738.5h-738.5v-738.5zM706.3-48.1c-10.7 0-19.3 8.7-19.3 19.3v777.2c0 10.7 8.7 19.3 19.3 19.3s19.3-8.7 19.3-19.3v-777.1c0-10.7-8.6-19.4-19.3-19.4zM512-48.1c-10.7 0-19.3 8.7-19.3 19.3v777.2c0 10.7 8.7 19.3 19.3 19.3 10.7 0 19.3-8.7 19.3-19.3v-777.1c0.1-10.7-8.6-19.4-19.3-19.4zM317.7-48.1c-10.7 0-19.3 8.7-19.3 19.3v777.2c0 10.7 8.7 19.3 19.3 19.3 10.7 0 19.3-8.7 19.3-19.3v-777.1c0-10.7-8.6-19.4-19.3-19.4zM136.9 359.8h752.3v-194.3h-752.3v194.3zM889.3 534.8h-752.3c-10.7 0-19.3 8.7-19.3 19.3s8.7 19.3 19.3 19.3h752.3c10.7 0 19.3-8.7 19.3-19.3s-8.6-19.3-19.3-19.3z" />
<glyph unicode="&#xe958;" glyph-name="102" d="M511.8-48.1c-10.7 0-19.3 8.7-19.3 19.3v139.8c0 10.7 8.7 19.3 19.3 19.3 10.7 0 19.3-8.7 19.3-19.3v-139.7c0-10.7-8.6-19.4-19.3-19.4zM552.5-21.6h-81c-10.7 0-19.3 8.7-19.3 19.3s8.7 19.3 19.3 19.3h81c10.7 0 19.3-8.7 19.3-19.3s-8.6-19.3-19.3-19.3zM900.6 128.3h-777.2c-10.7 0-19.3 8.7-19.3 19.3v777.1c0 10.7 8.7 19.3 19.3 19.3h777.1c10.7 0 19.3-8.7 19.3-19.3v-777.1c0.1-10.7-8.5-19.3-19.2-19.3zM142.8 167h738.5v738.4h-738.5v-738.4zM706.3 128.3c-10.7 0-19.3 8.7-19.3 19.3v777.1c0 10.7 8.7 19.3 19.3 19.3s19.3-8.7 19.3-19.3v-777.1c0-10.7-8.6-19.3-19.3-19.3zM512 128.3c-10.7 0-19.3 8.7-19.3 19.3v777.1c0 10.7 8.7 19.3 19.3 19.3 10.7 0 19.3-8.7 19.3-19.3v-777.1c0.1-10.7-8.6-19.3-19.3-19.3zM317.7 128.3c-10.7 0-19.3 8.7-19.3 19.3v777.1c0 10.7 8.7 19.3 19.3 19.3 10.7 0 19.3-8.7 19.3-19.3v-777.1c0-10.7-8.6-19.3-19.3-19.3zM136.9 730.4h752.3v-194.3h-752.3v194.3zM889.3 322.5h-752.3c-10.7 0-19.3 8.7-19.3 19.3 0 10.7 8.7 19.3 19.3 19.3h752.3c10.7 0 19.3-8.7 19.3-19.3s-8.6-19.3-19.3-19.3z" />
</font>
</defs>
</svg>
